<svg width="100" height="100" viewBox="0 0 100 100" fill="none" xmlns="http://www.w3.org/2000/svg">
<path fill-rule="evenodd" clip-rule="evenodd" d="M18 0H81C86.5228 0 91 4.48998 91 10.0287V89.9713C91 95.51 86.5228 100 81 100H18C12.4772 100 8 95.51 8 89.9713V10.0287C8 4.48998 12.4772 0 18 0ZM18 4.29799C14.8441 4.29799 12.2857 6.8637 12.2857 10.0287V68.0914C13.8022 66.7302 15.8047 65.9026 18 65.9026H22L22 4.29799H18ZM27.7143 65.9026H81C83.1953 65.9026 85.1978 66.7302 86.7143 68.0914V10.0287C86.7143 6.8637 84.1559 4.29799 81 4.29799H27.7143L27.7143 65.9026ZM86.7143 74.4986C86.7143 71.3336 84.1559 68.7679 81 68.7679H54.8571L54.8571 85.671C54.8573 86.2506 54.8575 86.8425 54.7835 87.3174C54.7 87.8527 54.4692 88.6047 53.7003 89.0576C52.9546 89.497 52.1971 89.3593 51.6943 89.2025C51.2296 89.0576 50.6858 88.7983 50.1352 88.5358L44.1438 85.6819C44.045 85.6348 43.9697 85.599 43.9047 85.5691C43.8398 85.599 43.7645 85.6348 43.6657 85.6819L37.6748 88.5355C37.1241 88.7982 36.5801 89.0575 36.1152 89.2025C35.6122 89.3593 34.8549 89.4969 34.1092 89.0578C33.3401 88.6048 33.1094 87.8525 33.0259 87.3173C32.9519 86.8424 32.9521 86.2506 32.9523 85.671L32.9524 68.7679H18C14.8441 68.7679 12.2857 71.3336 12.2857 74.4986V89.9713C12.2857 93.1363 14.8441 95.702 18 95.702H81C84.1559 95.702 86.7143 93.1363 86.7143 89.9713V74.4986ZM35.8095 68.7679V85.5821C35.8095 85.8397 35.8096 86.0563 35.8125 86.2456C36.0139 86.1545 36.2446 86.0447 36.5244 85.9114L36.5247 85.9112L42.4399 83.0937C42.4531 83.0874 42.4667 83.0808 42.4809 83.074C42.4939 83.0677 42.5073 83.0612 42.521 83.0545L42.5266 83.0518L42.5273 83.0514C42.8364 82.901 43.3395 82.6562 43.9047 82.6562C44.47 82.6562 44.9731 82.901 45.2822 83.0514C45.3133 83.0666 45.3425 83.0808 45.3695 83.0936L51.285 85.9113C51.5649 86.0447 51.7956 86.1545 51.997 86.2456C51.9999 86.0563 52 85.8397 52 85.5821V68.7679H35.8095Z" fill="white"/>
</svg>
