<svg width="86" height="104" viewBox="0 0 86 104" fill="none" xmlns="http://www.w3.org/2000/svg">
<path fill-rule="evenodd" clip-rule="evenodd" d="M71.5961 5.5C71.5961 8.53757 58.6123 11 42.5961 11C26.5798 11 13.5961 8.53757 13.5961 5.5C13.5961 2.46243 26.5798 0 42.5961 0C58.6123 0 71.5961 2.46243 71.5961 5.5ZM42.5961 2C50.318 2 72.0961 3.65362 62.139 5.5C57.2167 6.41276 50.318 7 42.5961 7C34.8741 7 27.9755 6.41276 23.0532 5.5C11.5961 4 34.8741 2 42.5961 2Z" fill="#D9D9D9"/>
<path d="M26 69.0691C26 79.0102 33.6111 87.0691 43 87.0691C52.3889 87.0691 60 79.0102 60 69.0691H26Z" fill="#D9D9D9"/>
<path d="M18.0522 55.0585C18.321 58.7402 21.996 61.3938 25.2071 60.9522L25.2341 60.9485L25.2612 60.9462C28.5738 60.6732 30.6895 57.6557 30.2787 55.3034L30.2734 55.2734L30.27 55.2431C29.992 52.77 27.468 51.1974 25.5335 51.572L25.5061 51.5773L25.4785 51.5811C23.4231 51.8613 22.4499 53.7461 22.7559 54.8683L22.7642 54.8988L22.7706 54.9298C22.897 55.5439 23.2785 55.9964 23.7458 56.2631C24.2376 56.5439 24.7212 56.565 24.9983 56.4632L25.0301 56.4515L25.0627 56.442C25.3123 56.369 25.4738 56.2437 25.5741 56.1143L24.4397 56.2192L24.3476 55.2234C24.3046 54.758 24.5106 54.3716 24.78 54.1262C25.0368 53.8922 25.354 53.7744 25.6507 53.7405C26.2608 53.6706 26.9224 53.9333 27.3411 54.5491C27.8325 55.2044 27.7903 56.0728 27.5147 56.7257C27.214 57.4379 26.5843 58.0706 25.6558 58.3521C24.7126 58.6855 23.6261 58.4977 22.7543 58C21.8553 57.4868 21.08 56.5891 20.8181 55.3635C20.1779 52.9313 22.1255 50.0355 25.1808 49.6032C28.2121 49.0344 31.8265 51.3499 32.254 54.9895C32.8659 58.6128 29.7774 62.5654 25.4525 62.9372C21.1643 63.5099 16.4322 60.0918 16.0597 55.2333C15.4412 50.408 19.6637 45.3763 25.2613 45.0524C30.8197 44.4591 36.6913 48.9919 36.9987 55.0809L37.0492 56.0797L35.0517 56.1805L35.0013 55.1818C34.7544 50.2913 29.9344 46.5515 25.4524 47.0434L25.4255 47.0463L25.3984 47.0478C20.8218 47.3 17.5736 51.4262 18.0462 55.0003L18.05 55.0293L18.0522 55.0585Z" fill="#D9D9D9"/>
<path d="M60.7929 60.9522C64.004 61.3938 67.679 58.7402 67.9478 55.0585L67.95 55.0293L67.9538 55.0003C68.4264 51.4262 65.1782 47.3 60.6016 47.0478L60.5745 47.0463L60.5476 47.0434C56.0656 46.5515 51.2456 50.2913 50.9987 55.1818L50.9483 56.1805L48.9508 56.0797L49.0013 55.0809C49.3087 48.9919 55.1803 44.4591 60.7387 45.0524C66.3363 45.3763 70.5588 50.408 69.9403 55.2333C69.5678 60.0918 64.8357 63.5099 60.5475 62.9372C56.2226 62.5654 53.1341 58.6128 53.746 54.9895C54.1735 51.3499 57.7879 49.0344 60.8192 49.6032C63.8745 50.0355 65.8221 52.9313 65.1819 55.3635C64.92 56.5891 64.1447 57.4868 63.2457 58C62.3739 58.4977 61.2874 58.6855 60.3442 58.3521C59.4157 58.0706 58.786 57.4379 58.4853 56.7257C58.2097 56.0728 58.1675 55.2044 58.6589 54.5491C59.0776 53.9333 59.7392 53.6706 60.3493 53.7405C60.646 53.7744 60.9632 53.8922 61.22 54.1262C61.4894 54.3716 61.6954 54.758 61.6524 55.2234L61.5603 56.2192L60.4259 56.1143C60.5262 56.2437 60.6877 56.369 60.9373 56.442L60.9699 56.4515L61.0017 56.4632C61.2788 56.565 61.7624 56.5439 62.2542 56.2631C62.7215 55.9964 63.103 55.5439 63.2294 54.9298L63.2358 54.8988L63.2441 54.8683C63.5501 53.7461 62.5769 51.8613 60.5215 51.5811L60.4939 51.5773L60.4665 51.572C58.532 51.1974 56.008 52.77 55.73 55.2431L55.7266 55.2734L55.7213 55.3034C55.3105 57.6557 57.4262 60.6732 60.7388 60.9462L60.7659 60.9485L60.7929 60.9522Z" fill="#D9D9D9"/>
<path fill-rule="evenodd" clip-rule="evenodd" d="M43 103.069C66.7482 103.069 86 83.8173 86 60.0691C86 36.3208 66.7482 17.0691 43 17.0691C19.2518 17.0691 0 36.3208 0 60.0691C0 83.8173 19.2518 103.069 43 103.069ZM43 98.0691C63.9868 98.0691 81 81.0559 81 60.0691C81 39.0823 63.9868 22.0691 43 22.0691C22.0132 22.0691 5 39.0823 5 60.0691C5 81.0559 22.0132 98.0691 43 98.0691Z" fill="#D9D9D9"/>
</svg>
