<svg width="100" height="100" viewBox="0 0 100 100" fill="none" xmlns="http://www.w3.org/2000/svg">
<g clip-path="url(#clip0_182_975)">
<path d="M100 0H79.1667L50 29.1667L20.8333 0H0V20.8333L29.1667 50L22.2121 56.9545L17.8939 52.6515L8.21212 62.3182L18.5303 72.6364L8.83333 82.3182H0V100H17.6818V91.1667L27.3636 81.4697L37.6818 91.7879L47.3485 82.1061L43.0455 77.7879L50 70.8333L56.9545 77.7879L52.6515 82.1061L62.3182 91.7879L72.6364 81.4697L82.3182 91.1667V100H100V82.3182H91.1667L81.4697 72.6364L91.7879 62.3182L82.1061 52.6515L77.7879 56.9545L70.8333 50L100 20.8333V0ZM77.7879 63.3939L81.0152 60.1818L82.1061 59.0758L85.3636 62.3182L78.2576 69.4242L75.0455 72.6364L78.2576 75.8485L87.9545 85.5303L89.2727 86.8636H95.4545V95.4545H86.8636V89.2727L85.5303 87.9545L75.8485 78.2576L72.6364 75.0455L69.4242 78.2576L62.3182 85.3636L59.0909 82.1061L60.197 81.0152L63.4091 77.7879L60.197 74.5758L4.54545 18.9545V4.54545H18.9545L74.5758 60.1818L77.7879 63.3939Z" fill="black"/>
</g>
<defs>
<clipPath id="clip0_182_975">
<rect width="100" height="100" fill="white"/>
</clipPath>
</defs>
</svg>
