<svg width="428" height="262" viewBox="0 0 428 262" fill="none" xmlns="http://www.w3.org/2000/svg">
<g clip-path="url(#clip0_140_1254)">
<path d="M427.89 176.05C427.8 176.21 427.63 176.36 427.62 176.52C427.41 178.335 426.72 180.061 425.62 181.52C424.785 182.769 423.873 183.964 422.89 185.1C416.338 192.678 409.343 199.861 401.94 206.61C400.31 208.07 398.58 209.41 396.88 210.79C395.88 211.62 394.75 212.34 393.81 213.25C393.267 213.773 392.594 214.142 391.861 214.318C391.128 214.493 390.361 214.47 389.64 214.25C388.3 213.96 386.96 213.65 385.64 213.39C384.64 213.19 383.64 213.02 382.64 212.89C382.117 212.86 381.593 212.86 381.07 212.89C380.86 213.673 380.696 214.468 380.58 215.27C380.34 216.56 380.09 217.85 379.82 219.13C379.548 220.427 378.877 221.605 377.9 222.5C377.53 222.84 377.17 223.19 376.79 223.5C370.898 228.573 364.43 232.936 357.52 236.5C356.514 237.006 355.483 237.46 354.43 237.86C352.43 238.65 350.32 239.38 348.29 240.18C346.209 241.109 343.856 241.23 341.69 240.52C340.921 240.243 340.098 240.15 339.287 240.249C338.476 240.348 337.699 240.636 337.02 241.09C336.051 241.661 335.119 242.292 334.23 242.98C332.911 244.049 331.342 244.765 329.67 245.06C326.714 245.616 323.812 246.433 321 247.5C318.53 248.39 316 249.16 313.54 250.04C312.988 250.265 312.393 250.364 311.797 250.329C311.202 250.295 310.622 250.128 310.1 249.84C308.46 248.93 306.79 248.05 305.25 246.99C302.264 244.918 299.476 242.575 296.92 239.99C296 239.06 295.07 238.12 294.13 237.21C293.59 236.69 293.02 236.21 292.41 235.66C291.985 235.783 291.58 235.968 291.21 236.21C290.198 237.042 289.255 237.955 288.39 238.94C284.94 243.15 281.57 247.43 278.14 251.66C276.96 253.11 275.72 254.53 274.45 255.9C271.647 258.921 267.767 260.717 263.65 260.9C258.71 261.26 253.77 261.38 248.82 261.38C245.877 261.358 242.954 260.892 240.15 260C234.77 258.36 229.37 256.76 223.98 255.15C220.799 254.192 217.492 253.717 214.17 253.74C211.79 253.74 209.41 253.74 207.04 253.74C205.16 253.673 203.29 253.523 201.43 253.29C199.757 253.029 198.13 252.527 196.6 251.8C193.761 250.491 190.834 249.381 187.84 248.48L187.3 248.3C184.788 247.478 182.089 247.412 179.54 248.11C177.25 248.73 174.91 249.18 172.61 249.79C170.848 250.241 169.004 250.269 167.23 249.87C159.32 248.28 151.5 246.28 143.74 244.07C135.02 241.597 126.303 239.1 117.59 236.58C116.87 236.38 116.17 236.11 115.46 235.88C114.783 235.695 114.178 235.31 113.724 234.774C113.271 234.239 112.99 233.578 112.92 232.88C112.62 231.02 112.3 229.18 111.92 227.33C111.796 226.142 111.528 224.973 111.12 223.85C110.274 223.605 109.376 223.605 108.53 223.85C106.95 224.21 105.37 224.62 103.83 225.12C102.06 225.74 100.24 226.208 98.39 226.52C97.4662 226.709 96.5138 226.709 95.59 226.52C93.78 226.04 91.94 225.63 90.16 225.05C84.3002 223.248 78.3314 221.822 72.29 220.78C68.79 220.1 65.29 219.38 61.79 218.78C59.39 218.35 56.97 218.02 54.55 217.78C50.447 217.334 46.3711 216.666 42.34 215.78C38.455 214.811 34.5189 214.06 30.55 213.53C25.4651 212.775 20.3012 212.715 15.2 213.35C10.7039 213.875 6.41397 215.53 2.73002 218.16C2.4382 218.397 2.11931 218.598 1.78002 218.76C1.58163 218.85 1.36317 218.888 1.14598 218.869C0.928796 218.849 0.720324 218.774 0.540947 218.65C0.36157 218.526 0.217427 218.358 0.122612 218.161C0.0277977 217.965 -0.0144441 217.748 1.68721e-05 217.53C-0.0233115 216.907 0.0892934 216.286 0.330017 215.71C0.865675 214.581 1.48751 213.494 2.19002 212.46C3.59721 210.522 5.31743 208.832 7.28002 207.46C11.4949 204.392 16.2416 202.13 21.28 200.79C27.13 199.2 33.02 197.79 38.9 196.27C44.97 194.75 51.12 193.58 57.31 192.66C60.31 192.2 63.38 191.82 66.43 191.48C72.58 190.77 78.72 189.95 84.8 188.78C92.11 187.37 99.38 185.78 106.6 183.97C112.842 182.368 118.932 180.224 124.8 177.56C126.06 176.99 127.34 176.49 128.6 175.95C129.823 175.444 131.197 175.444 132.42 175.95C136.031 177.337 139.564 178.923 143 180.7C145.51 181.96 148 183.25 150.56 184.45C152.185 185.231 153.854 185.916 155.56 186.5C162.813 188.88 170.073 191.213 177.34 193.5C181.666 194.962 186.104 196.069 190.61 196.81C192.34 197.086 194.088 197.233 195.84 197.25C203.73 197.25 211.62 197.17 219.5 197C224.38 196.812 229.24 196.267 234.04 195.37C243.62 193.73 252.91 190.99 262.21 188.26C268.872 186.292 275.36 183.781 281.61 180.75C285.56 178.85 289.51 176.96 293.49 175.14C299.827 172.125 305.822 168.438 311.37 164.14C312.52 163.27 313.7 162.45 314.86 161.59C315.753 160.949 316.772 160.505 317.85 160.29C318.928 160.074 320.039 160.091 321.11 160.34C325.41 161.14 329.71 161.95 334.02 162.71C337.02 163.23 339.95 163.71 342.92 164.15C346.76 164.75 350.49 165.81 354.24 166.77C359.813 168.26 365.499 169.29 371.24 169.85C374.174 170.077 377.119 170.144 380.06 170.05C384.06 169.983 388.06 169.827 392.06 169.58C396.431 169.252 400.754 168.447 404.95 167.18C408.051 166.195 411.219 165.437 414.43 164.91C416.909 164.503 419.45 164.678 421.85 165.42C423.291 165.865 424.584 166.692 425.591 167.814C426.598 168.936 427.282 170.31 427.57 171.79C427.645 171.954 427.739 172.108 427.85 172.25L427.89 176.05ZM314.33 239.53C311.95 237.87 309.71 236.27 307.43 234.74C304.919 233.082 302.645 231.091 300.67 228.82C300.02 228.06 299.36 227.31 298.67 226.61C298.272 226.217 297.804 225.901 297.29 225.68C297.026 225.57 296.733 225.552 296.458 225.628C296.182 225.704 295.94 225.87 295.77 226.1C295.569 226.303 295.439 226.565 295.398 226.847C295.356 227.13 295.406 227.418 295.54 227.67C295.757 228.05 296.004 228.411 296.28 228.75C298.866 232.296 302.042 235.371 305.67 237.84C307.547 238.974 309.33 240.259 311 241.68C311.741 242.393 312.673 242.876 313.683 243.069C314.693 243.263 315.738 243.159 316.69 242.77C320.527 241.465 324.483 240.537 328.5 240C329.383 239.917 330.206 239.519 330.82 238.88C331.255 238.434 331.656 237.956 332.02 237.45C332.7 236.55 333.34 235.62 334.02 234.72C334.718 233.737 335.754 233.047 336.93 232.78C340.148 231.873 343.576 232.056 346.68 233.3C347.2 233.52 347.68 233.72 348.23 233.96C348.686 234.17 349.183 234.279 349.685 234.279C350.187 234.279 350.684 234.17 351.14 233.96C355.423 232.366 359.504 230.275 363.3 227.73L370.49 222.64C371.061 222.243 371.497 221.682 371.74 221.03C371.92 220.56 372.06 220.08 372.2 219.61C373.334 215.828 374.005 211.923 374.2 207.98C374.23 207.59 374.283 207.203 374.36 206.82C375.89 206.82 377.36 206.92 378.74 207.02C381.49 207.2 384.24 207.33 386.98 207.51C388.62 207.602 390.232 207.058 391.48 205.99C397.756 201.213 403.535 195.815 408.73 189.88C410.549 187.894 412.145 185.714 413.49 183.38C414.72 181.13 415.82 178.81 416.96 176.51C417.36 175.795 417.531 174.975 417.45 174.16C417.45 173.93 417.45 173.64 416.96 173.61C416.58 174.32 416.21 175.09 415.77 175.81C414.96 177.15 414.08 178.45 413.29 179.81C411.42 182.997 409.174 185.948 406.6 188.6C403.818 191.658 400.77 194.463 397.49 196.98C396.68 197.56 395.97 198.28 395.18 198.89C393.39 200.26 391.57 201.58 389.78 202.94C389.179 203.398 388.435 203.628 387.68 203.59C386.49 203.59 385.3 203.59 384.11 203.59C381.67 203.5 379.23 203.36 376.79 203.29C375.543 203.252 374.294 203.278 373.05 203.37C372.548 203.388 372.069 203.581 371.695 203.915C371.32 204.249 371.074 204.704 371 205.2C370.892 205.878 370.828 206.563 370.81 207.25C370.663 211.361 369.967 215.434 368.74 219.36C367.12 220.51 365.52 221.6 363.96 222.74C360.997 224.947 357.821 226.853 354.48 228.43C352.95 229.13 351.41 229.81 349.94 230.43C349.6 230.325 349.266 230.202 348.94 230.06C345.468 228.406 341.562 227.892 337.78 228.59C336.343 228.736 334.955 229.194 333.714 229.931C332.472 230.669 331.406 231.668 330.59 232.86C330.04 233.7 329.41 234.48 328.86 235.31C328.7 235.578 328.477 235.802 328.21 235.964C327.943 236.126 327.641 236.221 327.33 236.24C325.588 236.438 323.868 236.793 322.19 237.3L314.33 239.53ZM266.78 251.79C265.996 251.511 265.148 251.47 264.34 251.67C261.49 252.086 258.61 252.273 255.73 252.23C253.23 252.16 250.73 252.05 248.24 251.82C244.74 251.534 241.319 250.623 238.14 249.13C236.45 248.32 234.76 247.51 233.03 246.78C231.547 246.126 230.024 245.568 228.47 245.11C223.086 243.632 217.472 243.178 211.92 243.77C210.11 243.98 208.275 243.754 206.57 243.11C204.76 242.42 202.98 241.66 201.2 240.89C199.42 240.12 197.56 239.24 195.74 238.4C193.291 237.254 190.587 236.758 187.89 236.96C185.15 237.18 182.41 237.46 179.69 237.86C177.28 238.22 174.9 238.78 172.52 239.28C171.603 239.48 170.655 239.5 169.73 239.34C164.36 238.47 159 237.55 153.73 236.15C146.97 234.35 140.09 233.03 133.43 230.83C132.72 230.59 132 230.37 131.28 230.17C130.924 230.055 130.554 229.988 130.18 229.97C129.86 229.962 129.545 230.054 129.28 230.234C129.015 230.413 128.812 230.67 128.7 230.97C128.567 231.259 128.534 231.584 128.607 231.894C128.679 232.203 128.853 232.48 129.1 232.68C129.489 232.99 129.929 233.23 130.4 233.39C133.61 234.39 136.82 235.47 140.06 236.39C142.82 237.19 145.62 237.84 148.39 238.6C154.39 240.24 160.31 241.94 166.39 243.13C169.509 243.825 172.745 243.794 175.85 243.04C179.858 242.041 183.954 241.438 188.08 241.24C190.086 241.086 192.099 241.43 193.94 242.24C195.71 243.03 197.47 243.85 199.25 244.62C201.03 245.39 202.81 246.13 204.62 246.82C207.142 247.803 209.889 248.059 212.55 247.56C215.144 247.094 217.791 247.006 220.41 247.3C220.78 247.3 221.15 247.36 221.53 247.39C225.14 247.61 228.683 248.459 232 249.9C234.12 250.83 236.26 251.72 238.44 252.48C240.024 253.063 241.662 253.485 243.33 253.74C250.103 254.66 256.985 254.379 263.66 252.91C264.774 252.787 265.843 252.404 266.78 251.79ZM114 212.19C113.975 212.106 113.932 212.029 113.875 211.962C113.818 211.896 113.747 211.842 113.668 211.805C113.589 211.767 113.503 211.746 113.416 211.744C113.328 211.741 113.241 211.757 113.16 211.79C112.422 211.911 111.693 212.085 110.98 212.31C108.43 213.16 105.89 214.05 103.36 214.93C102.36 215.27 101.36 215.61 100.36 215.93C99.8258 216.095 99.2542 216.095 98.72 215.93C95.84 215.34 92.96 214.79 90.07 214.26C85.83 213.48 81.56 212.85 77.35 211.94C70.69 210.51 64.08 208.88 57.35 208.05C53.69 207.6 50.06 206.96 46.35 206.5C44.35 206.24 42.24 206.14 40.18 206.06C39.4315 206.066 38.6876 206.177 37.97 206.39C37.6927 206.45 37.4478 206.612 37.2832 206.843C37.1186 207.074 37.0462 207.358 37.08 207.64C37.1492 207.915 37.3118 208.157 37.5399 208.324C37.7679 208.492 38.0473 208.576 38.33 208.56C38.46 208.56 38.58 208.56 38.71 208.56C40.64 208.67 42.58 208.67 44.5 208.92C48.4 209.42 52.29 210.05 56.18 210.63C58.18 210.92 60.18 211.15 62.11 211.54C69.52 213 76.8 215.1 84.26 216.34C88.82 217.1 93.37 217.92 97.93 218.71C98.7327 218.846 99.5581 218.717 100.28 218.34C102.86 217.08 105.48 215.89 108.1 214.71C109.81 213.94 111.55 213.25 113.27 212.51C113.519 212.417 113.763 212.31 114 212.19Z" fill="#DAC0A3"/>
<path d="M188.36 30.37C188.024 30.3843 187.689 30.4278 187.36 30.5C184.596 31.3389 182.043 32.757 179.87 34.66C178.97 35.53 177.99 36.3 177.07 37.15C174.187 39.757 171.698 42.7683 169.68 46.09C169.368 46.6332 169.01 47.1485 168.61 47.63C168.35 47.9922 167.965 48.2456 167.529 48.3415C167.094 48.4375 166.638 48.3693 166.25 48.15C165.617 47.8837 165.003 47.5763 164.41 47.23C164.008 47.0381 163.69 46.7044 163.518 46.2929C163.347 45.8814 163.333 45.421 163.48 45C163.613 44.452 163.818 43.9241 164.09 43.43C165.09 41.58 166.16 39.72 167.26 37.9C168.78 35.38 170.34 32.9 171.91 30.4C172.593 29.3487 173.011 28.1479 173.13 26.9C173.128 26.4971 173.088 26.0953 173.01 25.7C172.876 25.6045 172.732 25.524 172.58 25.46C170.3 24.91 170.03 24.99 168.58 26.8C166.7 29.1455 165.131 31.7234 163.91 34.47C163.01 36.47 162.13 38.47 161.38 40.53C160.96 41.7833 160.076 42.8282 158.91 43.45C157.82 44.06 156.76 44.72 155.68 45.36C155.466 45.4911 155.242 45.6048 155.01 45.7C154.782 45.8094 154.531 45.8634 154.277 45.8575C154.024 45.8516 153.776 45.7861 153.553 45.6663C153.33 45.5464 153.138 45.3756 152.993 45.1678C152.849 44.9599 152.755 44.7209 152.72 44.47C152.631 43.9147 152.598 43.3519 152.62 42.79C152.62 40.98 152.62 39.16 152.57 37.35C152.625 36.8692 152.492 36.3856 152.2 36C151.867 35.8789 151.5 35.8927 151.176 36.0384C150.853 36.1841 150.6 36.4502 150.47 36.78C150.138 37.4538 149.851 38.1486 149.61 38.86C149.269 39.8004 148.979 40.7585 148.74 41.73C148.113 43.8112 147.19 45.7915 146 47.61C145.651 48.2099 145.17 48.7219 144.593 49.1067C144.016 49.4916 143.358 49.739 142.67 49.83C141.443 50.0691 140.199 50.2095 138.95 50.25C136.26 50.31 133.56 50.31 130.87 50.25C128.989 50.1836 127.116 50.5247 125.38 51.25C123.88 51.86 122.38 52.4 120.87 53.09C119.171 53.9062 117.292 54.2778 115.41 54.17C112.16 53.98 108.92 53.75 105.67 53.49C104.12 53.37 102.56 53.17 101.01 52.98C100.067 52.8474 99.1089 53.0877 98.34 53.65C97.471 54.2582 96.6456 54.9265 95.87 55.65C93.07 58.42 90.28 61.22 87.55 64.06C85.65 66.06 83.83 68.06 81.98 70.15C80.0777 72.2332 77.9553 74.1041 75.65 75.73C74.9026 76.2577 74.0889 76.6847 73.23 77C72.855 77.1674 72.4467 77.247 72.0363 77.2328C71.6259 77.2186 71.2241 77.111 70.8616 76.9182C70.499 76.7253 70.1852 76.4523 69.9441 76.1199C69.7029 75.7875 69.5408 75.4045 69.47 75C69.2106 73.9026 69.1597 72.7662 69.32 71.65C69.534 69.1467 70.2122 66.7051 71.32 64.45C72.52 62.05 73.74 59.65 75.1 57.33C77.21 53.71 79.44 50.16 81.61 46.58C82.03 45.88 82.4 45.16 82.78 44.44C84.8685 40.3053 87.3286 36.3691 90.13 32.68C91.25 31.26 92.45 29.89 93.7 28.57C95.5083 26.6412 97.852 25.2969 100.43 24.71C103.96 23.88 107.43 22.9 111.01 22.15C115.462 21.1443 119.756 19.5326 123.77 17.36C134.87 11.58 146.11 6.11 157.65 1.24C160.336 0.0474387 163.321 -0.30128 166.21 0.240003C172.21 1.33 178.33 2.09 184.39 2.99C185.26 3.12 186.12 3.27 186.98 3.42C188.397 3.66894 189.755 4.18474 190.98 4.94C198.796 9.66793 206.895 13.9126 215.23 17.65C219.1 19.42 222.89 21.35 226.71 23.22C227.49 23.6 228.25 24.04 229.04 24.43C232.198 25.9966 234.93 28.306 237 31.16C240.5 35.87 244.16 40.48 247.78 45.16C248.7 46.34 249.68 47.49 250.67 48.62C251.815 49.9443 252.704 51.4704 253.29 53.12C254.68 56.87 256.17 60.59 257.63 64.32C257.884 65.0261 258.178 65.7173 258.51 66.39C261.32 71.8 263.03 77.62 264.92 83.39C264.92 83.45 264.92 83.51 264.97 83.57C266.825 89.9399 269.515 96.0362 272.97 101.7C274.61 104.36 276.04 107.15 277.57 109.88C280.33 114.79 283.04 119.72 285.87 124.59C287.095 126.628 287.783 128.944 287.87 131.32C287.84 133.691 288.178 136.052 288.87 138.32C289.06 138.84 289.2 139.39 289.42 139.91C289.693 140.55 289.813 141.245 289.77 141.94C289.726 142.634 289.521 143.309 289.17 143.91C288.212 145.757 286.73 147.281 284.91 148.29C284.081 148.724 283.23 149.115 282.36 149.46C276.101 152.018 269.62 153.996 263 155.37C258.17 156.37 253.35 157.49 248.46 158.22C244.827 158.85 241.147 159.168 237.46 159.17C232.64 159.07 227.83 158.97 223.01 158.75C220.203 158.524 217.434 157.963 214.76 157.08C213.98 156.86 213.18 156.67 212.4 156.46C210.928 156.086 209.373 156.223 207.99 156.85C206.73 157.38 205.49 157.99 204.24 158.55C202.99 159.11 201.52 159.81 200.13 160.37C197.562 161.427 194.757 161.772 192.01 161.37C183.54 160.14 175.06 158.9 166.7 156.96C161.632 155.854 156.702 154.19 152 152L150.32 151.17C149.754 150.897 149.26 150.497 148.874 150C148.489 149.504 148.224 148.926 148.1 148.31C147.937 147.577 147.814 146.836 147.73 146.09C147.53 144.29 147.34 142.48 147.18 140.68C147.1 140.126 147.1 139.564 147.18 139.01C147.47 137.54 147.77 136.07 148.18 134.63C149.71 129.27 150.76 123.8 151.79 118.33C152.3 115.63 152.79 112.92 153.36 110.23C153.755 108.203 153.976 106.145 154.02 104.08C154.15 99.14 154.33 94.2 154.4 89.26C154.433 85.9956 155.177 82.7775 156.58 79.83C158.3 76.22 159.94 72.57 161.7 68.97C163.025 66.2752 163.999 63.4221 164.6 60.48C164.903 59.0076 165.566 57.6332 166.53 56.48C168.624 53.9096 170.875 51.4716 173.27 49.18C177.34 45.29 181.27 41.25 185.27 37.26C185.89 36.6402 186.458 35.9713 186.97 35.26C187.964 33.8296 188.453 32.1091 188.36 30.37ZM182.3 145.62C182.11 145.41 182.05 145.28 181.95 145.23C179.19 143.76 176.42 142.32 173.67 140.84C172.29 140.1 170.9 139.37 169.59 138.51C168.467 137.817 167.526 136.864 166.849 135.73C166.172 134.597 165.778 133.318 165.7 132C165.583 130.443 165.547 128.881 165.59 127.32C165.75 122.38 165.97 117.44 166.16 112.5C166.4 105.87 166.62 99.24 166.89 92.61C166.97 90.55 167.17 88.49 167.33 86.44C167.589 83.506 168.242 80.6201 169.27 77.86C169.92 76.1 170.58 74.34 171.18 72.57C171.485 71.6813 171.713 70.7679 171.86 69.84C171.932 69.285 171.877 68.7208 171.7 68.19C171.616 67.952 171.477 67.7371 171.294 67.5631C171.112 67.389 170.89 67.2607 170.648 67.1885C170.407 67.1164 170.151 67.1024 169.903 67.1479C169.655 67.1933 169.421 67.2968 169.22 67.45C168.865 67.7232 168.566 68.0628 168.34 68.45C167.937 69.0873 167.586 69.7561 167.29 70.45C165.982 73.497 164.909 76.6395 164.08 79.85C163.803 80.9404 163.609 82.0502 163.5 83.17C163.11 87.98 162.71 92.78 162.41 97.59C161.75 108.02 161.6 118.47 161.41 128.92C161.38 130.233 161.44 131.546 161.59 132.85C161.97 136.14 163.37 138.85 166.44 140.41C170.759 142.83 175.455 144.503 180.33 145.36C181 145.38 181.57 145.5 182.3 145.62ZM175.3 61.08C176.81 60.8476 178.208 60.1482 179.3 59.08C180.81 57.58 182.39 56.15 183.77 54.54C188.61 48.89 193.46 43.24 198 37.34C198.49 36.69 198.95 36.02 199.41 35.34C200.244 34.1462 200.6 32.6836 200.41 31.24C200.167 29.5047 199.734 27.8012 199.12 26.16C199.016 25.8669 198.864 25.5931 198.67 25.35C198.495 25.1062 198.258 24.9141 197.983 24.7938C197.708 24.6735 197.406 24.6294 197.108 24.6663C196.81 24.7031 196.528 24.8195 196.291 25.0031C196.054 25.1868 195.87 25.431 195.76 25.71C195.566 26.2336 195.491 26.7938 195.54 27.35C195.604 28.0967 195.718 28.8383 195.88 29.57C196.39 32.39 196.65 32.64 194.43 35.84C194.25 36.09 194.08 36.35 193.88 36.59C192.24 38.59 190.65 40.59 188.95 42.49C184.883 47.0767 180.97 51.7933 177.21 56.64C176.152 57.8999 175.491 59.4449 175.31 61.08H175.3ZM141.55 39.29C142.859 38.2433 143.889 36.89 144.55 35.35C145.88 31.98 147.16 28.59 148.44 25.19C148.596 24.7826 148.694 24.355 148.73 23.92C148.774 23.5745 148.71 23.2238 148.547 22.9159C148.384 22.608 148.13 22.358 147.82 22.2C147.513 22.0127 147.155 21.9264 146.796 21.9533C146.437 21.9802 146.096 22.119 145.82 22.35C145.377 22.6963 145.003 23.124 144.72 23.61C144.214 24.4718 143.783 25.375 143.43 26.31C142.65 28.48 141.94 30.69 141.23 32.89C140.585 34.9952 140.699 37.2596 141.55 39.29Z" fill="#DAC0A3"/>
<path d="M198.34 163.31C205.85 163.417 213.359 163.083 220.83 162.31C227.49 161.68 234.17 161.23 240.83 160.64C244.63 160.3 248.43 159.86 252.21 159.41C255.543 159.01 258.877 158.563 262.21 158.07C271.022 156.918 279.685 154.823 288.05 151.82C288.81 151.53 289.56 151.21 290.32 150.92C291.328 150.544 292.156 149.801 292.64 148.84C293.07 148.01 293.47 147.16 293.91 146.33C294.084 146.03 294.153 145.68 294.106 145.335C294.059 144.991 293.899 144.673 293.65 144.43C293.16 143.86 292.65 143.29 292.21 142.7C291.897 142.434 291.682 142.071 291.6 141.668C291.519 141.265 291.575 140.847 291.76 140.48C291.967 140.123 292.292 139.849 292.678 139.705C293.065 139.561 293.49 139.556 293.88 139.69C296.33 140.19 298.78 140.69 301.21 141.26C302.436 141.563 303.537 142.241 304.36 143.2C306.719 145.726 308.917 148.398 310.94 151.2C311.83 152.48 312.77 153.73 313.68 155.01C313.97 155.41 314.27 155.82 314.52 156.25C314.702 156.541 314.783 156.885 314.748 157.228C314.714 157.57 314.567 157.891 314.33 158.14C313.046 159.841 311.476 161.307 309.69 162.47C305.626 165.178 301.313 167.492 296.81 169.38C294.09 170.5 291.45 171.77 288.81 173.15C284.33 175.52 279.81 177.74 275.13 179.76C272.261 181.009 269.307 182.052 266.29 182.88C263.755 183.567 261.267 184.416 258.84 185.42C253.541 187.503 248.083 189.159 242.52 190.37C239.91 190.99 237.29 191.58 234.67 192.22C230.893 193.095 227.066 193.736 223.21 194.14C220.1 194.52 216.99 194.89 213.88 195.14C211.13 195.33 208.37 195.37 205.62 195.35C202.87 195.33 200.24 195.2 197.56 195.02C194.379 194.74 191.234 194.147 188.17 193.25C183.404 191.969 178.727 190.376 174.17 188.48C170.025 186.775 165.796 185.279 161.5 184C156.35 182.46 151.23 180.82 146.11 179.16C141.261 177.475 136.644 175.183 132.37 172.34C131.738 171.935 131.139 171.48 130.58 170.98C129.998 170.498 129.542 169.883 129.252 169.186C128.961 168.489 128.843 167.732 128.91 166.98C129.003 165.227 129.305 163.491 129.81 161.81C131.458 156.689 133.432 151.679 135.72 146.81C135.85 146.53 136 146.25 136.15 145.98C136.339 145.583 136.609 145.23 136.944 144.944C137.278 144.658 137.668 144.445 138.09 144.32L142.75 142.89C143.047 142.791 143.357 142.74 143.67 142.74C144.009 142.744 144.335 142.876 144.581 143.11C144.828 143.343 144.977 143.661 145 144C144.98 144.496 144.93 144.99 144.85 145.48C144.75 146.48 144.61 147.48 144.56 148.48C144.559 149.803 144.956 151.096 145.7 152.19C146.117 152.822 146.733 153.297 147.45 153.54C149.579 154.442 151.768 155.197 154 155.8C155.465 156.124 156.911 156.532 158.33 157.02C162.985 158.684 167.758 159.994 172.61 160.94C176.76 161.884 180.96 162.596 185.19 163.07C186.43 163.18 187.68 163.31 188.93 163.32C192.08 163.34 195.21 163.31 198.34 163.31ZM299.74 148.78C299.56 149.02 299.5 149.16 299.4 149.2C297.538 150.225 295.735 151.353 294 152.58C292.272 153.701 290.448 154.668 288.55 155.47C284.656 157.016 280.668 158.316 276.61 159.36C274.85 159.787 273.08 160.17 271.3 160.51C268.23 161.11 265.16 161.7 262.08 162.21C259.43 162.65 256.76 162.98 254.08 163.34C252.16 163.613 250.24 163.867 248.32 164.1C245.32 164.47 242.32 164.82 239.38 165.17C235.9 165.57 232.38 165.99 228.94 166.34C226.82 166.56 224.7 166.68 222.58 166.81C217.21 167.13 211.84 167.48 206.46 167.73C203.03 167.89 199.58 167.88 196.14 167.93C195.515 167.947 194.89 167.913 194.27 167.83C192.17 167.52 190.06 167.21 187.97 166.83C185.57 166.41 183.19 165.89 180.78 165.5C176.58 164.82 172.38 164.21 168.17 163.58C165.584 163.132 163.024 162.548 160.5 161.83C155.48 160.497 150.457 159.197 145.43 157.93C144.912 157.841 144.43 157.605 144.042 157.251C143.654 156.896 143.376 156.438 143.24 155.93C142.87 154.67 142.47 153.42 142.05 152.18C141.813 151.466 141.529 150.767 141.2 150.09C141.043 149.815 140.797 149.601 140.503 149.485C140.208 149.368 139.883 149.356 139.58 149.45C139.281 149.528 139.018 149.707 138.836 149.957C138.653 150.206 138.563 150.511 138.58 150.82C138.615 151.192 138.695 151.558 138.82 151.91C139.26 153.28 139.71 154.64 140.16 156.01C140.36 156.6 140.55 157.2 140.76 157.78C141 158.532 141.436 159.206 142.023 159.733C142.61 160.261 143.327 160.622 144.1 160.78C149.1 162.05 154 163.44 158.96 164.73C161.38 165.36 163.81 165.97 166.26 166.41C170.2 167.13 174.16 167.68 178.11 168.35C180.51 168.75 182.9 169.28 185.3 169.7C187.95 170.16 190.6 170.56 193.3 170.97C194.035 171.114 194.781 171.194 195.53 171.21C199.41 171.16 203.29 171.12 207.16 170.96C212.54 170.74 217.91 170.38 223.28 170.12C228.41 169.87 233.51 169.34 238.6 168.69C241.14 168.37 243.687 168.067 246.24 167.78C247.98 167.57 249.72 167.41 251.46 167.2C253.94 166.88 256.46 166.53 258.89 166.2C261 165.92 263.13 165.73 265.21 165.35C268.9 164.66 272.56 163.86 276.21 163.11C279.98 162.214 283.69 161.086 287.32 159.73C290.688 158.545 293.847 156.833 296.68 154.66C297.979 153.581 299.375 152.623 300.85 151.8C301.127 151.656 301.383 151.474 301.61 151.26C301.88 151.043 302.084 150.754 302.199 150.428C302.313 150.101 302.335 149.748 302.26 149.41C301.961 147.806 301.319 146.285 300.38 144.95C300.13 144.6 299.84 144.23 299.31 144.39C298.93 144.51 298.82 145.01 298.99 145.71C299.09 146.07 299.23 146.42 299.32 146.79C299.45 147.45 299.61 148.17 299.74 148.78ZM282.31 170L282.2 169.78C281.861 169.849 281.527 169.939 281.2 170.05C278.39 171.11 275.6 172.21 272.79 173.27C267.79 175.15 262.79 177.06 257.67 178.86C255.15 179.75 252.56 180.51 249.96 181.19C246.96 181.95 243.96 182.54 241.01 183.19C236.62 184.19 232.17 184.87 227.72 185.57C223.898 186.217 220.035 186.584 216.16 186.67C211.532 186.729 206.904 186.522 202.3 186.05C197.82 185.59 193.36 184.96 188.94 184.05C188.207 183.895 187.458 183.835 186.71 183.87C186.459 183.886 186.217 183.969 186.01 184.113C185.803 184.256 185.639 184.453 185.536 184.683C185.433 184.912 185.395 185.166 185.425 185.416C185.456 185.665 185.554 185.902 185.71 186.1C185.979 186.429 186.321 186.689 186.71 186.86C187.236 187.055 187.778 187.206 188.33 187.31C195.237 188.802 202.267 189.655 209.33 189.86C214.207 190.125 219.099 189.894 223.93 189.17C228.93 188.36 233.93 187.56 238.93 186.64C241.75 186.12 244.52 185.29 247.34 184.73C251.559 183.848 255.697 182.613 259.71 181.04C265.719 178.725 271.604 176.098 277.34 173.17C278.79 172.44 280.14 171.53 281.52 170.67C281.807 170.476 282.072 170.251 282.31 170Z" fill="#DAC0A3"/>
<path d="M71.53 256.16C61.0566 256.105 50.6353 254.683 40.53 251.93C37.34 251.026 34.216 249.903 31.18 248.57C25.7952 246.21 20.5854 243.47 15.59 240.37C13.5575 239.135 11.6428 237.715 9.86998 236.13C7.54682 234.112 5.71379 231.592 4.50998 228.76C4.14675 227.894 3.87527 226.993 3.69998 226.07C3.4251 224.839 3.51948 223.554 3.97129 222.377C4.42311 221.199 5.21227 220.181 6.23998 219.45C7.55082 218.48 9.03368 217.768 10.61 217.35C15.0022 216.064 19.5794 215.527 24.15 215.76C29.2672 216.093 34.3537 216.795 39.37 217.86C45.1433 218.967 50.92 220.047 56.7 221.1C61.99 222.1 67.29 222.98 72.58 223.93C77.07 224.73 81.58 225.5 86.04 226.39C89.04 226.97 91.89 227.74 94.82 228.39C95.82 228.62 96.91 228.77 97.96 228.91C100.004 229.201 102.088 228.891 103.96 228.02C104.809 227.62 105.681 227.27 106.57 226.97C107.83 226.56 108.25 226.82 108.67 228.04C108.896 228.819 108.974 229.633 108.9 230.44C108.9 231.75 108.9 233.06 108.9 234.37C108.894 234.808 109.026 235.237 109.278 235.596C109.529 235.955 109.886 236.225 110.3 236.37C111.887 237.104 113.513 237.752 115.17 238.31C119.24 239.52 123.35 240.62 127.45 241.72C132.788 243.087 138.016 244.852 143.09 247C143.78 247.3 144.46 247.62 145.09 248C145.48 248.203 145.837 248.462 146.15 248.77C146.306 248.903 146.422 249.078 146.483 249.274C146.545 249.469 146.55 249.679 146.497 249.877C146.445 250.076 146.338 250.255 146.188 250.396C146.038 250.536 145.852 250.631 145.65 250.67C145.282 250.748 144.906 250.782 144.53 250.77C140.413 250.94 136.309 251.351 132.24 252C129.95 252.29 127.64 252.53 125.33 252.61C120.2 252.79 115.07 252.76 109.95 253C105.14 253.22 100.33 253.6 95.54 254.05C89.87 254.58 84.23 255.3 78.54 255.84C76.07 256.08 73.56 256.08 71.53 256.16Z" fill="#DAC0A3"/>
</g>
<defs>
<clipPath id="clip0_140_1254">
<rect width="427.89" height="261.37" fill="white"/>
</clipPath>
</defs>
</svg>
