<svg width="214" height="311" viewBox="0 0 214 311" fill="none" xmlns="http://www.w3.org/2000/svg">
<g clip-path="url(#clip0_195_625)">
<path fill-rule="evenodd" clip-rule="evenodd" d="M53.7871 90.5072L93.9551 116.366L93.7409 116.756L94.1275 116.711L102.575 109.815L96.1962 94.8171L97.7478 90.3348L103.437 109.298L98.4374 122.4L90.3348 134.295L83.7838 138.605L89.6452 131.882C87.0593 132.744 67.2339 127.227 62.0621 124.469C57.9246 122.262 45.3973 111.942 39.6508 107.057L41.8919 98.265L53.7871 90.5072ZM82.9171 119.51L49.0858 101.99L49.4773 102.402C49.9945 104.299 51.8218 109.402 54.9939 114.642C58.166 119.883 61.6024 123.147 62.9241 124.124L72.9229 123.779C75.9571 123.779 80.7382 121.021 82.7494 119.642L82.9171 119.51Z" fill="#DAC0A3"/>
<path fill-rule="evenodd" clip-rule="evenodd" d="M158.948 90.5072L118.78 116.366L118.994 116.756L118.608 116.711L110.16 109.815L116.539 94.8171L114.987 90.3348L109.298 109.298L114.298 122.4L122.4 134.295L128.951 138.605L123.09 131.882C125.676 132.744 145.501 127.227 150.673 124.469C154.81 122.262 167.338 111.942 173.084 107.057L170.843 98.265L158.948 90.5072ZM129.818 119.51L163.649 101.99L163.258 102.402C162.741 104.299 160.913 109.402 157.741 114.642C154.569 119.883 151.133 123.147 149.811 124.124L139.812 123.779C136.778 123.779 131.997 121.021 129.986 119.642L129.818 119.51Z" fill="#DAC0A3"/>
<path fill-rule="evenodd" clip-rule="evenodd" d="M106.541 0.0815631L106.885 0L106.885 0.162631L154.466 11.378L157.569 22.5837L168.257 30.8586L190.324 64.1308L185.948 80.9435L208.598 88.9557L196.53 111.195L197.909 115.677L192.22 118.435L183.871 88.9242L183.773 89.3004L192.804 137.834L207.908 129.986L200.15 118.78L207.908 94.8171L213.425 134.123L195.309 151.294L203.598 195.84C198.484 210.264 186.841 240.422 181.187 245.662C181.072 241.353 180.152 230.974 177.394 223.941C176.668 222.089 175.751 219.565 174.709 216.697C170.801 205.943 165.136 190.351 161.189 187.221C161.591 194.634 160.982 210.908 155.328 216.7C155.098 212.85 153.707 204.012 149.983 199.461L149.602 198.994C145.064 193.444 140.313 187.634 133.606 183.945C128.089 180.911 116.137 174.061 110.85 171.016L106.54 176.187L102.575 171.016C97.2881 174.061 85.3354 180.911 79.8187 183.945C73.1113 187.634 68.3611 193.444 63.823 198.994L63.7754 199.052C63.6639 199.188 63.5525 199.325 63.4412 199.461C59.7175 204.012 58.3269 212.85 58.097 216.7C52.4425 210.908 51.8333 194.634 52.2356 187.221C48.2889 190.351 42.6233 205.943 38.716 216.697C37.6737 219.565 36.7565 222.089 36.0305 223.941C33.2722 230.974 32.3527 241.353 32.2378 245.662C26.5833 240.422 14.9409 210.264 9.8265 195.84L18.1159 151.294L0 134.123L5.51663 94.8171L13.2744 118.78L5.51663 129.986L20.6206 137.834L29.6519 89.3004L29.554 88.9242L21.2045 118.435L15.5155 115.677L16.8947 111.195L4.82705 88.9557L27.4768 80.9435L23.1009 64.1308L45.1674 30.8586L55.8559 22.5837L58.959 11.378L106.196 0.163624L106.195 0L106.541 0.0815631ZM106.367 75.0669L51.8908 53.7871L30.8586 110.677L49.8221 131.882L39.1336 157.741L49.8221 176.187H54.9939C60.4689 162.534 75.8938 154.638 82.9218 152.397L81.8395 151.206C79.0034 150.816 76.4498 150.604 74.4745 150.673C75.6238 150.041 78.543 148.673 81.0255 148.259L85.5078 142.053L84.6458 148.259L106.543 155.558L128.779 148.259L127.917 142.053L132.399 148.259C134.882 148.673 137.801 150.041 138.95 150.673C136.975 150.604 134.421 150.816 131.585 151.206L130.503 152.397C137.531 154.638 152.956 162.534 158.431 176.187H163.603L174.291 157.741L163.603 131.882L182.566 110.677L161.534 53.7871L107.056 75.0673L107.057 75.3365L106.712 75.2018L106.368 75.3365L106.367 75.0669ZM106.54 156.61C106.657 156.643 106.772 156.675 106.885 156.707V156.514C112.089 155.076 121.261 152.871 128.876 151.618L126.538 152.397L106.54 162.051L86.8869 152.397L84.5488 151.618C92.1623 152.871 101.018 155.076 106.195 156.514V156.707C106.308 156.675 106.423 156.643 106.54 156.61Z" fill="#DAC0A3"/>
<path d="M78.612 194.806L106.368 178.256L134.123 194.806C139.582 198.484 150.707 209.218 151.535 222.734C151.477 227.446 150.673 238.387 147.915 244.456C145.156 250.524 137.571 273.533 134.123 284.279L132.744 272.556L106.368 311L79.9911 272.556L78.612 284.279C75.1641 273.533 67.5787 250.524 64.8204 244.456C62.0621 238.387 61.2576 227.446 61.2001 222.734C62.0276 209.218 73.1528 198.484 78.612 194.806Z" fill="#DAC0A3"/>
</g>
<defs>
<clipPath id="clip0_195_625">
<rect width="213.425" height="311" fill="white"/>
</clipPath>
</defs>
</svg>
