<svg width="95" height="100" viewBox="0 0 95 100" fill="none" xmlns="http://www.w3.org/2000/svg">
<g clip-path="url(#clip0_167_160)">
<path d="M91.7412 21.5922L50.7466 0.52707C50.5213 0.415966 50.2875 0.323047 50.0475 0.249201C49.8997 0.194068 49.7431 0.165399 49.5821 0.121292C49.2802 0.0512606 48.9723 0.0106401 48.6625 0C48.4786 0.00809842 48.2953 0.0265049 48.1134 0.0551329C47.9171 0.0551329 48.3339 0.138935 47.2313 0.114676V0.143345C47.1077 0.103613 46.9807 0.0755559 46.852 0.0595435C46.669 0.0355971 46.485 0.0208764 46.3006 0.0154372C45.9916 0.0163568 45.6835 0.0488705 45.381 0.112471C45.2222 0.154372 45.0657 0.200684 44.9179 0.255817C44.6771 0.333213 44.4427 0.429061 44.2166 0.542507L3.2154 21.6121C2.20991 22.1293 1.3731 22.9229 0.803469 23.8997C0.233837 24.8764 -0.0449045 25.9956 5.59505e-05 27.1254L2.00248 74.1383C2.06438 75.4703 2.57857 76.7414 3.46019 77.7418C4.1469 78.5706 5.04545 79.1979 6.06026 79.5567L44.5055 99.2634C44.9015 99.4745 45.3278 99.6233 45.7692 99.7045C46.2309 99.9045 46.7304 100.002 47.2335 99.9912V99.9669C48.3361 99.9338 48.4486 99.85 48.9426 99.6802C49.4343 99.6002 49.9123 99.4517 50.3628 99.2392L88.8544 79.5347C89.8757 79.1754 90.7815 78.5477 91.4765 77.7175C92.3631 76.719 92.8821 75.4477 92.9475 74.114L94.9499 27.1011C94.9954 25.9726 94.7176 24.8546 94.1491 23.8786C93.5807 22.9026 92.7452 22.1094 91.7412 21.5922ZM49.2183 7.67891L77.8874 22.4126L49.2183 17.3404V7.67891ZM87.0637 27.6921L72.7754 60.6285L51.6044 21.4114L87.0637 27.6921ZM46.8652 22.5846L47.2335 23.4293V23.405L47.8488 22.5714L70.4488 64.0137H24.5121L46.8652 22.5846ZM47.2335 92.5526V67.9832H68.5236L47.2335 92.5526ZM55.2167 89.3152L73.4084 67.8355L84.1769 74.4272L55.2167 89.3152ZM86.3447 71.3949L75.1418 64.5363L87.8863 35.1439L86.3447 71.3949Z" fill="white"/>
</g>
<defs>
<clipPath id="clip0_167_160">
<rect width="94.9542" height="100" fill="white"/>
</clipPath>
</defs>
</svg>
