<svg width="338" height="340" viewBox="0 0 338 340" fill="none" xmlns="http://www.w3.org/2000/svg">
<g clip-path="url(#clip0_140_1343)">
<path d="M68.1436 261.862L76.3637 253.673C75.8785 253.086 75.4077 252.491 74.9513 251.889L66.5486 260.26L68.1436 261.862Z" fill="#DAC0A3"/>
<path d="M280.594 54.9813L278.985 53.3933L152.623 179.272C153.189 179.766 153.748 180.273 154.298 180.794L280.594 54.9813Z" fill="#DAC0A3"/>
<path d="M278.193 52.6103L276.585 51.0215L149.998 177.127C150.598 177.586 151.19 178.06 151.775 178.547L278.193 52.6103Z" fill="#DAC0A3"/>
<path d="M73.9127 267.656L74.5145 268.261L75.2848 269.035L83.5153 260.836C82.9362 260.355 82.365 259.861 81.8016 259.353L73.6899 267.433L73.9127 267.656Z" fill="#DAC0A3"/>
<path d="M70.5235 264.253L78.5985 256.209C78.0806 255.656 77.5761 255.095 77.085 254.526L68.9293 262.651L70.5235 264.253Z" fill="#DAC0A3"/>
<path d="M287.795 62.0953L286.187 60.5065L159.609 186.603C160.082 187.202 160.54 187.81 160.983 188.425L287.795 62.0953Z" fill="#DAC0A3"/>
<path d="M72.9042 266.644L80.9821 258.597C80.5565 258.195 80.1356 257.786 79.7193 257.369C79.602 257.251 79.4852 257.132 79.3689 257.013L71.3092 265.042L72.9042 266.644Z" fill="#DAC0A3"/>
<path d="M285.395 59.7242L283.786 58.1355L157.431 184.01C157.938 184.575 158.43 185.149 158.907 185.73L285.395 59.7242Z" fill="#DAC0A3"/>
<path d="M77.6655 271.426L86.2008 262.921C85.5876 262.475 84.9822 262.015 84.3846 261.54L76.0706 269.824L77.6655 271.426Z" fill="#DAC0A3"/>
<path d="M337.706 14.2492C337.622 13.8352 337.523 13.4378 337.409 13.0571C335.684 7.71517 331.101 3.37259 326.102 0.994181C325.756 0.854145 325.394 0.725107 325.014 0.609999C323.116 0.0322587 320.795 -0.206022 317.986 0.209686L306.205 10.9441L303.528 8.25552C304.083 7.38359 304.324 6.34867 304.213 5.3211C304.101 4.29353 303.644 3.33455 302.915 2.60203L302.714 2.40041C301.862 1.54549 300.706 1.06382 299.5 1.06134C298.294 1.05887 297.136 1.53579 296.281 2.38721L294.469 4.19301C294.045 4.61436 293.708 5.11514 293.478 5.66671C293.248 6.21828 293.129 6.8098 293.128 7.40744C293.127 8.00507 293.243 8.59708 293.471 9.14959C293.699 9.7021 294.033 10.2043 294.455 10.6273L294.655 10.829C295.385 11.5613 296.342 12.0234 297.369 12.1392C298.395 12.255 299.431 12.0176 300.305 11.4661L302.838 14.0109L294.318 21.7752L291.145 18.5874C291.699 17.7152 291.941 16.6801 291.829 15.6525C291.717 14.6249 291.259 13.6659 290.53 12.9332L290.33 12.7323C289.908 12.3084 289.408 11.9718 288.856 11.7418C288.305 11.5117 287.713 11.3926 287.116 11.3914C286.519 11.3902 285.927 11.5068 285.374 11.7346C284.822 11.9624 284.32 12.297 283.897 12.7191L282.084 14.5249C281.661 14.9462 281.324 15.447 281.094 15.9986C280.864 16.5501 280.745 17.1417 280.744 17.7393C280.743 18.3369 280.859 18.929 281.087 19.4815C281.315 20.034 281.649 20.5361 282.071 20.9592L282.272 21.1608C283.001 21.8932 283.958 22.3553 284.985 22.4711C286.012 22.5869 287.048 22.3495 287.922 21.798L290.953 24.8421L282.432 32.6042L279.259 29.42C279.814 28.548 280.055 27.5129 279.944 26.4852C279.832 25.4575 279.374 24.4984 278.645 23.7658L278.445 23.5642C277.593 22.7092 276.437 22.2276 275.231 22.2251C274.025 22.2226 272.867 22.6996 272.012 23.551L270.199 25.3575C269.344 26.209 268.862 27.3653 268.86 28.5719C268.858 29.7786 269.334 30.9368 270.186 31.7918L270.386 31.9935C271.116 32.7256 272.073 33.1875 273.099 33.3033C274.126 33.4191 275.162 33.1818 276.036 32.6306L279.063 35.671L273.944 40.3348L276.026 48.0067L276.993 48.9759V48.9715L277.433 49.4114L277.418 49.4056L277.811 49.8L279.392 51.3881L279.4 51.3741L279.858 51.8309L279.798 51.7964L280.191 52.1909L281.775 53.7819L281.789 53.7584L282.283 54.2511L282.179 54.1873L282.572 54.5818L284.062 56.0782L284.094 56.0584L284.905 56.8649L284.87 56.8861L286.454 58.4778L286.498 58.4537L287.313 59.2675L287.267 59.2946L287.333 59.3606L288.913 60.9479L288.973 60.9244L289.83 61.7801L289.767 61.805L290.667 62.7097L297.484 63.9744L302.168 58.873L305.251 61.9699C304.696 62.8419 304.455 63.8768 304.566 64.9044C304.678 65.9319 305.136 66.8909 305.865 67.6234L306.066 67.8251C306.487 68.2489 306.987 68.5855 307.539 68.8156C308.09 69.0457 308.682 69.1647 309.279 69.166C309.876 69.1672 310.468 69.0505 311.021 68.8227C311.573 68.5949 312.075 68.2604 312.498 67.8383L314.311 66.0325C315.166 65.1809 315.648 64.0247 315.65 62.818C315.653 61.6114 315.176 60.4532 314.325 59.5981L314.124 59.3965C313.394 58.6642 312.438 58.2021 311.411 58.0863C310.384 57.9704 309.348 58.2079 308.474 58.7594L305.249 55.518L313.044 47.0279L316.132 50.1285C315.577 51.0005 315.335 52.0356 315.447 53.0633C315.558 54.091 316.016 55.0501 316.746 55.7827L316.946 55.9836C317.368 56.4074 317.868 56.744 318.42 56.9741C318.971 57.2042 319.562 57.3233 320.16 57.3245C320.757 57.3257 321.349 57.2091 321.902 56.9813C322.454 56.7534 322.956 56.4189 323.379 55.9968L325.191 54.191C325.615 53.7696 325.952 53.2689 326.182 52.7173C326.412 52.1657 326.531 51.5742 326.532 50.9766C326.533 50.3789 326.417 49.7869 326.189 49.2344C325.961 48.6819 325.627 48.1797 325.205 47.7567L325.005 47.555C324.274 46.8228 323.317 46.3612 322.289 46.2463C321.262 46.1314 320.226 46.3701 319.352 46.923L316.127 43.6751L323.923 35.185L326.512 37.7855C325.958 38.6577 325.716 39.6928 325.828 40.7204C325.94 41.748 326.398 42.707 327.126 43.4397L327.327 43.6414C327.749 44.0647 328.25 44.4009 328.801 44.6306C329.352 44.8604 329.944 44.9792 330.541 44.9804C331.138 44.9815 331.73 44.865 332.282 44.6374C332.835 44.4097 333.337 44.0755 333.76 43.6538L335.572 41.848C335.996 41.4267 336.333 40.9259 336.563 40.3743C336.793 39.8228 336.912 39.2312 336.913 38.6336C336.914 38.036 336.798 37.444 336.57 36.8914C336.342 36.3389 336.008 35.8368 335.586 35.4137L335.385 35.2121C334.655 34.4797 333.699 34.0176 332.672 33.9018C331.645 33.786 330.609 34.0234 329.735 34.575L327.003 31.83L337.779 20.0889C338.12 17.8432 338.043 15.9098 337.706 14.2492ZM325.051 21.0076C322.902 23.6844 296.173 51.3778 296.173 51.3778C296.173 51.3778 292.018 53.9212 286.53 50.5589C283.19 45.0557 286.017 41.1801 286.017 41.1801L287.95 39.3303C294.3 33.2582 314.243 14.2169 316.496 12.4229C319.181 10.2835 323.49 14.0732 323.49 14.0732C323.49 14.0732 327.2 18.3293 325.051 21.0076Z" fill="#DAC0A3"/>
<path d="M161.634 189.348C176.012 210.212 173.89 239.008 155.302 257.525C136.715 276.042 107.92 278.046 87.1207 263.578L78.4512 272.215L93.5261 287.358C93.5261 287.358 90.087 298.008 84.4615 296.389C80.7747 295.326 73.061 287.624 68.1831 282.442L65.5599 285.057L64.7741 284.269L67.4238 281.629C66.8587 281.023 66.3434 280.463 65.8897 279.967L63.1777 282.667L62.392 281.878L65.1384 279.142C64.6788 278.633 64.3256 278.239 64.1049 277.99C63.9671 277.865 63.789 277.703 63.5757 277.508L60.7971 280.276L60.0128 279.485L62.757 276.752C62.2828 276.312 61.725 275.795 61.1013 275.212L58.4171 277.885L57.6314 277.095L60.2899 274.447C59.7768 273.959 59.2249 273.437 58.6524 272.888L56.0365 275.493L55.2507 274.704L57.8506 272.115C57.3243 271.606 56.7851 271.08 56.2329 270.536L53.6558 273.102L52.8701 272.313L55.4406 269.752C50.1537 264.498 44.2995 258.168 43.2001 254.942C41.1192 248.82 52.2603 245.91 52.2603 245.91L65.7614 259.474L74.2799 250.988C59.0966 230.05 60.9737 200.595 79.8724 181.768C98.7711 162.941 128.225 161.184 149.095 176.457L275.793 50.2392L274.721 49.1805L203.223 113.37C157.598 112.271 58.3035 120.066 9.26611 202.295C-19.0424 249.764 25.727 296.752 34.4705 305.233C42.9128 314.011 89.7037 358.987 137.274 330.865C220.886 281.438 228.106 179.945 226.921 135.251L289.624 63.9019L288.587 62.8754L161.634 189.348ZM24.8834 236.546C23.0978 234.753 21.8839 232.471 21.3952 229.987C20.9066 227.504 21.1651 224.931 22.1381 222.595C23.1111 220.259 24.7549 218.263 26.8615 216.861C28.9682 215.459 31.4432 214.714 33.9735 214.719C36.5037 214.724 38.9756 215.48 41.0766 216.89C43.1776 218.301 44.8133 220.302 45.7768 222.643C46.7403 224.983 46.9884 227.557 46.4897 230.038C45.991 232.519 44.7679 234.797 42.9751 236.583C40.5711 238.978 37.3145 240.319 33.9216 240.313C30.5288 240.306 27.2776 238.951 24.8834 236.546ZM120.21 314.156C118.417 315.942 116.135 317.157 113.652 317.645C111.17 318.134 108.598 317.876 106.262 316.902C103.926 315.929 101.932 314.285 100.53 312.178C99.1287 310.07 98.3833 307.595 98.3885 305.064C98.3936 302.533 99.1489 300.06 100.559 297.958C101.969 295.857 103.97 294.221 106.31 293.257C108.65 292.293 111.222 292.045 113.703 292.544C116.184 293.043 118.461 294.266 120.246 296.059C122.64 298.464 123.982 301.722 123.975 305.116C123.968 308.509 122.613 311.761 120.21 314.156Z" fill="#DAC0A3"/>
<path d="M156.679 183.188L282.997 57.3524L281.384 55.7644L155.102 181.567C155.221 181.685 155.34 181.801 155.457 181.919C155.873 182.337 156.281 182.76 156.679 183.188Z" fill="#DAC0A3"/>
<path d="M84.3846 261.542L159.609 186.603C159.379 186.309 159.145 186.019 158.907 185.73L83.5153 260.836C83.8031 261.075 84.0928 261.31 84.3846 261.542Z" fill="#DAC0A3"/>
<path d="M79.3689 257.013L155.102 181.569C154.837 181.308 154.57 181.051 154.301 180.796L78.5985 256.209C78.8521 256.479 79.1089 256.748 79.3689 257.013Z" fill="#DAC0A3"/>
<path d="M81.7987 259.352L157.431 184.01C157.184 183.734 156.933 183.459 156.679 183.188L80.9821 258.597C81.2533 258.852 81.5255 259.104 81.7987 259.352Z" fill="#DAC0A3"/>
<path d="M74.9513 251.889L149.998 177.128C149.699 176.899 149.399 176.674 149.096 176.453L74.2814 250.985C74.5013 251.288 74.7246 251.589 74.9513 251.889Z" fill="#DAC0A3"/>
<path d="M289.624 63.9019L290.538 62.8615L289.624 63.9019Z" fill="#DAC0A3"/>
<path d="M77.085 254.526L152.626 179.272C152.344 179.028 152.061 178.787 151.775 178.548L76.3637 253.673C76.6007 253.96 76.8411 254.244 77.085 254.526Z" fill="#DAC0A3"/>
<path d="M274.721 49.1805L276.029 48.006L274.721 49.1805Z" fill="#DAC0A3"/>
<path d="M75.2848 269.035L65.1399 279.142C65.3649 279.39 65.6163 279.667 65.8897 279.966L76.0706 269.824L75.2848 269.035Z" fill="#DAC0A3"/>
<path d="M68.1436 261.862L57.8513 272.115C58.1235 272.378 58.3908 272.636 58.6532 272.888L68.9293 262.651L68.1436 261.862Z" fill="#DAC0A3"/>
<path d="M70.5235 264.253L60.2906 274.444C60.5716 274.71 60.8418 274.964 61.1013 275.208L71.3092 265.042L70.5235 264.253Z" fill="#DAC0A3"/>
<path d="M67.4238 281.628C67.6693 281.891 67.9229 282.163 68.1853 282.442L78.4512 272.215L77.6655 271.426L67.4238 281.628Z" fill="#DAC0A3"/>
<path d="M65.7629 259.47L55.4413 269.753C55.7076 270.016 55.9717 270.277 56.2336 270.536L66.5486 260.26L65.7629 259.47Z" fill="#DAC0A3"/>
<path d="M87.1207 263.576L161.634 189.345C161.421 189.036 161.204 188.728 160.983 188.422L86.2008 262.923C86.5058 263.145 86.8124 263.363 87.1207 263.576Z" fill="#DAC0A3"/>
<path d="M72.9042 266.644L62.757 276.753C63.0693 277.041 63.3434 277.294 63.5772 277.507L73.6921 267.433L72.9042 266.644Z" fill="#DAC0A3"/>
</g>
<defs>
<clipPath id="clip0_140_1343">
<rect width="338" height="340" fill="white"/>
</clipPath>
</defs>
</svg>
