<svg width="125" height="143" viewBox="0 0 125 143" fill="none" xmlns="http://www.w3.org/2000/svg">
<g clip-path="url(#clip0_249_493)">
<path d="M119.983 104.228C119.983 105.038 119.548 105.794 118.848 106.196L63.4804 138.158C62.7802 138.565 61.9106 138.565 61.2103 138.158L5.84246 106.196C5.14218 105.794 4.70737 105.038 4.70737 104.228V56.7833C4.70737 56.1242 4.99569 55.4972 5.49458 55.0624L60.8624 7.36556C61.7229 6.62409 62.9678 6.62409 63.8283 7.36556L119.191 55.0624C119.695 55.4972 119.983 56.1242 119.983 56.7833V104.228ZM122.157 51.625L66.7896 3.92366C64.2128 1.7084 60.4733 1.7084 57.9011 3.92366L2.5333 51.625C1.03205 52.9203 0.166992 54.8015 0.166992 56.7833V104.228C0.166992 106.654 1.47141 108.915 3.57224 110.128L58.9401 142.089C59.9882 142.698 61.169 143 62.3453 143C63.5216 143 64.6979 142.698 65.7506 142.089L121.118 110.128C123.215 108.915 124.524 106.654 124.524 104.228V56.7833C124.524 54.8015 123.659 52.9203 122.157 51.625Z" fill="white"/>
<path d="M10.7992 106.851C44.9984 108.416 79.692 108.403 113.891 106.851C79.692 105.299 44.9984 105.286 10.7992 106.851Z" fill="white"/>
<path d="M61.2377 8.9354C51.9921 23.8335 42.1287 40.2878 33.167 55.4285C23.7246 70.8438 14.5707 86.584 7.06445 103.057C17.5366 88.2912 26.5486 72.4686 35.1351 56.5636C43.7215 41.2169 53.0037 24.3965 61.2377 8.9354Z" fill="white"/>
<path d="M63.2974 8.74776C71.5542 24.2546 80.8455 41.0842 89.4548 56.4674C98.0596 72.4091 107.085 88.2592 117.576 103.057C110.051 86.552 100.879 70.7843 91.4184 55.3369C82.4475 40.1734 72.5475 23.6642 63.2974 8.74776Z" fill="white"/>
<path d="M63.0272 68.7658C61.0591 67.0083 59.8782 66.1295 59.4846 66.1295C59.242 66.1295 58.8027 66.4957 58.1665 67.2188C57.5348 67.9466 57.2144 68.4455 57.2144 68.7201C57.2144 68.9306 58.2442 69.8552 60.3039 71.4892C62.1164 72.9401 63.3888 73.8921 64.1165 74.3498L65.2058 73.1231C65.7779 72.519 66.0663 72.0933 66.0663 71.8508C66.0663 71.5166 65.0548 70.4914 63.0272 68.7658ZM63.0272 80.2038C60.9401 78.4782 59.7592 77.6178 59.4846 77.6178C59.1505 77.6178 58.6058 78.0251 57.8506 78.8444C57.1229 79.5675 56.7292 80.1305 56.6697 80.5241C56.6697 81.1603 57.6996 82.1901 59.7592 83.609L63.7549 86.2865C64.025 86.2865 64.5238 85.925 65.2516 85.1972C66.0068 84.4741 66.3867 83.9569 66.3867 83.6548C66.3867 83.2337 65.2653 82.0803 63.0272 80.2038ZM67.293 86.8816C64.5102 89.1472 62.5558 90.2823 61.439 90.2823C60.3176 90.2823 58.3953 89.1929 55.672 87.0143C52.9487 84.8357 51.5847 83.2337 51.5847 82.2039C51.5847 81.142 52.3719 80.0252 53.9464 78.8444L57.576 76.1211L54.308 73.439C52.8571 72.2581 52.1294 71.2329 52.1294 70.3541C52.1294 69.5073 53.4476 67.9603 56.0794 65.7222C58.7752 63.484 60.5602 62.3627 61.439 62.3627C62.4643 62.3627 64.2813 63.4703 66.8856 65.6764C69.5174 67.9191 70.8355 69.4753 70.8355 70.3541C70.8355 71.0772 70.0346 72.1528 68.428 73.5763L66.0663 75.6222C66.0663 75.8007 66.5378 76.2263 67.4761 76.89C69.1146 78.0251 71.4717 79.8468 71.4717 81.8377C71.4717 82.8676 70.0804 84.5473 67.293 86.8816Z" fill="white"/>
</g>
<defs>
<clipPath id="clip0_249_493">
<rect width="124" height="143" fill="white" transform="translate(0.63501)"/>
</clipPath>
</defs>
</svg>
