<svg width="100" height="100" viewBox="0 0 100 100" fill="none" xmlns="http://www.w3.org/2000/svg">
<g clip-path="url(#clip0_163_151)">
<path d="M26.4028 67.3613L32.7192 73.6764C33.0135 73.9788 33.3654 74.2191 33.7542 74.3832C34.1429 74.5473 34.5606 74.6319 34.9826 74.6319C35.4046 74.6319 35.8223 74.5473 36.2111 74.3832C36.5998 74.2191 36.9517 73.9788 37.246 73.6764L87.6724 23.2607C87.9748 22.9665 88.2152 22.6146 88.3793 22.2259C88.5435 21.8373 88.628 21.4197 88.628 20.9978C88.628 20.5759 88.5435 20.1583 88.3793 19.7696C88.2152 19.3809 87.9748 19.0291 87.6724 18.7348L81.3559 12.4197C81.0616 12.1174 80.7097 11.877 80.321 11.7129C79.9322 11.5488 79.5145 11.4643 79.0925 11.4643C78.6705 11.4643 78.2529 11.5488 77.8641 11.7129C77.4753 11.877 77.1234 12.1174 76.8291 12.4197L26.4028 62.8355C26.1004 63.1297 25.86 63.4816 25.6958 63.8702C25.5317 64.2589 25.4471 64.6765 25.4471 65.0984C25.4471 65.5203 25.5317 65.9379 25.6958 66.3266C25.86 66.7152 26.1004 67.0671 26.4028 67.3613Z" fill="white"/>
<path d="M99.042 38.9433C99.557 38.4491 99.8894 37.7952 99.985 37.0879C100.081 36.3807 99.9337 35.662 99.5684 35.0489L95.3574 27.8918C95.104 27.4723 94.7588 27.1157 94.3477 26.8488C93.9366 26.5819 93.4704 26.4117 92.984 26.3509C92.4976 26.2901 92.0038 26.3404 91.5397 26.4979C91.0755 26.6554 90.6531 26.9161 90.3043 27.2603L40.0042 77.5813C39.4892 78.0754 39.1569 78.7294 39.0613 79.4366C38.9657 80.1438 39.1125 80.8626 39.4779 81.4756L41.7939 85.4752C41.1416 86.0646 40.3408 86.4649 39.4779 86.633L23.8973 89.2643C22.7528 86.2985 21.0001 83.6052 18.7518 81.3574C16.5036 79.1096 13.8096 77.3573 10.8433 76.213L13.4751 60.5305C13.5982 59.653 14.0049 58.8399 14.6331 58.2149L18.6336 60.5305C19.2468 60.8957 19.9656 61.0425 20.673 60.947C21.3803 60.8514 22.0345 60.5191 22.5287 60.0042L72.8498 9.69371C73.1941 9.34491 73.4548 8.92261 73.6124 8.45856C73.7699 7.99451 73.8202 7.50079 73.7594 7.01452C73.6986 6.52825 73.5283 6.06209 73.2614 5.65109C72.9944 5.24009 72.6377 4.89495 72.2181 4.64161L65.0595 0.43153C64.4463 0.066266 63.7274 -0.0805492 63.0201 0.0150194C62.3127 0.110588 61.6586 0.442904 61.1644 0.957791L9.4747 52.626C7.70913 54.4045 6.53308 56.6826 6.10592 59.1517L0.0842334 95.2637C-0.0295403 95.8384 -0.0142609 96.4312 0.128968 96.9993C0.272198 97.5674 0.539804 98.0966 0.912468 98.5488C1.28513 99.0009 1.75356 99.3647 2.28393 99.6138C2.8143 99.863 3.39339 99.9913 3.97938 99.9895C4.22968 100.006 4.48075 99.9706 4.7163 99.8842L40.8254 93.8848C43.3101 93.4849 45.6033 92.3054 47.3734 90.5168L99.042 38.9433Z" fill="white"/>
</g>
<defs>
<clipPath id="clip0_163_151">
<rect width="100" height="100" fill="white"/>
</clipPath>
</defs>
</svg>
