<svg width="123" height="143" viewBox="0 0 123 143" fill="none" xmlns="http://www.w3.org/2000/svg">
<g clip-path="url(#clip0_249_533)">
<path d="M117.657 119.813C117.657 121.067 116.636 122.083 115.387 122.083H7.77259C6.97619 122.083 6.2256 121.658 5.81825 120.971C5.4109 120.285 5.39713 119.424 5.7816 118.724L58.8838 21.7192C59.2408 21.0693 59.8953 20.6345 60.6322 20.5521C60.7146 20.543 60.7969 20.5383 60.8748 20.5383C61.5293 20.5383 62.1518 20.8221 62.5866 21.3164L117.094 83.7694C117.456 84.1813 117.657 84.7123 117.657 85.2615V119.813ZM66.0056 18.3323C64.5456 16.6571 62.3486 15.8012 60.1379 16.0392C57.9272 16.2817 55.9728 17.5862 54.9018 19.5406L1.79962 116.545C0.650798 118.646 0.691991 121.227 1.91405 123.287C3.1361 125.347 5.37883 126.624 7.77259 126.624H115.387C119.14 126.624 122.193 123.571 122.193 119.813V85.2615C122.193 83.6138 121.598 82.021 120.518 80.7807L66.0056 18.3323Z" fill="white"/>
<path d="M62.9299 24.6531C62.9299 24.6531 79.2927 57.0856 87.339 72.5238C95.3625 88.5066 103.807 104.416 113.748 119.314C106.823 102.801 98.2277 86.9688 89.3391 71.4482C80.9221 56.2252 71.6262 39.6427 62.9299 24.6531Z" fill="white"/>
<path d="M53.4645 79.4671L60.4261 79.1238L60.8792 72.089L53.4645 79.4671ZM67.6897 81.3025L65.4195 81.9387L65.2364 85.6598C65.0854 88.0215 65.2685 90.0217 65.7857 91.6556H60.5176L60.4261 82.1675L46.988 82.401L64.3759 64.7338H65.4195V78.4419H67.8728L67.6897 81.3025Z" fill="white"/>
</g>
<defs>
<clipPath id="clip0_249_533">
<rect width="122" height="143" fill="white" transform="translate(0.63501)"/>
</clipPath>
</defs>
</svg>
