<svg width="96" height="100" viewBox="0 0 96 100" fill="none" xmlns="http://www.w3.org/2000/svg">
<g clip-path="url(#clip0_167_156)">
<path d="M91.8517 21.5135L50.8066 0.42823C50.5823 0.315368 50.3487 0.222092 50.1084 0.149442C49.9589 0.0936845 49.8028 0.0646906 49.6422 0.0200846C49.2652 -0.0825093 48.935 0.243115 48.7209 0.20743C48.5469 0.187357 48.3595 0.568739 48.1699 0.568739C47.9602 0.568739 48.8525 0.0423876 46.8448 0.0178543V0.0423876C46.8448 0.0646906 47.0991 0.568739 46.9028 0.568739C46.7155 0.568739 46.5258 0.198509 46.3519 0.220812C46.1288 0.243115 45.8076 0.0624603 45.4306 0.162824C45.27 0.20743 45.1138 0.176206 44.9666 0.231963C44.7256 0.292608 44.4911 0.376257 44.2661 0.481757L3.22107 21.5514C2.21515 22.067 1.37754 22.8592 0.806862 23.8348C0.236187 24.8104 -0.0437845 25.9287 -8.06024e-05 27.058L2.00756 74.1174C2.06832 75.4507 2.58307 76.7231 3.46644 77.7238C4.15369 78.554 5.05341 79.1823 6.06968 79.5415L44.5606 99.2662C44.98 99.4893 45.1339 99.6298 45.609 99.7123C46.1042 99.8796 46.8538 99.9643 46.8538 99.9978V99.9733C48.8614 99.9398 48.2903 99.8573 48.7856 99.6878C49.3127 99.6054 49.827 99.4555 50.3158 99.2417L88.9071 79.5147C89.9393 79.1584 90.8563 78.5305 91.5617 77.697C92.4524 76.6988 92.9757 75.4265 93.0451 74.0906L95.0527 27.0313C95.1015 25.902 94.8261 24.7823 94.2588 23.8046C93.6916 22.8268 92.8563 22.0318 91.8517 21.5135ZM49.7448 7.58303L78.4429 22.332L49.7448 17.2514V7.58303ZM87.1605 27.6178L72.8616 60.5861L51.6543 21.3328L87.1605 27.6178ZM46.6954 22.5818L46.8448 23.349V23.3267L47.6791 22.5684L70.5328 64.1323H24.5377L46.6954 22.5818ZM45.7295 7.6098V17.2759L17.0381 22.3588L45.7295 7.6098ZM43.414 21.3551L22.2044 60.6084L7.90556 27.6424L43.414 21.3551ZM7.08243 35.1027L19.8532 64.5248L8.62608 71.3897L7.08243 35.1027ZM10.7966 74.4252L21.5776 67.8279L39.7913 89.328L10.7966 74.4252ZM46.8448 92.5441V92.5686L26.4628 69.039H68.6054L46.8448 92.5441ZM55.2747 89.3035L73.4974 67.8012L84.2784 74.3984L55.2747 89.3035ZM86.4489 71.3696L75.2306 64.5003L87.9903 35.0782L86.4489 71.3696Z" fill="white"/>
</g>
<defs>
<clipPath id="clip0_167_156">
<rect width="95.0617" height="100" fill="white"/>
</clipPath>
</defs>
</svg>
