<svg width="322" height="375" viewBox="0 0 322 375" fill="none" xmlns="http://www.w3.org/2000/svg">
<g clip-path="url(#clip0_140_1294)">
<path fill-rule="evenodd" clip-rule="evenodd" d="M247.769 220.659C248.293 221.124 248.875 221.521 249.499 221.839C251.216 222.927 253.149 223.871 255.004 224.907C260.051 227.787 265.372 230.158 270.888 231.986C273.666 232.885 276.425 234.038 279.301 235.054C280.71 235.552 282.158 235.952 283.626 236.47C284.38 236.732 285.022 237.073 285.749 237.257C286.529 237.41 287.316 237.515 288.108 237.571C291.293 237.945 294.661 238.555 298.331 238.673C303.259 238.823 309.51 239.328 315.159 238.909C315.971 238.843 316.987 238.869 317.911 238.83C318.782 238.696 319.67 238.722 320.532 238.909C321.006 239.083 321.409 239.408 321.679 239.835C321.949 240.262 322.071 240.766 322.026 241.269C321.941 242.619 320.132 244.035 318.874 245.044C316.2 247.181 313.697 248.787 310.86 250.708C310.5 250.944 310.205 251.2 309.838 251.416C309.471 251.632 309.019 251.744 308.658 251.967C308.008 252.434 307.403 252.961 306.85 253.54C304.379 255.716 302.092 258.03 299.845 260.305C295.52 264.69 291.188 268.715 287.034 273.284C284.662 275.906 282.709 279.183 280.429 282.015C278.384 284.546 276.294 287.037 274.289 289.567C272.283 292.097 270.075 294.562 268.083 297.04C267.048 298.318 266.032 299.603 265.016 300.894C263.011 303.431 261.117 306.092 259.119 308.682C258.116 309.993 257.251 311.369 256.367 312.772C254.604 315.545 252.835 318.331 251.019 321.11C250.115 322.48 249.407 324.034 248.582 325.515C247.756 326.997 246.989 328.498 246.223 329.999C245.456 331.5 244.512 332.949 243.785 334.483C243.418 335.25 242.979 335.997 242.606 336.764C242.232 337.531 241.898 338.291 241.498 339.045C239.924 342.174 238.577 345.411 237.468 348.734C236.852 350.471 236.236 352.123 235.66 353.768C235.083 355.413 234.559 357.196 234.087 359.012C233.518 360.837 233.097 362.704 232.829 364.597C232.619 366.636 232.914 368.851 232.593 371.205C232.576 371.594 232.459 371.973 232.252 372.304C232.045 372.635 231.756 372.907 231.413 373.092C231.215 373.753 230.768 374.311 230.167 374.649C229.565 374.986 228.856 375.077 228.189 374.902C227.558 374.625 226.973 374.253 226.453 373.8C224.88 372.693 223.019 371.526 221.505 370.523C220.384 369.843 219.354 369.023 218.439 368.084C217.612 367.081 216.719 366.135 215.765 365.252C213.74 363.522 211.663 361.975 209.868 360.139L207.115 357.386C206.198 356.469 205.326 355.518 204.442 354.554C203.537 353.609 202.562 352.732 201.526 351.932C199.56 350.34 197.673 348.471 195.556 346.898C194.75 346.302 193.99 345.725 193.119 345.168C192.968 345.069 192.869 344.932 192.725 344.853C192.581 344.774 192.404 344.781 192.254 344.696C191.447 344.126 190.709 343.466 190.052 342.729C187.136 339.858 183.715 337.092 180.694 334.207C176.258 330.405 172.136 326.276 167.589 322.565C166.068 321.333 164.587 320.048 163.002 318.868C156.79 314.149 150.971 308.905 144.365 304.447C142.727 303.352 140.971 302.389 139.254 301.301C137.537 300.212 135.827 299.216 134.064 298.233C130.539 296.266 127.066 294.123 123.449 292.333C119.832 290.544 116.175 288.59 112.519 286.748C108.862 284.906 105.081 283.136 101.274 281.504C93.6136 278.207 85.842 274.759 77.7623 272.038C75.7244 271.35 73.7454 270.531 71.7075 269.836C66.1376 267.941 60.4628 265.936 54.8012 264.015C49.6965 262.278 44.4739 260.665 39.2316 258.902C37.7834 258.417 36.2042 257.873 34.6446 257.329C32.5739 256.588 30.4508 256.018 28.3539 255.362C24.1601 254.005 19.8352 252.851 15.5366 251.665C13.3348 251.062 11.0479 250.662 8.77402 250.17C6.50019 249.679 4.18704 249.462 1.93286 248.755C1.23593 248.624 0.616226 248.23 0.20291 247.653C0.0145485 247.347 -0.0646594 246.986 -0.0218276 246.629C0.0210042 246.272 0.183355 245.94 0.438812 245.687C0.0980642 243.34 2.28016 243.95 4.29188 243.563C7.221 242.993 10.2288 241.872 12.863 241.203C13.8852 240.941 14.9206 240.751 15.9297 240.547C16.8791 240.373 17.8034 240.082 18.6819 239.682C20.3857 238.922 21.9583 238.017 23.5572 237.322C26.0735 236.234 28.5833 235.061 31.1847 233.94C32.0301 233.573 32.8033 233.14 33.6224 232.76C35.3065 231.973 37.0495 231.331 38.7336 230.557C39.959 229.987 41.1647 229.463 42.4294 228.827C42.8226 228.624 43.2092 228.368 43.6089 228.171C50.4108 225.195 56.8194 222.055 62.5597 217.945C64.6763 216.425 66.7929 214.884 68.9291 213.304C69.5844 212.793 70.3248 212.275 70.9736 211.731C73.5947 209.515 76.2159 207.319 78.1817 204.416C76.0193 201.177 74.1321 197.769 71.891 194.583C68.5294 189.817 65.4954 184.894 62.219 180.03C61.6817 179.231 61.2361 178.339 60.7249 177.513C60.2138 176.687 59.6503 175.888 59.1523 175.075C57.1078 171.751 54.8929 168.52 52.8615 165.242C51.4527 162.948 49.8734 160.804 48.3794 158.556C48.2483 158.359 48.1894 158.097 48.0649 157.9C47.5013 157.133 46.8198 156.458 46.2563 155.698C45.9614 155.304 45.7517 154.826 45.4699 154.439C43.5696 151.817 41.4596 149.031 39.4151 146.416C37.0692 143.42 34.5267 140.516 32.0235 137.684C30.7785 136.262 29.5858 134.741 28.3277 133.279C27.0696 131.817 25.392 130.474 25.1823 128.402C24.1798 127.242 24.9595 126.016 26.0473 125.492C26.5547 125.283 27.0815 125.125 27.62 125.02C28.1036 124.868 28.5765 124.684 29.0354 124.469C30.8557 123.728 32.6095 122.834 34.2777 121.795C34.6708 121.532 35.0509 121.244 35.4572 121.008C36.7088 120.28 37.7834 119.402 38.9957 118.569C39.7624 118.038 40.5619 117.521 41.3547 116.996C44.5261 114.956 47.5661 112.719 50.4566 110.297C51.8655 109.064 53.4841 108.029 54.7815 106.757C56.7801 104.79 58.8246 102.948 60.7577 100.857C65.1022 96.1377 69.4468 91.0247 73.4178 85.7806C73.9813 85.0267 74.4662 84.2205 75.0691 83.4994C76.8449 81.3427 78.1293 78.7273 79.6561 76.1839C80.6128 74.5516 81.6219 72.9063 82.6442 71.3068C85.5799 66.4691 88.8301 61.6708 92.0803 56.9904C92.6176 56.2038 93.1484 55.3909 93.7316 54.6305C94.3148 53.8701 94.9242 53.195 95.4615 52.428C97.0735 50.0944 98.6397 47.7149 100.337 45.4271C100.907 44.6536 101.346 43.8211 101.91 43.0673C105.265 38.5442 108.764 34.113 112.525 29.957C113.757 28.5739 114.989 27.1711 116.3 25.8666C118.921 23.2445 121.509 20.5241 124.399 18.0791C125.814 16.8729 127.079 15.457 128.566 14.3033C130.054 13.1496 131.397 11.9041 132.891 10.7635C133.612 10.2064 134.457 9.7016 135.25 9.11164C135.982 8.52251 136.743 7.97116 137.531 7.45975C138.35 6.96156 139.103 6.43059 139.89 5.88651C140.283 5.6112 140.729 5.44732 141.148 5.17856C141.567 4.9098 141.849 4.52304 142.249 4.31328C143.114 3.78887 143.933 3.29068 144.765 2.81871C145.184 2.57617 145.525 2.25496 145.945 2.03209C146.364 1.80921 146.882 1.69122 147.36 1.48146C148.261 1.00337 149.207 0.616869 150.184 0.327752C151.382 0.139586 152.59 0.0300987 153.801 -5.20056e-06C154.562 -0.0138334 155.315 0.147661 156.003 0.471965C157.619 1.14626 159.171 1.96228 160.643 2.91048C162.687 4.11662 164.666 5.25722 166.54 6.37159C168.414 7.48597 170.406 8.85599 172.438 9.91137C173.467 10.4489 174.404 11.1306 175.426 11.6419C176.448 12.1532 177.444 12.7563 178.414 13.2938C181.409 14.9457 184.967 16.1584 188.322 17.5416C189.423 17.9939 190.478 18.5117 191.546 18.9575C195.976 20.7995 200.392 22.7136 204.599 24.6211C207.836 26.0829 211.067 27.525 214.507 28.8688C217.259 29.9439 220.083 30.973 222.921 32.1464C226.617 33.7065 230.968 34.9389 234.945 36.4728C237.14 37.3119 239.375 38.3869 242.029 38.8327C246.259 39.5953 250.548 39.9901 254.846 40.0126C256.347 40.0126 257.336 40.2748 258.935 40.1699C259.532 40.124 260.285 40.0519 260.98 40.0126C262.828 39.9011 264.178 40.0126 264.125 41.9791C264.092 43.1394 263.05 44.3783 262.552 45.3616C261.972 46.4619 261.447 47.5908 260.98 48.744C260.691 49.4651 260.482 50.3894 260.193 51.1825C259.905 51.9757 259.584 52.7886 259.328 53.6211C259.073 54.4536 258.758 55.2336 258.536 56.0596C258.313 56.8855 258.083 57.8295 257.88 58.7341C257.802 59.1667 257.585 59.5469 257.494 59.9927C257.402 60.4384 257.428 60.9563 257.336 61.4086C257.245 61.8609 257.022 62.2345 256.943 62.6672C256.865 63.0998 256.943 63.6701 256.865 64.2404C256.773 65.2237 256.635 66.2069 256.629 67.3082C256.622 68.4095 256.432 69.4058 256.471 70.4547C256.57 73.4766 256.34 76.8918 257.022 79.6319C257.232 80.5037 257.513 81.3624 257.73 82.2539C257.946 83.1454 258.005 84.109 258.28 84.9284C258.554 85.501 258.87 86.0531 259.224 86.5803C261.191 90.4964 263.368 94.3039 265.744 97.9863C267.057 100.046 268.504 102.016 270.075 103.886C270.888 104.79 271.667 105.721 272.513 106.56C272.932 106.98 273.437 107.334 273.928 107.74C274.378 108.135 274.85 108.503 275.344 108.842C279.242 111.267 285.343 112.578 291.221 113.483C291.876 113.581 292.571 113.83 293.351 113.955C294.131 114.079 294.891 114.033 295.71 114.112C298.986 114.433 301.352 114.728 305.224 114.82C305.984 114.876 306.746 114.876 307.505 114.82C308.756 114.676 309.726 114.958 309.864 116.078C310.002 117.199 308.947 118.897 308.37 119.854C307.724 120.918 307.015 121.943 306.247 122.922C304.517 125.072 303.088 126.855 301.529 128.586C301.116 129.045 300.579 129.457 300.218 129.897C299.858 130.336 299.517 130.906 299.111 131.391C297.178 133.705 295.218 136.124 293.377 138.602C292.302 140.057 291.018 141.46 289.838 142.928C287.558 145.754 285.251 148.73 282.919 151.581C281.31 153.485 279.813 155.481 278.436 157.559C277.781 158.602 277.06 159.618 276.313 160.627C275.566 161.637 275.003 162.744 274.262 163.774C272.396 166.312 270.691 168.966 269.158 171.718C268.856 172.282 268.443 172.748 268.135 173.292C267.48 174.406 267.041 175.625 266.399 176.753C266.248 177.028 266.006 177.251 265.855 177.539C264.833 179.408 263.843 181.617 262.867 183.675C262.316 184.822 261.635 185.91 261.058 187.058C260.482 188.205 259.899 189.352 259.25 190.44C256.625 194.998 254.431 199.791 252.697 204.756C250.688 209.937 249.041 215.25 247.769 220.659ZM284.177 142.312C285.002 141.119 285.71 139.959 286.457 138.772C286.84 138.195 287.26 137.643 287.715 137.12C289.419 135.023 291.07 132.801 292.827 130.67C294.583 128.54 296.404 126.803 298.41 124.692C298.855 124.22 299.386 123.82 299.818 123.276C300.71 122.175 301.424 121.205 302.44 120.051C302.892 119.526 303.789 118.897 303.468 118.32C303.147 117.743 301.502 118.17 301.103 118.242C300.222 118.392 299.328 118.445 298.436 118.399C294.83 118.219 291.237 117.852 287.669 117.298C285.913 117.035 284.111 116.918 282.48 116.511C280.848 116.105 279.138 115.934 277.683 115.41C276.231 114.962 274.834 114.356 273.515 113.601C272.33 112.804 271.201 111.928 270.134 110.979C266.947 108.187 264.142 104.987 261.792 101.46C260.98 100.287 260.148 99.1334 259.44 97.9207C259.217 97.5405 259.014 97.0292 258.785 96.7408C258.719 96.649 258.614 96.6556 258.542 96.5835C258.006 95.8278 257.566 95.0087 257.231 94.1449C255.724 91.0444 254.479 86.7966 253.385 83.1323C253.143 82.3391 252.998 81.5394 252.73 80.7725C252.15 79.179 251.806 77.5096 251.707 75.8168C251.674 75.503 251.674 75.1866 251.707 74.8728C251.753 74.65 251.884 74.6893 251.937 74.4009C251.576 74.0731 251.714 73.5618 251.707 73.1423C251.707 71.5166 251.707 69.9696 251.786 68.5012C251.851 64.8512 252.406 61.2265 253.437 57.7246C253.686 56.9511 253.955 56.1972 254.224 55.4434C254.492 54.6895 254.879 53.9095 255.089 53.1622C255.2 52.7492 255.226 52.3035 255.325 51.9036C255.434 51.5034 255.565 51.1095 255.718 50.7237C255.986 49.9305 256.17 49.0915 256.504 48.3638C256.838 47.6362 257.441 46.666 257.815 45.9253C258.037 45.5123 258.228 45.2698 258.214 44.9814C258.175 44.3259 257.435 44.0178 257.114 43.4868C254.407 43.0869 252.146 43.7162 249.643 43.6441C248.665 43.5659 247.691 43.4346 246.727 43.2508C243.886 42.8834 241.076 42.305 238.32 41.5203C236.814 41.021 235.283 40.6009 233.733 40.2617C233.484 40.2092 233.281 40.2617 233.025 40.2617C232.117 40.0874 231.221 39.8509 230.345 39.5537C226.073 38.2427 221.774 37.148 217.534 35.542C215.968 34.9455 214.166 34.539 212.423 33.8901C211.709 33.6213 210.831 33.2936 209.907 33.0248C208.799 32.697 207.548 32.2644 206.84 32.4742C206.132 32.6839 205.431 32.9265 204.71 33.1297C203.99 33.3329 203.144 33.3722 202.358 33.6016C201.526 33.9525 200.712 34.3463 199.92 34.7816C199.481 34.952 198.957 35.0438 198.505 35.1749C196.021 35.8894 193.734 36.6105 191.428 37.3774C190.497 37.6789 189.58 37.9412 188.676 38.2427C187.771 38.5442 186.952 38.9965 186.055 39.344C184.311 40.0388 182.641 40.8713 180.943 41.6251C177.582 43.1394 174.305 44.7454 171.101 46.4235C168.003 48.16 165.01 50.0774 162.137 52.1658C161.429 52.6443 160.787 53.2474 160.092 53.7391C158.605 54.7748 157.189 55.817 155.767 56.8069C155.033 57.3116 154.267 57.7705 153.566 58.3014C150.754 60.4122 147.956 62.5688 145.152 64.5944C144.496 65.0663 143.841 65.6694 143.186 66.2463C142.531 66.8231 141.875 67.4065 141.22 67.9768C139.868 69.0806 138.581 70.2626 137.367 71.5166C136.246 72.7621 134.956 73.9813 133.75 75.2137C133.109 75.8169 132.553 76.505 132.098 77.2589C131.699 77.9537 130.939 78.819 131.443 79.881C131.849 80.1104 132.243 79.645 132.544 79.4876C132.93 79.2827 133.298 79.0459 133.645 78.7797C134.373 78.2575 135.135 77.7845 135.925 77.3638C137.476 76.4366 139.078 75.5962 140.722 74.8466C143.998 73.3717 147.19 71.569 150.473 69.8909C153.566 68.3242 156.691 66.5281 160.381 65.1712C161.776 64.6534 163.69 63.716 165.492 62.9687C166.219 62.6606 167.235 62.3132 168.244 62.0247C169.063 61.7625 170.419 61.2381 171.153 61.3692C171.534 61.4701 171.869 61.6952 172.106 62.0088C172.344 62.3224 172.47 62.7064 172.464 63.0998C172.464 63.8799 171.645 64.5419 170.97 65.2237C170.295 65.9054 169.731 66.5937 169.24 67.1115C167.988 68.4226 166.678 69.9171 165.78 70.966C164.62 72.277 163.454 73.588 162.32 74.8204C156.423 81.2379 150.61 87.557 144.863 93.8303C143.382 95.0823 142.36 96.7211 141.246 98.2354C140.132 99.7496 138.959 101.297 137.786 102.824C135.414 105.826 133.252 108.973 130.709 111.791C130.542 111.939 130.385 112.096 130.237 112.263C130.152 112.362 130.159 112.46 130.08 112.578C130.002 112.696 129.825 112.735 129.766 112.814C128.855 113.981 127.996 115.082 127.013 116.092C125.703 117.462 124.392 118.792 123.082 120.182C121.771 121.572 120.461 122.909 119.071 124.194C117.682 125.479 116.345 126.881 114.825 128.048C114.085 128.612 113.246 129.123 112.466 129.7C110.133 131.429 107.69 133.006 105.153 134.42C104.288 134.892 103.423 135.383 102.532 135.836C99.9109 137.193 97.4077 138.949 94.6687 140.005C92.6169 140.735 90.5143 141.313 88.3779 141.735C87.3177 142.054 86.2416 142.316 85.1539 142.522C81.344 142.976 77.4987 143.055 73.6734 142.758C72.5528 142.666 71.3799 142.561 70.0562 142.522C68.169 142.463 66.2293 141.866 66.2031 143.702C66.2031 144.443 66.9764 145.426 67.7758 145.983C68.9211 146.788 70.0153 147.664 71.0522 148.605C71.4061 148.926 71.6354 149.326 71.9958 149.628C72.1859 149.785 72.4545 149.805 72.6511 149.942C72.8183 150.117 72.9757 150.301 73.1229 150.493C74.0665 151.496 74.8791 152.728 75.9537 153.482C77.5068 154.57 79.0008 155.724 80.4359 156.865C81.1632 157.448 82.0086 157.92 82.7163 158.516C83.424 159.113 84.0989 159.965 84.8394 160.719C85.5799 161.473 86.34 162.122 87.0411 162.843C88.45 164.298 90.1013 165.589 91.5233 167.012C95.8875 171.378 100.232 175.737 104.498 180.07C105.946 181.545 107.532 182.869 108.98 184.317C110.428 185.766 111.903 187.176 113.384 188.565C114.865 189.955 116.254 191.515 117.708 192.97C120.565 195.835 123.606 198.614 126.515 201.492C129.425 204.37 132.492 207.051 135.322 210.066C138.153 213.081 141.22 215.743 144.129 218.64C147.039 221.538 149.778 224.579 152.648 227.529C154.05 228.991 155.341 230.577 156.737 232.118C158.133 233.658 159.457 235.172 160.826 236.706C163.585 239.748 166.566 242.606 169.161 245.752C171.756 248.899 174.194 252.255 176.867 255.428C178.178 256.981 179.698 258.377 180.956 260.016C182.215 261.655 183.643 263.143 184.967 264.736C187.535 267.83 190.209 270.963 192.902 274.175C195.595 277.387 198.374 280.311 201.165 283.3C201.821 284.021 202.417 284.88 203.131 285.66C204.534 287.187 205.752 288.8 207.063 290.38C207.574 290.996 208.013 291.691 208.478 292.268C209.258 293.277 209.986 294.287 210.759 295.414C211.329 296.253 212.069 296.994 212.639 297.853C213.21 298.711 213.714 299.426 214.455 300.37C215.11 301.183 216.021 302.657 216.42 302.808C216.813 302.832 217.207 302.832 217.6 302.808C217.998 302.667 218.35 302.423 218.622 302.1C219.153 301.281 218.511 300.291 218.308 299.19C217.769 296.684 217.531 294.122 217.6 291.56C217.751 288.164 217.941 284.251 218.15 280.862C218.307 279.169 218.57 277.487 218.937 275.827C219.245 274.162 219.448 272.405 219.795 270.793C219.966 270.013 220.201 269.246 220.352 268.433C220.503 267.62 220.529 266.676 220.745 265.811C221.04 264.625 221.348 263.451 221.61 262.271C221.695 261.871 221.885 261.557 222.003 261.17C222.462 259.61 222.75 258.05 223.183 256.529C224.386 252.023 225.83 247.586 227.508 243.235C228.563 240.58 229.611 237.67 230.889 234.897C231.787 232.93 232.652 230.702 233.641 228.84C233.93 228.159 234.272 227.501 234.664 226.873C235.174 226.241 235.819 225.731 236.551 225.379C237.776 224.723 237.979 225.53 238.674 226.244C239.224 226.814 239.631 226.972 239.853 227.555C240.003 228.202 240.106 228.86 240.161 229.522C240.277 230.199 240.358 230.882 240.404 231.567C240.503 233.63 240.766 235.681 241.19 237.703C241.603 239.42 242.193 241.465 243.235 242.58C243.955 243.353 244.906 244.035 245.751 244.782C246.614 245.534 247.534 246.218 248.503 246.827C249.53 247.445 250.608 247.972 251.727 248.401C252.867 248.879 253.994 249.351 255.18 249.712C257.712 250.473 260.287 251.077 262.893 251.521C264.216 251.818 265.555 252.037 266.903 252.176C268.45 252.275 270.029 252.176 271.7 252.176C276.214 252.278 280.73 252.121 285.225 251.704C286.582 251.54 287.886 251.186 289.229 250.918C290.572 250.649 291.883 250.361 293.161 250.052C294.439 249.744 295.651 249.279 296.863 248.951C298.124 248.691 299.361 248.322 300.559 247.85C301.461 247.374 302.336 246.849 303.18 246.277C303.18 246.277 303.586 246.277 303.337 246.119C299.792 245.674 296.352 245.582 293.115 244.939C289.878 244.297 286.732 243.628 283.679 242.894C280.625 242.16 277.676 241.36 274.793 240.377C273.384 239.892 272.008 239.315 270.625 238.804C269.243 238.293 267.709 237.925 266.301 237.388C263.896 236.47 260.737 235.316 258.123 234.163C254.274 232.473 250.652 230.306 247.343 227.713C246.266 226.859 245.139 226.071 243.969 225.353C242.861 224.697 241.662 224.009 240.43 223.15C239.703 222.645 237.665 221.098 237.599 220.24C237.724 219.561 237.933 218.9 238.222 218.273C238.91 216.234 239.604 214.189 240.188 212.452C241.046 209.915 242.252 207.274 243.025 204.822C243.883 202.088 245.286 200.089 246.301 197.742C247.029 196.091 247.815 194.078 248.654 192.315C248.929 191.738 249.643 191.095 249.054 190.506C248.293 189.745 247.016 191.213 246.688 191.685C246.033 192.616 245.535 193.685 245.2 194.308C244.165 196.143 243.169 197.854 242.212 199.421C240.135 202.81 238.635 206.716 236.859 210.276C234.998 214.012 233.687 217.899 231.833 221.42C230.883 223.229 229.991 224.979 229.159 226.847C227.934 229.587 226.577 232.478 225.385 235.185C225.168 235.67 225.057 236.182 224.834 236.68C224.611 237.178 224.31 237.565 224.127 237.991C223.334 239.885 222.567 241.8 221.761 243.733C220.955 245.667 220.365 247.666 219.566 249.633C218.766 251.599 218.177 253.566 217.443 255.611C216.709 257.656 216.243 259.721 215.555 261.825C215.215 262.855 214.959 263.89 214.69 264.972C214.12 267.253 213.557 269.102 213.039 271.422C212.442 273.717 212.048 276.059 211.86 278.423C211.878 279.08 211.851 279.737 211.781 280.39C211.737 280.645 211.615 280.88 211.432 281.064C211.249 281.247 211.014 281.368 210.759 281.412C210.248 281.445 209.73 280.757 209.107 280.232C207.214 278.594 205.654 276.758 204.068 275.198C203.334 274.47 202.699 273.644 202.03 272.917C201.074 271.888 200.065 270.891 199.121 270.006C197.103 268.171 195.189 266.244 193.223 264.421C190.665 262.189 188.225 259.826 185.91 257.342C185.465 256.83 185.098 256.267 184.652 255.69C181.31 251.37 177.169 247.653 173.408 243.891C172.425 242.907 171.533 241.878 170.577 240.901C169.043 239.341 167.536 238.214 166.331 236.496C165.935 235.968 165.617 235.385 165.387 234.766C165.354 234.648 165.282 234.766 165.23 234.687C164.465 233.803 163.651 232.963 162.792 232.17C161.973 231.351 161.173 230.472 160.354 229.653C158.696 227.994 157.025 226.323 155.322 224.776C154.896 224.389 154.555 223.937 154.142 223.517C152.727 222.075 151.22 220.515 149.975 219.034C149.359 218.306 148.716 217.788 148.087 217.146C146.397 215.422 144.863 213.717 143.133 212.111C141.22 210.335 139.254 208.454 137.55 206.605C137.334 206.376 137.138 206.192 136.895 205.949C136.043 205.11 135.283 204.206 134.457 203.432C133.147 202.206 131.889 201.007 130.604 199.814C129.739 199.014 128.927 198.188 128.088 197.375C127.283 196.492 126.406 195.676 125.467 194.937C125.1 194.435 124.658 193.992 124.156 193.626C123.746 193.142 123.269 192.719 122.741 192.367C117.571 186.985 112.099 181.722 106.857 176.478C105.061 174.681 103.417 172.846 101.51 171.233C98.6921 168.815 96.1955 165.904 93.4891 163.446C92.595 162.553 91.7547 161.607 90.9729 160.614C89.3358 158.718 87.6036 156.907 85.783 155.186C83.9548 153.469 81.8906 152.04 80.2786 150.073C79.5578 149.726 78.9222 149.47 78.968 148.579C78.968 147.019 81.1632 147.202 82.5852 147.006C83.1488 146.927 83.6206 146.737 84.0006 146.691C85.1605 146.54 86.2024 146.553 87.2246 146.376C88.6597 146.121 90.1079 145.721 91.4709 145.354C91.9361 145.229 92.3489 145 92.7814 144.882C93.2139 144.764 93.7447 144.738 94.1968 144.567C94.649 144.397 94.9963 144.18 95.455 144.016C97.198 143.361 98.9018 142.745 100.566 142.05C101.418 141.689 102.257 141.434 103.082 141.027C105.433 139.919 107.694 138.63 109.845 137.173C111.247 136.17 112.735 135.331 114.091 134.341C115.448 133.351 116.817 132.329 118.102 131.273C119.367 130.184 120.575 129.029 121.719 127.812C122.295 127.216 122.97 126.698 123.527 126.082C125.218 124.194 127.027 122.489 128.717 120.654C130.978 118.189 133.422 115.921 135.716 113.496C136.856 112.283 137.944 110.998 139.176 109.877C139.831 109.294 140.316 108.691 140.905 108.068C141.495 107.445 142.124 106.927 142.714 106.338C143.304 105.748 143.664 104.941 144.208 104.292C144.752 103.643 145.355 103.073 145.938 102.483C147.714 100.674 149.536 98.8646 151.364 97.239C155.053 93.8827 158.69 90.2577 162.451 87.0916C164.417 85.4528 166.147 83.6895 168.113 82.1359C168.434 81.8737 168.821 81.6902 169.135 81.428C169.928 80.7725 170.734 79.9858 171.494 79.3828C171.671 79.2385 171.796 79.0484 171.966 78.9108C173.275 77.8427 174.64 76.8449 176.055 75.9216C177.47 74.9449 178.892 73.9551 180.301 73.0112C180.996 72.5326 181.612 71.9623 182.346 71.5166C183.813 70.5792 185.249 69.6418 186.671 68.7634C187.398 68.3111 188.145 67.8916 188.872 67.4524C190.314 66.515 191.88 65.7546 193.459 64.9352C195.038 64.1158 196.546 63.303 198.099 62.4967C199.652 61.6904 201.29 61.0611 202.974 60.2942C205.464 59.1536 207.967 58.1638 210.523 57.2264C212.22 56.5709 213.799 55.7974 215.555 55.1812C215.994 55.0239 216.525 54.9649 216.971 54.7879C217.416 54.6109 217.724 54.2831 218.15 54.1324C218.747 53.9488 219.369 53.975 219.959 53.8177C220.549 53.6604 221.001 53.4572 221.532 53.2671C223.673 52.4761 225.861 51.8193 228.084 51.3005C229.251 51.0252 230.457 50.7958 231.702 50.5926C235.633 49.9371 241.026 48.8817 244.598 49.4127C245.2 49.4979 245.954 49.7076 246.485 49.7273C247.278 49.7273 248.044 49.4454 248.765 49.6486C249.179 49.7845 249.539 50.0481 249.793 50.4015C250.047 50.7548 250.183 51.1798 250.181 51.6152C250.181 52.1134 249.892 52.2707 249.63 52.7164C249.427 53.1002 249.243 53.494 249.08 53.8964C248.365 55.5412 247.735 57.2215 247.193 58.9307C246.885 59.8353 246.465 60.6809 246.249 61.4479C245.733 63.2235 245.342 65.0327 245.076 66.8624C244.781 68.8945 244.303 70.9135 244.211 72.9194C244.086 75.5873 244.565 78.2291 244.755 80.9429C244.864 81.8254 245.023 82.7009 245.233 83.5649C245.561 85.3283 245.771 87.0785 246.413 88.5206C247.664 91.3459 248.988 94.2367 250.344 96.8588C252.415 100.864 255.312 104.227 258.287 107.347C260.252 109.405 262.284 111.523 264.413 113.483C265.449 114.427 266.484 115.508 267.637 116.393C269.428 117.705 271.304 118.896 273.253 119.959C273.939 120.321 274.648 120.637 275.376 120.903C277.69 121.848 280.111 122.509 282.584 122.87C284.434 123.133 286.299 123.264 288.167 123.263C289.059 123.263 290.081 123.047 290.789 123.263C291.067 123.356 291.316 123.522 291.509 123.743C291.703 123.964 291.834 124.233 291.889 124.521C292.04 125.479 291.464 126.396 291.024 127.196C289.648 129.674 288.22 131.588 287.014 134.04C285.808 136.491 284.183 138.386 283.004 140.804C282.624 141.565 281.968 142.509 282.532 143.479C283.39 143.558 283.797 142.85 284.177 142.312Z" fill="#DAC0A3"/>
</g>
<defs>
<clipPath id="clip0_140_1294">
<rect width="322" height="375" fill="white"/>
</clipPath>
</defs>
</svg>
