<svg width="125" height="143" viewBox="0 0 125 143" fill="none" xmlns="http://www.w3.org/2000/svg">
<path d="M108.849 108.052C108.849 108.656 108.611 109.228 108.185 109.654L100.762 117.078C100.341 117.499 99.7547 117.742 99.1551 117.742H17.9136C16.6641 117.742 15.6434 116.725 15.6434 115.471V34.2299C15.6434 33.6257 15.8814 33.0536 16.307 32.6233L23.731 25.204C24.1612 24.7738 24.7287 24.5358 25.3375 24.5358H106.579C107.828 24.5358 108.849 25.5565 108.849 26.806V108.052ZM106.579 20H25.3375C23.5158 20 21.8086 20.7048 20.5225 21.991L13.0986 29.4149C11.8124 30.701 11.103 32.4128 11.103 34.2299V115.471C11.103 119.229 14.1605 122.282 17.9136 122.282H99.1551C100.977 122.282 102.684 121.573 103.97 120.286L111.394 112.867C112.68 111.581 113.39 109.869 113.39 108.052V26.806C113.39 23.0528 110.332 20 106.579 20Z" fill="white"/>
<path d="M100.597 30.939L19.1172 32.3487L99.6401 33.7447L101.036 113.979L102.446 32.7927L107.394 25.9913L100.597 30.939Z" fill="white"/>
<path d="M59.8388 71.2028C58.7495 69.6878 57.3581 68.9326 55.6646 68.9326C54.7537 68.9326 53.9528 69.1431 53.2571 69.5688C52.4103 70.0494 51.9847 70.7176 51.9847 71.5644C51.9847 73.1068 52.5477 74.6813 53.6645 76.2832C54.6348 77.7067 55.8202 78.915 57.2071 79.9174C57.8753 80.3979 58.3421 80.6588 58.6167 80.6908C59.3399 80.6908 59.9898 80.0409 60.5665 78.7365C61.0791 77.5556 61.34 76.5899 61.34 75.8301C61.34 74.1046 60.8412 72.5621 59.8388 71.2028ZM62.022 80.7366C59.4452 83.4004 57.2665 84.7324 55.4815 84.7324C53.939 84.7324 51.9847 83.2036 49.6275 80.1462C47.3848 77.1803 46.2681 74.8644 46.2681 73.1984V69.523C46.2681 65.1886 51.2523 60.5063 54.8453 58.1263C57.175 56.5518 59.2209 55.7646 60.9739 55.7646L61.7932 56.5381V57.037C60.1271 57.5816 58.0858 59.0509 55.6646 61.4401C52.9413 64.1359 51.6369 66.223 51.7605 67.706L51.8062 68.2506C52.1998 68.127 53.3623 67.3718 55.303 65.9804C57.088 64.7401 58.0538 64.1176 58.2048 64.1176C60.1454 64.1176 61.9579 65.1474 63.656 67.2071C65.2259 69.1431 66.0178 71.1387 66.0178 73.1984C66.0178 75.4365 64.6812 77.9492 62.022 80.7366Z" fill="white"/>
</svg>
