<svg width="129" height="143" viewBox="0 0 129 143" fill="none" xmlns="http://www.w3.org/2000/svg">
<path d="M7.48207 39.1837C7.48207 38.3672 7.91114 37.606 8.60214 37.2L63.405 4.87963C63.7505 4.67664 64.1381 4.57517 64.5251 4.57517C64.9126 4.57517 65.2997 4.67664 65.6452 4.87963L120.446 37.2C121.137 37.606 121.566 38.3671 121.566 39.1791L121.565 103.82C121.565 104.636 121.135 105.393 120.444 105.799L65.6411 138.119C64.9506 138.53 64.092 138.53 63.4014 138.119L8.60034 105.803C7.90933 105.393 7.48027 104.636 7.48027 103.82L7.48207 39.1837ZM6.36021 109.766L61.1613 142.082C62.1974 142.696 63.359 143 64.5211 143C65.6827 143 66.8452 142.696 67.8813 142.082L122.684 109.766C124.757 108.544 126.044 106.265 126.044 103.82L126.046 39.1837C126.047 36.7387 124.759 34.4597 122.686 33.2372L67.8853 0.916881C65.8132 -0.305628 63.2379 -0.305628 61.1654 0.916881L6.36201 33.2372C4.28943 34.4597 3.00181 36.7387 3.00181 39.1837L3 103.82C3 106.265 4.28763 108.544 6.36021 109.766Z" fill="white"/>
<path d="M63.8825 21.8794L106.751 94.9023C106.743 94.8885 75.0791 36.651 67.3863 22.5068L118.564 37.3199L65.8254 19.1345L64.5256 5.50237L63.2272 19.1437L9.16223 38.2564C9.21191 38.2379 55.982 24.246 63.8825 21.8794Z" fill="white"/>
<path d="M25.5988 100.06C51.4737 101.241 77.7167 101.232 103.592 100.06C77.7167 98.8835 51.4737 98.8743 25.5988 100.06Z" fill="white"/>
<path d="M19.0798 101.624L63.9457 136.689C63.9033 136.657 27.5625 105.25 21.1637 99.7278L59.5156 29.0622C59.5043 29.0807 28.081 82.4928 20.0188 96.2033L8.3389 39.7188L17.8477 99.3126L8.28516 104.798L19.0798 101.624Z" fill="white"/>
<path d="M108.389 99.2895L65.209 136.689L109.93 101.652L120.295 104.872L111.195 99.308L120.232 39.3128L108.389 99.2895Z" fill="white"/>
<path d="M59.157 86.8338H46.3756V85.8051C48.4902 84.0889 50.9552 81.2703 52.7058 79.1712C55.6482 75.6467 57.1409 73.174 57.1409 71.7208C57.1409 69.5249 55.6898 68.4224 52.7866 68.4224C51.4155 68.4224 50.0714 68.8099 48.7544 69.5757V68.9206L50.7303 64.884C51.7515 62.8496 52.5848 61.8347 53.2302 61.8347C55.4608 61.8347 57.4367 62.5497 59.157 63.9752C61.0119 65.516 61.9391 67.3798 61.9391 69.5757C61.9391 72.971 59.4718 75.6744 56.9797 77.8979C56.0795 78.7007 54.1569 80.4491 53.3507 81.2748C54.688 81.2748 54.385 81.3487 58.9149 80.6567C60.4591 80.4214 63.2371 80.0293 64.7614 80.2876C61.9658 84.6518 60.0978 86.8338 59.157 86.8338Z" fill="white"/>
<path d="M77.5423 71.0612C75.8487 68.9483 74.0746 67.8872 72.2202 67.8872C71.0911 67.8872 70.1702 68.2886 69.458 69.0821C68.7457 69.8802 68.3898 70.8951 68.3898 72.1314C68.3898 73.9721 69.2222 75.8912 70.8897 77.898C72.5287 79.8724 74.2625 80.8643 76.0908 80.8643C78.6714 80.8643 79.9613 79.5726 79.9613 76.9892C79.9613 75.0701 79.1551 73.091 77.5423 71.0612ZM80.5665 81.893C79.768 82.9403 78.0798 84.2135 75.5262 85.722L74.599 86.5063C74.2223 86.7785 73.8592 86.9307 73.5105 86.9584C71.279 86.9584 69.4377 85.2561 67.9865 81.8515C66.8303 79.1343 66.2527 76.4679 66.2527 73.8614C66.2527 69.0267 68.5154 65.2992 72.9862 62.5774C73.8768 62.033 74.491 61.724 74.8406 61.6686C76.8296 61.6686 78.6308 63.5646 80.2436 67.3521C81.5877 70.5675 82.2597 73.3124 82.2597 75.5913C82.2597 78.2809 81.7069 80.3891 80.5665 81.893Z" fill="white"/>
</svg>
