<svg width="100" height="100" viewBox="0 0 100 100" fill="none" xmlns="http://www.w3.org/2000/svg">
<g clip-path="url(#clip0_167_162)">
<path d="M26.2097 26.2097L45.175 54.8366L73.8018 73.8018L54.825 45.175L26.2097 26.2097ZM51.9762 51.9762C51.5854 52.3666 51.0877 52.6324 50.5459 52.7399C50.0041 52.8475 49.4425 52.792 48.9323 52.5805C48.422 52.369 47.9859 52.011 47.679 51.5517C47.3722 51.0924 47.2084 50.5524 47.2084 50C47.2084 49.4476 47.3722 48.9077 47.679 48.4483C47.9859 47.989 48.422 47.631 48.9323 47.4195C49.4425 47.208 50.0041 47.1525 50.5459 47.2601C51.0877 47.3676 51.5854 47.6334 51.9762 48.0238C52.2361 48.2831 52.4424 48.5911 52.5831 48.9302C52.7238 49.2693 52.7962 49.6329 52.7962 50C52.7962 50.3671 52.7238 50.7307 52.5831 51.0698C52.4424 51.4089 52.2361 51.7169 51.9762 51.9762Z" fill="white"/>
<path d="M50 0C22.3936 0 0 22.3936 0 50C0 77.6064 22.3936 100 50 100C77.6064 100 100 77.6064 100 50C100 22.3936 77.6157 0 50 0ZM52.0778 90.0106V83.7127C52.0778 82.256 50.8634 80.76 49.4067 80.76H49.0119C47.5552 80.76 45.8491 82.256 45.8491 83.7127V89.8929C26.9185 88.1637 11.8363 73.6033 10.1094 53.7492H16.2873C17.7463 53.7492 18.5959 52.4471 18.5959 50.9789V50.5795C18.5959 49.1227 17.7348 47.2758 16.2873 47.2758H9.98938C10.9959 27.4217 25.995 11.8732 45.8491 10.1071V15.971C45.8491 17.4277 47.5552 18.1942 49.0119 18.1942H49.4044C50.8611 18.1942 52.0754 17.4277 52.0754 15.971V9.98938C71.9295 11.0236 88.9717 27.431 90.0037 47.2851H84.9755C83.5165 47.2851 82.3252 49.132 82.3252 50.5887V50.9881C82.3252 52.4471 83.5165 53.7584 84.9755 53.7584H89.8929C88.1176 73.6033 71.9365 89.0041 52.0824 90.0106H52.0778Z" fill="white"/>
</g>
<defs>
<clipPath id="clip0_167_162">
<rect width="100" height="100" fill="white"/>
</clipPath>
</defs>
</svg>
