<svg width="279" height="305" viewBox="0 0 279 305" fill="none" xmlns="http://www.w3.org/2000/svg">
<g clip-path="url(#clip0_195_917)">
<path d="M100.631 37.0576C110.431 38.9656 130.015 56.807 139.222 66.1169C148.429 56.807 168.012 38.9656 177.813 37.0576C190.363 34.6142 200.631 40.519 205.195 55.1792C206.036 57.8808 206.854 60.8383 207.723 63.9803C211.008 75.8596 215.022 90.3762 223.778 103.673C228.185 101.885 233.552 99.8133 236.12 98.8368C236.12 103.642 234.143 109.387 232.315 114.276C245.382 127.031 267.934 136.773 278.443 140.289C276.39 138.389 271.324 132.959 267.49 126.444C263.657 119.928 233.338 64.1381 218.658 37.0576C214.247 31.0171 202.411 18.5288 190.363 16.8999C185.255 11.6255 168.651 1.21605 142.002 0.0917567L142.006 0H136.437L136.442 0.0917567C109.793 1.21605 93.1887 11.6255 88.0805 16.8999C76.0322 18.5288 64.1969 31.0171 59.7852 37.0576C45.1051 64.1381 14.7866 119.928 10.953 126.444C7.11948 132.959 2.05369 138.389 0 140.289C10.5096 136.773 33.0615 127.031 46.128 114.276C44.3 109.387 42.3235 103.642 42.3235 98.8368C44.8919 99.8133 50.2583 101.885 54.6652 103.673C63.4219 90.3762 67.4359 75.8596 70.7207 63.9803C71.5895 60.8383 72.4073 57.8808 73.2483 55.1792C77.8121 40.519 88.0805 34.6142 100.631 37.0576Z" fill="#DAC0A3"/>
<path d="M119.837 127.177C116.368 126.081 105.962 124.383 92.0862 126.355C91.7972 127.862 92.5198 131.369 97.7231 133.341C102.926 135.314 106.54 135.259 107.696 134.985C109.286 135.122 113.333 134.163 115.067 133.341C116.802 132.519 119.403 130.465 119.837 127.177Z" fill="#DAC0A3"/>
<path d="M158.606 127.177C162.075 126.081 172.482 124.383 186.357 126.355C186.646 127.862 185.924 131.369 180.72 133.341C175.517 135.314 171.904 135.259 170.747 134.985C169.158 135.122 165.111 134.163 163.376 133.341C161.642 132.519 159.04 130.465 158.606 127.177Z" fill="#DAC0A3"/>
<path fill-rule="evenodd" clip-rule="evenodd" d="M139.222 305C118.587 304.62 92.0528 295.683 82.3758 291.167L67.2901 259.505C71.4506 273.063 76.0421 283.068 79.6376 288.927C55.8616 275.274 39.0517 259.419 27.3839 243.315C27.4206 234.613 28.2319 214.738 31.2617 199.948C34.3651 184.799 46.8546 159.429 52.7114 148.638C45.0291 158.411 29.208 182.356 27.3826 199.948C25.2256 220.734 26.1269 230.423 27.1957 241.912L27.3175 243.224C2.85615 209.403 1.05504 174.499 5.02014 156.579C16.8859 151.149 43.0362 138.62 52.7114 131.941C53.5593 131.356 54.3866 130.715 55.1919 130.029C52.3173 126.341 49.7125 122.646 49.0061 120.623C48.6781 119.685 48.2858 118.644 47.867 117.532L47.8666 117.531C46.152 112.981 43.9941 107.254 43.9941 102.556C46.7785 103.619 53.3498 106.17 57.3594 107.87C59.1465 108.628 61.2169 108.846 63.6463 109.101C65.4368 109.289 67.4226 109.497 69.6334 109.958C69.9125 109.373 70.1722 108.81 70.4119 108.272C70.4392 107.373 70.4721 106.507 70.51 105.675C70.51 90.9382 75.2259 82.4313 77.5839 80.02C85.6465 73.9116 102.319 61.2061 104.51 59.2514C106.701 57.2967 110.139 58.437 111.584 59.2514L139.222 71.7779L166.86 59.2514C168.305 58.437 171.743 57.2967 173.933 59.2514C176.124 61.2061 192.797 73.9116 200.86 80.02C203.218 82.4313 207.933 90.9382 207.933 105.675C207.971 106.507 208.004 107.373 208.032 108.272C208.271 108.81 208.531 109.373 208.81 109.958C211.021 109.497 213.007 109.289 214.797 109.101C217.227 108.846 219.297 108.628 221.084 107.87C225.094 106.17 231.665 103.619 234.449 102.556C234.449 107.254 232.291 112.981 230.577 117.531L230.576 117.532C230.158 118.644 229.765 119.685 229.437 120.623C228.731 122.646 226.126 126.341 223.252 130.029C224.057 130.715 224.884 131.356 225.732 131.941C235.407 138.62 261.558 151.149 273.423 156.579C277.388 174.499 275.587 209.403 251.126 243.224L251.248 241.912C252.317 230.423 253.218 220.734 251.061 199.948C249.235 182.356 233.414 158.411 225.732 148.638C231.589 159.429 244.078 184.799 247.182 199.948C250.212 214.738 251.023 234.613 251.06 243.315C239.392 259.419 222.582 275.274 198.806 288.927C202.401 283.068 206.993 273.063 211.153 259.505L196.068 291.167C186.391 295.683 159.856 304.62 139.222 305ZM139.222 228.771C143.74 228.417 153.144 227.222 157.732 223.567C161.106 220.879 166.92 213.547 171.839 206.902L157.732 217.662C155.248 220.531 148.188 226.08 139.222 226.224C130.256 226.08 123.196 220.531 120.711 217.662L106.605 206.902C111.523 213.547 117.337 220.879 120.711 223.567C125.299 227.222 134.703 228.417 139.222 228.771ZM139.222 200.961C150.893 198.616 159.575 191.77 162.524 188.546C160.699 188.546 155.222 187.46 152.712 186.917C146.549 185.817 141.686 185.51 139.222 185.482C136.757 185.51 131.895 185.817 125.731 186.917C123.221 187.46 117.745 188.546 115.919 188.546C118.869 191.77 127.551 198.616 139.222 200.961ZM139.222 170.993C141.734 170.837 146.158 170.294 149.061 168.999C152.347 167.533 152.256 168.388 151.799 168.999C152.484 169.067 154.218 168.836 155.678 167.37C157.139 165.904 156.287 163.637 155.678 162.687C155.831 164.044 155.633 166.718 153.625 166.556C152.826 166.491 152.304 166.22 151.803 165.959C150.728 165.401 149.745 164.89 146.323 166.556C143.156 168.097 140.632 168.473 139.222 168.464C137.811 168.473 135.288 168.097 132.121 166.556C128.698 164.89 127.715 165.401 126.641 165.959C126.139 166.22 125.618 166.491 124.819 166.556C122.811 166.718 122.613 164.044 122.765 162.687C122.157 163.637 121.305 165.904 122.765 167.37C124.225 168.836 125.96 169.067 126.644 168.999C126.188 168.388 126.097 167.533 129.382 168.999C132.286 170.294 136.709 170.837 139.222 170.993ZM72.8652 149.445L61.5341 138.461C60.28 141.575 59.1162 144.311 58.1879 146.398C53.0768 192.833 58.9052 230.958 66.525 256.954L91.0469 242.3L99.4483 201.443L92.4161 196.079C81.6045 187.309 75.7761 168.544 72.8652 149.445ZM61.2576 117.435C67.0492 119.561 71.8384 131.074 73.5091 136.565C63.1754 135.508 61.1575 129.784 59.6752 125.579C58.9208 123.439 58.3051 121.692 56.8025 121.155C53.2384 119.879 55.3174 123.812 56.8025 125.937C53.2384 121.261 50.4911 111.944 49.5629 107.87C51.048 110.173 55.4659 115.31 61.2576 117.435ZM130.244 147.724L126.341 130.875L135.88 123.479L125.474 127.177C120.704 121.424 112.899 116.904 105.528 116.904C98.1566 116.904 90.7853 119.369 86.8829 122.246C83.7609 124.547 80.3788 128.136 79.0779 129.643C81.853 129.971 85.4375 129.506 86.8829 129.232C90.3517 132.108 95.1214 134.985 105.528 136.218C113.853 137.204 121.427 133.615 124.173 131.697L130.244 147.724ZM126.97 113.715L131.425 107.87C122.701 103.265 104.583 94.3732 101.91 95.6485C99.2373 96.9238 85.575 102.556 79.0779 105.213H101.91L126.97 113.715ZM205.578 149.445L216.909 138.461C218.164 141.575 219.327 144.311 220.256 146.398C225.367 192.833 219.538 230.958 211.919 256.954L187.397 242.3L178.995 201.443L186.027 196.079C196.839 187.309 202.667 168.544 205.578 149.445ZM217.186 117.435C211.394 119.561 206.605 131.074 204.934 136.565C215.268 135.508 217.286 129.784 218.768 125.579C219.523 123.439 220.138 121.692 221.641 121.155C225.205 119.879 223.126 123.812 221.641 125.937C225.205 121.261 227.952 111.944 228.881 107.87C227.396 110.173 222.978 115.31 217.186 117.435ZM148.2 147.724L152.102 130.875L142.563 123.479L152.97 127.177C157.739 121.424 165.544 116.904 172.916 116.904C180.287 116.904 187.658 119.369 191.561 122.246C194.683 124.547 198.065 128.136 199.366 129.643C196.59 129.971 193.006 129.506 191.561 129.232C188.092 132.108 183.322 134.985 172.916 136.218C164.59 137.204 157.017 133.615 154.27 131.697L148.2 147.724ZM151.473 113.715L147.018 107.87C155.743 103.265 173.86 94.3732 176.533 95.6485C179.206 96.9238 192.869 102.556 199.366 105.213H176.533L151.473 113.715Z" fill="#DAC0A3"/>
</g>
<defs>
<clipPath id="clip0_195_917">
<rect width="278.443" height="305" fill="white"/>
</clipPath>
</defs>
</svg>
