<svg width="95" height="87" viewBox="0 0 95 87" fill="none" xmlns="http://www.w3.org/2000/svg">
<path d="M47 70.0691C37.6111 70.0691 30 62.0102 30 52.0691H64C64 62.0102 56.3889 70.0691 47 70.0691Z" fill="#D9D9D9"/>
<path d="M22.0521 38.0585C22.3209 41.7402 25.996 44.3938 29.2071 43.9522L29.2341 43.9485L29.2612 43.9462C32.5738 43.6732 34.6894 40.6557 34.2786 38.3034L34.2734 38.2734L34.27 38.2431C33.992 35.77 31.468 34.1974 29.5335 34.572L29.5061 34.5773L29.4784 34.5811C27.4231 34.8613 26.4499 36.7461 26.7559 37.8683L26.7642 37.8988L26.7706 37.9298C26.897 38.5439 27.2785 38.9964 27.7458 39.2631C28.2376 39.5439 28.7212 39.565 28.9983 39.4632L29.0301 39.4515L29.0626 39.442C29.3122 39.369 29.4738 39.2437 29.5741 39.1143L28.4397 39.2192L28.3476 38.2234C28.3046 37.758 28.5106 37.3716 28.7799 37.1262C29.0367 36.8922 29.354 36.7744 29.6507 36.7405C30.2608 36.6706 30.9224 36.9333 31.3411 37.5491C31.8325 38.2044 31.7903 39.0728 31.5147 39.7257C31.214 40.4379 30.5843 41.0706 29.6558 41.3521C28.7126 41.6855 27.6261 41.4977 26.7543 41C25.8552 40.4868 25.0799 39.5891 24.8181 38.3635C24.1779 35.9313 26.1255 33.0355 29.1808 32.6032C32.2121 32.0344 35.8265 34.3499 36.254 37.9895C36.8659 41.6128 33.7774 45.5654 29.4525 45.9372C25.1643 46.5099 20.4322 43.0918 20.0596 38.2333C19.4412 33.408 23.6636 28.3763 29.2613 28.0524C34.8197 27.4591 40.6913 31.9919 40.9987 38.0809L41.0491 39.0797L39.0517 39.1805L39.0013 38.1818C38.7544 33.2913 33.9344 29.5515 29.4524 30.0434L29.4255 30.0463L29.3984 30.0478C24.8218 30.3 21.5736 34.4262 22.0462 38.0003L22.05 38.0293L22.0521 38.0585Z" fill="#D9D9D9"/>
<path d="M64.7929 43.9522C68.004 44.3938 71.6791 41.7402 71.9479 38.0585L71.95 38.0293L71.9538 38.0003C72.4264 34.4262 69.1782 30.3 64.6016 30.0478L64.5745 30.0463L64.5476 30.0434C60.0656 29.5515 55.2456 33.2913 54.9987 38.1818L54.9483 39.1805L52.9509 39.0797L53.0013 38.0809C53.3087 31.9919 59.1803 27.4591 64.7387 28.0524C70.3364 28.3763 74.5588 33.408 73.9404 38.2333C73.5678 43.0918 68.8357 46.5099 64.5475 45.9372C60.2226 45.5654 57.1341 41.6128 57.746 37.9895C58.1735 34.3499 61.7879 32.0344 64.8192 32.6032C67.8745 33.0355 69.8221 35.9313 69.182 38.3635C68.9201 39.5891 68.1448 40.4868 67.2458 41C66.3739 41.4977 65.2874 41.6855 64.3442 41.3521C63.4157 41.0706 62.786 40.4379 62.4854 39.7257C62.2097 39.0728 62.1675 38.2044 62.6589 37.5491C63.0776 36.9333 63.7392 36.6706 64.3493 36.7405C64.646 36.7744 64.9633 36.8922 65.2201 37.1262C65.4894 37.3716 65.6954 37.758 65.6524 38.2234L65.5604 39.2192L64.4259 39.1143C64.5262 39.2437 64.6878 39.369 64.9374 39.442L64.9699 39.4515L65.0017 39.4632C65.2788 39.565 65.7624 39.5439 66.2542 39.2631C66.7215 38.9964 67.1031 38.5439 67.2294 37.9298L67.2358 37.8988L67.2441 37.8683C67.5501 36.7461 66.5769 34.8613 64.5216 34.5811L64.4939 34.5773L64.4665 34.572C62.532 34.1974 60.008 35.77 59.73 38.2431L59.7266 38.2734L59.7214 38.3034C59.3106 40.6557 61.4262 43.6732 64.7388 43.9462L64.7659 43.9485L64.7929 43.9522Z" fill="#D9D9D9"/>
<path fill-rule="evenodd" clip-rule="evenodd" d="M0.513482 0C3.21652 4.80541 11.3519 9.95988 16.5331 12.725C24.3193 4.90739 35.0946 0.0690918 47 0.0690918C58.9765 0.0690918 69.8095 4.96541 77.6063 12.8655C82.7707 10.1373 91.141 4.88805 93.8905 0C95.0801 5.6836 94.8824 17.8413 85.701 24.3054C88.4552 29.9755 90 36.3419 90 43.0691C90 66.8173 70.7482 86.0691 47 86.0691C23.2518 86.0691 4 66.8173 4 43.0691C4 36.2568 5.58412 29.8146 8.40409 24.0906C-0.482566 17.5753 -0.663059 5.62125 0.513482 0ZM85 43.0691C85 64.0559 67.9868 81.0691 47 81.0691C26.0132 81.0691 9 64.0559 9 43.0691C9 22.0823 26.0132 5.06909 47 5.06909C67.9868 5.06909 85 22.0823 85 43.0691Z" fill="#D9D9D9"/>
</svg>
