<svg width="72" height="80" viewBox="0 0 72 80" fill="none" xmlns="http://www.w3.org/2000/svg">
<g clip-path="url(#clip0_205_2)">
<path fill-rule="evenodd" clip-rule="evenodd" d="M71.7849 75C71.9676 77.3863 71.9963 79.0741 72 79.715C72.001 79.9021 72 80 72 80H0.571398C0.571398 80 0.570329 79.9021 0.571398 79.715C0.575059 79.0741 0.603804 77.3863 0.786513 75C1.55853 64.917 5.07946 42.363 21.0723 33.6205C22.6806 32.7412 24.4151 32.0017 26.2857 31.4286C24.7534 30.3504 23.4171 29.028 22.327 27.5197C21.7952 26.7838 21.322 26.0038 20.9132 25.1862C19.6666 22.6929 19.0583 19.9292 19.1428 17.1429C19.1428 12.5963 20.9489 8.23594 24.1639 5.02103C27.3788 1.80612 31.7391 0 36.2857 0C40.8323 0 45.1926 1.80612 48.4075 5.02103C51.6224 8.23594 53.4285 12.5963 53.4285 17.1429C53.5131 19.9292 52.9048 22.6929 51.6581 25.1862C51.2494 26.0038 50.7762 26.7838 50.2444 27.5197C49.1543 29.028 47.818 30.3504 46.2857 31.4286C48.1562 32.0017 49.8907 32.7412 51.4991 33.6205C67.4919 42.363 71.0128 64.917 71.7849 75Z" fill="black"/>
</g>
<defs>
<clipPath id="clip0_205_2">
<rect width="72.0005" height="80" fill="white"/>
</clipPath>
</defs>
</svg>
