<svg width="137" height="143" viewBox="0 0 137 143" fill="none" xmlns="http://www.w3.org/2000/svg">
<g clip-path="url(#clip0_249_526)">
<path d="M68.7217 4.54711C68.0763 4.54711 67.4584 4.82217 67.0282 5.30805L5.93001 74.083C5.55927 74.5001 5.35328 75.0364 5.35328 75.5956V88.5539C5.35328 89.2598 5.67368 89.9153 6.23207 90.3508L67.3303 137.976C68.1496 138.613 69.2984 138.613 70.1176 137.976L131.216 90.3554C131.774 89.9199 132.095 89.269 132.095 88.5631V75.6002C132.095 75.041 131.889 74.5047 131.518 74.0876L70.4197 5.30805C69.9895 4.82217 69.3716 4.54711 68.7217 4.54711ZM68.7263 143C67.2479 143 65.7741 142.523 64.5429 141.561L3.44471 93.9399C1.77411 92.6381 0.817505 90.6762 0.817505 88.5539V75.5956C0.817505 73.9225 1.42623 72.3091 2.53843 71.0623L63.6366 2.28732C64.9274 0.829682 66.781 9.94587e-07 68.7217 9.94587e-07C70.6669 9.94587e-07 72.5206 0.829682 73.8113 2.28732L134.909 71.0668C136.022 72.3136 136.635 73.9271 136.635 75.6002V88.5631C136.635 90.6808 135.674 92.6427 134.008 93.9444L72.905 141.561C71.6738 142.523 70.2001 143 68.7263 143Z" fill="white"/>
<path d="M129.628 89.4386L110.093 94.1003L70.0992 6.88026L107.635 95.4892C107.864 96.0255 108.285 96.4609 108.821 96.7039C109.388 96.9606 110.038 96.9835 110.624 96.7543L129.628 89.4386Z" fill="white"/>
<path d="M68.7215 116.767L33.6481 98.817L67.3713 119.201L68.7215 136.065L70.0763 119.201L104.363 98.4961L68.7215 116.767Z" fill="white"/>
<path d="M67.257 7.04071L27.3457 94.1049L7.82947 89.5349L26.824 96.7635C27.4098 96.9835 28.0597 96.9652 28.6273 96.7039C29.1582 96.4609 29.5747 96.0255 29.8036 95.4892L67.257 7.04071Z" fill="white"/>
<path d="M58.7712 71.1814C58.2769 70.746 57.9245 70.4985 57.7093 70.4435C57.1876 70.4435 56.6429 71.0302 56.0708 72.2036C55.581 73.2395 55.3385 74.0738 55.3385 74.6972C55.3385 77.4291 56.4736 79.3039 58.6888 80.4269C59.2106 80.6928 59.5584 80.8395 59.7507 80.8395C60.4189 80.8395 63.101 79.7806 63.101 79.1985C63.1559 76.4436 61.7051 73.7804 58.7712 71.1814ZM63.5908 88.2835C62.7761 89.0261 61.5082 89.842 59.7919 90.7404C57.7231 91.8314 56.3866 92.3768 55.787 92.3768C55.4071 92.1889 55.2011 91.9001 55.1737 91.5197C55.2835 91.3546 55.3659 91.2584 55.4208 91.2309L58.1579 89.3469C59.8147 88.1735 61.2107 86.2575 62.1216 84.4377L63.101 81.5729H62.7349C62.5975 81.5729 61.7645 82.1733 60.2404 83.3743C58.7712 84.5752 57.8695 85.1895 57.5446 85.217C56.1532 85.217 54.7801 84.2498 53.4161 82.3108C52.1895 80.5644 51.5762 78.928 51.5762 77.4016C51.5762 75.6827 52.5877 73.4871 54.6015 70.8102C56.7253 68.0278 58.6064 66.6389 60.2404 66.6389C60.3777 66.6389 60.8812 66.9644 61.7508 67.6198C65.6733 70.4755 67.678 75.041 67.678 79.038C67.678 82.7188 66.3232 85.8128 63.5908 88.2835Z" fill="white"/>
<path d="M80.5898 76.7462C78.8734 74.6468 77.0747 73.5925 75.1935 73.5925C74.0493 73.5925 73.1202 73.9913 72.397 74.7797C71.6738 75.5727 71.3122 76.5812 71.3122 77.8096C71.3122 79.6385 72.159 81.5454 73.8479 83.5393C75.5093 85.5012 77.2669 86.4867 79.1206 86.4867C81.734 86.4867 83.0431 85.2033 83.0431 82.6364C83.0431 80.7295 82.2238 78.7631 80.5898 76.7462ZM83.6518 87.5089C82.8462 88.5494 81.1344 89.8145 78.5484 91.3134L77.6056 92.0927C77.2257 92.3631 76.8549 92.5144 76.5025 92.5419C74.2415 92.5419 72.3741 90.8504 70.9049 87.4676C69.7332 84.7678 69.1473 82.1184 69.1473 79.5285C69.1473 74.7247 71.4404 71.0211 75.9716 68.3166C76.8733 67.7757 77.4957 67.4686 77.8527 67.4136C79.8666 67.4136 81.6929 69.2976 83.3268 73.0608C84.6908 76.2557 85.3682 78.983 85.3682 81.2474C85.3682 83.9198 84.8098 86.0146 83.6518 87.5089Z" fill="white"/>
</g>
<defs>
<clipPath id="clip0_249_526">
<rect width="135.818" height="143" fill="white" transform="translate(0.817505)"/>
</clipPath>
</defs>
</svg>
