<svg width="345" height="342" viewBox="0 0 345 342" fill="none" xmlns="http://www.w3.org/2000/svg">
<g clip-path="url(#clip0_140_1296)">
<path fill-rule="evenodd" clip-rule="evenodd" d="M108.491 306.626C106.672 294.91 105.791 304.502 105.997 247.053C105.997 243.956 100.973 245.986 89.517 241.915C72.1836 235.767 73.0179 234.888 60.128 226.596C57.5875 224.959 49.816 227.757 39.9541 222.984C37.6573 221.87 29.3328 217.781 26.0048 214.945C25.5537 214.6 25.2463 214.101 25.1416 213.543C25.0369 212.985 25.1422 212.408 25.4375 211.923C25.7327 211.438 26.1969 211.079 26.7411 210.915C27.2853 210.751 27.8711 210.793 28.386 211.034C28.386 211.034 46.8724 223.274 53.3596 221.169C51.3253 218.857 41.4165 211.745 32.0514 194.245C31.1942 192.753 30.4726 191.187 29.8952 189.566C29.813 189.077 29.884 188.573 30.0986 188.125C30.3132 187.677 30.661 187.306 31.0946 187.063C31.5281 186.819 32.0263 186.715 32.5213 186.765C33.0163 186.814 33.484 187.015 33.8607 187.339C37.498 190.615 39.176 207.571 73.7022 229.451C80.0731 233.054 86.8817 235.825 93.9605 237.695C106.213 240.502 105.791 241.26 105.66 239.211C104.526 220.336 103.026 215.816 101.132 203.332C100.813 201.17 99.7258 202.92 94.2511 199.589C91.7856 198.073 82.6736 195.172 73.7397 186.403C59.7624 172.713 60.353 174.996 45.935 150.422C44.9413 148.718 44.5944 146.903 46.2444 145.902C53.5002 141.457 54.4845 175.604 99.5102 196.435C98.0997 189.455 96.2205 182.576 93.8855 175.847C84.6329 149.317 67.7494 138.883 69.39 103.725C69.4837 101.479 70.1587 92.1021 71.4242 88.9765C72.8585 85.4485 77.7145 86.4779 77.2927 90.4083C74.8834 112.868 73.9835 122.226 89.3764 148.541C107.507 179.544 106.719 198.793 108.669 198.887C110.15 196.136 114.884 177.363 114.903 173.62C115.081 141.017 102.21 134.316 107.16 131.509C108.65 130.667 110.188 131.846 110.91 133.427C112.344 136.74 120.003 151.414 119.797 165.666C119.74 169.128 120.997 174.762 116.347 188.659C111.969 201.76 112.353 199.402 110.113 203.117C107.872 206.832 113.863 212.84 113.863 261.661C119.712 257.057 135.893 238.612 140.542 221.056C141.48 217.313 140.383 213.514 143.355 213.317C146.917 213.074 146.167 218.754 145.305 222.226C139.924 243.927 122.525 259.799 114.444 268.146C113.028 269.606 114.209 270.748 114.069 286.16C113.956 299.823 117.34 303.651 116.881 318.698C116.816 320.757 116.103 322.32 116.694 326.578C117.753 334.373 112.531 340.755 121.54 341.963C133.652 343.582 125.121 313.701 124.531 299.496C124.231 292.009 150.779 276.54 162.91 230.742C167.016 215.329 169.575 201.264 167.213 183.708C166.932 181.603 166.838 177.289 163.772 179.375C139.014 196.267 174.028 176.259 132.837 134.017C122 122.9 103.841 108.862 91.2232 82.716C84.4267 68.7818 85.9172 60.2472 80.6206 64.8046C78.1739 66.9008 26.886 84.9338 17.5584 144.882C15.5148 157.983 17.9053 161.726 17.3241 163.092C8.43704 158.966 5.41845 151.254 3.44043 157.075C-4.57476 180.667 0.628086 219.185 27.5141 247.137C61.7123 282.698 93.1824 289.38 105.772 303.885C108.566 307.113 108.21 306.776 108.491 306.626Z" fill="#DAC0A3"/>
<path fill-rule="evenodd" clip-rule="evenodd" d="M330.413 197.146C333.928 192.904 336.684 188.089 338.56 182.913C346.153 162.681 346.303 147.165 342.76 130.405C339.544 115.263 332.813 102.77 329.345 98.7557C326.326 95.2651 326.223 93.4965 325.595 92.3361C322.961 87.1891 320.908 95.3494 305.73 104.502C286.888 115.881 272.132 118.352 256.552 122.282C238.412 126.886 220.929 135.159 215.135 153.538C209.379 145.92 210.842 143.309 208.695 142.954C205.114 142.364 182.165 177.766 182.962 217.818C183.59 248.981 189.89 249.58 185.484 255.784C177.618 266.864 159.835 284.495 169.238 288.64C176.915 292.019 174.965 285.243 181.734 276.587C182.005 276.05 182.243 275.497 182.446 274.931C194.933 252.986 184.837 273.611 207.664 236.75C209.782 233.334 195.833 204.137 206.886 180.835C208.564 177.298 212.688 179.825 210.935 182.426C206.417 189.117 205.386 214.244 211.404 230.049C213.673 226.362 219.429 214.3 234.465 195.303C237.034 192.056 239.593 189.688 240.212 188.135C241.149 185.683 239.668 186.132 241.009 179.001C244.196 162.026 247.871 148.69 270.942 132.576C272.432 131.546 274.204 130.807 275.188 132.379C278.413 137.498 255.38 139.866 246.408 172.694C240.896 192.851 242.781 182.623 262.279 166.143C280.982 150.356 298.718 149.589 312.18 124.369C317.805 113.86 316.248 112.662 319.005 112.203C321.292 111.876 322.604 114.131 321.873 116.368C308.074 158.413 281.478 152.246 251.893 185.926C284.047 190.605 308.439 171.328 313.099 169.858C313.581 169.704 314.101 169.718 314.574 169.899C315.046 170.08 315.443 170.417 315.698 170.854C315.953 171.29 316.05 171.801 315.975 172.3C315.899 172.8 315.655 173.259 315.283 173.602C314.486 174.369 301.999 181.912 292.306 185.458C280.7 189.697 262.101 193.441 249.183 190.09C248.901 189.981 248.591 189.966 248.3 190.049C248.009 190.132 247.753 190.307 247.571 190.549C240.662 198.765 233.828 207.047 227.988 216.078C227.191 217.313 227.191 217.351 228.597 217.762C236.453 220.074 254.086 226.877 280.588 220.083C296.637 215.966 303.152 210.042 305.805 208.685C308.618 207.244 310.811 210.706 308.036 212.625C295.184 221.515 285.134 223.658 276.304 225.726C284.956 232.183 302.046 226.662 302.196 231.154C302.271 233.25 299.74 233.718 296.984 233.662C286.859 233.428 280.85 233.465 275.319 229.975C274.569 229.507 270.22 226.849 268.757 226.933C258.202 227.504 255.717 227.869 253.167 227.57C216.701 223.826 229.3 213.626 218.398 232.099C197.071 268.24 202.873 257.366 195.177 267.304C207.176 263.869 200.914 264.496 229.197 263.907C239.912 263.692 245.734 264.478 257.47 263.252C307.877 257.993 337.247 228.87 343.969 198.625C345.3 192.776 337.341 199.112 330.413 197.146Z" fill="#DAC0A3"/>
<path fill-rule="evenodd" clip-rule="evenodd" d="M214.395 131.949C214.076 133.961 212.595 140.764 214.863 141.092C218.613 141.644 211.198 131.041 254.096 118.576C255.652 118.118 257.845 118.642 258.511 115.956C260.592 107.534 261.867 100.674 257.648 90.8294C242.584 55.6711 233.556 39.7718 247.037 3.0133C247.871 0.786076 246.549 -0.935809 242.649 0.52405C226.197 6.53193 215.463 -2.08685 169.191 31.6958C150.854 45.0685 123.584 80.1893 117.256 102.724C112.428 119.952 115.484 96.1729 158.682 159.424C161.972 164.234 162.347 168.782 163.51 173.545C164.082 175.847 166.453 176.634 167.822 173.864C169.894 169.69 168.656 165.348 169.256 153.463C169.763 143.412 173.7 138.359 168.863 124.911C162.151 106.252 156.985 96.4443 155.157 81.5836C153.957 71.8606 153.432 71.0652 153.789 69.1187C153.87 68.5877 154.126 68.0986 154.515 67.7277C154.904 67.3568 155.406 67.1249 155.941 67.0683C156.476 67.0117 157.015 67.1334 157.473 67.4146C157.932 67.6958 158.284 68.1206 158.476 68.6227C159.554 71.2991 159.498 88.4712 168.131 107.824C175.969 125.389 173.362 132.988 176.569 121.421C181.518 103.697 181.903 105.512 191.793 75.9875C193.789 70.0264 186.684 46.3505 191.024 34.288C191.062 34.0514 191.152 33.8259 191.285 33.6269C191.419 33.4278 191.594 33.26 191.799 33.1347C192.004 33.0094 192.233 32.9297 192.471 32.9011C192.71 32.8724 192.951 32.8954 193.18 32.9685C195.992 33.3522 193.443 35.7197 195.055 52.087C195.233 53.8557 196.48 63.1389 196.977 64.4303C198.449 61.8381 199.63 57.2059 206.689 46.2944C213.251 36.1409 220.666 26.2026 221.997 25.0141C222.318 24.6871 222.737 24.4743 223.191 24.4084C223.644 24.3425 224.107 24.4272 224.507 24.6495C224.908 24.8718 225.224 25.2193 225.408 25.6385C225.591 26.0578 225.631 26.5256 225.522 26.97C223.778 32.4444 196.339 65.6843 180.946 129.909C180.769 130.837 180.641 131.774 180.562 132.716L180.9 132.838C192.861 121.486 197.352 119.942 213.617 100.552C220.103 92.7348 224.771 83.5778 227.285 73.7416C228.747 70.4756 233.565 72.5625 231.728 77.6252C226.103 93.0005 224.369 95.8079 214.104 108.048C207.289 116.18 198.42 124.818 189.215 130.929C186.482 132.714 184.055 134.926 182.024 137.479C180.496 138.322 179.718 139.763 178.865 146.079C175.772 169.082 179.559 164.543 175.115 191.766C174.731 194.096 173.925 193.169 173.625 195.565C171.75 210.032 167.653 240.428 160.501 253.145C157.688 258.152 161.597 259.415 163.435 256.664C181.753 229.301 178.434 199.243 182.099 182.932C189.29 150.665 208.686 131.949 214.395 131.949Z" fill="#DAC0A3"/>
</g>
<defs>
<clipPath id="clip0_140_1296">
<rect width="345" height="342" fill="white"/>
</clipPath>
</defs>
</svg>
