<svg width="86" height="103" viewBox="0 0 86 103" fill="none" xmlns="http://www.w3.org/2000/svg">
<path fill-rule="evenodd" clip-rule="evenodd" d="M43 98C63.9868 98 81 80.9868 81 60C81 39.0132 63.9868 22 43 22C22.0132 22 5 39.0132 5 60C5 80.9868 22.0132 98 43 98ZM43 103C66.7482 103 86 83.7482 86 60C86 36.2518 66.7482 17 43 17C19.2518 17 0 36.2518 0 60C0 83.7482 19.2518 103 43 103Z" fill="#D9D9D9"/>
<path fill-rule="evenodd" clip-rule="evenodd" d="M26 72.5H60V77.5H26V72.5Z" fill="#D9D9D9"/>
<path fill-rule="evenodd" clip-rule="evenodd" d="M62.139 5.5C72.0961 3.65362 50.318 2 42.5961 2C34.8741 2 11.5961 4 23.0532 5.5C27.9755 6.41276 34.8741 7 42.5961 7C50.318 7 57.2167 6.41276 62.139 5.5ZM42.5961 11C58.6123 11 71.5961 8.53757 71.5961 5.5C71.5961 2.46243 58.6123 0 42.5961 0C26.5798 0 13.5961 2.46243 13.5961 5.5C13.5961 8.53757 26.5798 11 42.5961 11Z" fill="#D9D9D9"/>
<path d="M34 55.5C34 58.5376 31.5376 61 28.5 61C25.4624 61 23 58.5376 23 55.5C23 52.4624 25.4624 50 28.5 50C31.5376 50 34 52.4624 34 55.5Z" fill="#D9D9D9"/>
<path d="M64 55.5C64 58.5376 61.5376 61 58.5 61C55.4624 61 53 58.5376 53 55.5C53 52.4624 55.4624 50 58.5 50C61.5376 50 64 52.4624 64 55.5Z" fill="#D9D9D9"/>
</svg>
