<svg width="235" height="377" viewBox="0 0 235 377" fill="none" xmlns="http://www.w3.org/2000/svg">
<g clip-path="url(#clip0_140_1235)">
<path d="M234.82 137.91C234.677 138.569 234.58 139.237 234.53 139.91C234.15 154.97 233.2 170.01 233.28 185.08C233.28 192.71 233.59 200.34 233.74 207.97C233.82 211.55 233.87 215.13 233.94 218.71C234.034 221.558 233.548 224.396 232.51 227.05C230.83 231.32 229.1 235.57 227.39 239.83C226.57 241.9 225.73 243.96 224.96 246.06C223.965 248.866 223.372 251.798 223.2 254.77C223.03 257.404 223.321 260.047 224.06 262.58C224.352 263.551 224.27 264.596 223.83 265.51C220.83 272.36 217.72 279.2 214.2 285.82C213.47 287.19 212.67 288.52 211.86 289.82C207.548 297.003 202.82 303.929 197.7 310.56C189.653 320.926 180.348 330.251 170 338.32C163.306 343.469 156.243 348.122 148.87 352.24C147.81 352.83 146.72 353.36 145.62 353.89C145.273 354.023 144.915 354.123 144.55 354.19C144.55 353.45 144.45 352.86 144.46 352.28C144.62 346 144.76 339.71 144.97 333.44C145.14 328.51 145.37 323.58 145.62 318.66C145.89 313.19 146.15 307.72 146.55 302.27C147.397 290.937 147.75 279.603 147.61 268.27C147.55 262.87 147.61 257.46 147.61 252.06C147.715 247.871 148.086 243.692 148.72 239.55C148.844 238.44 149.206 237.37 149.783 236.414C150.359 235.457 151.136 234.637 152.06 234.01C154.01 232.66 155.91 231.26 157.91 230.01C167.22 224.12 176.58 218.33 186.09 212.77C190.46 210.21 194.68 207.39 199.24 205.16C199.436 205.019 199.62 204.862 199.79 204.69C199.99 196.13 199.9 187.51 199.69 178.77C199.28 178.699 198.866 178.652 198.45 178.63C194.479 178.715 190.525 179.173 186.64 180C182.663 180.77 178.728 181.742 174.85 182.91C168.039 185.128 161.49 188.082 155.32 191.72C150.581 194.465 146.043 197.542 141.74 200.93C139.633 202.626 137.745 204.577 136.12 206.74C135.343 207.766 134.822 208.962 134.6 210.23C133.966 213.686 133.565 217.18 133.4 220.69C133.29 224.2 133.16 227.69 133.15 231.23C133.022 234.878 133.359 238.527 134.15 242.09C134.218 242.317 134.231 242.557 134.187 242.79C134.144 243.023 134.045 243.243 133.9 243.43C133.82 243.54 133.76 243.66 133.68 243.77C128.52 251.22 124.23 259.2 119.77 267.07C119.13 268.19 118.52 269.31 117.77 270.58C117.502 270.366 117.261 270.121 117.05 269.85C111.877 260.897 106.71 251.947 101.55 243C101.113 242.245 100.944 241.364 101.07 240.5C101.36 237.75 101.68 234.99 101.7 232.23C101.7 227.98 101.64 223.71 101.38 219.47C101.19 216.38 100.65 213.31 100.25 210.23C100.044 208.886 99.481 207.622 98.62 206.57C97.3397 204.823 95.8521 203.238 94.19 201.85C92.19 200.3 90.31 198.69 88.19 197.29C84.94 195.11 81.65 192.97 78.26 191.02C70.606 186.551 62.3332 183.239 53.71 181.19C50.29 180.39 46.83 179.77 43.38 179.11C40.7039 178.776 38.0051 178.659 35.31 178.76L35.18 178.91C35.18 178.97 35.08 179.02 35.07 179.08C34.83 182.33 34.77 200.69 34.99 204.73C35.3375 204.988 35.6979 205.229 36.07 205.45C39.39 207.14 42.57 209.05 45.74 210.99C51.45 214.48 57.23 217.84 62.94 221.33C68.01 224.43 73.04 227.6 78.06 230.78C79.71 231.78 81.27 233.02 82.87 234.16C83.7312 234.76 84.456 235.535 84.9971 236.435C85.5382 237.334 85.8834 238.338 86.01 239.38C86.6431 243.225 87.0305 247.106 87.17 251C87.26 256.07 87.31 261.14 87.27 266.2C87.19 274.71 87.18 283.2 87.65 291.73C87.92 296.59 88.26 301.44 88.56 306.29C88.77 309.8 89.03 313.29 89.17 316.81C89.58 326.6 89.94 336.39 90.32 346.17C90.32 346.77 90.32 347.38 90.32 348.17C89.7638 348.094 89.2128 347.984 88.67 347.84C83.6961 346.301 78.9174 344.19 74.43 341.55C68.32 337.82 62.25 334.03 56.52 329.71C51.2736 325.668 46.3488 321.224 41.79 316.42C36.7698 311.115 32.3034 305.311 28.46 299.1C25.66 294.71 22.93 290.28 20.17 285.88C18.1844 282.503 16.5844 278.914 15.4 275.18C14.65 273.01 14.02 270.8 13.21 268.65C12.329 265.955 11.7423 263.172 11.46 260.35C11.416 260.018 11.416 259.682 11.46 259.35C12.0442 254.425 11.3556 249.433 9.46003 244.85C8.19003 241.51 6.75003 238.23 5.46003 234.91C4.40003 232.28 3.38003 229.63 2.36003 226.99C1.33643 224.332 0.853665 221.497 0.940029 218.65C1.12003 211.43 1.40003 204.2 1.48003 196.98C1.57336 188.98 1.57336 181.007 1.48003 173.06C1.41003 167.32 1.14003 161.59 0.920029 155.85C0.720029 150.78 0.440029 145.73 0.240029 140.66C-0.221417 132.769 -0.00730348 124.854 0.880029 117C1.94813 109.3 3.9045 101.75 6.71003 94.5C12.7719 78.571 22.7039 64.4016 35.61 53.27C42.7085 47.107 50.3194 41.5602 58.36 36.69C64.4 33 70.65 29.6 76.78 26C80.52 23.8333 84.2367 21.6267 87.93 19.38C94.28 15.53 100.6 11.61 106.93 7.75999C109.69 6.17778 112.203 4.20015 114.39 1.88999C114.976 1.25177 115.649 0.69964 116.39 0.249989C116.704 0.0481346 117.073 -0.0532813 117.446 -0.0407775C117.819 -0.0282738 118.18 0.0975571 118.48 0.319989C119.25 0.857406 119.969 1.4632 120.63 2.12999C122.542 4.14299 124.723 5.88271 127.11 7.29999L137.11 13.44C146.9 19.44 156.68 25.44 166.78 30.92C175.015 35.4468 182.924 40.5425 190.45 46.17C198.932 52.3404 206.544 59.626 213.08 67.83C222.053 79.2616 228.501 92.465 232 106.57C233.077 110.758 233.842 115.019 234.29 119.32C234.47 121.06 234.42 122.83 234.53 124.58C234.58 125.38 234.74 126.17 234.85 126.96L234.82 137.91ZM224.13 145.45C224.777 145.084 225.313 144.551 225.684 143.908C226.055 143.264 226.247 142.533 226.24 141.79C226.38 139.5 226.54 137.21 226.5 134.92C226.43 130.664 226.13 126.414 225.6 122.19C224.458 113.142 222.243 104.263 219 95.74C216.385 88.4793 212.632 81.6809 207.88 75.6C202.263 68.6577 195.89 62.3622 188.88 56.83C183.806 52.9086 178.503 49.2922 173 46C163.74 40.3 154.463 34.6333 145.17 29C136.49 23.71 128.24 17.87 121.27 10.38C121 10.0818 120.702 9.81049 120.38 9.56999C120.225 9.43553 120.033 9.3519 119.829 9.33043C119.625 9.30897 119.419 9.3507 119.24 9.44999C119.063 9.55656 118.932 9.72526 118.873 9.92312C118.814 10.121 118.831 10.3338 118.92 10.52C119.172 11.2138 119.487 11.8832 119.86 12.52C121.106 14.5371 122.658 16.3486 124.46 17.89C129.544 22.4434 134.915 26.6654 140.54 30.53C150.04 36.85 159.6 43.08 169.13 49.36C172.51 51.5867 175.88 53.8367 179.24 56.11C187.976 62.1487 195.828 69.3748 202.57 77.58C206.724 82.4945 210.097 88.0192 212.57 93.96C216.995 104.864 219.726 116.38 220.67 128.11C221.08 132.61 221.2 137.11 221.82 141.62C221.857 142.4 222.087 143.159 222.49 143.827C222.894 144.496 223.457 145.054 224.13 145.45ZM206 125.19C206.424 124.536 206.591 123.749 206.47 122.98C206.29 120.98 206.12 118.98 205.83 116.98C204.998 112.121 203.601 107.376 201.67 102.84C200.54 99.95 199.37 97.06 197.96 94.3C194.543 87.7704 190.342 81.682 185.45 76.17C185.1 75.76 184.73 75.37 184.34 74.99C181.147 71.8767 177.947 68.7767 174.74 65.69C173.854 64.8586 172.923 64.0774 171.95 63.35C167.59 60.04 163.06 56.96 158.41 54.09C156.58 52.96 154.63 52.01 152.72 50.99C152.357 50.8145 151.974 50.6836 151.58 50.6C151.052 50.4692 150.497 50.5004 149.987 50.6894C149.477 50.8785 149.035 51.2167 148.72 51.66C148.386 52.1337 148.219 52.7048 148.244 53.2839C148.269 53.8629 148.486 54.4172 148.86 54.86C149.397 55.4629 150.025 55.979 150.72 56.39C152.959 57.7784 155.119 59.2907 157.19 60.92C160.32 63.38 163.51 65.76 166.65 68.22C168.08 69.34 169.49 70.51 170.83 71.74C173.363 74.08 175.86 76.45 178.32 78.85C179.62 80.13 180.86 81.47 182.08 82.85C182.98 83.85 183.8 84.93 184.67 85.96C188.304 90.3203 191.487 95.0377 194.17 100.04C196.3 103.95 198.28 107.95 200.27 111.93C201.997 115.295 203.452 118.793 204.62 122.39C204.84 123.1 205.1 123.8 205.38 124.48C205.564 124.735 205.772 124.973 206 125.19ZM197.51 165.09V164.92C194.57 165.37 191.62 165.76 188.7 166.26C178.175 168.044 167.897 171.065 158.08 175.26C151.657 177.933 145.607 181.425 140.08 185.65C135.996 188.673 132.481 192.397 129.7 196.65C128.809 198.162 128.008 199.724 127.3 201.33C127.083 201.891 126.971 202.488 126.97 203.09C126.972 203.4 127.068 203.703 127.247 203.957C127.426 204.211 127.678 204.404 127.97 204.51C128.24 204.657 128.549 204.716 128.854 204.678C129.159 204.641 129.444 204.508 129.67 204.3C130.069 203.944 130.407 203.526 130.67 203.06C133.056 199.222 136.103 195.836 139.67 193.06C143.044 190.353 146.652 187.95 150.45 185.88C161.243 179.973 172.853 175.7 184.9 173.2C189.25 172.27 193.66 171.59 198.04 170.78C198.704 170.675 199.353 170.486 199.97 170.22C200.489 169.964 200.913 169.548 201.177 169.033C201.442 168.518 201.534 167.931 201.44 167.36C201.333 166.791 201.053 166.269 200.637 165.866C200.222 165.464 199.692 165.199 199.12 165.11C198.582 165.058 198.04 165.052 197.5 165.09H197.51ZM42.86 166.94C40.3 167.15 37.75 167.35 35.19 167.58C34.5871 167.648 33.9935 167.782 33.42 167.98C33.1077 168.101 32.8344 168.305 32.63 168.57C32.4936 168.743 32.4009 168.947 32.3599 169.163C32.319 169.38 32.3309 169.603 32.3947 169.814C32.4585 170.025 32.5723 170.218 32.7264 170.376C32.8806 170.533 33.0705 170.651 33.28 170.72C34.122 170.953 34.9874 171.09 35.86 171.13C38.55 171.33 41.28 171.27 43.94 171.7C49.1451 172.47 54.2956 173.573 59.36 175C66.0954 176.982 72.6306 179.59 78.88 182.79C84.553 185.641 89.915 189.073 94.88 193.03C96.03 193.97 97.23 194.84 98.44 195.71C98.9306 196.064 99.4651 196.353 100.03 196.57C100.579 196.764 101.177 196.771 101.73 196.59C102.284 196.41 102.762 196.051 103.09 195.57C103.411 195.089 103.569 194.518 103.542 193.94C103.515 193.363 103.304 192.809 102.94 192.36C102.497 191.852 102.005 191.39 101.47 190.98C100.37 190.08 99.23 189.23 98.16 188.31C94.4093 185.105 90.3609 182.265 86.07 179.83C75.18 173.61 63.64 169.22 51.13 167.64C48.3916 167.227 45.629 166.993 42.86 166.94ZM213.44 269.59C213.988 268.996 214.399 268.288 214.643 267.517C214.887 266.746 214.957 265.931 214.85 265.13L214.7 263.72C214.181 258.596 214.716 253.42 216.27 248.51C217.14 245.81 218.21 243.17 219.27 240.51C220.57 237.25 221.98 234.03 223.27 230.77C224.44 227.889 225.344 224.906 225.97 221.86C227.339 214.886 227.552 207.733 226.6 200.69C226.4 199.22 226.17 197.75 225.87 196.3C225.699 195.58 225.43 194.887 225.07 194.24C225.01 194.096 224.909 193.972 224.779 193.885C224.649 193.798 224.496 193.752 224.34 193.752C224.184 193.752 224.031 193.798 223.901 193.885C223.771 193.972 223.67 194.096 223.61 194.24C223.221 194.863 222.918 195.536 222.71 196.24C222.299 197.737 222.014 199.265 221.86 200.81C221.7 203.09 221.74 205.4 221.75 207.69C221.985 215.554 220.415 223.367 217.16 230.53C215.75 233.53 214.42 236.53 213.16 239.61C210.589 245.884 209.389 252.635 209.64 259.41C209.759 261.704 210.118 263.98 210.71 266.2C210.856 266.944 211.181 267.641 211.657 268.232C212.133 268.822 212.744 269.288 213.44 269.59Z" fill="#DAC0A3"/>
<path d="M8.00004 270.09C8.62004 272.85 9.09004 275.3 9.73004 277.71C10.6059 281.39 11.9185 284.952 13.64 288.32C16.3 293.24 19 298.17 22 302.9C27.3332 311.365 33.6211 319.19 40.74 326.22C47.085 332.49 54.0092 338.145 61.42 343.11C63.21 344.32 64.98 345.56 66.76 346.79C73.143 351.228 80.1223 354.74 87.49 357.22C88.32 357.51 89.15 357.81 89.97 358.12C90.08 358.12 90.17 358.29 90.34 358.44C90.3843 358.675 90.4143 358.912 90.43 359.15C90.31 363.81 90.2 368.47 90.06 373.15C90.0456 373.618 89.9544 374.081 89.79 374.52C89.6832 374.862 89.506 375.177 89.2697 375.446C89.0333 375.715 88.7433 375.931 88.4182 376.081C88.093 376.231 87.7401 376.311 87.3822 376.316C87.0242 376.321 86.6692 376.251 86.34 376.11C85.1385 375.651 83.9053 375.28 82.65 375C82.002 374.807 81.3727 374.556 80.77 374.25C79.62 373.68 78.46 373.12 77.37 372.46C66.4705 366.056 56.2453 358.568 46.85 350.11C37.2463 341.37 28.81 331.428 21.75 320.53C19.37 316.84 17.13 313.06 14.86 309.31C11.5891 303.71 8.77018 297.858 6.43004 291.81C5.20896 288.664 4.22292 285.432 3.48004 282.14C3.40004 281.81 3.34004 281.48 3.27004 281.14C3.06213 280.252 3.04831 279.329 3.22952 278.435C3.41073 277.541 3.7827 276.697 4.32004 275.96C5.46004 274.38 6.32004 272.61 7.32004 270.96C7.48004 270.7 7.66004 270.51 8.00004 270.09Z" fill="#DAC0A3"/>
<path d="M144.64 363.42C145.17 363.17 145.76 362.85 146.37 362.59C152.927 359.701 159.153 356.114 164.94 351.89C173.381 345.807 181.314 339.048 188.66 331.68C196.739 323.695 204.076 314.993 210.58 305.68C215.126 299.293 218.975 292.437 222.06 285.23C223.92 280.81 225.74 276.38 227.19 271.81C227.19 271.69 227.33 271.6 227.49 271.37C227.684 271.51 227.859 271.675 228.01 271.86C229.01 273.46 230.01 275.09 231.01 276.68C231.341 277.15 231.575 277.681 231.699 278.243C231.822 278.804 231.833 279.384 231.73 279.95C231.55 280.88 231.46 281.82 231.25 282.74C230.326 286.616 229.082 290.409 227.53 294.08C225.064 300.004 222.173 305.742 218.88 311.25C214.403 318.96 209.373 326.336 203.83 333.32C194.877 344.28 184.51 354.005 173 362.24C168.18 365.73 163.18 368.94 158.11 372.05C156.84 372.82 155.532 373.524 154.19 374.16C153.268 374.567 152.315 374.902 151.34 375.16C150.49 375.365 149.658 375.636 148.85 375.97C148.457 376.178 148.019 376.286 147.574 376.287C147.129 376.287 146.691 376.18 146.297 375.973C145.903 375.766 145.566 375.467 145.314 375.1C145.062 374.734 144.902 374.312 144.85 373.87C144.811 373.672 144.788 373.471 144.78 373.27C144.68 370.27 144.57 367.2 144.48 364.16C144.509 363.909 144.563 363.661 144.64 363.42Z" fill="#DAC0A3"/>
<path d="M99.29 246.22C99.74 246.94 100.14 247.56 100.51 248.22C105.177 256.12 109.843 264.017 114.51 271.91C114.98 272.73 115.508 273.516 116.09 274.26C117.09 275.55 118.25 275.54 119.27 274.26C119.926 273.406 120.537 272.518 121.1 271.6C126.1 263.72 131.21 255.95 135.6 247.73C135.766 247.464 135.947 247.207 136.14 246.96C137.14 247.78 138.03 248.53 138.92 249.34C139.219 249.618 139.436 249.973 139.547 250.367C139.658 250.76 139.659 251.176 139.55 251.57C139.435 252.097 139.253 252.608 139.01 253.09C138.26 254.6 137.53 256.09 136.69 257.58C134.11 262.1 131.9 266.8 129.69 271.52C127.69 275.74 125.79 279.97 123.88 284.22C122.81 286.62 121.88 289.06 120.82 291.49C120.58 292.04 120.3 292.58 120.03 293.13C119.818 293.667 119.444 294.124 118.96 294.437C118.476 294.751 117.906 294.906 117.33 294.88C116.756 294.88 116.196 294.705 115.724 294.378C115.252 294.051 114.891 293.587 114.69 293.05C114.53 292.75 114.38 292.45 114.24 292.14C113.77 291.09 113.24 290.06 112.84 288.99C109.4 280.33 105.3 271.99 101.29 263.58C100.47 261.87 99.52 260.24 98.64 258.58C97.64 256.67 96.64 254.77 95.64 252.82C94.64 250.87 94.97 250.07 96.5 248.74C97.45 247.94 98.28 247.15 99.29 246.22Z" fill="#DAC0A3"/>
</g>
<defs>
<clipPath id="clip0_140_1235">
<rect width="234.82" height="376.31" fill="white"/>
</clipPath>
</defs>
</svg>
