<svg width="332" height="306" viewBox="0 0 332 306" fill="none" xmlns="http://www.w3.org/2000/svg">
<g clip-path="url(#clip0_195_874)">
<path d="M166 247.904C166.028 247.822 166.058 247.736 166.089 247.649C166.045 247.742 166.015 247.828 166 247.904Z" fill="#DAC0A3"/>
<path d="M165.911 247.649C165.932 247.709 165.953 247.769 165.973 247.827C165.982 247.853 165.991 247.879 166 247.904C165.985 247.828 165.955 247.742 165.911 247.649Z" fill="#DAC0A3"/>
<path d="M160.312 263.005L166 265.102V267.619L159.68 265.102C154.624 265.382 144.302 265.941 143.459 265.941C142.617 265.941 139.597 267.899 138.193 268.877V265.941L145.566 263.844L160.312 263.005Z" fill="#DAC0A3"/>
<path d="M171.688 263.005L166 265.102V267.619L172.32 265.102C177.376 265.382 187.698 265.941 188.541 265.941C189.383 265.941 192.403 267.899 193.807 268.877V265.941L186.434 263.844L171.688 263.005Z" fill="#DAC0A3"/>
<path fill-rule="evenodd" clip-rule="evenodd" d="M73.3769 157.685C74.0967 161.428 75.0813 164.697 76.1994 167.535C61.2523 148.163 40.5574 122.968 26.7538 111.368L3.58122 93.1213H0C7.93485 105.146 24.9421 131.796 29.4924 142.199C34.0426 152.602 51.0499 187.361 58.9848 203.441L70.3604 207.845C73.6683 212.854 82.8603 222.333 93.5555 220.94L102.17 258.391L141.774 306H190.226L229.83 258.391L238.444 220.94C249.14 222.333 258.332 212.854 261.64 207.845L273.015 203.441C280.95 187.361 297.957 152.602 302.508 142.199C307.058 131.796 324.065 105.146 332 93.1213H328.419L305.246 111.368C291.443 122.968 270.748 148.163 255.801 167.535C256.919 164.697 257.903 161.428 258.623 157.685C262.648 141.924 264.459 122.775 263.49 104.701C262.424 84.829 250.791 64.9038 245.107 57.4252C243.597 55.0214 236.369 47.5961 219.532 37.1261C211.717 33.6538 194.329 25.1068 187.295 18.6966C182.684 14.4935 176.723 9.29526 172.038 5.20997L172.036 5.20803L172.029 5.20207C169.708 3.17772 167.7 1.42718 166.327 0.207198L166.327 0C166.289 0.0341643 166.25 0.0688038 166.211 0.103912C166.171 0.0688038 166.132 0.0341643 166.094 0L166.094 0.207517C164.552 1.57147 162.165 3.59847 159.42 5.92979L159.418 5.93125C154.751 9.8946 149.049 14.7372 144.705 18.6966C137.671 25.1068 120.283 33.6538 112.468 37.1261C95.6312 47.5961 88.4026 55.0214 86.8928 57.4252C81.2092 64.9038 69.5759 84.829 68.5104 104.701C67.5411 122.775 69.3516 141.924 73.3769 157.685ZM166 108.624C163.424 110.371 157.771 116.054 155.77 124.805C155.133 124.477 154.459 124.146 153.75 123.816C145.849 118.915 132.123 109.159 126.713 100.637C120.765 91.2654 118.216 83.5978 117.685 80.9355C118.173 87.9155 120.263 101.283 125 113.238C126.875 112.561 128.372 112.115 129.345 111.997C134.907 111.326 143.6 119.967 147.251 124.371C136.527 115.925 115.831 120.181 105.417 123.804C104.811 124.259 104.217 124.742 103.636 125.254C100.314 138.204 92.8949 150.836 89.5304 155.622C89.3954 157.605 89.3025 160.96 89.4487 164.711L91.0051 163.592L109.122 153.944L148.726 174.288L156.731 182.467L105.962 160.865L89.4903 165.656C89.5736 167.348 89.7072 169.103 89.9086 170.835L107.437 166.318L138.193 178.483C142.547 180.37 151.675 184.145 153.36 184.145C154.962 184.145 158.084 186.796 159.656 188.319L159.68 188.13L159.662 188.325C159.742 188.403 159.819 188.478 159.891 188.55L159.208 193.126L155.678 230.496C154.203 229.867 151.085 228.609 150.411 228.609C149.737 228.609 148.024 233.782 147.251 236.369L151.254 237.627L156.52 234.481C161.285 237.262 164.701 244.255 165.911 247.649C164.997 245.697 158.109 240.229 154.624 237.627L150.411 239.515L145.355 237.627V233.642C145.987 232.104 147.673 228.567 149.358 226.721C151.043 224.875 153.571 226.791 154.624 227.979L158.125 200.384L156.731 209.733L154.414 212.879L146.619 203.65L127.028 205.538C129.696 205.119 135.286 203.776 136.297 201.763C137.504 199.36 135.308 199.558 133.066 199.761C132.437 199.818 131.803 199.875 131.241 199.875C127.365 199.875 119.936 199.176 116.706 198.827L117.548 203.021C113.967 200.854 106.72 196.142 106.383 194.632C106.046 193.122 104.558 189.948 103.855 188.55L91.8529 181.339C92.5438 185.994 92.7618 191.312 92.776 195.455C94.4379 198.137 99.9478 206.922 105.751 214.976C112.703 224.624 116.495 234.146 118.18 247.065C120.136 262.058 122.455 272.713 123.957 279.029L144.934 304.112H187.066L208.043 279.029C209.545 272.713 211.864 262.058 213.82 247.065C215.505 234.146 219.297 224.624 226.249 214.976C232.052 206.922 237.562 198.137 239.224 195.455C239.238 191.312 239.456 185.994 240.147 181.339L228.145 188.55C227.442 189.948 225.954 193.122 225.617 194.632C225.28 196.142 218.033 200.854 214.452 203.021L215.294 198.827C212.064 199.176 204.635 199.875 200.759 199.875C200.197 199.875 199.563 199.818 198.934 199.761C196.692 199.558 194.496 199.36 195.703 201.763C196.714 203.776 202.304 205.119 204.972 205.538L185.381 203.65L177.586 212.879L175.269 209.733L173.875 200.384L177.376 227.979C178.429 226.791 180.957 224.875 182.642 226.721C184.327 228.567 186.013 232.104 186.645 233.642V237.627L181.589 239.515L177.376 237.627C173.891 240.229 167.003 245.697 166.089 247.649C167.299 244.255 170.715 237.262 175.48 234.481L180.746 237.627L184.749 236.369C183.976 233.782 182.263 228.609 181.589 228.609C180.915 228.609 177.797 229.867 176.322 230.496L172.792 193.126L172.109 188.55C172.138 188.521 172.168 188.491 172.199 188.461C172.244 188.417 172.29 188.371 172.338 188.325L172.32 188.13L172.344 188.319C173.916 186.796 177.038 184.145 178.64 184.145C180.325 184.145 189.453 180.37 193.807 178.483L224.563 166.318L242.091 170.835C242.293 169.103 242.426 167.348 242.51 165.656L226.038 160.865L175.269 182.467L183.274 174.288L222.878 153.944L240.995 163.592L242.551 164.711C242.697 160.96 242.605 157.605 242.47 155.622C239.105 150.836 231.686 138.204 228.364 125.254C227.783 124.742 227.189 124.259 226.583 123.804C216.169 120.181 195.473 115.925 184.749 124.371C188.4 119.967 197.093 111.326 202.655 111.997C203.628 112.115 205.125 112.561 207 113.238C211.737 101.283 213.827 87.9155 214.315 80.9355C213.784 83.5978 211.235 91.2654 205.287 100.637C199.877 109.159 186.151 118.915 178.25 123.816C177.541 124.146 176.867 124.477 176.23 124.805C174.229 116.054 168.576 110.371 166 108.624ZM114.551 267.781L105.119 256.503L93.298 203.043C96.2733 207.981 101.6 217.013 105.33 223.995C109.307 231.439 112.972 255.046 114.551 267.781ZM91.8119 181.067C91.5917 179.631 91.3255 178.261 91.0051 177.014C90.6279 175.547 90.3316 173.961 90.1012 172.333L97.9568 174.288L119.023 175.337C125.062 177.294 137.94 181.796 141.142 184.145C144.344 186.494 146.83 189.598 147.673 190.857C146.76 191.136 144.091 192.409 140.721 195.261C137.35 198.113 130.188 198.547 127.028 198.407C124.219 197.918 117.59 196.394 113.546 194.212C109.501 192.031 107.085 185.893 106.383 183.097H103.013L100.485 180.37L107.437 176.595H97.3249L91.8119 181.067ZM89.5304 191.066C89.1696 189.957 88.7855 188.745 88.3886 187.455C74.3891 170.292 45.1936 136.27 34.7589 130.663C39.0423 139.612 49.1259 158.977 55.1929 164.85L57.2995 162.962L58.9848 165.899C58.0017 170.722 57.7629 181.587 64.6726 186.452L70.1497 187.711C71.2733 191.556 73.1832 199.833 71.835 202.182C70.7001 204.16 81.3283 205.879 89.369 206.791C85.9225 205.322 81.1724 202.512 79.4188 198.617C78.4641 196.497 77.919 193.662 77.3819 190.87C76.3784 185.652 75.4028 180.58 71.835 180.58C67.4533 180.58 66.3579 182.677 66.3579 183.726C65.445 182.677 63.9563 180.076 65.3046 178.063C66.6528 176.05 69.6582 174.987 70.9924 174.707C72.8181 175.756 77.0594 178.818 79.4188 182.677C79.9597 183.562 80.6283 184.715 81.375 186.003L81.3753 186.003C83.8341 190.244 87.1403 195.946 89.5304 198.35V191.066ZM217.449 267.781L226.881 256.503L238.702 203.043C235.727 207.981 230.4 217.013 226.67 223.995C222.693 231.439 219.028 255.046 217.449 267.781ZM240.188 181.067C240.408 179.631 240.675 178.261 240.995 177.014C241.372 175.547 241.668 173.961 241.899 172.333L234.043 174.288L212.977 175.337C206.938 177.294 194.06 181.796 190.858 184.145C187.656 186.494 185.17 189.598 184.327 190.857C185.24 191.136 187.909 192.409 191.279 195.261C194.65 198.113 201.812 198.547 204.972 198.407C207.781 197.918 214.41 196.394 218.454 194.212C222.499 192.031 224.915 185.893 225.617 183.097H228.987L231.515 180.37L224.563 176.595H234.675L240.188 181.067ZM242.47 191.066C242.83 189.957 243.214 188.745 243.611 187.455C257.611 170.292 286.806 136.27 297.241 130.663C292.958 139.612 282.874 158.977 276.807 164.85L274.701 162.962L273.015 165.899C273.998 170.722 274.237 181.587 267.327 186.452L261.85 187.711C260.727 191.556 258.817 199.833 260.165 202.182C261.3 204.16 250.672 205.879 242.631 206.791C246.078 205.322 250.828 202.512 252.581 198.617C253.536 196.497 254.081 193.663 254.618 190.871L254.618 190.87C255.622 185.652 256.597 180.58 260.165 180.58C264.547 180.58 265.642 182.677 265.642 183.726C266.555 182.677 268.044 180.076 266.695 178.063C265.347 176.05 262.342 174.987 261.008 174.707C259.182 175.756 254.941 178.818 252.581 182.677C252.04 183.562 251.372 184.715 250.625 186.003L250.625 186.003C248.166 190.244 244.86 195.946 242.47 198.35V191.066Z" fill="#DAC0A3"/>
</g>
<defs>
<clipPath id="clip0_195_874">
<rect width="332" height="306" fill="white"/>
</clipPath>
</defs>
</svg>
