<svg width="113" height="100" viewBox="0 0 113 100" fill="none" xmlns="http://www.w3.org/2000/svg">
<g clip-path="url(#clip0_162_146)">
<path d="M111.786 62.4667C111.483 61.7366 110.97 61.1127 110.312 60.6736C109.654 60.2346 108.881 60.0002 108.09 60H64.5469C70.632 50.5333 76.0632 39.1333 76.0632 28.5733C76.1019 24.8584 75.4077 21.1722 74.0202 17.7254C72.6326 14.2787 70.579 11.1388 67.9766 8.48532C65.3742 5.83183 62.274 3.71668 58.8532 2.26074C55.4324 0.804792 51.7579 0.0365819 48.0399 0C44.3218 0.0365819 40.6474 0.804792 37.2266 2.26074C33.8058 3.71668 30.7056 5.83183 28.1032 8.48532C25.5008 11.1388 23.4472 14.2787 22.0596 17.7254C20.6721 21.1722 19.9779 24.8584 20.0166 28.5733C20.0166 40.5733 27.0892 53.7733 34.135 63.8933L1.33447 93.0133C0.728211 93.553 0.300517 94.2641 0.108137 95.0523C-0.0842441 95.8404 -0.0322173 96.6684 0.257314 97.4264C0.546845 98.1843 1.06019 98.8364 1.72924 99.296C2.39828 99.7557 3.1914 100.001 4.00335 100H76.0632C77.1245 99.9991 78.1421 99.577 78.8922 98.8267L110.919 66.8267C111.479 66.2671 111.86 65.5542 112.014 64.7781C112.169 64.0021 112.089 63.1976 111.786 62.4667ZM32.0266 28C32.0266 24.8355 32.9658 21.7421 34.7253 19.1109C36.4849 16.4797 38.9858 14.4289 41.9119 13.2179C44.8379 12.0069 48.0577 11.6901 51.1639 12.3074C54.2702 12.9248 57.1235 14.4487 59.363 16.6863C61.6025 18.9239 63.1276 21.7749 63.7455 24.8786C64.3634 27.9823 64.0463 31.1993 62.8342 34.1229C61.6222 37.0466 59.5698 39.5454 56.9364 41.3035C54.303 43.0616 51.207 44 48.0399 44C43.7929 44 39.7199 42.3143 36.7168 39.3137C33.7137 36.3131 32.0266 32.2435 32.0266 28ZM38.9123 70.3467C42.0749 74.3467 44.8773 77.56 46.5186 79.3333C46.7113 79.5452 46.9461 79.7146 47.2081 79.8304C47.4701 79.9463 47.7534 80.0062 48.0399 80.0062C48.3264 80.0062 48.6097 79.9463 48.8717 79.8304C49.1337 79.7146 49.3685 79.5452 49.5612 79.3333C51.5094 77.2267 55.0724 73.1867 58.9022 68H98.4284L91.9697 74.4533C75.476 79.64 64.1199 69.3333 60.0499 80C57.381 87.0933 50.8556 89.12 45.6112 92H14.5321L38.9123 70.3467Z" fill="white"/>
</g>
<defs>
<clipPath id="clip0_162_146">
<rect width="112.093" height="100" fill="white"/>
</clipPath>
</defs>
</svg>
