<svg width="215" height="311" viewBox="0 0 215 311" fill="none" xmlns="http://www.w3.org/2000/svg">
<g clip-path="url(#clip0_195_772)">
<path fill-rule="evenodd" clip-rule="evenodd" d="M59.3823 1.36387L49.7423 44.551C49.9994 50.335 53.7525 63.4453 66.7087 69.6149V63.8309C64.9092 62.4171 62.1586 59.1266 65.5519 57.2758C68.9451 55.4249 81.8756 49.0496 87.9166 46.0934C87.531 44.808 87.6852 42.2374 91.387 42.2374H107.197V145.578L100.256 140.565L104.497 112.031C103.726 111.517 101.798 111.491 100.256 115.501C98.7134 119.511 93.9577 127.198 91.7726 130.54C88.5593 120.514 83.1352 99.4603 87.1454 95.4501L85.2174 96.2213L76.3486 110.488L78.2766 119.357L107.197 157.917V204.575L96.7854 214.215C96.5283 214.6 96.1684 215.603 96.7854 216.528C97.4024 217.454 103.983 224.369 107.197 227.711V311L70.5646 268.198C67.3513 261.001 63.4696 242.826 73.6494 227.711L65.1663 235.423C63.4953 229.381 60.5391 216.528 62.0815 213.443C63.167 211.272 58.0187 206.657 52.8302 202.005C48.8033 198.395 44.7522 194.763 43.5727 192.235C44.2154 195.449 46.0405 202.415 48.1999 204.575C48.6809 205.056 49.2722 205.549 49.9279 206.096C52.9512 208.618 57.3436 212.283 58.6111 221.155C59.845 229.793 61.4388 241.978 62.0815 246.991L38.5599 227.711C37.7887 226.811 36.0921 223.546 35.4751 217.685L24.2927 187.608L17.352 189.922L28.1487 206.117C25.4495 203.418 19.5113 197.865 17.352 197.248L0 193.007L22.7504 171.028L27.7631 163.701C26.3493 160.873 23.0588 154.601 21.208 152.133C18.8944 149.048 17.352 145.578 21.208 140.565C24.2927 136.555 25.8351 134.267 26.2207 133.624L26.9919 122.056L29.6911 115.887L43.1871 131.696V119.357L41.2591 120.514L29.6911 112.802L11.9536 93.1365C10.4112 92.3653 8.09758 89.6661 11.1824 85.0389C14.2672 80.4117 15.8096 73.8565 16.1952 71.1573C16.1952 65.3733 17.0435 52.263 20.4368 46.0934C22.6002 42.1599 30.4816 33.8125 37.941 25.912C45.1064 18.323 51.8825 11.1463 52.8271 8.69025C54.7551 3.67746 60.9247 -2.87772 59.3823 1.36387ZM95.243 159.074C91.8497 149.82 67.0943 131.825 55.1407 123.984C56.3746 126.761 61.5673 135.681 64.0095 139.794C70.3076 143.907 83.675 152.981 86.7598 156.375C89.8446 159.768 91.9011 165.758 92.5438 168.328L100.641 176.426C100.256 174.498 98.6363 168.328 95.243 159.074ZM60.5391 151.362C53.444 147.969 46.786 143.521 44.3439 141.722C45.1151 149.948 47.7372 168.174 52.0559 175.269C56.3746 182.364 69.0223 189.022 74.8062 191.464L72.4926 186.066C63.5467 185.757 56.426 175.141 53.9839 169.871L52.0559 168.714L45.8863 145.964L53.2127 155.604L51.6703 156.76C52.313 158.688 54.6008 164.01 58.6111 169.871C62.3965 175.403 68.8206 177.637 73.4 179.23C74.8848 179.746 76.1757 180.195 77.1198 180.667C80.2046 182.21 84.8318 189.022 86.7598 192.235L88.3022 184.909C87.7881 182.338 86.3742 175.886 84.8318 170.642C82.9038 164.087 69.4078 155.604 60.5391 151.362ZM76.3486 252.775H80.5902L82.5182 251.232L94.4718 262.414C93.8291 262.672 92.2353 262.877 91.0014 261.643C89.7675 260.409 82.7753 257.53 79.4334 256.245C78.1481 255.345 75.7317 253.391 76.3486 252.775Z" fill="#DAC0A3"/>
<path fill-rule="evenodd" clip-rule="evenodd" d="M155.011 1.36387L164.651 44.551C164.394 50.335 160.641 63.4453 147.684 69.6149V63.8309C149.484 62.4171 152.235 59.1266 148.841 57.2758C145.448 55.4249 132.518 49.0496 126.477 46.0934C126.862 44.808 126.708 42.2374 123.006 42.2374H107.197V145.578L114.137 140.565L109.896 112.031C110.667 111.517 112.595 111.491 114.137 115.501C115.68 119.511 120.435 127.198 122.621 130.54C125.834 120.514 131.258 99.4603 127.248 95.4501L129.176 96.2213L138.045 110.488L136.117 119.357L107.197 157.917V204.575L117.608 214.215C117.865 214.6 118.225 215.603 117.608 216.528C116.991 217.454 110.41 224.369 107.197 227.711V311L143.828 268.198C147.042 261.001 150.924 242.826 140.744 227.711L149.227 235.423C150.898 229.381 153.854 216.528 152.312 213.443C151.226 211.272 156.374 206.657 161.563 202.005C165.59 198.395 169.641 194.763 170.82 192.235C170.178 195.449 168.353 202.415 166.193 204.575C165.712 205.056 165.121 205.549 164.465 206.096C161.442 208.618 157.05 212.283 155.782 221.155C154.548 229.793 152.954 241.978 152.312 246.991L175.833 227.711C176.604 226.811 178.301 223.546 178.918 217.685L190.1 187.608L197.041 189.922L186.244 206.117C188.944 203.418 194.882 197.865 197.041 197.248L214.393 193.007L191.643 171.028L186.63 163.701C188.044 160.873 191.334 154.601 193.185 152.133C195.499 149.048 197.041 145.578 193.185 140.565C190.1 136.555 188.558 134.267 188.172 133.624L187.401 122.056L184.702 115.887L171.206 131.696V119.357L173.134 120.514L184.702 112.802L202.44 93.1365C203.982 92.3653 206.296 89.6661 203.211 85.0389C200.126 80.4117 198.584 73.8565 198.198 71.1573C198.198 65.3733 197.35 52.263 193.956 46.0934C191.793 42.1599 183.912 33.8125 176.452 25.912C169.287 18.323 162.511 11.1463 161.566 8.69025C159.638 3.67746 153.468 -2.87772 155.011 1.36387ZM119.15 159.074C122.543 149.82 147.299 131.825 159.252 123.984C158.019 126.761 152.826 135.681 150.384 139.794C144.086 143.907 130.718 152.981 127.633 156.375C124.549 159.768 122.492 165.758 121.849 168.328L113.752 176.426C114.137 174.498 115.757 168.328 119.15 159.074ZM153.854 151.362C160.949 147.969 167.607 143.521 170.049 141.722C169.278 149.948 166.656 168.174 162.337 175.269C158.019 182.364 145.371 189.022 139.587 191.464L141.9 186.066C150.846 185.757 157.967 175.141 160.409 169.871L162.337 168.714L168.507 145.964L161.18 155.604L162.723 156.76C162.08 158.688 159.792 164.01 155.782 169.871C151.997 175.403 145.573 177.637 140.993 179.23C139.508 179.746 138.217 180.195 137.273 180.667C134.189 182.21 129.561 189.022 127.633 192.235L126.091 184.909C126.605 182.338 128.019 175.886 129.561 170.642C131.489 164.087 144.985 155.604 153.854 151.362ZM138.045 252.775H133.803L131.875 251.232L119.921 262.414C120.564 262.672 122.158 262.877 123.392 261.643C124.626 260.409 131.618 257.53 134.96 256.245C136.245 255.345 138.661 253.391 138.045 252.775Z" fill="#DAC0A3"/>
</g>
<defs>
<clipPath id="clip0_195_772">
<rect width="214.393" height="311" fill="white"/>
</clipPath>
</defs>
</svg>
