<svg width="95" height="87" viewBox="0 0 95 87" fill="none" xmlns="http://www.w3.org/2000/svg">
<path d="M47 70.0691C37.6111 70.0691 30 62.0103 30 52.0691H64C64 62.0103 56.3889 70.0691 47 70.0691Z" fill="#D9D9D9"/>
<path d="M37.6348 43C37.6348 38.2427 33.7783 34.3862 29.021 34.3862C24.2637 34.3862 20.4072 38.2427 20.4072 43H37.6348Z" fill="#D9D9D9"/>
<path d="M65.1991 34.3862C69.9563 34.3862 73.8129 38.2427 73.8129 43H56.5853C56.5853 38.2427 60.4418 34.3862 65.1991 34.3862Z" fill="#D9D9D9"/>
<path fill-rule="evenodd" clip-rule="evenodd" d="M0.513492 0C3.21653 4.80542 11.3519 9.95984 16.5331 12.725C24.3193 4.90741 35.0946 0.0690918 47 0.0690918C58.9765 0.0690918 69.8095 4.96539 77.6063 12.8655C82.7707 10.1372 91.1409 4.888 93.8905 0C95.0801 5.68359 94.8824 17.8412 85.701 24.3054C88.4552 29.9755 90 36.3419 90 43.0691C90 66.8174 70.7482 86.0691 47 86.0691C23.2518 86.0691 4 66.8174 4 43.0691C4 36.2568 5.58413 29.8146 8.40409 24.0906C-0.482571 17.5753 -0.663067 5.62122 0.513492 0ZM85 43.0691C85 64.0559 67.9868 81.0691 47 81.0691C26.0132 81.0691 9 64.0559 9 43.0691C9 22.0823 26.0132 5.06909 47 5.06909C67.9868 5.06909 85 22.0823 85 43.0691Z" fill="#D9D9D9"/>
</svg>
