<svg width="86" height="86" viewBox="0 0 86 86" fill="none" xmlns="http://www.w3.org/2000/svg">
<path fill-rule="evenodd" clip-rule="evenodd" d="M43 81C63.9868 81 81 63.9868 81 43C81 22.0132 63.9868 5 43 5C22.0132 5 5 22.0132 5 43C5 63.9868 22.0132 81 43 81ZM43 86C66.7482 86 86 66.7482 86 43C86 19.2518 66.7482 0 43 0C19.2518 0 0 19.2518 0 43C0 66.7482 19.2518 86 43 86Z" fill="#D9D9D9"/>
<path fill-rule="evenodd" clip-rule="evenodd" d="M26 55.5H60V60.5H26V55.5Z" fill="#D9D9D9"/>
<path d="M34 38.5C34 41.5376 31.5376 44 28.5 44C25.4624 44 23 41.5376 23 38.5C23 35.4624 25.4624 33 28.5 33C31.5376 33 34 35.4624 34 38.5Z" fill="#D9D9D9"/>
<path d="M64 38.5C64 41.5376 61.5376 44 58.5 44C55.4624 44 53 41.5376 53 38.5C53 35.4624 55.4624 33 58.5 33C61.5376 33 64 35.4624 64 38.5Z" fill="#D9D9D9"/>
</svg>
