<svg width="237" height="389" viewBox="0 0 237 389" fill="none" xmlns="http://www.w3.org/2000/svg">
<g clip-path="url(#clip0_140_1302)">
<path fill-rule="evenodd" clip-rule="evenodd" d="M150.892 359.8C144.694 361.109 145.317 361.657 130.895 362.288C128.294 362.399 126.398 359.958 129.808 356.153C145.809 338.35 154.218 283.292 130.022 245.293C119.216 228.317 109.719 222.089 104.367 203.526C104.023 202.32 103.893 203.86 103.215 208.743C100.799 226.071 120.266 267.643 107.573 305.967C102.211 322.071 92.5012 329.598 87.0004 334.434C85.7739 335.52 84.5288 336.346 83.1721 335.482C80.4496 333.738 85.9597 326.396 78.9164 309.782C77.3461 306.069 74.5957 303.238 71.4829 300.315C72.6444 305.113 73.8895 309.958 73.3413 322.479C72.886 332.447 73.0997 333.366 71.2877 334.146C69.4758 334.926 68.5838 334.267 61.9122 327.185C44.815 309.03 46.8221 293.771 45.6513 296.556C37.4187 316.39 35.8948 330.721 36.4616 355.029C36.5824 360.134 39.2492 367.931 40.7452 372.544C42.4921 377.927 45.7721 381.825 48.5132 386.067C48.8233 386.361 49.0158 386.758 49.0551 387.184C49.0944 387.609 48.9777 388.034 48.7267 388.38C48.4757 388.726 48.1076 388.969 47.6906 389.065C47.2737 389.16 46.8363 389.101 46.4597 388.898C17.5246 377.806 -5.42644 328.92 1.12438 281.946C2.3602 273.101 6.05839 264.451 9.71012 256.357C10.6393 254.278 12.7672 254.779 12.4977 257.053C11.169 270.279 16.5304 285.316 18.6861 288.833C19.2994 289.826 13.6685 263.439 28.6564 232.522C33.7948 221.932 37.1678 218.479 44.9823 208.214C46.1995 206.626 48.5504 207.555 47.8814 209.866C42.0832 229.71 44.8615 235.047 50.7712 248.523C86.5265 214.506 58.3348 183.998 48.0393 136.216C44.5084 119.834 44.0252 94.4493 50.7247 78.9027C60.7786 55.5874 69.3086 40.0222 90.68 25.4779C99.4144 19.5377 108.019 12.1774 110.425 1.88416C110.983 -0.482639 113.399 -0.686833 114.347 1.46649C132.085 42.1383 84.4265 60.553 95.4561 112.845C98.4574 127.102 101.802 131.919 105.11 136.17C103.847 117.366 106.625 113.811 111.429 103.425C112.442 101.234 114.718 101.791 114.932 104C114.988 104.65 115.016 108.492 115.108 112.799C115.369 125.292 137.855 136.346 151.635 172.767C159.543 193.66 157.916 211.573 158.706 211.676C159.432 208.922 159.902 206.107 160.109 203.266C160.416 185.102 160.044 170.605 151.031 156.608C148.476 152.645 147.417 151.253 148.643 149.87C149.73 148.654 151.793 149.433 152.787 150.092C163.287 157.063 167.19 160.404 177.281 177.204C183.2 187.079 191.154 210.692 191.962 221.839C193.662 245.479 193.449 259.077 182.549 282.048C182.02 283.162 182.094 282.977 182.41 283.246C183.822 281.074 190.132 275.821 194.852 262.455C195.104 261.68 195.396 260.918 195.725 260.172C195.85 259.84 196.056 259.544 196.326 259.313C196.595 259.082 196.918 258.922 197.266 258.849C197.613 258.776 197.974 258.791 198.314 258.895C198.653 258.998 198.962 259.185 199.21 259.439C200.436 260.552 200.808 261.675 202.267 266.511C208.771 288.1 205.51 298.746 204.237 305.122C198.299 334.953 189.37 357.87 160.806 373.602C148.513 380.377 132.67 384.74 124.874 385.668C124.328 385.747 123.772 385.616 123.318 385.302C122.865 384.987 122.547 384.513 122.429 383.974C122.312 383.436 122.402 382.872 122.684 382.398C122.965 381.923 123.416 381.573 123.945 381.417C135.876 378.076 147.788 365.796 150.892 359.8Z" fill="#DAC0A3"/>
<path fill-rule="evenodd" clip-rule="evenodd" d="M223.582 221.607C221.594 239.687 229.854 247.382 233.804 260.209C237.381 271.396 237.989 283.319 235.569 294.811C228.173 329.496 220.274 345.275 186.155 365.267C185.105 365.88 183.72 366.696 182.977 365.666C181.388 363.466 188.747 360.051 195.762 349.535C205.64 334.684 210.481 323.918 211.782 306.895C213.352 286.216 206.708 271.718 205.222 263.457C202.248 246.918 209.71 230.629 219.345 220.53C221.455 218.312 223.629 220.177 223.582 221.607Z" fill="#DAC0A3"/>
<path fill-rule="evenodd" clip-rule="evenodd" d="M41.219 15.1197C40.4663 12.3352 43.2167 11.0358 44.9358 13.0406C74.2611 47.1597 48.8848 65.8992 41.8137 102.097C40.3734 109.523 41.9066 113.235 40.6243 115.314C40.4478 115.184 40.1504 115.092 40.1132 114.943C39.6579 113.087 37.4372 112.465 36.2013 110.989C7.43352 76.6194 48.9499 43.4285 41.219 15.1197Z" fill="#DAC0A3"/>
<path fill-rule="evenodd" clip-rule="evenodd" d="M15.2945 185.158C14.4583 163.356 5.28714 165.147 7.43357 161.258C7.61453 160.904 7.90449 160.617 8.26078 160.44C8.61707 160.263 9.02088 160.205 9.41275 160.274C10.552 160.368 11.6789 160.577 12.7764 160.896C24.986 164.924 33.9156 168.164 36.4151 182.355C40.1319 203.508 25.7851 216.344 20.4237 227.696C19.9777 228.624 19.6618 232.206 17.7755 230.332C14.1981 226.786 11.457 219.194 12.2003 212.27C13.6034 199.693 13.4083 204.835 15.2945 185.158Z" fill="#DAC0A3"/>
<path fill-rule="evenodd" clip-rule="evenodd" d="M131.174 73.046C131.473 73.0164 131.774 73.0626 132.051 73.1803C132.327 73.298 132.569 73.4835 132.754 73.7195C132.939 73.9556 133.062 74.2345 133.111 74.5305C133.159 74.8265 133.133 75.1299 133.033 75.4128C132.568 76.7215 127.913 83.4877 128.935 97.3173C129.344 102.775 126.63 110.098 124.168 116.196C121.938 121.709 109.617 94.7277 127.457 76.4245C130.468 73.3801 129.158 74.3175 131.174 73.046Z" fill="#DAC0A3"/>
</g>
<defs>
<clipPath id="clip0_140_1302">
<rect width="237" height="389" fill="white"/>
</clipPath>
</defs>
</svg>
