<svg width="86" height="87" viewBox="0 0 86 87" fill="none" xmlns="http://www.w3.org/2000/svg">
<path fill-rule="evenodd" clip-rule="evenodd" d="M43 81.0691C63.9868 81.0691 81 64.0559 81 43.0691C81 22.0823 63.9868 5.06909 43 5.06909C22.0132 5.06909 5 22.0823 5 43.0691C5 64.0559 22.0132 81.0691 43 81.0691ZM43 86.0691C66.7482 86.0691 86 66.8173 86 43.0691C86 19.3208 66.7482 0.0690918 43 0.0690918C19.2518 0.0690918 0 19.3208 0 43.0691C0 66.8173 19.2518 86.0691 43 86.0691Z" fill="#D9D9D9"/>
<path d="M26 52.0691C26 62.0102 33.6111 70.0691 43 70.0691C52.3889 70.0691 60 62.0102 60 52.0691H26Z" fill="#D9D9D9"/>
<path d="M33.6348 43C33.6348 38.2427 29.7783 34.3862 25.021 34.3862C20.2637 34.3862 16.4072 38.2427 16.4072 43H33.6348Z" fill="#D9D9D9"/>
<path d="M69.8129 43C69.8129 38.2427 65.9563 34.3862 61.1991 34.3862C56.4418 34.3862 52.5853 38.2427 52.5853 43H69.8129Z" fill="#D9D9D9"/>
</svg>
