<svg width="252" height="315" viewBox="0 0 252 315" fill="none" xmlns="http://www.w3.org/2000/svg">
<g clip-path="url(#clip0_195_646)">
<path fill-rule="evenodd" clip-rule="evenodd" d="M126 0V108.38C133.244 110.366 143.542 114.233 154.569 118.748L133.314 136.306L138.633 144.285L145.615 138.301C153.252 135.722 168.311 130.196 173.486 126.776C173.863 126.94 174.239 127.105 174.615 127.27L179.525 137.636C182.185 140.074 187.57 146.213 187.836 151.266C188.102 156.32 189.277 161.794 189.831 163.9C191.604 167.557 193.688 176.068 187.836 180.855C181.985 185.642 180.966 188.169 181.187 188.834C181.377 191.113 180.9 196.371 177.914 201.343C168.448 188.415 154.281 184.486 147.942 184.179L125.668 194.485V209.113C130.455 212.571 141.847 215.873 146.612 217.092L143.288 209.113C148.873 220.816 167.335 232.164 175.868 236.375C174.272 235.045 172.765 228.063 172.211 224.739C178.328 230.058 180.966 245.129 181.52 252C191.892 229.659 184.955 211.219 180.19 204.792C179.878 204.266 179.559 203.753 179.233 203.253L179.283 203.203L179.32 203.167C188.51 205.992 189.497 228.1 189.166 236.042C188.9 242.425 183.958 252.887 181.52 257.319C181.52 250.404 177.087 241.583 174.871 238.037C165.828 238.037 153.594 225.404 148.607 219.087V220.749H145.615C142.157 220.749 131.098 216.095 126 213.768V314.501L141.958 282.253C140.096 276.668 139.409 267.293 139.298 263.303C139.83 269.155 144.617 281.921 146.945 287.573L163.567 294.554L171.879 268.29C172.145 271.216 176.865 281.034 179.193 285.578L179.858 268.29L182.85 284.913C194.286 271.881 198.697 252 199.472 243.689C200.536 245.816 199.916 255.435 199.472 259.979L214.1 243.689C213.302 237.571 206.675 225.847 203.462 220.749C205.058 221.813 212.549 233.826 216.095 239.699C215.652 234.158 214.233 221.946 212.106 217.425C211.109 215.307 207.933 209.36 204.246 202.566L251.668 169.884L201.965 198.376C200.886 196.396 199.792 194.396 198.722 192.444L220.084 159.245L204.899 154.597C203.595 150.868 200.249 142.649 194.861 136.341C200.32 138.835 205.011 141.015 208.449 142.623C223.749 149.779 228.241 154.555 232.668 159.26C234.205 160.894 235.734 162.519 237.704 164.232C243.822 169.551 249.784 169.995 252 169.551L232.053 142.623L228.396 129.989C227.952 128.881 225.936 125.934 221.414 123.008C216.893 120.082 207.784 117.135 203.794 116.026L126 0ZM207.119 169.219C206.433 173.103 200.957 183.151 197.178 189.631C195.589 186.738 194.099 184.034 192.841 181.757C196.238 180.829 197.618 180.393 201.799 176.533C205.163 173.429 206.11 164.687 205.738 159.082L212.106 162.902C207.85 164.764 207.008 167.889 207.119 169.219Z" fill="#DAC0A3"/>
<path fill-rule="evenodd" clip-rule="evenodd" d="M139.963 154.923L136.971 168.554L141.625 155.588C143.731 157.14 149.538 160.043 155.921 159.245C163.9 158.248 167.557 155.921 170.216 153.594C171.325 153.815 174.073 154.192 176.201 153.926C175.203 152.707 172.61 149.804 170.216 147.942C167.224 145.615 161.573 143.62 155.921 143.62C150.269 143.62 144.285 147.277 140.628 151.931L133.646 146.945L125.668 147.942V148.939H132.649C134.865 150.712 139.431 154.392 139.963 154.923ZM144.95 151.931C147.609 151.045 155.588 149.671 166.227 151.266C166.449 152.485 165.894 155.322 161.905 156.918C157.916 158.514 155.145 158.47 154.259 158.248C153.04 158.359 149.937 157.583 148.607 156.918C147.277 156.253 145.282 154.591 144.95 151.931Z" fill="#DAC0A3"/>
<path d="M136.639 179.193V171.546L144.285 169.884L149.937 181.52L126.332 192.491V188.501L136.639 182.517L147.942 181.52L144.285 171.546L139.631 172.544L136.639 179.193Z" fill="#DAC0A3"/>
<path fill-rule="evenodd" clip-rule="evenodd" d="M126 0V108.38C118.756 110.366 108.458 114.233 97.431 118.748L118.686 136.306L113.367 144.285L106.385 138.301C98.7479 135.722 83.689 130.196 78.5142 126.776C78.1372 126.94 77.7608 127.105 77.3852 127.27L72.4749 137.636C69.8153 140.074 64.4296 146.213 64.1636 151.266C63.8976 156.32 62.723 161.794 62.1689 163.9C60.3958 167.557 58.3124 176.068 64.1636 180.855C70.0148 185.642 71.0343 188.169 70.8127 188.834C70.6227 191.113 71.1001 196.371 74.0862 201.343C83.5516 188.415 97.7193 184.486 104.058 184.179L125.668 194.485V209.113C120.88 212.571 110.153 215.873 105.388 217.092L108.712 209.113C103.127 220.816 84.6649 232.164 76.1319 236.375C77.7277 235.045 79.2348 228.063 79.7889 224.739C73.6718 230.058 71.0343 245.129 70.4802 252C60.1077 229.659 67.0449 211.219 71.81 204.792C72.1217 204.266 72.4409 203.753 72.7671 203.253L72.7165 203.203L72.6802 203.167C63.4896 205.992 62.5028 228.1 62.8338 236.042C63.0997 242.425 68.0422 252.887 70.4802 257.319C70.4802 250.404 74.9129 241.583 77.1293 238.037C86.172 238.037 98.4063 225.404 103.393 219.087V220.749H106.385C109.843 220.749 120.902 216.095 126 213.768V314.501L110.042 282.253C111.904 276.668 112.591 267.293 112.702 263.303C112.17 269.155 107.383 281.921 105.055 287.573L88.4327 294.554L80.1214 268.29C79.8554 271.216 75.1346 281.034 72.8074 285.578L72.1425 268.29L69.1504 284.913C57.714 271.881 53.3034 252 52.5277 243.689C51.4639 245.816 52.0844 255.435 52.5277 259.979L37.8997 243.689C38.6976 237.571 45.3245 225.847 48.5383 220.749C46.9425 221.813 39.4512 233.826 35.905 239.699C36.3483 234.158 37.7668 221.946 39.8945 217.425C40.8912 215.307 44.0672 209.36 47.7543 202.566L0.332454 169.884L50.0346 198.376C51.1143 196.396 52.208 194.396 53.2781 192.444L31.9156 159.245L47.1013 154.597C48.4051 150.868 51.7511 142.649 57.1393 136.341C51.6797 138.835 46.9887 141.015 43.5514 142.623C28.2511 149.779 23.7586 154.555 19.3318 159.26C17.795 160.894 16.2659 162.519 14.2955 164.232C8.17837 169.551 2.21636 169.995 0 169.551L19.9472 142.623L23.6042 129.989C24.0475 128.881 26.0644 125.934 30.5858 123.008C35.1071 120.082 44.2164 117.135 48.2058 116.026L126 0ZM44.8813 169.219C45.5666 173.103 51.0432 183.151 54.8218 189.631C56.4106 186.738 57.9012 184.034 59.1593 181.757C55.7625 180.829 54.3817 180.393 50.2005 176.533C46.8374 173.429 45.89 164.687 46.2618 159.082L39.8945 162.902C44.1499 164.764 44.9921 167.889 44.8813 169.219Z" fill="#DAC0A3"/>
<path fill-rule="evenodd" clip-rule="evenodd" d="M112.037 154.923L115.029 168.554L110.375 155.588C108.269 157.14 102.462 160.043 96.0792 159.245C88.1003 158.248 84.4433 155.921 81.7836 153.594C80.6755 153.815 77.9272 154.192 75.7995 153.926C76.7968 152.707 79.39 149.804 81.7836 147.942C84.7757 145.615 90.4274 143.62 96.0792 143.62C101.731 143.62 107.715 147.277 111.372 151.931L118.354 146.945L126.332 147.942V148.939H119.351C117.135 150.712 112.569 154.392 112.037 154.923ZM107.05 151.931C104.391 151.045 96.4116 149.671 85.7731 151.266C85.5515 152.485 86.1055 155.322 90.095 156.918C94.0844 158.514 96.8549 158.47 97.7414 158.248C98.9604 158.359 102.063 157.583 103.393 156.918C104.723 156.253 106.718 154.591 107.05 151.931Z" fill="#DAC0A3"/>
<path d="M115.361 179.193V171.546L107.715 169.884L102.063 181.52L126.332 192.491V188.501L115.361 182.517L104.058 181.52L107.715 171.546L112.369 172.544L115.361 179.193Z" fill="#DAC0A3"/>
</g>
<defs>
<clipPath id="clip0_195_646">
<rect width="252" height="314.501" fill="white"/>
</clipPath>
</defs>
</svg>
