<svg width="334" height="337" viewBox="0 0 334 337" fill="none" xmlns="http://www.w3.org/2000/svg">
<g clip-path="url(#clip0_140_914)">
<path d="M0.559973 48.21C0.995972 44.6397 1.77627 41.12 2.88997 37.7C5.95063 28.8749 11.454 21.1001 18.76 15.28C24.845 10.3444 31.2747 5.84968 38 1.83001C38.5 1.53001 39 1.25001 39.5 0.970006C40 0.690006 40.27 0.570006 40.66 0.390006C42.23 -0.329994 42.77 -0.119994 43.49 1.51001C43.72 2.03001 43.9 2.58001 44.11 3.12001C47.93 13.05 51.16 23.18 54.04 33.43C56.04 40.56 58.04 47.69 60.5 54.67C67.08 73.24 72.77 92.09 78.29 111C82.07 124 85.45 137.05 89.39 150C93.9233 164.84 98.2333 179.75 102.32 194.73C104.95 204.37 107.64 213.99 110.76 223.48C111.335 224.958 111.545 226.553 111.37 228.13C111.2 229.13 110.97 229.55 109.9 229.58C107.819 229.721 105.752 230.029 103.72 230.5C99.3255 231.248 95.0617 232.626 91.06 234.59C80 240.23 72.17 249 67.15 260.25C65.9666 262.874 65.1134 265.635 64.61 268.47C64.1028 270.573 63.9474 272.746 64.15 274.9C64.54 277.38 65.08 279.84 65.48 282.32C65.6335 283.383 65.697 284.457 65.67 285.53C65.6633 285.694 65.6222 285.855 65.5494 286.002C65.4766 286.149 65.3737 286.279 65.2473 286.384C65.1209 286.488 64.9739 286.565 64.8159 286.609C64.6579 286.654 64.4923 286.664 64.33 286.64C63.904 286.609 63.4905 286.482 63.12 286.27C61.1277 285.219 59.575 283.492 58.74 281.4C58.04 279.4 57.21 277.4 56.62 275.3C54.33 267.3 52.11 259.25 49.88 251.21C43.11 226.77 36.12 202.38 29.6 177.86C25.5 162.45 21.05 147.12 16.94 131.71C12.06 113.45 7.36997 95.14 2.58997 76.85C0.867925 70.6944 -0.00349494 64.332 -2.72607e-05 57.94C-0.0711341 54.687 0.116121 51.4334 0.559973 48.21ZM10.62 60.3C11.0173 60.3832 11.431 60.3298 11.7941 60.1482C12.1571 59.9667 12.4482 59.6678 12.62 59.3C12.8537 58.7742 13.0509 58.233 13.21 57.68C14.6474 53.1522 16.8381 48.8992 19.69 45.1C21.69 42.42 23.85 39.78 25.99 37.16C29.2007 33.4616 33.0063 30.3251 37.25 27.88C37.8047 27.548 38.333 27.1735 38.83 26.76C39.0371 26.6115 39.1862 26.3957 39.2518 26.1495C39.3175 25.9033 39.2956 25.6419 39.19 25.41C39.0654 25.1458 38.8466 24.9377 38.5764 24.8267C38.3062 24.7157 38.0043 24.7097 37.73 24.81C36.8976 25.0313 36.0822 25.312 35.29 25.65C30.4735 27.7735 26.1492 30.8719 22.59 34.75C19.9369 37.5863 17.5095 40.6255 15.33 43.84C12.5673 47.7991 10.5571 52.233 9.39997 56.92C9.28997 57.41 9.20997 57.92 9.15997 58.19C9.1173 58.6571 9.24013 59.1243 9.50701 59.51C9.77389 59.8957 10.1678 60.1753 10.62 60.3ZM84.91 217C79.8332 219.086 75.1105 221.947 70.91 225.48C67.614 228.363 64.5973 231.55 61.9 235C60.2015 237.324 58.785 239.842 57.68 242.5C57.5014 242.968 57.443 243.473 57.51 243.97C57.5358 244.224 57.6345 244.464 57.7942 244.663C57.954 244.862 58.1678 245.01 58.41 245.09C58.674 245.206 58.966 245.242 59.2503 245.194C59.5345 245.146 59.7985 245.016 60.01 244.82C60.1661 244.671 60.3068 244.507 60.43 244.33C60.68 243.97 60.92 243.61 61.13 243.24C65.31 235.8 71.44 230.24 78.2 225.24C80.63 223.46 83.2 221.87 85.78 220.24C87.503 219.054 89.4491 218.231 91.5 217.82C91.7091 217.77 91.9108 217.692 92.1 217.59C92.1905 217.534 92.2677 217.458 92.3264 217.369C92.3851 217.28 92.4238 217.179 92.44 217.074C92.4561 216.969 92.4493 216.861 92.4199 216.758C92.3906 216.656 92.3394 216.561 92.27 216.48C91.64 215.71 90.76 215.75 89.82 215.75C88.1181 215.846 86.4508 216.271 84.91 217ZM84.85 204C83.84 204.012 82.8342 204.133 81.85 204.36C75.7203 205.932 69.9197 208.583 64.72 212.19C62.0181 214.096 59.6752 216.466 57.8 219.19C56.42 221.12 55.06 223.06 53.7 225C53.1284 225.647 52.7781 226.46 52.7 227.32C52.6815 227.68 52.7755 228.038 52.969 228.342C53.1625 228.647 53.4459 228.884 53.78 229.02C54.0815 229.148 54.4144 229.182 54.7355 229.117C55.0565 229.053 55.3508 228.894 55.58 228.66C55.736 228.515 55.8798 228.358 56.01 228.19C57.39 226.44 58.9 224.78 60.11 222.93C63.037 218.462 66.9249 214.704 71.49 211.93C74.7362 209.812 78.1667 207.992 81.74 206.49C83.1159 205.872 84.5638 205.428 86.05 205.17C86.3681 205.086 86.6765 204.969 86.97 204.82C86.7247 204.503 86.3977 204.259 86.0241 204.115C85.6505 203.97 85.2445 203.931 84.85 204ZM40 34.36C38.6194 34.9775 37.2829 35.6892 36 36.49C34.3309 37.6085 32.7312 38.8274 31.21 40.14C26.6982 43.9359 22.7872 48.3931 19.61 53.36C17.4913 56.8645 15.6779 60.5447 14.19 64.36C14.0749 64.6235 13.9877 64.8983 13.93 65.18C13.8712 65.5166 13.9209 65.8631 14.0721 66.1695C14.2233 66.4759 14.468 66.7263 14.7708 66.8844C15.0737 67.0425 15.419 67.1002 15.7568 67.049C16.0947 66.9979 16.4075 66.8407 16.65 66.6C17.0747 66.1133 17.4374 65.5759 17.73 65C18.65 63.29 19.48 61.54 20.42 59.84C21.71 57.52 22.94 55.15 24.42 52.95C27.1441 48.8089 30.2295 44.917 33.64 41.32C35.6104 39.2221 37.7882 37.3291 40.14 35.67C40.5794 35.3444 40.9969 34.9903 41.39 34.61L41.23 34.19C40.8136 34.1823 40.3986 34.2397 40 34.36Z" fill="#DAC0A3"/>
<path d="M292.24 237.22C285.14 236.73 278.05 236.15 270.95 235.7C264.78 235.3 258.6 235.02 252.42 234.7C249.55 234.54 246.68 234.38 243.81 234.19C238.21 233.83 232.613 233.46 227.02 233.08C222.29 232.76 217.55 232.41 212.82 232.08C207.73 231.71 202.64 231.29 197.54 231C189.22 230.52 180.887 230.09 172.54 229.71C162.98 229.25 153.423 228.82 143.87 228.42C136.62 228.13 129.36 227.92 122.1 227.67C121.668 227.672 121.237 227.638 120.81 227.57C120.628 227.567 120.448 227.524 120.284 227.445C120.12 227.366 119.974 227.252 119.858 227.112C119.742 226.971 119.658 226.807 119.612 226.63C119.566 226.454 119.558 226.27 119.59 226.09C119.614 225.373 119.471 224.661 119.17 224.01C118.857 223.21 118.567 222.4 118.3 221.58C115.12 211.81 111.87 202.06 108.78 192.26C103.78 176.36 98.88 160.41 93.91 144.5C87.35 123.5 81.15 102.41 74.91 81.32C72.23 72 69.61 62.65 66.63 53.42C62.51 40.7 58.09 28.09 53.84 15.42C52.75 12.15 51.84 8.83 50.84 5.52C50.6287 4.75792 50.5211 3.97083 50.52 3.18C50.52 2 51 1.47 52.22 1.44C53.9431 1.365 55.6691 1.38503 57.39 1.5C61.83 1.82 66.27 2.25 70.71 2.61C75.15 2.97 79.46 3.33 83.83 3.61C88.99 4.01 94.15 4.41 99.31 4.76C102.9 5 106.49 5.18 110.08 5.36C115.08 5.6 120.14 5.93 125.17 6.01C139.12 6.24 153.07 6.38 167.02 6.52C174.72 6.61 182.41 6.59 190.11 6.72C204.423 6.95333 218.73 7.22333 233.03 7.53C234.83 7.53 236.64 7.59 238.42 7.79C240.063 7.95098 241.687 8.2691 243.27 8.74C245.157 9.27677 246.853 10.3378 248.161 11.7999C249.469 13.262 250.336 15.0651 250.66 17C250.797 17.7063 250.884 18.4214 250.92 19.14C251.09 20.92 251.21 22.72 251.41 24.5C251.834 27.2012 252.565 29.8451 253.59 32.38C256.83 41.69 260.78 50.71 264.8 59.7C271.669 74.6609 277.584 90.0417 282.51 105.75C286.31 118.28 290.61 130.62 295.26 142.85C298.71 151.93 302.65 160.85 306.49 169.71C313.89 186.87 321.05 204.13 330 220.58C331.114 222.676 331.98 224.894 332.58 227.19C333.158 229.199 333.381 231.294 333.24 233.38C333.181 234.537 332.812 235.656 332.17 236.62C331.877 237.119 331.452 237.528 330.943 237.803C330.433 238.078 329.858 238.209 329.28 238.18C328.562 238.18 327.844 238.22 327.13 238.3C325.41 238.4 323.69 238.57 321.97 238.6C319.45 238.65 316.97 238.6 313.33 238.6C307 238.22 299.63 237.74 292.24 237.22ZM70.08 21.23C71.49 26.28 72.84 31.35 74.33 36.38C77.87 48.29 81.42 60.2 85.07 72.08C87.48 79.91 90.07 87.67 92.58 95.47C97.62 111.283 102.647 127.1 107.66 142.92C110.22 151 112.66 159.11 115.25 167.19C117.75 175.063 120.293 182.923 122.88 190.77C124.14 194.59 125.5 198.37 126.78 202.19C127.7 204.91 128.56 207.65 129.46 210.38C129.647 210.998 129.891 211.597 130.19 212.17C130.424 212.702 130.854 213.122 131.391 213.344C131.927 213.566 132.529 213.572 133.07 213.36C133.834 213.184 134.617 213.107 135.4 213.13C138.92 213.3 142.4 213.54 145.95 213.73C150.183 213.963 154.417 214.18 158.65 214.38C162.82 214.6 166.98 214.78 171.15 215.02C182.15 215.66 193.15 215.87 204.15 216.27C212.99 216.59 221.82 217.05 230.65 217.59C236.1 217.93 241.53 218.59 246.97 219.03C251.19 219.39 255.42 219.76 259.65 220.03C265.597 220.47 271.55 220.88 277.51 221.26C280.02 221.43 282.51 221.54 285.04 221.7C293.04 222.19 300.98 222.59 308.96 222.61C309.534 222.637 310.11 222.613 310.68 222.54C313.26 222.08 314.36 219.54 312.68 217.74C311 215.94 310.21 213.74 309.27 211.57C305.27 202.34 301.15 193.16 297.27 183.87C293.32 174.39 289.64 164.79 285.83 155.25C283.76 150.05 281.55 144.89 279.6 139.64C275.6 128.927 271.433 118.29 267.1 107.73C261.42 94 256.43 80 251.49 66C248.77 58.27 246.33 50.45 243.77 42.68C242.96 38.5 241.25 34.6 240 30.55C239.239 28.1511 238.076 25.899 236.56 23.89C236.027 23.1178 235.321 22.4812 234.498 22.0314C233.675 21.5816 232.758 21.3311 231.82 21.3C224.35 20.91 216.9 20.19 209.41 20.38C208.621 20.425 207.829 20.425 207.04 20.38C200.72 19.9 194.39 20.06 188.04 19.88C179.63 19.64 171.23 19.25 162.82 18.94C156.14 18.69 149.45 18.61 142.82 18.19C132.97 17.57 123.12 17.93 113.27 17.72C110.4 17.66 107.52 17.77 104.65 17.72C99.19 17.63 93.73 17.45 88.26 17.36C85.53 17.36 82.8 17.48 80.07 17.36C76.99 17.25 73.91 16.96 70.82 16.74C70.54 16.74 70.25 16.65 69.97 16.64C69.14 16.64 68.61 17.02 68.38 18.12C69.2868 18.9309 69.887 20.029 70.08 21.23Z" fill="#DAC0A3"/>
<path d="M208.2 298.15C209.9 294.58 211.53 291.15 213.2 287.58C212.803 287.434 212.395 287.32 211.98 287.24C209.907 287.027 207.83 286.833 205.75 286.66C198.23 286.027 190.71 285.393 183.19 284.76C175.81 284.13 168.44 283.42 161.06 282.76C152.96 282.09 144.87 281.42 136.76 280.85C131.46 280.47 126.14 280.3 120.83 279.97C115.83 279.66 110.93 279.27 105.98 278.9C101.68 278.58 97.38 278.22 93.08 277.9C90.43 277.69 87.78 277.47 85.08 277.33C84.5457 277.326 84.0204 277.193 83.5486 276.942C83.0768 276.691 82.6725 276.33 82.37 275.89C81.433 274.693 80.9353 273.21 80.96 271.69C80.9923 269.089 81.5608 266.522 82.63 264.15C84.5764 259.698 87.8484 255.955 92 253.43C97.9424 249.895 104.502 247.519 111.33 246.43C117.953 245.448 124.635 244.921 131.33 244.85C140.957 244.617 150.59 244.66 160.23 244.98C167.06 245.22 173.89 245.36 180.71 245.58C186.82 245.78 192.93 246.08 199.04 246.25C207.45 246.48 215.86 246.69 224.27 246.79C234.56 246.92 244.83 247.4 255.09 248.04C261.09 248.41 267.01 248.63 272.96 249.04C280.2 249.59 287.43 250.26 294.66 251.04C303.956 252.119 313.302 252.723 322.66 252.85C324.17 252.875 325.678 252.717 327.15 252.38C327.823 252.24 328.459 251.958 329.016 251.553C329.572 251.148 330.036 250.63 330.376 250.032C330.716 249.435 330.926 248.771 330.99 248.086C331.055 247.402 330.973 246.711 330.75 246.06C330.595 245.507 330.384 244.971 330.12 244.46C329.68 243.812 329.343 243.101 329.12 242.35C329.059 242.101 328.923 241.877 328.729 241.708C328.536 241.54 328.295 241.436 328.04 241.41C327.687 241.34 327.329 241.3 326.97 241.29C321.3 241.12 315.64 240.5 309.97 240.66C307.598 240.65 305.229 240.52 302.87 240.27C298.21 239.92 293.55 239.52 288.87 239.15C286.8 238.98 284.72 238.79 282.64 238.68C277.54 238.41 272.44 238.14 267.34 237.92C262.24 237.7 256.85 237.53 251.61 237.33C243.27 237 234.94 236.71 226.61 236.33C219.79 236.01 212.973 235.62 206.16 235.16C199.78 234.72 193.4 234.16 187.02 233.64C179.07 233.02 171.1 232.56 163.12 232.36C155.36 232.17 147.6 231.8 139.84 231.54C136.75 231.44 133.65 231.39 130.56 231.38C126.03 231.38 121.5 231.38 116.97 231.43C111.063 231.431 105.197 232.411 99.61 234.33C92.94 236.679 86.8285 240.384 81.66 245.21C75.4933 250.894 70.998 258.156 68.66 266.21C67.2833 271.085 66.9427 276.195 67.66 281.21C67.72 281.64 67.71 282.07 67.79 282.5C67.8371 282.998 67.9654 283.484 68.17 283.94C69.36 286.08 70.94 287.79 73.47 288.29C74.4608 288.498 75.4623 288.652 76.47 288.75C83.62 289.44 90.77 290.18 97.94 290.75C105.11 291.32 112.13 291.75 119.23 292.26C129.417 292.927 139.607 293.593 149.8 294.26C157.193 294.74 164.583 295.227 171.97 295.72L193.91 297.28C198.07 297.58 202.23 297.9 206.39 298.19C206.91 298.18 207.49 298.15 208.2 298.15Z" fill="#DAC0A3"/>
<path d="M216.33 325.44C213.929 327.617 211.851 330.125 210.16 332.89C209.802 333.511 209.369 334.085 208.87 334.6C208.711 334.738 208.518 334.833 208.312 334.875C208.105 334.917 207.891 334.906 207.69 334.841C207.49 334.777 207.309 334.662 207.165 334.508C207.021 334.354 206.92 334.165 206.87 333.96C206.787 333.464 206.743 332.963 206.74 332.46C206.349 324.981 207.111 317.487 209 310.24C210.385 304.371 212.286 298.635 214.68 293.1C215.788 290.706 217.016 288.37 218.36 286.1C223.76 276.833 230.331 268.3 237.91 260.71C238.767 259.838 239.686 259.029 240.66 258.29C241.276 257.804 241.994 257.462 242.76 257.29C244.031 257.044 245.326 256.937 246.62 256.97C251.79 257.15 256.96 257.42 262.13 257.67C263.05 257.67 263.97 257.82 264.9 257.83C266.09 257.83 266.63 258.32 266.53 259.51C266.455 260.296 266.304 261.073 266.08 261.83C265.367 264.329 264.249 266.693 262.77 268.83C261.08 271.33 259.31 273.77 257.5 276.19C254.32 280.45 251.04 284.64 247.89 288.92C241.241 297.661 236.96 307.97 235.46 318.85C234.937 321.749 234.743 324.698 234.88 327.64C234.96 328.42 235.04 329.21 235.1 330C235.22 331.36 235.38 332.72 235.4 334.08C235.4 335.79 234.4 336.58 232.74 336.19C232.181 336.062 231.647 335.842 231.16 335.54C230.226 335.002 229.345 334.376 228.53 333.67C226.79 332.06 225.12 330.38 223.47 328.67C222.37 327.53 221.38 326.29 220.3 325.14C219.83 324.63 219.25 324.21 218.64 323.67C217.78 324.3 217 324.83 216.33 325.44ZM257.08 263.16C253.57 268.34 249.6 273.16 245.69 278.05C240.657 284.148 236.348 290.809 232.85 297.9C231.626 300.659 230.668 303.529 229.99 306.47C229.38 308.83 228.9 311.22 228.43 313.62C227.922 316.743 227.738 319.909 227.88 323.07C227.79 323.79 227.964 324.518 228.37 325.12C228.509 325.331 228.712 325.493 228.95 325.581C229.187 325.669 229.446 325.679 229.69 325.61C229.939 325.56 230.164 325.427 230.327 325.233C230.491 325.038 230.584 324.794 230.59 324.54C230.59 324.18 230.59 323.82 230.59 323.47C230.65 321.67 230.66 319.87 230.8 318.08C231.258 313.723 232.104 309.416 233.33 305.21C234.414 301.26 236.015 297.471 238.09 293.94C240.184 290.168 242.522 286.537 245.09 283.07C247.99 279.23 250.82 275.34 253.58 271.4C255.06 269.28 256.32 267.02 257.58 264.79C257.857 264.417 258.034 263.98 258.094 263.519C258.153 263.059 258.093 262.591 257.92 262.16C257.51 262.65 257.26 262.89 257.08 263.16Z" fill="#DAC0A3"/>
<path d="M108.61 250.94C109.152 251.494 109.812 251.919 110.541 252.182C111.27 252.446 112.049 252.54 112.82 252.46C115.12 252.34 117.42 252.29 119.72 252.21C125.11 252 130.49 251.99 135.88 252.21C140.98 252.46 146.08 252.7 151.18 252.88C161.093 253.22 171.01 253.537 180.93 253.83C182.36 253.88 183.8 253.92 185.24 253.89C195.59 253.69 205.94 253.99 216.24 254.1C222.71 254.17 229.17 254.49 235.63 254.88C240.94 255.2 246.25 255.49 251.56 255.88C257.5 256.31 263.45 256.88 269.39 257.34C272.04 257.55 274.7 257.72 277.39 257.92C280.08 258.12 282.55 258.31 285.12 258.57C290.493 259.053 295.893 259.157 301.28 258.88C301.997 258.834 302.709 258.734 303.41 258.58C303.762 258.515 304.101 258.39 304.41 258.21C304.756 258.052 305.048 257.794 305.248 257.47C305.449 257.146 305.549 256.771 305.536 256.39C305.523 256.009 305.398 255.641 305.176 255.332C304.954 255.022 304.646 254.785 304.29 254.65C303.894 254.479 303.477 254.361 303.05 254.3C302.55 254.223 302.045 254.186 301.54 254.19C294.13 254.19 286.75 253.63 279.36 253.19C275.63 252.98 271.91 252.53 268.19 252.19C263.46 251.79 258.73 251.44 254.01 251.04C249.85 250.69 245.7 250.26 241.55 249.92C237.11 249.56 232.67 249.2 228.22 248.92C218.22 248.33 208.22 248.21 198.22 248.02C187.44 247.81 176.66 247.51 165.87 247.35C151.5 247.15 137.12 246.66 122.75 247.14C119.158 247.269 115.581 247.671 112.05 248.34C111.308 248.459 110.606 248.759 110.006 249.212C109.407 249.665 108.927 250.259 108.61 250.94Z" fill="#DAC0A3"/>
<path d="M186.06 264.54C182.68 264.4 179.3 264.24 175.93 264.12C167.45 263.81 158.93 263.57 150.49 263.18C146.18 262.99 141.89 262.55 137.59 262.18C132.86 261.82 128.13 261.4 123.39 261.1C116.29 260.653 109.183 260.253 102.07 259.9C99.64 259.78 97.19 259.83 94.75 259.9C94.0318 259.923 93.3194 260.037 92.63 260.24C92.2004 260.326 91.8125 260.554 91.5293 260.888C91.246 261.222 91.0841 261.642 91.07 262.08C91.0793 262.51 91.2232 262.927 91.4815 263.271C91.7398 263.616 92.0995 263.871 92.51 264C92.9095 264.159 93.3254 264.273 93.75 264.34C95.03 264.55 96.3 264.81 97.59 264.9C102.03 265.23 106.49 265.49 110.93 265.8C116.53 266.18 122.12 266.58 127.71 266.97L142.34 268C147.65 268.37 152.96 268.75 158.27 269.09C161.35 269.28 164.44 269.42 167.53 269.56C182.123 270.187 196.717 270.473 211.31 270.42C215.196 270.469 219.079 270.231 222.93 269.71C223.711 269.6 224.481 269.419 225.23 269.17C225.772 268.986 226.266 268.685 226.68 268.29C226.897 268.098 227.059 267.852 227.151 267.578C227.243 267.303 227.261 267.009 227.203 266.725C227.145 266.442 227.014 266.178 226.822 265.961C226.63 265.744 226.385 265.582 226.11 265.49C225.226 265.187 224.303 265.012 223.37 264.97C221.22 264.86 219.06 264.83 216.9 264.81C206.62 264.737 196.34 264.677 186.06 264.63V264.54Z" fill="#DAC0A3"/>
<path d="M187.83 262C198.75 262.24 209.67 262.53 220.6 262.72C223.68 262.77 226.78 262.57 229.86 262.43C230.792 262.382 231.717 262.238 232.62 262C233.96 261.65 234.72 260.81 234.72 259.85C234.72 258.89 233.84 257.98 232.38 257.71C231.38 257.52 230.38 257.44 229.38 257.34C228.81 257.29 228.23 257.28 227.66 257.27C220.47 257.1 213.29 256.99 206.1 256.78C200.21 256.61 194.32 256.33 188.43 256.09C184.62 255.94 180.82 255.73 177.01 255.6C167.01 255.27 157.01 255.03 147.01 254.6C139.69 254.32 132.37 253.86 125.01 253.52C119.41 253.26 113.807 253.037 108.2 252.85C106.33 252.79 104.46 252.85 102.59 252.94C101.875 252.974 101.165 253.078 100.47 253.25C100.05 253.344 99.6569 253.532 99.32 253.8C98.2 254.74 98.25 255.49 99.27 256.26C99.9086 256.719 100.65 257.015 101.43 257.12C103.28 257.37 105.14 257.51 107.01 257.62C115.01 258.09 123.08 258.52 131.12 259.01C138.65 259.47 146.18 260.01 153.71 260.49C157.94 260.73 162.19 260.78 166.42 260.94L187.76 261.78L187.83 262Z" fill="#DAC0A3"/>
<path d="M88.75 269C89.04 270.51 90.14 271.08 91.47 271.42C94.1254 272.057 96.8332 272.452 99.56 272.6C104.56 272.93 109.46 273.2 114.41 273.6C119.06 273.94 123.71 274.38 128.41 274.76C132.63 275.11 136.86 275.47 141.09 275.76C146.61 276.16 152.09 276.55 157.65 276.88C163.817 277.253 169.99 277.587 176.17 277.88C186.65 278.35 197.17 278.39 207.64 278.43C209.44 278.43 211.24 278.43 213.03 278.32C214.106 278.262 215.176 278.118 216.23 277.89C216.79 277.77 217.315 277.528 217.77 277.18C218.031 277.013 218.237 276.772 218.364 276.489C218.49 276.206 218.531 275.892 218.481 275.586C218.431 275.28 218.292 274.995 218.083 274.766C217.873 274.538 217.601 274.376 217.3 274.3C216.684 274.112 216.044 274.014 215.4 274.01C212.17 273.91 208.94 273.74 205.71 273.78C197.43 273.89 189.18 273.54 180.94 272.87C175.85 272.46 170.76 272.19 165.66 271.87C159.66 271.483 153.637 271.103 147.59 270.73C144.94 270.56 142.28 270.41 139.59 270.22C134.93 269.87 130.28 269.48 125.59 269.12L111.22 268C107.99 267.75 104.77 267.53 101.54 267.25C98.3162 266.997 95.0794 266.953 91.85 267.12C91.2004 267.062 90.5493 267.213 89.9916 267.551C89.4339 267.89 88.9989 268.397 88.75 269Z" fill="#DAC0A3"/>
<path d="M253.66 290.56C250.554 293.867 247.938 297.602 245.89 301.65C246.33 301.802 246.781 301.919 247.24 302C251.83 302.31 256.41 302.65 261 302.88C267.1 303.193 273.203 303.453 279.31 303.66C281.97 303.75 284.63 303.84 287.31 303.66C288.947 303.486 290.568 303.189 292.16 302.77C292.515 302.678 292.852 302.529 293.16 302.33C293.679 302.073 294.133 301.7 294.487 301.242C294.842 300.783 295.087 300.25 295.204 299.682C295.322 299.115 295.309 298.528 295.166 297.966C295.023 297.404 294.754 296.882 294.38 296.44C293.616 295.477 292.636 294.706 291.52 294.19C289.572 293.257 287.465 292.704 285.31 292.56C282.02 292.26 278.72 291.98 275.42 291.77C269.54 291.41 263.66 291.11 257.78 290.77L253.66 290.56Z" fill="#DAC0A3"/>
<path d="M285.52 288.69C286.89 288.69 288.26 288.76 289.61 288.69C290.469 288.634 291.314 288.438 292.11 288.11C292.416 287.993 292.682 287.791 292.877 287.528C293.072 287.265 293.188 286.952 293.211 286.625C293.234 286.298 293.163 285.972 293.007 285.684C292.851 285.396 292.616 285.159 292.33 285C291.341 284.39 290.211 284.046 289.05 284C287.05 283.82 285.05 283.67 283.05 283.56C278.017 283.3 272.993 283.06 267.98 282.84C264.983 282.606 261.971 282.639 258.98 282.94C258.478 282.979 257.979 283.06 257.49 283.18C257.1 283.261 256.747 283.468 256.486 283.77C256.226 284.072 256.073 284.452 256.05 284.85C256.062 285.211 256.185 285.56 256.401 285.85C256.617 286.139 256.917 286.356 257.26 286.47C257.722 286.672 258.21 286.806 258.71 286.87C260.06 287.05 261.42 287.26 262.78 287.31C269.1 287.54 275.4 288.04 281.7 288.6C282.98 288.72 284.28 288.72 285.57 288.78L285.52 288.69Z" fill="#DAC0A3"/>
<path d="M283 281.15C285.65 281.2 288.31 281.27 291 281.28C291.93 281.28 292.86 281.17 293.79 281.09C294.151 281.065 294.507 280.995 294.85 280.88C295.204 280.797 295.523 280.606 295.762 280.332C296 280.057 296.147 279.715 296.18 279.353C296.213 278.991 296.131 278.628 295.947 278.315C295.762 278.002 295.483 277.756 295.15 277.61C294.652 277.327 294.112 277.128 293.55 277.02C292.06 276.78 290.55 276.55 289.07 276.44C283.41 276.02 277.76 275.28 272.07 275.44C270.49 275.44 268.91 275.57 267.34 275.75C266.347 275.887 265.367 276.104 264.41 276.4C264 276.527 263.624 276.746 263.31 277.04C263.163 277.174 263.048 277.338 262.973 277.522C262.898 277.705 262.864 277.903 262.875 278.101C262.886 278.299 262.94 278.492 263.034 278.667C263.128 278.841 263.26 278.993 263.42 279.11C263.718 279.329 264.058 279.483 264.42 279.56C266.25 279.91 268.08 280.32 269.93 280.56C274.272 280.999 278.636 281.196 283 281.15Z" fill="#DAC0A3"/>
<path d="M289.32 266.68C291.21 266.68 294.66 266.68 298.11 266.68C298.969 266.659 299.822 266.531 300.65 266.3C301.042 266.211 301.393 265.992 301.644 265.677C301.895 265.363 302.031 264.972 302.03 264.57C302.023 264.207 301.911 263.854 301.706 263.554C301.502 263.254 301.215 263.02 300.88 262.88C300.358 262.643 299.806 262.478 299.24 262.39C297.46 262.12 295.68 261.83 293.89 261.7C288.51 261.32 283.13 260.96 277.75 260.7C276.025 260.692 274.302 260.829 272.6 261.11C272.04 261.2 271.512 261.427 271.06 261.77C270.884 261.897 270.738 262.062 270.632 262.253C270.527 262.443 270.466 262.655 270.453 262.872C270.439 263.089 270.474 263.306 270.555 263.508C270.636 263.71 270.761 263.892 270.92 264.04C271.267 264.4 271.691 264.677 272.16 264.85C273.723 265.392 275.344 265.748 276.99 265.91C280.58 266.1 284.17 266.35 289.32 266.68Z" fill="#DAC0A3"/>
<path d="M282.78 268.87C279.48 268.72 276.18 268.5 272.88 268.44C271.233 268.478 269.59 268.615 267.96 268.85C267.466 268.915 266.992 269.086 266.57 269.35C266.367 269.469 266.195 269.635 266.07 269.834C265.944 270.034 265.869 270.261 265.85 270.495C265.832 270.73 265.87 270.966 265.962 271.183C266.055 271.399 266.198 271.591 266.38 271.74C266.757 272.067 267.206 272.3 267.69 272.42C269.001 272.778 270.339 273.029 271.69 273.17C279.36 273.67 287.05 273.68 294.69 273.63C295.406 273.634 296.121 273.557 296.82 273.4C297.25 273.325 297.641 273.102 297.924 272.77C298.207 272.438 298.365 272.017 298.37 271.58C298.395 271.156 298.272 270.737 298.022 270.394C297.772 270.051 297.411 269.806 297 269.7C296.094 269.487 295.17 269.363 294.24 269.33C290.43 269.18 286.63 269.07 282.83 268.94L282.78 268.87Z" fill="#DAC0A3"/>
<path d="M304.29 218.59C297.75 218.72 291.21 218.38 284.68 218.01C277.647 217.597 270.613 217.2 263.58 216.82L261.43 216.68L247.24 215.53L234.56 214.53C230.83 214.24 227.11 213.92 223.38 213.69C219.94 213.48 216.49 213.37 213.04 213.22C208.04 213.01 202.98 212.76 197.95 212.59C189.12 212.27 180.28 212.01 171.44 211.71C166.91 211.55 162.39 211.24 157.86 211.21C150.1 211.15 142.33 211.21 134.57 211.28C134.274 211.265 133.98 211.228 133.69 211.17C133.53 210.73 133.36 210.34 133.24 209.94C132.63 207.87 132.08 205.79 131.42 203.73C129.09 196.49 126.72 189.25 124.36 182.01C122.44 176.14 120.47 170.28 118.57 164.41C115.57 154.97 112.57 145.52 109.48 136.09C104.767 121.423 100.047 106.793 95.32 92.2C91.36 80 87.25 67.77 83.4 55.51C79.8 44.06 75.69 32.79 71.53 21.51C71.4535 21.271 71.3934 21.0271 71.35 20.78C71.5 20.69 71.57 20.61 71.62 20.62C72.33 20.72 73.05 20.8 73.75 20.95C77.6841 21.859 81.7125 22.2954 85.75 22.25C87.26 22.2 88.75 22.32 90.28 22.39C93.86 22.57 97.45 22.87 101.04 22.94C109.24 23.12 117.43 23.28 125.63 23.28C132.54 23.28 139.42 23.79 146.31 24.05C151.41 24.25 156.51 24.55 161.61 24.81L164 25C171.46 25.36 178.93 25.77 186.4 26.06C192.08 26.28 197.76 26.35 203.4 26.5C205.4 26.55 207.29 26.68 209.23 26.64C214.55 26.53 219.86 26.98 225.17 27.19C226.32 27.19 227.47 27.31 228.61 27.44C229.103 27.4827 229.575 27.6552 229.98 27.94C231.831 29.3235 233.314 31.1399 234.3 33.23C235.479 35.7527 236.384 38.3945 237 41.11C237.35 42.7246 237.794 44.3174 238.33 45.88C239.51 49.42 240.75 52.95 242 56.46C245 64.99 248 73.53 251.12 82.04C254.94 92.58 258.82 103.1 263.12 113.44C267.19 123.2 270.97 133.05 274.54 143C275.34 145.23 276.2 147.44 277.08 149.64C278.75 153.85 280.5 158.02 282.13 162.24C286.13 172.56 290.13 182.89 294.64 192.99C298.33 201.17 301.95 209.38 305.64 217.58C305.734 217.877 305.804 218.182 305.85 218.49C305.26 218.53 304.78 218.58 304.29 218.59ZM196.8 138.5C201.328 136.695 205.737 134.604 210 132.24C213.111 130.577 215.981 128.498 218.53 126.06C219.15 125.47 219.76 124.85 220.44 124.32C223.016 122.236 225.244 119.755 227.04 116.97C227.841 115.687 228.552 114.351 229.17 112.97C229.412 112.482 229.479 111.926 229.361 111.395C229.243 110.864 228.946 110.389 228.52 110.05C227.596 109.14 226.771 108.134 226.06 107.05C223.05 102.207 219.074 98.0371 214.38 94.8C212.056 93.1106 209.632 91.5644 207.12 90.17C202.274 87.6258 197.083 85.8032 191.71 84.76C186.424 83.6405 180.952 83.7396 175.71 85.05C169.98 86.53 164.42 88.38 159.39 91.6C157.335 92.9244 155.419 94.4521 153.67 96.16C148.484 101.076 144.413 107.047 141.73 113.67C141.13 115.2 140.73 116.82 140.25 118.39C140.166 118.702 140.158 119.029 140.228 119.344C140.297 119.659 140.442 119.953 140.65 120.2C141.987 122.08 143.533 123.801 145.26 125.33C148.676 128.304 152.314 131.016 156.14 133.44C159.534 135.488 163.186 137.076 167 138.16C172.602 139.915 178.43 140.838 184.3 140.9C188.46 141.2 192.66 140.08 196.8 138.5ZM131 107.36C136.95 96.86 145.53 89.09 156.11 83.47C161.051 80.8285 166.218 78.6331 171.55 76.91C174.361 76.0247 177.263 75.4545 180.2 75.21C183.346 74.8936 186.509 74.7667 189.67 74.83C195.43 74.944 201.116 76.1451 206.43 78.37C208.761 79.346 210.967 80.5983 213 82.1C216.94 84.994 220.602 88.248 223.94 91.82C225.66 93.66 227.39 95.49 229.16 97.27C231.489 99.6486 234.425 101.343 237.65 102.17C238.341 102.353 239.056 102.427 239.77 102.39C240.266 102.341 240.735 102.146 241.12 101.83C241.316 101.672 241.469 101.466 241.562 101.232C241.655 100.998 241.686 100.743 241.652 100.494C241.617 100.244 241.519 100.008 241.366 99.8071C241.214 99.6067 241.012 99.4492 240.78 99.35C240.515 99.2412 240.241 99.1575 239.96 99.1C236.844 98.448 233.989 96.8934 231.75 94.63C230.42 93.31 229.11 91.98 227.85 90.63C224.429 86.9221 220.71 83.5006 216.73 80.4C211.373 76.2417 205.092 73.4358 198.42 72.22C192.184 71.146 185.827 70.9642 179.54 71.68C174.67 72.1654 169.912 73.4387 165.45 75.45C162.29 76.82 159.16 78.28 156.09 79.84C149.48 83.2259 143.567 87.8261 138.66 93.4C135.502 96.9518 132.9 100.96 130.94 105.29C130.394 106.294 130.132 107.428 130.18 108.57C130.474 108.181 130.747 107.777 131 107.36ZM134.5 137.25C135.22 137.25 135.94 137.3 136.66 137.25C140.557 137.199 144.392 138.238 147.73 140.25C150.9 142.07 154.17 143.74 157.39 145.49C158.21 145.93 159.02 146.39 159.81 146.88C165.592 150.527 172.057 152.957 178.81 154.02C181.72 154.46 184.66 154.71 187.6 154.89C191.701 155.011 195.798 154.549 199.77 153.52C205.031 152.333 210.119 150.478 214.91 148C216.91 147 218.91 145.95 220.83 144.89C224.439 142.94 227.724 140.444 230.57 137.49C232.07 135.94 233.48 134.31 234.9 132.69C235.371 132.149 235.784 131.559 236.13 130.93C236.29 130.644 236.344 130.31 236.282 129.988C236.219 129.666 236.045 129.376 235.79 129.17C235.553 128.946 235.249 128.808 234.924 128.777C234.6 128.746 234.275 128.825 234 129C233.519 129.311 233.079 129.68 232.69 130.1C231.44 131.4 230.22 132.72 229.01 134.05C226.017 137.363 222.45 140.107 218.48 142.15L213.88 144.52C208.008 147.572 201.679 149.649 195.14 150.67C191.665 151.276 188.118 151.354 184.62 150.9C182.2 150.54 179.76 150.37 177.35 149.97C174.1 149.37 170.928 148.411 167.89 147.11C164.22 145.62 160.89 143.49 157.29 141.83C154.03 140.33 150.81 138.71 147.48 137.4C143.109 135.549 138.197 135.427 133.74 137.06C133.987 137.145 134.242 137.209 134.5 137.25Z" fill="#DAC0A3"/>
<path d="M191.79 133.88C192.769 133.725 193.698 133.342 194.5 132.76C197.934 130.789 201.137 128.441 204.05 125.76C207.02 123.199 208.881 119.585 209.24 115.68C209.538 112.967 209.671 110.239 209.64 107.51C209.594 102.958 207.952 98.5658 205 95.1C203.579 93.4696 201.849 92.1372 199.91 91.18C197.808 90.0863 195.568 89.2823 193.25 88.79C192.82 88.7639 192.4 88.6522 192.013 88.4616C191.627 88.271 191.282 88.0053 191 87.68C190.818 87.4601 190.562 87.3143 190.28 87.27C187.901 86.8514 185.48 86.7204 183.07 86.88C183.048 87.3652 183.078 87.8513 183.16 88.33C184.99 95.04 186.06 101.94 187.96 108.64C189.409 113.829 190.393 119.136 190.9 124.5C191.19 127.56 191.48 130.63 191.79 133.88Z" fill="#DAC0A3"/>
<path d="M187.22 134.05C187.226 133.851 187.203 133.652 187.15 133.46C185.208 128.894 183.844 124.104 183.09 119.2C181.757 111.987 180.497 104.77 179.31 97.55C178.897 95.15 178.563 92.7334 178.31 90.3C178.304 89.4015 178.381 88.5043 178.54 87.62C178.158 87.5751 177.772 87.5751 177.39 87.62C175.17 88.21 172.96 88.83 170.75 89.45C170.06 89.6771 169.452 90.1012 169 90.67C167.689 92.1084 166.582 93.7202 165.71 95.46C163.768 99.311 162.435 103.44 161.76 107.7C161.425 110.415 161.523 113.166 162.05 115.85C162.363 117.544 162.79 119.214 163.33 120.85C164.661 125.001 167.521 128.49 171.33 130.61C172.45 131.26 173.6 131.85 174.75 132.43C175.315 132.742 175.916 132.984 176.54 133.15C179.944 134.076 183.482 134.414 187 134.15C187 134.15 187.13 134.11 187.22 134.05Z" fill="#DAC0A3"/>
<path d="M141.73 116.67C142.58 117.45 143.38 118.16 144.15 118.91C146.575 121.15 149.181 123.187 151.94 125C153.48 126 155.08 127 156.62 128.07C160.175 130.379 164.073 132.11 168.17 133.2C168.22 133.2 168.3 133.14 168.43 133.07C168.239 132.864 168.031 132.673 167.81 132.5C165.744 131.061 163.961 129.255 162.55 127.17C161.64 125.955 160.925 124.605 160.43 123.17C159.594 120.8 158.926 118.374 158.43 115.91C157.501 110.639 158.152 105.212 160.3 100.31C161.265 97.8442 162.506 95.4959 164 93.31C164.188 93.0103 164.358 92.6998 164.51 92.38C164.187 92.4128 163.869 92.4798 163.56 92.58C160.867 93.9401 158.382 95.6776 156.18 97.74C152.862 100.7 149.847 103.983 147.18 107.54C145.298 110.262 143.568 113.086 142 116C141.89 116.22 141.81 116.49 141.73 116.67Z" fill="#DAC0A3"/>
<path d="M225.32 111.32C224.25 109.7 223.32 108.26 222.32 106.83C219.609 102.842 216.173 99.3991 212.19 96.68C211.811 96.4583 211.421 96.258 211.02 96.08C211.15 96.65 211.19 96.97 211.29 97.28C211.91 99.19 212.63 101.07 213.16 103C213.94 105.81 213.69 108.7 213.51 111.57C213.4 113.21 213.1 114.84 212.9 116.48C212.487 119.997 211.043 123.312 208.75 126.01C208.445 126.336 208.259 126.755 208.22 127.2C208.57 127.03 208.95 126.88 209.28 126.68C210.38 126 211.51 125.36 212.54 124.58C213.74 123.68 214.85 122.65 216 121.67C216.87 120.93 217.7 120.13 218.6 119.42C220.925 117.477 222.947 115.199 224.6 112.66C224.866 112.228 225.106 111.78 225.32 111.32Z" fill="#DAC0A3"/>
</g>
<defs>
<clipPath id="clip0_140_914">
<rect width="333.29" height="336.26" fill="white"/>
</clipPath>
</defs>
</svg>
