<svg width="252" height="306" viewBox="0 0 252 306" fill="none" xmlns="http://www.w3.org/2000/svg">
<g clip-path="url(#clip0_195_846)">
<path d="M125.59 67.0013C117.6 57.8772 99.3659 39.1386 90.3512 37.1776C79.0829 34.7263 69.8634 40.6502 65.7659 55.3578C65.0107 58.0682 64.2765 61.0353 63.4964 64.1875C60.0437 78.1401 55.6935 95.7191 44.6634 110.716C33.8459 125.423 10.3805 136.862 0 140.744C1.8439 138.837 6.3922 133.39 9.83415 126.853C13.2761 120.316 40.4976 64.3458 53.678 37.1776C57.639 31.1175 68.2654 18.5888 79.0829 16.9546C83.8634 11.4393 99.8576 0.326836 125.59 0L108.79 28.8024L125.59 67.0013Z" fill="#DAC0A3"/>
<path d="M109.61 129.917C109.473 129.372 109.077 128.201 108.585 127.874C108.094 127.548 93.7659 124.742 86.6634 123.381L76.4195 121.746L89.1219 129.917L99.9805 131.143L109.61 129.917Z" fill="#DAC0A3"/>
<path d="M142.39 129.917C142.527 129.372 142.923 128.201 143.415 127.874C143.906 127.548 158.234 124.742 165.337 123.381L175.58 121.746L162.878 129.917L152.02 131.143L142.39 129.917Z" fill="#DAC0A3"/>
<path fill-rule="evenodd" clip-rule="evenodd" d="M71.5024 289.862C68.2742 283.985 64.1518 273.947 60.4163 260.345L73.961 292.109C82.7743 296.706 107.161 305.865 125.795 305.999V306C125.863 306 125.932 306 126 306C126.068 306 126.137 306 126.205 306V305.999C144.839 305.865 169.226 296.706 178.039 292.109L191.584 260.345C187.848 273.947 183.726 283.985 180.498 289.862C201.845 276.165 216.937 260.259 227.413 244.103C227.38 235.373 226.652 215.433 223.932 200.595C221.145 185.398 209.932 159.945 204.673 149.119C211.571 158.924 225.776 182.946 227.415 200.595C229.351 221.449 228.542 231.169 227.582 242.695L227.524 243.398C227.507 243.602 227.49 243.806 227.473 244.011C249.436 210.081 251.053 175.064 247.493 157.085C236.839 151.638 213.36 139.069 204.673 132.368C197.21 126.613 191.532 115.52 188.781 108.622C188.756 107.721 188.727 106.852 188.693 106.017C188.693 91.2326 184.459 82.6982 182.341 80.279C175.102 74.1509 160.133 61.4043 158.166 59.4433C156.199 57.4822 153.112 58.6262 151.815 59.4433L126 72.5167L100.185 59.4433C98.8878 58.6262 95.801 57.4822 93.8341 59.4433C91.8673 61.4043 76.8976 74.1509 69.6585 80.279C67.5415 82.6982 63.3073 91.2326 63.3073 106.017C63.2733 106.852 63.2437 107.721 63.2192 108.622C60.468 115.52 54.7895 126.613 47.3268 132.368C38.64 139.069 15.161 151.638 4.50732 157.085C0.947273 175.064 2.56438 210.081 24.527 244.011C24.4904 243.569 24.4539 243.131 24.4176 242.695C23.458 231.169 22.6488 221.449 24.5854 200.595C26.2244 182.946 40.4293 158.924 47.3268 149.119C42.0683 159.945 30.8546 185.398 28.0683 200.595C25.3479 215.433 24.6195 235.373 24.5866 244.103C35.0625 260.259 50.1552 276.165 71.5024 289.862ZM126 186.092C124.361 186.024 119.444 186.215 112.888 187.522C110.634 188.067 105.717 189.156 104.078 189.156C106.81 192.493 115.019 199.697 126 201.821C136.981 199.697 145.19 192.493 147.922 189.156C146.283 189.156 141.366 188.067 139.112 187.522C132.556 186.215 127.639 186.024 126 186.092ZM126 226.947C117.477 227.273 110.702 221.363 108.38 218.367L95.715 207.572C100.131 214.239 105.351 221.594 108.38 224.291C112.878 228.295 122.53 229.356 126 229.589C129.47 229.356 139.122 228.295 143.62 224.291C146.649 221.594 151.869 214.239 156.285 207.572L143.62 218.367C141.298 221.363 134.523 227.273 126 226.947ZM65.4219 149.929L55.2483 138.909C54.1223 142.034 53.0774 144.778 52.2439 146.872C47.655 193.458 52.8879 231.706 59.7293 257.786L91.7463 243.084L89.2895 202.096L82.9756 196.714C73.2684 187.916 68.0354 169.09 65.4219 149.929ZM63.7292 132.89C63.2493 125.564 63.0934 118.641 63.1462 112.724C62.1187 117.464 60.6025 122.795 58.9696 127.942L63.7292 132.89ZM85.0244 100.502C91.5805 101.646 113.024 113.916 122.927 119.908L68.0195 102.749L69.2488 98.4593L85.0244 100.502ZM113.093 131.96C111.932 127.806 106.987 119.132 96.4976 117.661C95.678 117.457 92.0312 117.171 84 117.661C75.9688 118.151 70.8195 118.682 69.2488 118.887C71.0927 122.291 77.7717 129.55 89.7366 131.347C101.701 133.145 94.9951 132.096 90.1463 131.347C95.5415 132.096 107.684 133.267 113.093 131.96ZM116.166 169.546C119.116 171.017 123.815 171.521 125.795 171.589V168.933C124.907 169.138 122.23 169.056 118.624 167.095C115.551 165.424 114.669 165.936 113.704 166.496C113.254 166.758 112.785 167.03 112.068 167.095C110.265 167.258 110.088 164.575 110.224 163.214C109.678 164.167 108.913 166.441 110.224 167.912C111.536 169.383 113.093 169.614 113.707 169.546C113.298 168.933 113.216 168.075 116.166 169.546ZM186.578 149.929L196.752 138.909C197.878 142.034 198.923 144.778 199.756 146.872C204.345 193.458 199.112 231.706 192.271 257.786L160.254 243.084L162.711 202.096L169.024 196.714C178.732 187.916 183.965 169.09 186.578 149.929ZM188.271 132.89C188.751 125.564 188.907 118.641 188.854 112.724C189.881 117.464 191.398 122.795 193.03 127.942L188.271 132.89ZM166.976 100.502C160.42 101.646 138.976 113.916 129.073 119.908L183.98 102.749L182.751 98.4593L166.976 100.502ZM138.907 131.96C140.068 127.806 145.013 119.132 155.502 117.661C156.322 117.457 159.969 117.171 168 117.661C176.031 118.151 181.18 118.682 182.751 118.887C180.907 122.291 174.228 129.55 162.263 131.347C150.299 133.145 157.005 132.096 161.854 131.347C156.459 132.096 144.316 133.267 138.907 131.96ZM135.834 169.546C132.884 171.017 128.185 171.521 126.205 171.589V168.933C127.093 169.138 129.77 169.056 133.376 167.095C136.449 165.424 137.331 165.936 138.296 166.496C138.746 166.758 139.215 167.03 139.932 167.095C141.735 167.258 141.912 164.575 141.776 163.214C142.322 164.167 143.087 166.441 141.776 167.912C140.464 169.383 138.907 169.614 138.293 169.546C138.702 168.933 138.784 168.075 135.834 169.546Z" fill="#DAC0A3"/>
<path d="M126.41 67.0013C134.4 57.8772 152.634 39.1386 161.649 37.1776C172.917 34.7263 182.137 40.6502 186.234 55.3578C186.989 58.0682 187.724 61.0353 188.504 64.1875C191.956 78.1401 196.307 95.7191 207.337 110.716C218.154 125.423 241.619 136.862 252 140.744C250.156 138.837 245.608 133.39 242.166 126.853C238.724 120.316 211.502 64.3458 198.322 37.1776C194.361 31.1175 183.735 18.5888 172.917 16.9546C168.137 11.4393 152.142 0.326836 126.41 0L143.21 28.8024L126.41 67.0013Z" fill="#DAC0A3"/>
</g>
<defs>
<clipPath id="clip0_195_846">
<rect width="252" height="306" fill="white"/>
</clipPath>
</defs>
</svg>
