<svg width="246" height="305" viewBox="0 0 246 305" fill="none" xmlns="http://www.w3.org/2000/svg">
<g clip-path="url(#clip0_195_875)">
<path d="M122 264.102L116.312 262.005L101.566 262.844L94.1928 264.941V267.877C95.5972 266.899 98.6167 264.941 99.4593 264.941C100.302 264.941 110.624 264.382 115.68 264.102L122 266.619L128.32 264.102C133.376 264.382 143.698 264.941 144.541 264.941C145.383 264.941 148.403 266.899 149.807 267.877V264.941L142.434 262.844L127.688 262.005L122 264.102Z" fill="#DAC0A3"/>
<path fill-rule="evenodd" clip-rule="evenodd" d="M133.107 21.5399C133.121 21.5412 133.135 21.5424 133.148 21.5437L159.5 3L150.597 24.3662C152.751 24.8755 154.878 25.4422 156.973 26.0659L205.5 20C199.833 21.5 188.4 26.6 188 35C187.6 43.4 209.5 48.5 220.5 50L212.5 69L238.5 114L219.732 111.113C219.926 126.913 218.102 143.065 214.623 156.685C213.903 160.428 212.919 163.697 211.801 166.535C216.835 160.01 220.253 155.093 223.099 150.998C228.703 142.936 232.092 138.06 241.246 130.368C245.836 127.384 245.768 127.551 244.293 131.196C242.472 135.695 238.507 145.491 238.507 161.199C236.567 165.635 235.998 170.863 235.369 176.647C234.523 184.429 233.566 193.218 229.015 202.441L217.64 206.845C214.332 211.854 205.14 221.333 194.444 219.94L185.83 257.391L146.226 305H97.7741L58.1699 257.391L49.5554 219.94C38.8602 221.333 29.6682 211.854 26.3603 206.845L14.9847 202.441C10.4333 193.218 9.4772 184.429 8.63066 176.647C8.00133 170.863 7.43256 165.635 5.49228 161.199C6.39076 146.182 2.84083 136.094 1.25843 131.596C0.185437 128.547 0.017091 128.068 2.75371 130.368C11.7973 137.968 15.2141 142.818 20.6986 150.708L24.8326 128.266C24.5567 124.717 24.3774 121.132 24.2991 117.546L11.5 122.5L28.0361 85.6382C29.9961 79.5443 32.5357 73.8544 35.0845 69H11.5L76 27L61 17L127.5 14L135.5 0L133.107 21.5399ZM111.77 123.805C113.771 115.054 119.424 109.371 122 107.624C124.576 109.371 130.229 115.054 132.23 123.805C166.575 106.108 134.662 106.131 182.583 122.804C183.189 123.259 183.783 123.742 184.364 124.254C187.685 137.204 195.105 149.836 198.469 154.622C198.605 156.605 198.697 159.96 198.551 163.711L196.995 162.591L178.878 152.944L139.274 173.288L131.269 181.467L182.038 159.865L198.51 164.656C198.426 166.348 198.293 168.103 198.091 169.835L180.563 165.318L149.807 177.483C145.453 179.37 136.325 183.145 134.64 183.145C133.038 183.145 129.916 185.796 128.344 187.319L128.32 187.13L128.338 187.325C128.29 187.371 128.244 187.417 128.199 187.461L128.138 187.521L128.109 187.55L128.792 192.126L132.322 229.496C133.797 228.867 136.915 227.609 137.589 227.609C138.263 227.609 139.976 232.782 140.749 235.369L136.746 236.627L131.48 233.481C126.715 236.262 123.299 243.255 122.089 246.649C122.045 246.742 122.015 246.828 122 246.904C121.985 246.828 121.955 246.742 121.911 246.649C120.701 243.255 117.285 236.262 112.52 233.481L107.254 236.627L103.251 235.369C104.024 232.782 105.737 227.609 106.411 227.609C107.085 227.609 110.203 228.867 111.678 229.496L115.208 192.126L115.891 187.55C115.858 187.517 115.824 187.484 115.789 187.449C115.748 187.409 115.706 187.367 115.662 187.325L115.68 187.13L115.656 187.319C114.084 185.796 110.961 183.145 109.36 183.145C107.675 183.145 98.5465 179.37 94.1928 177.483L63.4364 165.318L45.9085 169.835C45.7071 168.103 45.5735 166.348 45.4902 164.656L61.9618 159.865L112.731 181.467L104.726 173.288L65.1217 152.944L47.005 162.591L45.4486 163.711C45.3024 159.96 45.3953 156.605 45.5304 154.622C48.8948 149.836 56.3144 137.204 59.6356 124.254C60.2165 123.742 60.8107 123.259 61.4171 122.804C109.337 106.131 77.4253 106.107 111.77 123.805ZM121.911 246.649C121.932 246.709 121.953 246.769 121.973 246.827L122 246.904C122.015 246.86 122.031 246.815 122.047 246.769L122.07 246.702L122.089 246.649C123.003 244.697 129.891 239.229 133.376 236.627L137.589 238.515L142.645 236.627V232.642C142.013 231.104 140.327 227.567 138.642 225.721C136.957 223.875 134.429 225.791 133.376 226.979L129.874 199.384L131.269 208.733L133.586 211.879L141.381 202.65L160.972 204.538C158.304 204.119 152.714 202.776 151.703 200.763C150.496 198.36 152.692 198.558 154.934 198.761C155.563 198.818 156.196 198.875 156.759 198.875C160.635 198.875 168.064 198.176 171.294 197.827L170.452 202.021C174.033 199.854 181.28 195.142 181.617 193.632C181.954 192.122 183.442 188.948 184.145 187.55L196.147 180.339C195.456 184.994 195.238 190.312 195.224 194.455C193.562 197.137 188.052 205.922 182.249 213.976C175.297 223.624 171.505 233.146 169.82 246.065C167.864 261.058 165.545 271.713 164.043 278.029L143.066 303.112H100.934L79.9568 278.029C78.4547 271.713 76.1358 261.058 74.1801 246.065C72.4948 233.146 68.7029 223.624 61.7512 213.976C55.9477 205.922 50.4378 197.137 48.7759 194.455C48.7617 190.312 48.5437 184.994 47.8528 180.339L59.8552 187.55C60.5574 188.948 62.0461 192.122 62.3831 193.632C62.7202 195.142 69.9669 199.854 73.5481 202.021L72.7055 197.827C75.9356 198.176 83.3649 198.875 87.241 198.875C87.8034 198.875 88.4366 198.818 89.0663 198.761C91.3076 198.558 93.5038 198.36 92.2969 200.763C91.2857 202.776 85.6962 204.119 83.0278 204.538L102.619 202.65L110.414 211.879L112.731 208.733L114.125 199.384L110.624 226.979C109.571 225.791 107.043 223.875 105.358 225.721C103.672 227.567 101.987 231.104 101.355 232.642V236.627L106.411 238.515L110.624 236.627C114.109 239.229 120.997 244.697 121.911 246.649ZM61.1192 255.503L70.5511 266.781C68.9718 254.046 65.3073 230.439 61.3298 222.995C57.5997 216.013 52.2732 206.981 49.2979 202.043L61.1192 255.503ZM47.005 176.014C47.3254 177.261 47.5916 178.631 47.8118 180.067L53.3248 175.595H63.4364L56.4847 179.37L59.0126 182.097H62.3831C63.0853 184.893 65.5009 191.031 69.5456 193.212C73.5902 195.394 80.219 196.918 83.0278 197.407C86.1877 197.547 93.3502 197.113 96.7207 194.261C100.091 191.409 102.76 190.136 103.672 189.857C102.83 188.598 100.344 185.494 97.1421 183.145C93.94 180.796 81.0617 176.294 75.0227 174.337L53.9567 173.288L46.1011 171.333C46.3315 172.961 46.6278 174.547 47.005 176.014ZM44.3885 186.455C44.7854 187.745 45.1695 188.957 45.5304 190.066V197.35C43.1403 194.946 39.8339 189.243 37.3752 185.003C36.6285 183.715 35.9596 182.562 35.4187 181.677C33.0593 177.818 28.818 174.756 26.9923 173.707C25.6581 173.987 22.6527 175.05 21.3045 177.063C19.9563 179.076 21.4449 181.677 22.3578 182.726C22.3578 181.677 23.4532 179.58 27.8349 179.58C31.4027 179.58 32.3783 184.652 33.3818 189.87C33.9189 192.662 34.464 195.497 35.4187 197.617C37.1724 201.512 41.9224 204.322 45.3689 205.791C37.3282 204.879 26.7 203.16 27.8349 201.182C29.1832 198.833 27.2732 190.556 26.1496 186.711L20.6725 185.452C13.4727 180.382 13.1928 171.781 12.9262 163.586C12.7596 158.467 12.5982 153.506 10.7588 149.663C18.7941 153.981 26.0947 163.289 35.4199 175.178L35.4222 175.181C38.206 178.73 41.1703 182.51 44.3885 186.455ZM182.881 255.503L173.449 266.781C175.028 254.046 178.693 230.439 182.67 222.995C186.4 216.013 191.727 206.981 194.702 202.043L182.881 255.503ZM196.995 176.014C196.674 177.261 196.408 178.631 196.188 180.067L190.675 175.595H180.563L187.515 179.37L184.987 182.097H181.617C180.915 184.893 178.499 191.031 174.454 193.212C170.41 195.394 163.781 196.918 160.972 197.407C157.812 197.547 150.65 197.113 147.279 194.261C143.909 191.409 141.24 190.136 140.327 189.857C141.17 188.598 143.656 185.494 146.858 183.145C150.06 180.796 162.938 176.294 168.977 174.337L190.043 173.288L197.899 171.333C197.668 172.961 197.372 174.547 196.995 176.014ZM199.611 186.455C199.214 187.745 198.83 188.957 198.469 190.066V197.35C200.86 194.946 204.166 189.243 206.625 185.003C207.372 183.715 208.04 182.562 208.581 181.677C210.941 177.818 215.182 174.756 217.008 173.707C218.342 173.987 221.347 175.05 222.695 177.063C224.043 179.076 222.555 181.677 221.642 182.726C221.642 181.677 220.547 179.58 216.165 179.58C212.597 179.58 211.621 184.653 210.618 189.871C210.081 192.663 209.536 195.497 208.581 197.617C206.827 201.512 202.077 204.322 198.631 205.791C206.672 204.879 217.3 203.16 216.165 201.182C214.817 198.833 216.727 190.556 217.85 186.711L223.327 185.452C229.413 181.167 229.956 172.956 230.497 164.796C230.858 159.331 231.218 153.889 233.241 149.663C225.206 153.981 217.905 163.289 208.58 175.178C205.796 178.728 202.83 182.509 199.611 186.455Z" fill="#DAC0A3"/>
</g>
<defs>
<clipPath id="clip0_195_875">
<rect width="246" height="305" fill="white"/>
</clipPath>
</defs>
</svg>
