<svg width="129" height="143" viewBox="0 0 129 143" fill="none" xmlns="http://www.w3.org/2000/svg">
<g clip-path="url(#clip0_249_511)">
<path d="M64.301 12.3865C64.0648 12.3865 63.8291 12.4231 63.5993 12.4963L27.8832 24.099C27.4246 24.25 27.0319 24.5338 26.7481 24.9275L4.67287 55.3049C4.38772 55.6985 4.23714 56.1608 4.23714 56.6414V94.1956C4.23714 94.6807 4.38588 95.143 4.66828 95.532L26.7426 125.914C27.0264 126.303 27.4187 126.587 27.8773 126.738L63.5911 138.345C64.0497 138.496 64.5348 138.496 64.9944 138.345L100.711 126.738C101.17 126.587 101.562 126.303 101.846 125.914L123.92 95.5366C124.202 95.1522 124.357 94.6761 124.357 94.2047V56.646C124.357 56.1608 124.207 55.7031 123.925 55.314L101.851 24.932C101.567 24.543 101.175 24.2592 100.716 24.1082L65.0026 12.4963C64.7733 12.4231 64.5367 12.3865 64.301 12.3865ZM64.2927 143C63.5842 143 62.8757 142.89 62.1873 142.666L26.474 131.054C25.0977 130.606 23.9205 129.75 23.0696 128.582L0.995252 98.2004C0.145763 97.0333 -0.303223 95.6465 -0.303223 94.1956V56.6414C-0.303223 55.195 0.14761 53.8082 1.0003 52.6365L23.0756 22.2545C23.9264 21.0873 25.1041 20.2315 26.4804 19.7829L62.1965 8.18024C63.5737 7.7317 65.0292 7.7317 66.4064 8.18024L102.12 19.7921C103.496 20.236 104.673 21.0919 105.524 22.2636L127.598 52.6457C128.448 53.8128 128.897 55.1996 128.897 56.646V94.2047C128.897 95.651 128.446 97.0333 127.593 98.2096L105.519 128.582C104.668 129.754 103.49 130.61 102.114 131.054L66.3977 142.666C65.7088 142.89 65.0008 143 64.2927 143Z" fill="white"/>
<path d="M89.5463 103.766L104.163 64.1889L122.802 56.4172L103.078 61.104C102.566 61.223 102.099 61.4839 101.727 61.8592C101.383 62.2025 101.133 62.6281 101.002 63.095L89.5463 103.766Z" fill="white"/>
<path d="M89.9046 107.876C89.6309 107.428 89.2382 107.062 88.7695 106.824C88.337 106.604 87.8537 106.499 87.368 106.517L45.0424 108.187L87.3058 109.863L100.451 125.186L89.9046 107.876Z" fill="white"/>
<path d="M59.7314 38.2419L25.4489 61.0765L5.79712 56.4079L24.5129 64.2117C24.9976 64.4131 25.5294 64.4772 26.048 64.3948C26.5286 64.317 26.9817 64.1202 27.3634 63.8181L59.7314 38.2419Z" fill="white"/>
<path d="M27.1271 67.0494L38.6524 107.94L27.8814 125.539L41.3464 109.798C41.6869 109.4 41.9107 108.915 41.9926 108.398C42.0686 107.917 42.021 107.423 41.8531 106.97L27.1271 67.0494Z" fill="white"/>
<path d="M62.6661 34.118C62.624 34.6444 62.7279 35.1662 62.9664 35.6376C63.187 36.0678 63.5156 36.4385 63.9202 36.7086L98.5351 59.7949L65.935 34.0402L64.3015 13.9061L62.6661 34.118Z" fill="white"/>
<path d="M51.4374 89.0557C52.3363 86.0028 52.7858 82.625 52.7858 78.9222C52.7858 76.1715 52.7039 74.359 52.5405 73.4893C52.3221 72.3176 51.6685 70.6562 50.5792 68.5004L57.3216 64.2118H57.5257L57.2804 76.6749C57.1989 81.197 57.4575 85.3254 58.0571 89.0557H51.4374Z" fill="white"/>
<path d="M72.7661 88.9321H59.8132V87.9114C61.9562 86.2133 64.4543 83.4168 66.2283 81.3343C69.2103 77.8329 70.7234 75.3796 70.7234 73.9379C70.7234 71.7592 69.2524 70.6699 66.3103 70.6699C64.9207 70.6699 63.5586 71.0498 62.2239 71.8141V71.1596L64.2264 67.1548C65.2612 65.1363 66.1057 64.1294 66.7597 64.1294C69.0203 64.1294 71.0227 64.8388 72.7661 66.2531C74.6459 67.7818 75.5855 69.6309 75.5855 71.8141C75.5855 75.1782 73.0851 77.8604 70.5595 80.0665C69.6473 80.8629 67.6989 82.5975 66.8819 83.4168C68.2372 83.4168 67.9301 83.4901 72.5208 82.8035C74.0857 82.5701 76.901 82.181 78.4462 82.4374C75.6125 86.7672 73.7195 88.9321 72.7661 88.9321Z" fill="white"/>
</g>
<defs>
<clipPath id="clip0_249_511">
<rect width="129" height="143" fill="white"/>
</clipPath>
</defs>
</svg>
