<svg width="86" height="87" viewBox="0 0 86 87" fill="none" xmlns="http://www.w3.org/2000/svg">
<path fill-rule="evenodd" clip-rule="evenodd" d="M43 81.0691C63.9868 81.0691 81 64.0559 81 43.0691C81 22.0823 63.9868 5.06909 43 5.06909C22.0132 5.06909 5 22.0823 5 43.0691C5 64.0559 22.0132 81.0691 43 81.0691ZM43 86.0691C66.7482 86.0691 86 66.8173 86 43.0691C86 19.3208 66.7482 0.0690918 43 0.0690918C19.2518 0.0690918 0 19.3208 0 43.0691C0 66.8173 19.2518 86.0691 43 86.0691Z" fill="#D9D9D9"/>
<path d="M26 52.0691C26 62.0102 33.6111 70.0691 43 70.0691C52.3889 70.0691 60 62.0102 60 52.0691H26Z" fill="#D9D9D9"/>
<path fill-rule="evenodd" clip-rule="evenodd" d="M18.0521 38.0585C18.3209 41.7402 21.996 44.3938 25.2071 43.9522L25.2341 43.9485L25.2612 43.9462C28.5738 43.6732 30.6894 40.6557 30.2786 38.3034L30.2734 38.2734L30.27 38.2431C29.992 35.77 27.468 34.1974 25.5335 34.572L25.5061 34.5773L25.4784 34.5811C23.4231 34.8613 22.4499 36.7461 22.7559 37.8683L22.7642 37.8988L22.7706 37.9298C22.897 38.5439 23.2785 38.9964 23.7458 39.2631C24.2376 39.5439 24.7212 39.565 24.9983 39.4632L25.0301 39.4515L25.0626 39.442C25.3122 39.369 25.4738 39.2437 25.5741 39.1143L24.4396 39.2192L24.3476 38.2234C24.3046 37.758 24.5106 37.3716 24.7799 37.1262C25.0367 36.8922 25.354 36.7744 25.6507 36.7405C26.2608 36.6706 26.9224 36.9333 27.3411 37.5491C27.8325 38.2045 27.7903 39.0728 27.5147 39.7257C27.214 40.4379 26.5843 41.0706 25.6558 41.3521C24.7126 41.6855 23.6261 41.4977 22.7542 41C21.8552 40.4868 21.0799 39.5891 20.8181 38.3635C20.1779 35.9313 22.1255 33.0355 25.1808 32.6032C28.2121 32.0344 31.8265 34.3499 32.254 37.9895C32.8659 41.6127 29.7774 45.5654 25.4525 45.9372C21.1643 46.5099 16.4322 43.0918 16.0596 38.2333C15.4412 33.408 19.6636 28.3763 25.2613 28.0524C30.8197 27.4591 36.6913 31.9919 36.9987 38.0809L37.0491 39.0797L35.0517 39.1805L35.0013 38.1818C34.7544 33.2913 29.9344 29.5515 25.4524 30.0434L25.4255 30.0463L25.3984 30.0478C20.8218 30.3 17.5736 34.4262 18.0462 38.0003L18.05 38.0293L18.0521 38.0585Z" fill="#D9D9D9"/>
<path fill-rule="evenodd" clip-rule="evenodd" d="M67.9479 38.0585C67.6791 41.7402 64.004 44.3938 60.7929 43.9522L60.7659 43.9485L60.7388 43.9462C57.4262 43.6732 55.3106 40.6557 55.7214 38.3034L55.7266 38.2734L55.73 38.2431C56.008 35.77 58.532 34.1974 60.4665 34.572L60.4939 34.5773L60.5216 34.5811C62.5769 34.8613 63.5501 36.7461 63.2441 37.8683L63.2358 37.8988L63.2294 37.9298C63.103 38.5439 62.7215 38.9964 62.2542 39.2631C61.7624 39.5439 61.2788 39.565 61.0017 39.4632L60.9699 39.4515L60.9374 39.442C60.6878 39.369 60.5262 39.2437 60.4259 39.1143L61.5603 39.2192L61.6524 38.2234C61.6954 37.758 61.4894 37.3716 61.2201 37.1262C60.9633 36.8922 60.646 36.7744 60.3493 36.7405C59.7392 36.6706 59.0776 36.9333 58.6589 37.5491C58.1675 38.2045 58.2097 39.0728 58.4854 39.7257C58.786 40.4379 59.4157 41.0706 60.3442 41.3521C61.2874 41.6855 62.3739 41.4977 63.2458 41C64.1448 40.4868 64.9201 39.5891 65.1819 38.3635C65.8221 35.9313 63.8745 33.0355 60.8192 32.6032C57.7879 32.0344 54.1735 34.3499 53.746 37.9895C53.1341 41.6127 56.2226 45.5654 60.5475 45.9372C64.8357 46.5099 69.5678 43.0918 69.9404 38.2333C70.5588 33.408 66.3364 28.3763 60.7387 28.0524C55.1803 27.4591 49.3087 31.9919 49.0013 38.0809L48.9509 39.0797L50.9483 39.1805L50.9987 38.1818C51.2456 33.2913 56.0656 29.5515 60.5476 30.0434L60.5745 30.0463L60.6016 30.0478C65.1782 30.3 68.4264 34.4262 67.9538 38.0003L67.95 38.0293L67.9479 38.0585Z" fill="#D9D9D9"/>
</svg>
