<svg width="308" height="380" viewBox="0 0 308 380" fill="none" xmlns="http://www.w3.org/2000/svg">
<g clip-path="url(#clip0_140_1214)">
<path d="M190.63 172.65C190.555 173.815 190.555 174.985 190.63 176.15C190.63 177.64 190.63 179.15 190.63 180.6C190.65 180.764 190.635 180.93 190.586 181.088C190.538 181.245 190.456 181.391 190.348 181.515C190.24 181.64 190.106 181.74 189.957 181.81C189.807 181.879 189.645 181.917 189.48 181.92C189.071 181.993 188.655 182.017 188.24 181.99C185.24 181.89 182.24 181.71 179.18 181.67C172.3 181.57 165.42 181.54 158.53 181.49C156.64 181.49 154.75 181.43 152.85 181.49C142.477 181.603 132.103 181.723 121.73 181.85C120.84 181.85 119.95 181.98 119.06 182.01C118.531 182.042 118.001 182.008 117.48 181.91C117.33 181.899 117.184 181.858 117.051 181.788C116.918 181.718 116.801 181.621 116.707 181.504C116.613 181.386 116.544 181.251 116.505 181.106C116.466 180.96 116.458 180.809 116.48 180.66C116.48 179.12 116.48 177.57 116.48 176.03V172.91C116.247 172.751 115.981 172.647 115.702 172.606C115.424 172.564 115.139 172.586 114.87 172.67C108.034 173.159 101.357 174.969 95.21 178C88.8503 181.105 83.2824 185.619 78.93 191.2C74.8594 196.555 72.1176 202.799 70.93 209.42C69.202 218.511 70.1503 227.908 73.66 236.47C76.0069 242.438 79.1922 248.041 83.12 253.11C84.79 255.19 86.62 257.11 88.36 259.16C88.743 259.596 89.0782 260.072 89.36 260.58C89.4348 260.71 89.4715 260.859 89.4657 261.009C89.46 261.159 89.4122 261.304 89.3277 261.429C89.2431 261.553 89.1254 261.651 88.9879 261.711C88.8503 261.771 88.6986 261.792 88.55 261.77C86.3008 261.643 84.075 261.247 81.92 260.59C77.0753 259.009 72.3884 256.98 67.92 254.53C57.8983 248.964 48.6636 242.087 40.46 234.08C34.5374 228.425 29.1264 222.258 24.29 215.65C17.5144 206.192 12.1265 195.814 8.29 184.83C5.73356 177.812 3.77656 170.589 2.44 163.24C1.72 159.24 1.21 155.15 0.86 151.07C0.41 146.29 0 141.5 0 136.69C0 132.84 0 128.99 0 125.13C0 119.61 0.5 114.13 1 108.63C1.56294 102.724 2.56572 96.8673 4 91.11C7.22858 77.7145 12.5039 64.8972 19.64 53.11C24.5047 45.3104 30.205 38.0643 36.64 31.5C45.4557 22.2665 55.5562 14.3518 66.63 7.99999C71.4216 5.27128 76.4733 3.02686 81.71 1.29999C83.7876 0.56348 85.9593 0.125776 88.16 -9.33744e-06C88.34 -9.33744e-06 88.51 -9.33744e-06 88.69 -9.33744e-06C88.825 0.000538222 88.9577 0.0356851 89.0752 0.102076C89.1928 0.168468 89.2914 0.263887 89.3616 0.379226C89.4318 0.494565 89.4713 0.625974 89.4763 0.760909C89.4812 0.895843 89.4515 1.0298 89.39 1.14999C89.1423 1.61728 88.8402 2.05364 88.49 2.44999C87.28 3.82999 86 5.16999 84.82 6.56999C78.4729 13.9052 73.9073 22.6085 71.48 32C68.8255 42.1417 69.7472 52.8884 74.09 62.43C77.5844 70.1621 83.3092 76.6739 90.53 81.13C96.5771 85.037 103.401 87.5825 110.53 88.59C112.29 88.85 114.07 89 115.84 89.18C116.208 89.1831 116.575 89.1631 116.94 89.12C117.4 87.58 116.94 86.02 117.26 84.51L144.97 84.71C153.27 84.77 161.573 84.8167 169.88 84.85C173.38 84.85 176.88 84.79 180.38 84.74C182.81 84.74 185.25 84.67 187.68 84.61C188.32 84.61 188.97 84.52 189.68 84.46C190.12 85.86 189.68 87.46 190.02 89C190.741 89.2426 191.512 89.2977 192.26 89.16C195.29 88.9544 198.3 88.5097 201.26 87.83C209.438 85.9545 217.008 82.0357 223.26 76.44C230.424 70.0706 235.203 61.4502 236.81 52C238.614 42.1337 237.281 31.9502 233 22.88C230.133 16.2822 226.201 10.201 221.36 4.87999C220.59 4.05999 219.84 3.21999 219.1 2.36999C218.782 2.02028 218.507 1.63427 218.28 1.21999C218.198 1.09078 218.155 0.940815 218.156 0.787854C218.157 0.634894 218.201 0.485356 218.284 0.356962C218.367 0.228568 218.486 0.1267 218.625 0.063432C218.764 0.000163652 218.919 -0.0218532 219.07 -9.33744e-06C220.428 0.0914362 221.78 0.258361 223.12 0.499991C224.452 0.785647 225.765 1.15641 227.05 1.60999C233.489 3.87322 239.646 6.86958 245.4 10.54C255.54 16.97 264.792 24.7027 272.92 33.54C279.288 40.2641 284.874 47.6881 289.57 55.67C295.464 65.9573 299.979 76.9751 303 88.44C304.778 95.086 305.992 101.87 306.63 108.72C307.2 114.72 307.63 120.72 307.63 126.82C307.63 129.487 307.63 132.153 307.63 134.82C307.63 140.82 307.19 146.82 306.63 152.75C306.142 158.243 305.277 163.696 304.04 169.07C300.85 183.022 295.448 196.374 288.04 208.62C283.458 215.977 278.119 222.834 272.11 229.08C262.831 239.035 252.087 247.516 240.25 254.23C235.938 256.601 231.436 258.608 226.79 260.23C224.324 261.085 221.754 261.603 219.15 261.77C218.988 261.797 218.822 261.777 218.671 261.713C218.519 261.648 218.39 261.542 218.297 261.406C218.205 261.271 218.153 261.111 218.148 260.947C218.143 260.783 218.186 260.621 218.27 260.48C218.559 260.024 218.894 259.598 219.27 259.21C220.79 257.47 222.4 255.8 223.84 253.99C230.009 246.499 234.353 237.677 236.53 228.22C238.661 218.708 237.708 208.764 233.81 199.83C230.769 192.821 225.873 186.773 219.65 182.34C213.158 177.572 205.611 174.444 197.65 173.22C196.19 172.99 194.71 172.8 193.24 172.66C192.47 172.59 191.64 172.65 190.63 172.65ZM190.55 153.16C191.1 153.23 191.44 153.29 191.79 153.32C195.86 153.67 199.95 153.94 204.01 154.4C208.681 154.895 213.236 156.177 217.48 158.19C221.448 160.073 225.243 162.302 228.82 164.85C235.686 169.686 241.38 176.001 245.48 183.33C246.53 185.25 247.48 187.22 248.48 189.18C251.467 195.081 253.434 201.444 254.3 208C254.403 208.823 254.577 209.636 254.82 210.43C254.927 210.962 255.232 211.434 255.674 211.75C256.116 212.066 256.662 212.202 257.2 212.13C257.741 212.164 258.275 211.997 258.7 211.66C259.2 211.245 259.665 210.79 260.09 210.3C262.276 207.715 264.281 204.982 266.09 202.12C269.813 195.914 273.027 189.416 275.7 182.69C279.302 173.838 281.778 164.569 283.07 155.1C284.128 147.346 284.722 139.535 284.85 131.71C284.85 129.71 284.85 127.71 284.73 125.71C284.54 121.45 284.29 117.19 283.82 112.94C283.227 106.741 282.195 100.592 280.73 94.54C277.8 83.2785 273.384 72.4569 267.6 62.36C265.682 58.9149 263.474 55.6397 261 52.57C260.402 51.7743 259.732 51.0346 259 50.36C258.685 50.0381 258.289 49.8083 257.853 49.6954C257.417 49.5825 256.959 49.5909 256.527 49.7196C256.096 49.8482 255.708 50.0924 255.405 50.4256C255.103 50.7587 254.897 51.1683 254.81 51.61C254.584 52.5289 254.414 53.4606 254.3 54.4C253.788 57.8624 252.982 61.2748 251.89 64.6C249.925 70.1365 247.398 75.4576 244.35 80.48C241.47 85.1942 237.881 89.4372 233.71 93.06C229.394 96.7836 224.646 99.9764 219.57 102.57C214.576 105.21 209.12 106.863 203.5 107.44C199.43 107.88 195.35 108.14 191.27 108.44C190.947 108.495 190.629 108.578 190.32 108.69C190.04 110.46 190.111 112.268 190.53 114.01C190.635 114.06 190.746 114.097 190.86 114.12C191.27 114.12 191.69 114.12 192.1 114.12C197.208 114.126 202.301 113.576 207.29 112.48C216.767 110.382 225.665 106.22 233.35 100.29C239.576 95.5995 244.859 89.7738 248.92 83.12C251.777 78.4118 254.053 73.3752 255.7 68.12C257.061 64.1942 257.999 60.1347 258.5 56.01C258.535 55.8041 258.582 55.6005 258.64 55.4C258.78 55.4 258.88 55.4 258.9 55.4C259.24 55.88 259.62 56.34 259.9 56.84C263.558 63.0999 266.605 69.6969 269 76.54C273.124 87.9787 276.096 99.8007 277.87 111.83C278.451 115.285 278.589 118.8 278.28 122.29C278.25 122.763 278.25 123.237 278.28 123.71C278.34 129.34 278.42 134.98 278.49 140.61C278.529 144.465 278.231 148.317 277.6 152.12C276.023 161.718 273.706 171.179 270.67 180.42C268.067 188.681 264.587 196.64 260.29 204.16C259.96 204.72 259.63 205.28 259.29 205.83C259.083 206.081 258.855 206.316 258.61 206.53C258.39 204.98 258.24 203.63 257.98 202.29C257.317 198.978 256.431 195.714 255.33 192.52C253.118 185.683 249.782 179.261 245.46 173.52C237.928 163.721 227.807 156.223 216.24 151.87C208.433 148.991 200.171 147.537 191.85 147.58C191.439 147.609 191.032 147.669 190.63 147.76C190.63 148.27 190.56 148.67 190.56 149.08C190.52 150.37 190.53 151.67 190.55 153.16ZM116.86 108.6C116.4 108.54 116.17 108.49 115.94 108.47C111.94 108.13 108.01 107.86 104.06 107.47C99.8039 107.06 95.6374 105.991 91.71 104.3C84.4524 101.151 77.8046 96.7503 72.07 91.3C68.8931 88.2528 66.1022 84.8272 63.76 81.1C62.0209 78.2071 60.4321 75.2265 59 72.17C56.1494 66.4234 54.2609 60.2481 53.41 53.89C53.3183 53.1237 53.1712 52.3651 52.97 51.62C52.9312 51.3058 52.8262 51.0033 52.6619 50.7326C52.4976 50.4619 52.2779 50.2292 52.0171 50.0496C51.7563 49.8701 51.4604 49.7479 51.1489 49.6911C50.8374 49.6342 50.5174 49.6441 50.21 49.72C49.7455 49.7847 49.3032 49.9595 48.92 50.23C48.4441 50.5858 48.0171 51.0027 47.65 51.47C45.4652 54.0526 43.4604 56.7824 41.65 59.64C37.4166 66.6468 33.8509 74.036 31 81.71C28.7248 87.5083 26.9875 93.5036 25.81 99.62C24.92 104.46 24.21 109.32 23.74 114.23C23.0698 120.54 22.7792 126.885 22.87 133.23C23 138.75 23.31 144.23 23.95 149.73C24.5429 155.688 25.5453 161.599 26.95 167.42C29.882 178.613 34.273 189.372 40.01 199.42C41.9676 202.879 44.2122 206.167 46.72 209.25C47.299 210.003 47.9413 210.706 48.64 211.35C48.9486 211.719 49.3578 211.99 49.8178 212.131C50.2778 212.271 50.7687 212.275 51.2307 212.141C51.6928 212.008 52.1061 211.743 52.4202 211.379C52.7343 211.014 52.9358 210.567 53 210.09C53.2109 209.227 53.3712 208.352 53.48 207.47C54.0145 203.726 54.9086 200.042 56.15 196.47C58.0988 191.181 60.55 186.091 63.47 181.27C66.3635 176.562 69.9582 172.324 74.13 168.7C78.4082 165.021 83.1077 161.862 88.13 159.29C93.0106 156.687 98.3423 155.038 103.84 154.43C107.66 153.98 111.51 153.72 115.35 153.43C115.69 153.43 116.03 153.34 116.35 153.31C116.697 151.459 116.697 149.561 116.35 147.71C115.79 147.71 115.21 147.64 114.63 147.65C109.764 147.726 104.918 148.303 100.17 149.37C90.8835 151.477 82.1636 155.571 74.61 161.37C68.3266 166.081 62.9983 171.945 58.91 178.65C56.0123 183.344 53.6922 188.37 52 193.62C50.6367 197.541 49.7013 201.598 49.21 205.72C49.1618 205.97 49.0984 206.217 49.02 206.46C48.5311 206.076 48.1489 205.574 47.91 205C44.4893 199.301 41.6165 193.291 39.33 187.05C35.6583 177.092 32.8186 166.847 30.84 156.42C29.7359 150.534 29.1835 144.558 29.19 138.57C29.19 132.35 29.58 126.13 29.19 119.9C29.19 119.79 29.19 119.67 29.19 119.55C29.2443 116.229 29.5452 112.917 30.09 109.64C31.6567 100.048 33.967 90.5933 37 81.36C39.603 73.0957 43.0898 65.1364 47.4 57.62C47.73 57.06 48.06 56.49 48.4 55.95C48.6029 55.7042 48.8235 55.4736 49.06 55.26C50.1475 63.4445 52.6016 71.3883 56.32 78.76C60.0047 86.1175 65.1293 92.6602 71.39 98C77.6628 103.38 84.8638 107.572 92.64 110.37C100.06 113.09 112.64 114.94 116.77 114.02C116.919 112.217 116.949 110.407 116.86 108.6ZM301 130.81C301 131.52 301 132.23 301 132.95C300.923 140.665 300.187 148.36 298.8 155.95C297.625 162.483 296.052 168.939 294.09 175.28C286.124 200.499 271.013 222.866 250.59 239.67C245.588 243.951 240.178 247.732 234.44 250.96C233.233 251.718 231.936 252.322 230.58 252.76C230.353 252.825 230.14 252.93 229.95 253.07C229.83 253.161 229.729 253.275 229.654 253.406C229.578 253.537 229.53 253.682 229.513 253.832C229.495 253.981 229.507 254.133 229.55 254.278C229.592 254.423 229.663 254.558 229.759 254.674C229.855 254.791 229.973 254.887 230.107 254.957C230.241 255.027 230.387 255.069 230.538 255.081C230.688 255.092 230.84 255.073 230.983 255.025C231.126 254.977 231.257 254.9 231.37 254.8C233 253.8 234.62 252.85 236.27 251.91C241.707 248.874 246.918 245.449 251.86 241.66C259.798 235.421 266.926 228.215 273.08 220.21C284.579 205.282 293.159 188.319 298.37 170.21C300.584 162.393 302.103 154.395 302.91 146.31C303.325 141.99 303.508 137.65 303.46 133.31C303.46 132.12 303.52 130.94 303.62 129.76C303.938 126.331 303.881 122.877 303.45 119.46C303.13 117.11 302.88 114.76 302.56 112.46C302.19 109.76 301.82 107.06 301.38 104.37C300.363 98.6493 298.939 93.0083 297.12 87.49C292.887 74.1322 286.786 61.44 279 49.79C268.1 33.36 254.33 20 237 10.31C235.09 9.23999 233.22 8.08999 231.34 6.96999C231.212 6.86346 231.063 6.7864 230.902 6.74431C230.741 6.70222 230.573 6.69614 230.41 6.7265C230.246 6.75686 230.091 6.82291 229.956 6.91994C229.821 7.01698 229.709 7.1426 229.629 7.28786C229.548 7.43311 229.5 7.59443 229.489 7.76029C229.477 7.92615 229.503 8.09247 229.563 8.2474C229.623 8.40232 229.717 8.54203 229.837 8.65657C229.958 8.7711 230.102 8.85763 230.26 8.90999L230.6 9.03999C231.67 9.51999 232.78 9.95999 233.82 10.51C236.906 12.158 239.879 14.0087 242.72 16.05C256.191 25.6471 267.835 37.5787 277.1 51.28C285.107 63.137 291.183 76.1892 295.1 89.95C297.764 98.9957 299.539 108.28 300.4 117.67C300.59 119.79 300.72 121.93 300.81 124.06C300.9 126.19 301 128.56 301 130.81ZM3.7 125.49H3.79C3.79 126.14 3.79 126.79 3.89 127.49C4.16 130.49 4.22 133.49 4.22 136.55C4.33046 143.489 4.99929 150.408 6.22 157.24C7.259 163.076 8.71268 168.831 10.57 174.46C14.8392 187.801 20.9516 200.48 28.73 212.13C39.8372 229.31 55.1521 243.365 73.22 252.96C74.22 253.5 75.15 254.11 76.1 254.71C76.57 255 77.02 255.25 77.58 254.92C77.7565 254.823 77.9012 254.677 77.997 254.499C78.0927 254.322 78.1354 254.121 78.12 253.92C78.07 253.3 77.62 253.04 77.12 252.81C75.8534 252.319 74.6178 251.751 73.42 251.11C70.81 249.58 68.19 248.06 65.72 246.32C45.1661 231.985 28.9596 212.263 18.88 189.32C11.5843 172.569 7.47094 154.606 6.75 136.35C6.52638 130.19 6.68334 124.021 7.22 117.88C7.44 115.34 7.68 112.79 8.11 110.28C8.77 106.37 9.49 102.47 10.35 98.59C14.3198 80.3576 21.9991 63.1371 32.91 48C42.0216 35.2989 53.2283 24.241 66.05 15.3C68.6718 13.457 71.411 11.7868 74.25 10.3C75.25 9.77999 76.31 9.39999 77.34 8.94999C77.4803 8.88992 77.6069 8.80179 77.712 8.69102C77.8171 8.58025 77.8984 8.44916 77.9509 8.30582C78.0034 8.16248 78.0261 8.00992 78.0176 7.85749C78.009 7.70506 77.9694 7.556 77.9011 7.41945C77.8328 7.2829 77.7373 7.16175 77.6205 7.06344C77.5037 6.96513 77.3681 6.89174 77.2219 6.84777C77.0757 6.80381 76.922 6.7902 76.7704 6.80777C76.6187 6.82535 76.4723 6.87375 76.34 6.94999L76.2 7.04999C75.03 7.74999 73.88 8.48999 72.7 9.14999C67.9721 11.7513 63.3978 14.6228 59 17.75C50.2396 24.105 42.3988 31.6396 35.7 40.14C23.8853 55.0417 15.0573 72.0832 9.7 90.33C8.06366 95.598 6.81697 100.979 5.97 106.43C5.42 110.3 4.86 114.17 4.4 118.05C4.06 120.52 3.91 123 3.7 125.49ZM176.55 134.15C176.55 124.08 176.55 116.49 176.55 108.9C176.55 107.42 176.42 105.9 176.33 104.46C176.27 103.6 176.02 103.3 175.17 103.12C174.475 102.976 173.769 102.893 173.06 102.87C168.85 102.8 164.64 102.72 160.43 102.7C155.86 102.7 151.29 102.7 146.72 102.78L135.33 102.84C134.738 102.848 134.147 102.892 133.56 102.97C133.324 102.999 133.099 103.088 132.908 103.23C132.716 103.372 132.566 103.562 132.47 103.78C131.95 104.695 131.674 105.728 131.67 106.78C131.67 107.6 131.67 108.44 131.67 109.27C131.67 121.663 131.697 134.053 131.75 146.44C131.75 149.17 131.8 151.9 131.85 154.62C131.872 155.451 131.948 156.279 132.08 157.1C132.28 158.42 132.67 158.83 134.08 158.93C136.2 159.07 138.34 159.19 140.47 159.19C144.03 159.19 147.59 159.13 151.15 159.06C155.057 158.973 158.967 158.86 162.88 158.72C165.665 158.548 168.46 158.582 171.24 158.82C171.888 158.883 172.539 158.907 173.19 158.89C173.605 158.891 174.018 158.84 174.42 158.74C174.7 158.705 174.971 158.616 175.217 158.476C175.463 158.337 175.679 158.151 175.853 157.928C176.026 157.705 176.154 157.45 176.229 157.177C176.304 156.905 176.325 156.62 176.29 156.34C176.32 148.15 176.46 139.91 176.55 134.15ZM190.45 123.56C191.079 123.595 191.71 123.595 192.34 123.56C195.81 123.16 199.29 122.81 202.75 122.29C205.792 121.876 208.8 121.241 211.75 120.39C217.717 118.56 223.494 116.158 229 113.22C236.165 109.48 242.63 104.531 248.11 98.59C253.041 93.3028 257.038 87.2162 259.93 80.59C260.44 79.39 260.84 78.15 261.23 76.91C261.403 76.3423 261.498 75.7534 261.51 75.16C261.506 75.0208 261.467 74.8849 261.397 74.7645C261.327 74.644 261.229 74.5429 261.11 74.47C260.974 74.4543 260.836 74.4726 260.709 74.5232C260.581 74.5738 260.468 74.6551 260.38 74.76C260.107 75.1467 259.886 75.5668 259.72 76.01C259.26 77.1 258.85 78.21 258.4 79.31C254.893 87.452 249.679 94.7464 243.11 100.7C236.948 106.28 229.937 110.844 222.34 114.22C218.852 115.874 215.193 117.141 211.43 118C209.23 118.48 207.03 119 204.83 119.39C200.487 120.355 196.066 120.924 191.62 121.09C191.18 121.13 190.742 121.197 190.31 121.29C190.196 122.048 190.244 122.822 190.45 123.56ZM116.73 121.21C116.17 121.15 115.73 121.09 115.36 121.06C114 120.95 112.63 120.94 111.28 120.74C108 120.24 104.727 119.697 101.46 119.11C96.1904 118.249 91.0544 116.71 86.18 114.53C84.04 113.53 81.9 112.53 79.82 111.37C73.5746 108.078 67.8468 103.887 62.82 98.93C56.4719 92.7335 51.554 85.2252 48.41 76.93C48.23 76.43 48.01 75.93 47.79 75.46C47.692 75.1815 47.5427 74.9237 47.35 74.7C47.16 74.52 46.8 74.34 46.61 74.41C46.4932 74.484 46.3965 74.5857 46.3285 74.7061C46.2605 74.8265 46.2232 74.9618 46.22 75.1C46.2404 75.7434 46.3412 76.3816 46.52 77C46.9667 78.4117 47.484 79.8002 48.07 81.16C53.5301 93.2387 62.49 103.401 73.79 110.33C76.7672 112.156 79.8381 113.825 82.99 115.33C87.5122 117.551 92.2372 119.333 97.1 120.65C100.61 121.531 104.17 122.199 107.76 122.65C110.34 123 112.94 123.24 115.53 123.51C115.933 123.509 116.336 123.466 116.73 123.38V121.21Z" fill="#DAC0A3"/>
<path d="M177.05 268.44C176.937 275.853 176.827 283.263 176.72 290.67C176.66 295.29 176.66 299.92 176.6 304.54C176.54 308.4 176.44 312.25 176.37 316.1C176.37 317.17 176.37 318.23 176.37 319.3C176.37 321.46 175.61 322.45 173.46 322.77C172.578 322.897 171.69 322.973 170.8 323C167.72 323.14 164.64 323.24 161.56 323.37C160.434 323.335 159.308 323.446 158.21 323.7C157.685 323.791 157.15 323.811 156.62 323.76C155.02 323.76 153.42 323.76 151.81 323.76C150.471 323.88 149.121 323.789 147.81 323.49C147.401 323.416 146.985 323.393 146.57 323.42C143.19 323.3 139.81 323.18 136.43 323.04C135.6 323.04 134.78 322.91 133.95 322.84C133.652 322.82 133.357 322.77 133.07 322.69C131.28 322.14 130.73 321.35 130.74 319.44C130.74 318.08 130.74 316.71 130.74 315.35C130.67 310.78 130.57 306.22 130.52 301.66C130.39 289.27 130.23 276.88 130.18 264.49C130.18 255.65 130.31 246.82 130.33 237.99C130.33 232.47 130.26 226.99 130.23 221.45C130.23 220.08 130.23 218.72 130.23 217.36C130.244 216.469 130.453 215.592 130.84 214.79C130.949 214.508 131.138 214.264 131.383 214.086C131.627 213.909 131.918 213.806 132.22 213.79C132.75 213.79 133.29 213.79 133.82 213.79C137.26 213.87 140.69 213.79 144.13 213.63C150.95 213.35 157.77 213.34 164.59 213.69C167.31 213.83 170.04 213.77 172.77 213.8C173.18 213.8 173.6 213.8 174.01 213.8C176.24 213.8 176.21 214.33 176.77 215.89C176.957 216.512 177.035 217.162 177 217.81C177 220.81 177 223.74 177 226.7C177 235.953 177.02 245.203 177.06 254.45C177.06 259.13 177.06 263.82 177.06 268.5L177.05 268.44ZM170.59 218.88C170.377 218.447 170.057 218.076 169.659 217.803C169.262 217.53 168.8 217.363 168.32 217.32C167.499 217.187 166.671 217.104 165.84 217.07C162.41 217.07 158.97 217.07 155.54 217.15C151.54 217.21 147.6 217.32 143.64 217.38C141.98 217.38 140.32 217.38 138.64 217.38C137.988 217.368 137.337 217.402 136.69 217.48C136.104 217.568 135.531 217.723 134.98 217.94C134.713 218.039 134.481 218.215 134.315 218.446C134.149 218.678 134.055 218.953 134.047 219.238C134.038 219.523 134.115 219.804 134.267 220.044C134.419 220.285 134.639 220.475 134.9 220.59C135.327 220.791 135.782 220.926 136.25 220.99C137.6 221.12 138.96 221.24 140.32 221.27C143.94 221.34 147.55 221.38 151.17 221.39C155.08 221.39 158.99 221.39 162.89 221.33C164.565 221.259 166.234 221.092 167.89 220.83C168.479 220.794 169.045 220.592 169.523 220.247C170.001 219.902 170.371 219.428 170.59 218.88Z" fill="#DAC0A3"/>
<path d="M125.74 342.2C125.66 339.07 125.6 336.12 125.52 333.2C125.52 331.06 125.42 328.93 125.3 326.8C125.22 325.4 125.73 324.57 127.59 324.19C128.293 324.07 129.008 324.03 129.72 324.07C134.59 324.17 139.45 324.24 144.31 324.42C150.84 324.66 157.31 324.64 163.88 324.35C168.56 324.14 173.25 324.15 177.93 324.08C178.761 324.012 179.596 324.139 180.37 324.45C180.798 324.592 181.165 324.876 181.412 325.253C181.659 325.631 181.771 326.081 181.73 326.53C181.73 327 181.73 327.48 181.73 327.95C181.59 332.63 181.46 337.31 181.32 342.1C181.721 342.203 182.129 342.276 182.54 342.32C184.14 342.32 185.74 342.32 187.34 342.42C188.111 342.447 188.879 342.523 189.64 342.65C191.08 342.91 191.64 343.39 191.79 344.85C191.91 345.729 191.91 346.621 191.79 347.5C191.56 349.02 191.24 350.5 190.87 352.02C189.741 356.52 187.788 360.772 185.11 364.56C182.982 367.565 180.405 370.226 177.47 372.45C172.356 376.377 166.239 378.783 159.82 379.39C152.82 380.11 145.82 379.88 139.08 377.57C137.388 377.016 135.757 376.292 134.21 375.41C131.408 373.85 128.806 371.956 126.46 369.77C122.29 365.767 119.136 360.827 117.26 355.36C116.226 352.705 115.553 349.924 115.26 347.09C115.22 346.262 115.25 345.433 115.35 344.61C115.37 344.127 115.564 343.667 115.897 343.315C116.229 342.964 116.678 342.746 117.16 342.7C117.977 342.56 118.802 342.47 119.63 342.43C121.11 342.37 122.63 342.37 124.08 342.34C124.55 342.3 125 342.25 125.74 342.2ZM135.45 369.9C135.56 370.545 135.837 371.149 136.253 371.655C136.668 372.16 137.209 372.548 137.82 372.78C141.499 374.589 145.478 375.707 149.56 376.08C153.64 376.547 157.772 376.225 161.73 375.13C169.582 373.215 176.546 368.679 181.47 362.27C183.556 359.523 185.24 356.493 186.47 353.27C186.877 352.16 187.211 351.024 187.47 349.87C187.588 349.291 187.642 348.701 187.63 348.11C187.64 347.78 187.541 347.456 187.349 347.188C187.157 346.919 186.882 346.721 186.567 346.623C186.252 346.526 185.913 346.534 185.603 346.647C185.293 346.761 185.028 346.972 184.85 347.25C184.538 347.682 184.276 348.148 184.07 348.64C183.7 349.51 183.38 350.4 183.07 351.29C180.839 357.424 176.581 362.614 171 366C167.738 367.95 164.192 369.38 160.49 370.24C155.544 371.578 150.345 371.682 145.35 370.54C143.28 370.04 141.18 369.66 139.11 369.16C138.488 368.96 137.824 368.923 137.183 369.052C136.543 369.182 135.946 369.474 135.45 369.9Z" fill="#DAC0A3"/>
<path d="M190.08 83.24C189.66 82.07 188.78 81.92 187.75 81.91C181.82 81.91 175.89 81.78 169.96 81.78C161.42 81.78 152.88 81.8167 144.34 81.89C137.4 81.95 130.46 82.09 123.52 82.19C122.1 82.19 120.67 82.19 119.25 82.19C118.25 82.19 117.35 82.19 116.86 83.19C114.99 83.19 113.21 83.19 111.44 83.19C108.44 83.12 105.51 83.01 102.54 82.91C102.185 82.9116 101.831 82.8882 101.48 82.84C101.121 82.8147 100.782 82.6652 100.521 82.417C100.26 82.1688 100.093 81.8375 100.05 81.48C99.9209 80.8427 99.8307 80.1982 99.78 79.55C99.66 72.67 99.72 65.79 100.06 58.92C100.093 58.1523 100.228 57.3924 100.46 56.66C100.8 55.58 101.31 55.29 102.46 55.29H102.82C105.13 55.35 107.44 55.49 109.75 55.46C119.75 55.35 129.68 55.11 139.64 55.27C144.45 55.35 149.25 55.5 154.05 55.48C161.05 55.48 168.05 55.3 175.05 55.23C178.31 55.23 181.57 55.23 184.83 55.23C189.46 55.29 194.09 55.4 198.71 55.44C200.49 55.44 202.27 55.32 204.04 55.26H204.22C205.77 55.16 206.38 55.59 206.78 57.1C206.861 57.4483 206.911 57.803 206.93 58.16C207.01 59.22 207.12 60.29 207.13 61.35C207.19 67.35 207.223 73.35 207.23 79.35C207.21 80.0589 207.13 80.7647 206.99 81.46C206.937 81.8471 206.746 82.2019 206.452 82.4592C206.158 82.7164 205.781 82.8588 205.39 82.86C205.213 82.8702 205.037 82.8702 204.86 82.86L191.34 83.24C191 83.25 190.63 83.24 190.08 83.24ZM141.66 68.66C141.623 67.9208 141.4 67.2029 141.013 66.572C140.626 65.9412 140.087 65.4176 139.445 65.0494C138.803 64.6811 138.079 64.4799 137.339 64.4643C136.599 64.4487 135.867 64.6191 135.21 64.96C134.535 65.2839 133.998 65.84 133.699 66.5267C133.4 67.2133 133.357 67.9847 133.58 68.7C133.869 69.5235 134.28 70.2989 134.8 71C135.288 71.641 135.965 72.1116 136.736 72.3444C137.507 72.5773 138.332 72.5605 139.093 72.2966C139.854 72.0326 140.512 71.5349 140.973 70.8746C141.434 70.2143 141.674 69.4252 141.66 68.62V68.66ZM164.74 71.91C165.337 71.907 165.924 71.7601 166.452 71.4818C166.98 71.2035 167.433 70.8019 167.772 70.3112C168.112 69.8204 168.328 69.255 168.403 68.6629C168.477 68.0708 168.408 67.4695 168.2 66.91C167.98 66.3144 167.632 65.7746 167.18 65.3292C166.727 64.8839 166.182 64.5439 165.583 64.3338C164.984 64.1236 164.346 64.0483 163.714 64.1133C163.083 64.1784 162.474 64.3821 161.93 64.71C161.272 65.1141 160.763 65.7213 160.48 66.44C160.282 66.8712 160.199 67.346 160.237 67.8187C160.276 68.2915 160.435 68.7464 160.7 69.14C161.063 69.6783 161.464 70.1896 161.9 70.67C162.25 71.0768 162.687 71.3995 163.178 71.6142C163.67 71.8289 164.204 71.93 164.74 71.91ZM117.55 68.91C117.636 67.9619 117.382 67.014 116.832 66.2368C116.282 65.4597 115.473 64.9041 114.55 64.67C113.647 64.465 112.701 64.5658 111.861 64.9568C111.021 65.3478 110.335 66.0067 109.91 66.83C109.639 67.3597 109.551 67.9647 109.662 68.5495C109.772 69.1343 110.074 69.6658 110.52 70.06C110.95 70.47 111.36 70.91 111.82 71.27C112.34 71.7208 112.984 72.0033 113.668 72.0801C114.352 72.1569 115.043 72.0243 115.65 71.7C116.175 71.4548 116.626 71.0766 116.959 70.6029C117.293 70.1293 117.496 69.5767 117.55 69V68.91ZM192.34 68.29C192.339 67.8017 192.239 67.3186 192.046 66.8701C191.853 66.4216 191.57 66.0172 191.216 65.6814C190.861 65.3455 190.442 65.0854 189.984 64.9166C189.525 64.7479 189.038 64.6742 188.55 64.7C188.017 64.6762 187.486 64.7861 187.006 65.0196C186.527 65.2532 186.113 65.6031 185.803 66.0374C185.493 66.4717 185.296 66.9767 185.231 67.5063C185.166 68.036 185.234 68.5735 185.43 69.07C185.43 69.18 185.43 69.3 185.52 69.41C185.742 70.2548 186.283 70.9807 187.029 71.4356C187.774 71.8904 188.667 72.039 189.52 71.85C190.324 71.6791 191.045 71.2352 191.559 70.5936C192.073 69.9519 192.349 69.1521 192.34 68.33V68.29Z" fill="#DAC0A3"/>
<path d="M179.82 52.94H166.29C165.816 52.9026 165.338 52.9261 164.87 53.01C163.478 53.3125 162.049 53.4068 160.63 53.29C159.5 53.29 158.37 53.18 157.25 53.16C155.25 53.16 153.33 53.07 151.38 53.1C147.05 53.1 142.72 53.25 138.38 53.34L128.6 53.55L118.81 53.72C118.216 53.72 117.621 53.7501 117.03 53.81C114.786 54.0513 112.517 53.8888 110.33 53.33C110.089 53.3215 109.853 53.2532 109.645 53.1314C109.436 53.0095 109.261 52.8378 109.135 52.6317C109.009 52.4256 108.937 52.1915 108.924 51.9503C108.91 51.7092 108.957 51.4686 109.06 51.25C109.313 50.5207 109.648 49.8228 110.06 49.17C116.61 38.17 125.81 30.49 138.06 26.47C140.345 25.6431 142.683 24.9748 145.06 24.47C148.097 23.9168 151.186 23.7022 154.27 23.83C161.078 24.0825 167.775 25.6337 174 28.4C183.724 32.7354 191.807 40.0654 197.07 49.32C197.462 49.9806 197.764 50.6901 197.97 51.43C198.059 51.6397 198.094 51.8684 198.071 52.0951C198.049 52.3217 197.969 52.5391 197.841 52.7272C197.713 52.9153 197.539 53.0682 197.336 53.1718C197.133 53.2753 196.908 53.3263 196.68 53.32C195.562 53.4547 194.436 53.5049 193.31 53.47C189 53.33 184.68 53.14 179.82 52.94ZM165.59 33.73C164.706 32.5414 163.437 31.6965 162 31.34C156.673 29.8617 151.105 29.4572 145.62 30.15C140.396 30.9346 135.38 32.7462 130.86 35.48C129.772 36.1752 128.766 36.9903 127.86 37.91C127.402 38.3705 127.06 38.9323 126.86 39.55C126.809 39.7147 126.801 39.8899 126.837 40.0586C126.874 40.2272 126.953 40.3835 127.068 40.5124C127.183 40.6412 127.329 40.7382 127.492 40.7938C127.656 40.8495 127.83 40.8619 128 40.83C128.7 40.6502 129.372 40.3778 130 40.02C131.39 39.23 132.75 38.38 134.13 37.57C136.226 36.3394 138.485 35.4102 140.84 34.81C143.258 34.2178 145.732 33.8826 148.22 33.81C152.486 33.6014 156.762 33.7989 160.99 34.4C162.556 34.6494 164.16 34.4157 165.59 33.73Z" fill="#DAC0A3"/>
<path d="M153.63 184.07C159.02 184.01 164.41 183.93 169.8 183.89C174.37 183.89 178.94 183.89 183.51 183.89C184.221 183.883 184.931 183.947 185.63 184.08C185.886 184.097 186.133 184.186 186.34 184.337C186.548 184.488 186.709 184.694 186.804 184.933C186.899 185.171 186.925 185.432 186.878 185.685C186.832 185.937 186.714 186.171 186.54 186.36C185.9 187.36 185.24 188.36 184.59 189.36C182.455 192.728 181.09 196.524 180.59 200.48C180.17 203.35 179.99 206.26 179.72 209.15C179.721 209.444 179.741 209.738 179.78 210.03C179.826 210.266 179.821 210.509 179.765 210.743C179.709 210.977 179.604 211.196 179.456 211.386C179.308 211.575 179.121 211.731 178.908 211.842C178.695 211.953 178.46 212.017 178.22 212.03C177.804 212.06 177.386 212.06 176.97 212.03C169.56 211.92 162.15 211.78 154.73 211.72C151.12 211.72 147.5 211.8 143.88 211.85L129.88 212.03C129.644 212.045 129.406 212.045 129.17 212.03C127.75 211.91 127.25 211.25 127.32 209.82C127.32 208.94 127.22 208.06 127.19 207.18C127.092 204.274 126.737 201.383 126.13 198.54C125.511 195.331 124.307 192.264 122.58 189.49L120.58 186.49C120.454 186.294 120.347 186.086 120.26 185.87C120.191 185.704 120.159 185.525 120.165 185.346C120.171 185.167 120.215 184.99 120.294 184.829C120.374 184.668 120.487 184.526 120.626 184.413C120.765 184.299 120.926 184.216 121.1 184.17C121.424 184.063 121.76 183.992 122.1 183.96C122.688 183.903 123.279 183.877 123.87 183.88L149.14 184.01H153.57L153.63 184.07ZM178.72 188.07C177.47 187.251 176.004 186.823 174.51 186.84C173.68 186.84 172.85 186.78 172.02 186.73C165.45 186.31 158.88 186.43 152.3 186.56C147.21 186.67 142.12 186.75 137.02 186.85C134.89 186.85 132.76 186.91 130.63 186.96C129.857 186.98 129.086 187.04 128.32 187.14C127.37 187.25 126.8 187.73 126.81 188.34C126.82 188.95 127.29 189.41 128.14 189.58C129.066 189.775 130.005 189.895 130.95 189.94C132.95 190.02 134.86 190.04 136.81 190.03C147.65 189.937 158.49 189.833 169.33 189.72C171.46 189.72 173.59 189.51 175.72 189.37C176.832 189.258 177.881 188.799 178.72 188.06V188.07Z" fill="#DAC0A3"/>
<path d="M173.06 131.06V149.73C173.06 150.91 173.06 152.09 173.06 153.27C173.108 153.628 173.017 153.99 172.807 154.283C172.598 154.577 172.284 154.779 171.93 154.85C171.408 154.969 170.875 155.032 170.34 155.04C168.86 155.04 167.34 155.04 165.9 155.09C157.9 155.25 149.9 155.403 141.9 155.55C140.66 155.55 139.41 155.55 138.17 155.46C137.524 155.406 136.888 155.265 136.28 155.04C135.938 154.922 135.645 154.694 135.446 154.392C135.247 154.09 135.154 153.731 135.18 153.37C135.18 150.47 135.18 147.57 135.18 144.67C135.18 133.65 135.207 122.627 135.26 111.6C135.26 110.66 135.26 109.71 135.37 108.76C135.355 108.504 135.393 108.247 135.48 108.005C135.568 107.764 135.704 107.543 135.88 107.356C136.056 107.168 136.268 107.019 136.503 106.917C136.739 106.814 136.993 106.761 137.25 106.76C137.66 106.7 138.08 106.71 138.5 106.69C143.95 106.48 149.39 106.21 154.85 106.09C158.93 106.01 163.03 106.09 167.12 106.09C168.24 106.09 169.37 106.09 170.49 106.15C170.965 106.168 171.439 106.211 171.91 106.28C172.241 106.303 172.553 106.44 172.794 106.668C173.035 106.896 173.189 107.201 173.23 107.53C173.332 108.292 173.378 109.061 173.37 109.83C173.29 114.75 173.18 119.67 173.11 124.58C173.11 126.72 173.11 128.85 173.11 130.98L173.06 131.06Z" fill="#DAC0A3"/>
</g>
<defs>
<clipPath id="clip0_140_1214">
<rect width="307.67" height="379.72" fill="white"/>
</clipPath>
</defs>
</svg>
