<svg width="136" height="143" viewBox="0 0 136 143" fill="none" xmlns="http://www.w3.org/2000/svg">
<g clip-path="url(#clip0_249_520)">
<path d="M66.2107 5.30805L5.11434 74.083C4.74406 74.5001 4.53993 75.0364 4.53993 75.5956V88.5539C4.53993 89.2598 4.85939 89.9153 5.41595 90.3508L66.5128 137.976C67.3366 138.613 68.4809 138.613 69.3047 137.976L130.403 90.3554C130.957 89.9199 131.277 89.269 131.277 88.5631V75.6002C131.277 75.041 131.071 74.5047 130.705 74.0876L69.6022 5.30805C69.172 4.82217 68.5541 4.54711 67.9088 4.54711C67.2588 4.54711 66.641 4.82217 66.2107 5.30805ZM67.9088 143C66.435 143 64.9566 142.523 63.7254 141.561L2.62721 93.9399C0.957524 92.6381 0 90.6762 0 88.5539V75.5956C0 73.9225 0.611491 72.3091 1.72187 71.0623L62.8191 2.28276C64.1099 0.8297 65.9681 9.94587e-07 67.9088 9.94587e-07C69.8494 9.94587e-07 71.7077 0.829682 72.9984 2.28732L134.097 71.0668C135.204 72.3182 135.818 73.9271 135.818 75.6002V88.5631C135.818 90.6808 134.861 92.6427 133.19 93.9444L72.0921 141.561C70.8609 142.523 69.3825 143 67.9088 143Z" fill="white"/>
<path d="M128.815 89.4386L109.28 94.1003L69.2864 6.88026L106.822 95.4892C107.051 96.0255 107.472 96.4609 108.003 96.7039C108.575 96.9606 109.225 96.9835 109.806 96.7543L128.815 89.4386Z" fill="white"/>
<path d="M67.9089 116.767L32.8345 98.817L66.5586 119.201L67.9089 136.065L69.2591 119.201L103.545 98.4961L67.9089 116.767Z" fill="white"/>
<path d="M66.4443 7.04071L26.5302 94.1049L7.01575 89.5349L26.0093 96.7635C26.5938 96.9835 27.2428 96.9652 27.8113 96.7039C28.3413 96.4609 28.7615 96.0255 28.9889 95.4892L66.4443 7.04071Z" fill="white"/>
<path d="M66.8011 69.4762C66.3114 69.0408 65.9544 68.7933 65.7393 68.7383C65.2221 68.7383 64.6775 69.325 64.1053 70.4984C63.6156 71.5343 63.3684 72.3686 63.3684 72.9966C63.3684 75.7239 64.5035 77.5987 66.7188 78.7217C67.2405 78.9876 67.593 79.1343 67.7806 79.1343C68.4489 79.1343 71.131 78.0754 71.131 77.4933C71.1859 74.7384 69.735 72.0752 66.8011 69.4762ZM71.6207 86.5783C70.806 87.3209 69.5382 88.1368 67.8218 89.0352C65.753 90.1262 64.4165 90.6716 63.8169 90.6716C63.4371 90.4837 63.2311 90.1949 63.2037 89.8145C63.3135 89.6494 63.3959 89.5532 63.4508 89.5257L66.1879 87.6417C67.8493 86.4637 69.2498 84.5431 70.1515 82.7325L71.131 79.8677H70.7648C70.6275 79.8677 69.7991 80.4681 68.2704 81.6691C66.8012 82.87 65.9041 83.4843 65.5745 83.5118C64.1877 83.5118 62.81 82.5446 61.4507 80.6056C60.224 78.8592 59.6107 77.2228 59.6107 75.6964C59.6107 73.9775 60.6177 71.7819 62.6315 69.105C64.7598 66.3226 66.6364 64.9337 68.2704 64.9337C68.4077 64.9337 68.9111 65.2592 69.7854 65.9146C73.6438 68.7245 75.708 73.2579 75.708 77.3328C75.708 81.0136 74.3532 84.1077 71.6207 86.5783Z" fill="white"/>
</g>
<defs>
<clipPath id="clip0_249_520">
<rect width="135.818" height="143" fill="white"/>
</clipPath>
</defs>
</svg>
