<svg width="298" height="307" viewBox="0 0 298 307" fill="none" xmlns="http://www.w3.org/2000/svg">
<g clip-path="url(#clip0_140_1209)">
<path d="M40.61 37.67C41.2809 39.5102 41.7111 41.4295 41.89 43.38C42.9004 50.8471 42.7993 58.4226 41.59 65.86C40.98 69.65 40.34 73.44 39.72 77.23C39.62 77.87 39.57 78.51 39.47 79.29C40.11 79.38 40.65 79.49 41.2 79.52C45.2101 79.6316 49.2168 79.1977 53.11 78.23C59.1567 76.8967 65.2233 75.5833 71.31 74.29C75.7129 73.3753 80.1734 72.7639 84.66 72.46C87.59 72.26 90.52 71.93 93.46 71.75C98.602 71.44 103.758 71.44 108.9 71.75C116.34 72.17 123.68 73.39 131.06 74.29C137.15 75.03 143.17 76.15 149.21 77.19C153.15 77.88 157.14 78.31 161.11 78.79C168.505 79.638 175.948 79.9921 183.39 79.85C188.705 79.7335 194.01 79.3262 199.28 78.63C203.82 78.08 208.28 77.26 212.85 76.57C213.56 76.47 214.28 76.44 215.22 76.36C215 77.45 214.79 78.36 214.63 79.3C213.698 84.8758 213.782 90.5744 214.88 96.12C216.951 106.631 219.738 116.989 223.22 127.12C224.96 132.3 226.86 137.44 228.79 142.56C230.743 147.691 233.004 152.7 235.56 157.56C240.96 167.93 246.38 178.28 251.74 188.67C256.483 197.722 260.707 207.037 264.39 216.57C268.327 226.807 270.853 237.532 271.9 248.45C272.347 253.75 272.193 259.084 271.44 264.35C270.703 269.946 269.455 275.462 267.71 280.83C265.716 286.64 262.665 292.031 258.71 296.73C257.474 298.262 255.974 299.559 254.28 300.56C253.65 300.935 253.06 301.374 252.52 301.87C252.244 302.114 252.049 302.435 251.96 302.792C251.87 303.149 251.891 303.525 252.02 303.87C252.174 304.252 252.442 304.576 252.787 304.8C253.133 305.024 253.539 305.136 253.95 305.12C255.188 305.094 256.39 304.697 257.4 303.98C259.533 302.602 261.436 300.898 263.04 298.93C268.504 292.474 272.403 284.842 274.43 276.63C276.955 266.789 277.794 256.591 276.91 246.47C276.079 238.329 274.379 230.3 271.84 222.52C268.964 213.742 265.496 205.169 261.46 196.86C258.51 190.66 255.46 184.53 252.32 178.41C248.69 171.26 245.04 164.14 241.32 157.06C236.74 148.29 232.852 139.175 229.69 129.8C226.85 121.53 224.01 113.26 221.85 104.8C220.705 100.451 219.847 96.0314 219.28 91.57C219.02 89.38 219.04 87.16 219 84.96C219 83.73 219.07 82.51 219.11 81.28C219.11 80.38 219.23 79.48 219.18 78.59C219.13 77.7 218.93 76.86 218.78 75.89C219.156 75.7633 219.54 75.663 219.93 75.59C222.935 75.2136 225.968 75.1165 228.99 75.3C229.99 75.39 230.99 75.38 231.93 75.43C232.67 75.4025 233.392 75.6652 233.941 76.1621C234.49 76.659 234.824 77.3508 234.87 78.09C234.939 78.7543 234.966 79.4223 234.95 80.09C234.946 97.016 239.193 113.672 247.3 128.53C250.532 134.552 254.105 140.385 258 146C262 151.71 265.94 157.41 269.8 163.18C276.411 172.938 282.166 183.25 287 194C291.482 204.006 294.635 214.556 296.38 225.38C297.471 232.659 297.806 240.032 297.38 247.38C297.139 253.264 296.541 259.128 295.59 264.94C295.009 268.487 294.18 271.989 293.11 275.42C292.083 278.615 290.694 281.681 288.97 284.56C286.97 287.86 284.91 291.07 282.81 294.29C278.58 300.81 272.47 304.35 265.06 305.92C262.013 306.579 258.879 306.741 255.78 306.4C251.78 305.96 247.84 305.4 243.87 304.83C236.917 303.803 229.973 302.733 223.04 301.62C216.833 300.627 210.63 299.58 204.43 298.48C197.02 297.16 189.6 296.02 182.12 295.2C168.543 293.719 154.884 293.131 141.23 293.44C135.58 293.55 129.96 294.04 124.35 294.6C120.12 295.03 115.88 295.42 111.64 295.71C104.71 296.19 97.77 296.63 90.83 296.98C87 297.17 83.15 297.14 79.31 297.19C78.94 297.19 78.49 297.33 78.16 296.84C78.2477 296.646 78.3659 296.467 78.51 296.31C82.6676 292.979 86.2634 289.001 89.16 284.53C94.2076 277.154 97.733 268.845 99.53 260.09C100.08 257.2 100.441 254.277 100.61 251.34C100.975 246.036 100.975 240.714 100.61 235.41C98.95 212.54 92.61 190.94 83.06 170.18C79.9483 163.425 76.463 156.848 72.62 150.48C65.93 139.32 58.62 128.59 50.91 118.1C47.3367 113.207 43.7933 108.303 40.28 103.39C38.62 101.06 37.09 98.64 35.45 96.29C30.8628 89.4961 27.6022 81.8959 25.84 73.89C24.1405 66.8908 23.4502 59.6846 23.79 52.49C23.908 48.6376 24.7599 44.8431 26.3 41.31C26.7726 40.2694 27.3242 39.2664 27.95 38.31C28.7262 37.1448 29.8339 36.2392 31.13 35.71C31.7192 35.4218 32.3612 35.2572 33.0164 35.2262C33.6716 35.1953 34.3262 35.2986 34.94 35.53C35.55 35.77 36.15 36.02 36.76 36.25L40.61 37.67ZM127.42 253.39C128.093 254.157 128.914 254.782 129.833 255.227C130.752 255.671 131.75 255.928 132.77 255.98C135.29 256.13 137.77 256.36 140.34 256.34C145.72 256.34 151.1 256.17 156.48 255.99C158.48 255.92 160.54 255.64 162.57 255.42C163.298 255.322 164.017 255.165 164.72 254.95C164.91 254.95 165.21 254.62 165.18 254.48C165.142 254.18 164.988 253.907 164.75 253.72C164.337 253.456 163.885 253.26 163.41 253.14C162.466 252.893 161.508 252.706 160.54 252.58C158.44 252.33 156.32 252.17 154.22 251.93C147.419 251.075 140.559 250.784 133.71 251.06C131.401 251.055 129.168 251.882 127.42 253.39ZM120.83 162.09C120.789 162.642 120.913 163.194 121.187 163.675C121.462 164.156 121.874 164.545 122.37 164.79C125.37 166.72 128.37 168.65 131.49 170.49C132.264 170.937 133.129 171.204 134.02 171.27C134.369 171.3 134.719 171.253 135.048 171.135C135.378 171.016 135.677 170.828 135.927 170.583C136.177 170.338 136.37 170.042 136.495 169.716C136.62 169.389 136.673 169.039 136.65 168.69C136.639 167.961 136.464 167.243 136.14 166.59C134.713 163.843 133.227 161.127 131.68 158.44C131.158 157.615 130.518 156.87 129.78 156.23C129.34 155.872 128.817 155.628 128.26 155.52C128.061 155.474 127.853 155.478 127.656 155.532C127.459 155.586 127.278 155.687 127.129 155.828C126.981 155.968 126.869 156.144 126.805 156.338C126.741 156.532 126.725 156.739 126.76 156.94C126.881 157.58 127.083 158.201 127.36 158.79C127.99 160.2 128.69 161.58 129.36 162.98C129.51 163.32 129.82 163.68 129.27 164.06C128.41 163.67 127.53 163.26 126.63 162.87C125.73 162.48 124.69 162.02 123.7 161.64C123.23 161.426 122.708 161.355 122.198 161.435C121.687 161.515 121.212 161.743 120.83 162.09ZM189.57 227.56C190.75 228.18 191.48 228.51 192.16 228.92C193.76 229.92 195.33 230.92 196.94 231.92C197.692 232.405 198.485 232.823 199.31 233.17C199.624 233.328 199.971 233.408 200.322 233.405C200.673 233.401 201.018 233.313 201.329 233.149C201.639 232.984 201.906 232.748 202.106 232.459C202.306 232.171 202.434 231.838 202.48 231.49C202.593 231.1 202.647 230.696 202.64 230.29C202.599 227.91 202.197 225.55 201.45 223.29C201.293 222.827 201.037 222.404 200.7 222.05C200.516 221.856 200.285 221.714 200.028 221.639C199.772 221.564 199.501 221.558 199.242 221.622C198.982 221.687 198.745 221.818 198.553 222.004C198.361 222.19 198.222 222.423 198.15 222.68C198.015 223.397 198.015 224.133 198.15 224.85C198.34 226.06 198.67 227.24 198.91 228.44C198.945 228.823 198.945 229.207 198.91 229.59C198.048 229.468 197.242 229.088 196.6 228.5C194.95 227.5 193.34 226.33 191.69 225.28C191.011 224.824 190.279 224.451 189.51 224.17C187.63 223.55 186.05 224.5 186.14 226.45C186.317 228.88 186.635 231.297 187.09 233.69C187.153 233.876 187.26 234.045 187.4 234.182C187.541 234.319 187.712 234.421 187.9 234.48C188.145 234.531 188.399 234.488 188.614 234.36C188.829 234.233 188.988 234.029 189.06 233.79C189.324 233.113 189.495 232.403 189.57 231.68C189.63 230.48 189.57 229.26 189.57 227.56ZM119.67 225.56C123.35 228.85 127.67 229.34 131.93 230.03C132.172 230.06 132.418 230.06 132.66 230.03C133.529 229.999 134.352 229.631 134.955 229.004C135.558 228.377 135.893 227.54 135.89 226.67C135.866 224.605 135.163 222.606 133.89 220.98C133.701 220.707 133.437 220.496 133.129 220.371C132.822 220.247 132.485 220.215 132.16 220.28C131.834 220.345 131.535 220.504 131.299 220.736C131.063 220.969 130.9 221.266 130.83 221.59C130.7 222.225 130.636 222.872 130.64 223.52C130.64 223.98 130.52 224.44 130.45 224.99C128.61 224.86 126.92 224.7 125.22 224.62C123.332 224.667 121.462 224.994 119.67 225.59V225.56ZM184.8 98C184.8 98.2 184.8 98.32 184.8 98.35C186.03 99.28 187.23 100.26 188.51 101.12C192.097 103.411 195.286 106.271 197.95 109.59C198.294 110.044 198.709 110.439 199.18 110.76C199.405 110.906 199.665 110.986 199.933 110.992C200.201 110.997 200.465 110.928 200.695 110.792C200.926 110.656 201.114 110.458 201.239 110.221C201.363 109.984 201.419 109.717 201.4 109.45C201.344 108.804 201.182 108.173 200.92 107.58C199.67 104.58 198.38 101.58 197.09 98.58C196.824 97.9863 196.523 97.4087 196.19 96.85C196.015 96.5783 195.799 96.3354 195.55 96.13C195.17 95.82 194.4 96.08 194.39 96.56C194.36 97.2031 194.428 97.847 194.59 98.47C195 99.8 195.53 101.08 195.99 102.39C196.1 102.72 196.46 103.09 195.99 103.5C192.49 101.32 189.37 98.22 184.8 98ZM230.18 229.1C231.18 229.8 231.9 230.32 232.65 230.79C233.195 231.147 233.775 231.448 234.38 231.69C237.873 233.023 241.37 234.357 244.87 235.69C245.48 235.919 246.12 236.061 246.77 236.11C247.097 236.158 247.43 236.102 247.724 235.952C248.018 235.801 248.258 235.563 248.41 235.27C248.589 234.946 248.664 234.575 248.627 234.207C248.589 233.839 248.44 233.491 248.2 233.21C247.955 232.885 247.649 232.609 247.3 232.4C246.542 231.927 245.737 231.532 244.9 231.22C241.9 230.31 238.82 229.44 235.75 228.66C233.886 228.279 231.951 228.446 230.18 229.14V229.1ZM230.18 254.65C230.25 254.85 230.25 255.04 230.35 255.13C231.613 256.296 233.114 257.173 234.75 257.7C237.39 258.52 240.03 259.35 242.69 260.15C243.471 260.374 244.266 260.548 245.07 260.67C245.47 260.74 245.88 260.74 246.28 260.67C246.647 260.622 246.989 260.456 247.256 260.199C247.522 259.942 247.699 259.605 247.76 259.24C247.806 258.914 247.749 258.581 247.596 258.289C247.444 257.996 247.204 257.759 246.91 257.61C246.13 257.179 245.3 256.843 244.44 256.61C241.53 255.85 238.59 255.18 235.67 254.44C233.863 253.976 231.958 254.063 230.2 254.69L230.18 254.65ZM146.1 163C147.54 164.18 148.15 164.64 149.73 164.81C153.2 165.17 156.73 165.4 160.16 165.6C160.893 165.594 161.616 165.43 162.28 165.12C162.529 165.023 162.745 164.855 162.901 164.638C163.057 164.421 163.148 164.164 163.162 163.897C163.175 163.63 163.112 163.365 162.978 163.133C162.845 162.901 162.648 162.712 162.41 162.59C161.701 162.2 160.929 161.936 160.13 161.81C156.911 161.349 153.649 161.261 150.41 161.55C148.87 161.639 147.381 162.14 146.1 163ZM94 132.89C95.0995 133.77 96.462 134.255 97.87 134.27C100.48 134.22 103.09 134.09 105.7 133.94C106.345 133.866 106.977 133.708 107.58 133.47C107.911 133.382 108.206 133.193 108.424 132.93C108.643 132.666 108.774 132.341 108.8 132C108.858 131.631 108.792 131.254 108.61 130.928C108.429 130.601 108.144 130.345 107.8 130.2C106.904 129.815 105.958 129.559 104.99 129.44C102.539 129.302 100.08 129.539 97.7 130.14C96.9098 130.273 96.1625 130.592 95.5194 131.07C94.8762 131.548 94.3555 132.172 94 132.89ZM83.87 108.34C84.05 105.92 84.45 104 83.81 102.12C83.1718 100.271 82.4408 98.4554 81.62 96.68C81.2651 95.9443 80.7611 95.2905 80.14 94.76C79.6276 94.3716 79.0192 94.1296 78.38 94.06C78.1551 94.0239 77.9249 94.0417 77.7082 94.1118C77.4916 94.182 77.2946 94.3025 77.1336 94.4636C76.9725 94.6246 76.852 94.8216 76.7818 95.0382C76.7117 95.2549 76.6939 95.4851 76.73 95.71C76.8065 96.3543 76.9854 96.9822 77.26 97.57C78.19 99.57 79.16 101.57 80.15 103.51C80.4909 104.163 80.8927 104.782 81.35 105.36C82 106.24 82.78 107.06 83.87 108.34ZM192.18 128.24C193.644 129.547 195.369 130.529 197.24 131.12C199.04 131.63 200.82 132.23 202.62 132.74C203.324 132.938 204.049 133.052 204.78 133.08C205.191 133.109 205.601 133.006 205.948 132.784C206.296 132.562 206.563 132.235 206.71 131.85C206.853 131.42 206.845 130.955 206.689 130.53C206.533 130.105 206.237 129.745 205.85 129.51C205.163 129.069 204.415 128.732 203.63 128.51C202.06 128.09 200.45 127.81 198.86 127.44C196.607 126.939 194.251 127.221 192.18 128.24ZM136.28 193.24C137.349 194.441 138.77 195.274 140.34 195.62C142.34 196.1 144.28 196.62 146.27 196.96C147.306 197.142 148.358 197.219 149.41 197.19C149.821 197.208 150.225 197.079 150.549 196.826C150.874 196.573 151.097 196.213 151.18 195.81C151.241 195.438 151.176 195.057 150.995 194.727C150.814 194.397 150.527 194.137 150.18 193.99C149.189 193.448 148.125 193.054 147.02 192.82C144.77 192.49 142.5 192.35 140.23 192.19C138.838 192.109 137.455 192.469 136.28 193.22V193.24ZM136.45 108.17C136.728 107.749 136.938 107.287 137.07 106.8C137.205 105.761 137.205 104.709 137.07 103.67C136.68 101.77 136.13 99.89 135.58 98.02C135.326 97.2468 134.991 96.5027 134.58 95.8C134.291 95.3121 133.927 94.8733 133.5 94.5C133.257 94.2806 132.955 94.1378 132.631 94.0898C132.307 94.0417 131.976 94.0905 131.68 94.23C131.366 94.3397 131.098 94.5504 130.917 94.8291C130.736 95.1079 130.653 95.4388 130.68 95.77C130.663 96.3364 130.744 96.9014 130.92 97.44C131.953 100.173 133.02 102.893 134.12 105.6C134.587 106.688 135.408 107.587 136.45 108.15V108.17ZM179.5 110.76C179.993 109.036 180.031 107.213 179.61 105.47C179 103.1 178.34 100.76 177.61 98.47C177.358 97.6128 177.023 96.7822 176.61 95.99C176.359 95.4931 176.02 95.0459 175.61 94.67C175.412 94.4606 175.147 94.3263 174.861 94.2899C174.575 94.2534 174.285 94.3171 174.04 94.47C173.818 94.5774 173.635 94.7523 173.519 94.9696C173.402 95.1869 173.357 95.4356 173.39 95.68C173.515 96.6427 173.722 97.5929 174.01 98.52C174.93 101.22 175.86 103.91 176.91 106.52C177.513 107.852 178.204 109.141 178.98 110.38C179 110.51 179.29 110.6 179.5 110.74V110.76ZM238.23 205.34C238.1 204.64 238.01 203.92 237.82 203.23C236.56 198.77 233.98 195.03 231.16 191.44C230.735 190.963 230.184 190.616 229.57 190.44C229.106 190.367 228.633 190.479 228.25 190.75C228.069 190.897 227.946 191.102 227.9 191.33C227.854 191.558 227.89 191.795 228 192C228.319 192.658 228.694 193.287 229.12 193.88C230.82 196.35 232.56 198.8 234.27 201.28C235.313 202.873 236.658 204.246 238.23 205.32V205.34ZM135.4 137.43C136.053 137.085 136.597 136.566 136.973 135.931C137.349 135.295 137.542 134.568 137.53 133.83C137.716 131.792 137.584 129.738 137.14 127.74C136.957 127.05 136.706 126.38 136.39 125.74C136.238 125.349 135.956 125.022 135.593 124.813C135.229 124.603 134.805 124.525 134.39 124.59C133.942 124.664 133.532 124.889 133.229 125.227C132.925 125.565 132.746 125.996 132.72 126.45C132.658 127.259 132.702 128.072 132.85 128.87C133.15 130.64 133.54 132.39 133.85 134.15C134.016 135.377 134.557 136.523 135.4 137.43ZM202 162.06C203.091 163.089 204.455 163.784 205.93 164.06C208.56 164.63 211.21 165.06 213.87 165.53C214.595 165.615 215.329 165.574 216.04 165.41C216.367 165.366 216.67 165.213 216.899 164.975C217.128 164.737 217.269 164.429 217.3 164.1C217.31 163.81 217.227 163.525 217.063 163.286C216.899 163.046 216.664 162.866 216.39 162.77C215.42 162.373 214.416 162.065 213.39 161.85C211.39 161.51 209.39 161.33 207.32 161.06C205.486 160.84 203.629 161.189 202 162.06ZM120.7 136.24C121.91 135.02 122.13 134.75 121.94 133.51C121.62 130.762 120.585 128.145 118.94 125.92C118.514 125.431 117.98 125.048 117.38 124.8C117.118 124.686 116.83 124.643 116.545 124.675C116.261 124.707 115.99 124.814 115.76 124.984C115.53 125.155 115.348 125.383 115.234 125.645C115.12 125.908 115.077 126.196 115.11 126.48C115.159 127.043 115.301 127.594 115.53 128.11C116.53 130.25 117.53 132.39 118.53 134.49C118.717 134.939 119.014 135.335 119.393 135.641C119.772 135.946 120.221 136.152 120.7 136.24ZM164.59 129.84C165.548 130.677 166.717 131.237 167.97 131.46C170.23 131.76 172.48 132.06 174.75 132.25C175.557 132.27 176.361 132.156 177.13 131.91C177.285 131.858 177.428 131.775 177.55 131.665C177.672 131.555 177.769 131.421 177.837 131.272C177.905 131.123 177.941 130.961 177.943 130.797C177.945 130.634 177.914 130.471 177.85 130.32C177.633 129.806 177.289 129.355 176.85 129.01C175.9 128.371 174.785 128.023 173.64 128.01C172.34 127.95 171.04 128.01 169.74 127.94C168.796 127.871 167.848 128.005 166.959 128.333C166.071 128.661 165.263 129.174 164.59 129.84ZM180.52 170.9C180.902 169.776 180.934 168.562 180.61 167.42C179.705 164.451 178.294 161.66 176.44 159.17C175.916 158.549 175.282 158.031 174.57 157.64C174.376 157.521 174.152 157.46 173.925 157.466C173.698 157.471 173.477 157.542 173.289 157.669C173.101 157.797 172.954 157.977 172.865 158.186C172.777 158.396 172.751 158.626 172.79 158.85C172.868 159.495 173.068 160.12 173.38 160.69C174.87 163.31 176.38 165.92 177.97 168.49C178.585 169.51 179.467 170.344 180.52 170.9ZM111.31 197.27C112.949 198.363 114.906 198.876 116.87 198.73C118.17 198.67 119.47 198.73 120.77 198.73C121.421 198.74 122.07 198.662 122.7 198.5C122.978 198.429 123.232 198.284 123.433 198.079C123.634 197.874 123.776 197.619 123.842 197.339C123.908 197.06 123.896 196.768 123.807 196.494C123.719 196.221 123.557 195.978 123.34 195.79C122.698 195.151 121.844 194.77 120.94 194.72C118.83 194.521 116.701 194.649 114.63 195.1C113.32 195.451 112.157 196.211 111.31 197.27ZM101.42 101.21C102.037 102.009 102.934 102.545 103.93 102.71C106.79 103.3 109.67 103.8 112.55 104.28C113.11 104.337 113.675 104.261 114.2 104.06C114.412 103.988 114.602 103.86 114.748 103.69C114.894 103.52 114.991 103.314 115.03 103.093C115.069 102.872 115.048 102.644 114.969 102.435C114.889 102.225 114.755 102.04 114.58 101.9C114.003 101.458 113.353 101.119 112.66 100.9C109.927 100.095 107.072 99.7839 104.23 99.98C103.176 100.041 102.179 100.477 101.42 101.21ZM158.25 225.21C158.79 225.48 159 225.61 159.25 225.7C163.44 227.43 167.93 227.7 172.35 228.22C172.947 228.22 173.541 228.129 174.11 227.95C174.216 227.788 174.288 227.605 174.319 227.413C174.351 227.222 174.343 227.026 174.295 226.838C174.247 226.65 174.16 226.474 174.041 226.321C173.921 226.168 173.771 226.042 173.6 225.95C172.444 225.181 171.097 224.749 169.71 224.7C167.77 224.5 165.82 224.37 163.88 224.27C161.956 224.199 160.039 224.529 158.25 225.24V225.21ZM153.76 96.38C153.906 96.8096 154.172 97.1885 154.526 97.472C154.881 97.7555 155.309 97.9317 155.76 97.98C158.36 98.66 160.98 99.29 163.59 99.92C163.919 99.9868 164.254 100.017 164.59 100.01C164.916 100.058 165.249 99.9934 165.533 99.826C165.817 99.6585 166.035 99.3987 166.15 99.09C166.276 98.7397 166.277 98.3562 166.151 98.0058C166.025 97.6553 165.78 97.3597 165.46 97.17C164.986 96.8587 164.466 96.6225 163.92 96.47C162.02 96 160.12 95.55 158.21 95.19C157.402 95.0701 156.584 95.0399 155.77 95.1C155.342 95.0695 154.916 95.1775 154.554 95.408C154.192 95.6385 153.913 95.9793 153.76 96.38ZM193.64 169.63C193.661 168.404 193.567 167.179 193.36 165.97C192.484 162.99 191.133 160.171 189.36 157.62C189.102 157.219 188.761 156.878 188.36 156.62C188.186 156.528 187.996 156.473 187.8 156.455C187.604 156.438 187.407 156.46 187.22 156.52C187.051 156.627 186.911 156.774 186.813 156.949C186.715 157.123 186.663 157.32 186.66 157.52C186.759 158.401 186.984 159.263 187.33 160.08C188.27 162.08 189.33 164.01 190.33 165.95C191.182 167.381 192.307 168.632 193.64 169.63ZM183.9 199.49C184.467 199.407 185.003 199.179 185.457 198.829C185.91 198.479 186.266 198.018 186.49 197.49C187.235 195.862 187.886 194.192 188.44 192.49C188.625 191.701 188.689 190.888 188.63 190.08C188.62 189.676 188.528 189.278 188.36 188.91C188.227 188.568 187.989 188.277 187.68 188.079C187.37 187.881 187.006 187.787 186.64 187.81C186.31 187.813 185.99 187.919 185.723 188.113C185.456 188.306 185.256 188.578 185.15 188.89C184.924 189.494 184.786 190.127 184.74 190.77C184.694 192.634 184.416 194.485 183.91 196.28C183.63 197.331 183.626 198.437 183.9 199.49ZM171.29 200.41C172.12 199.281 172.613 197.938 172.71 196.54C172.82 194.59 172.82 192.64 172.77 190.69C172.743 190.04 172.554 189.408 172.22 188.85C171.93 188.475 171.508 188.224 171.04 188.15C170.753 188.107 170.46 188.169 170.216 188.326C169.971 188.482 169.791 188.721 169.71 189C169.506 189.615 169.414 190.262 169.44 190.91C169.53 192.45 169.77 193.98 169.85 195.52C169.951 197.238 170.444 198.911 171.29 200.41ZM179.99 251.93C180.15 252.336 180.424 252.687 180.779 252.941C181.133 253.195 181.554 253.34 181.99 253.36C184.3 253.773 186.656 253.861 188.99 253.62C189.624 253.502 190.242 253.307 190.83 253.04C191.059 252.947 191.254 252.786 191.389 252.579C191.523 252.371 191.59 252.127 191.58 251.88C191.58 251.31 191.15 251.04 190.68 250.88C190.372 250.779 190.058 250.699 189.74 250.64C187.176 250.195 184.554 250.195 181.99 250.64C181.581 250.687 181.189 250.828 180.844 251.052C180.499 251.276 180.21 251.576 180 251.93H179.99ZM200.07 195.19C200.712 195.863 201.56 196.302 202.48 196.44L209.17 198.69C209.71 198.87 210.22 199.12 210.74 199.35C210.92 199.448 211.127 199.482 211.328 199.447C211.529 199.413 211.713 199.312 211.85 199.16C212.032 198.99 212.143 198.759 212.164 198.511C212.184 198.264 212.111 198.017 211.96 197.82C211.655 197.341 211.265 196.92 210.81 196.58C208.23 194.84 205.158 193.977 202.05 194.12C201.654 194.102 201.261 194.193 200.912 194.381C200.563 194.57 200.272 194.849 200.07 195.19ZM156.07 230.83C156.24 231.09 156.27 231.19 156.33 231.22C159.56 232.83 163.05 233.05 166.57 233.08C166.909 233.075 167.246 233.021 167.57 232.92C167.805 232.862 168.017 232.736 168.181 232.559C168.344 232.381 168.452 232.159 168.49 231.92C168.547 231.677 168.524 231.423 168.425 231.194C168.326 230.965 168.156 230.775 167.94 230.65C167.384 230.324 166.769 230.113 166.13 230.03C162.8 229.77 159.46 229.6 156.11 230.83H156.07ZM203.79 251.93C204.428 252.758 205.338 253.336 206.36 253.56C208.04 253.88 209.72 254.14 211.42 254.33C211.985 254.391 212.556 254.308 213.08 254.09C213.514 253.904 213.868 253.571 214.08 253.15C214.183 252.879 214.189 252.581 214.098 252.306C214.007 252.031 213.824 251.796 213.58 251.64C212.808 251.03 211.863 250.68 210.88 250.64C209.75 250.57 208.61 250.56 207.48 250.53C206.807 250.487 206.132 250.59 205.502 250.832C204.872 251.073 204.302 251.448 203.83 251.93H203.79ZM227.45 204.7C227.928 203.546 227.981 202.26 227.6 201.07C226.81 199.07 225.97 197.15 225.01 195.27C224.544 194.497 223.937 193.818 223.22 193.27C223.095 193.128 222.941 193.014 222.769 192.935C222.596 192.857 222.409 192.817 222.22 192.817C222.031 192.817 221.844 192.857 221.671 192.935C221.499 193.014 221.345 193.128 221.22 193.27C220.76 193.85 221.11 194.36 221.43 194.83C223.008 197.118 224.412 199.522 225.63 202.02C226.189 202.954 226.81 203.85 227.49 204.7H227.45ZM209.71 230.39C210.283 231.253 211.15 231.879 212.15 232.15C214.04 232.65 215.96 233.03 217.87 233.42C218.274 233.485 218.686 233.485 219.09 233.42C219.418 233.402 219.732 233.28 219.985 233.072C220.239 232.863 220.419 232.578 220.5 232.26C220.521 231.971 220.452 231.683 220.301 231.435C220.15 231.188 219.926 230.994 219.66 230.88C219.099 230.55 218.492 230.304 217.86 230.15C216.67 229.9 215.45 229.75 214.23 229.6C212.69 229.362 211.115 229.64 209.75 230.39H209.71ZM102.31 171.86C102.55 172.305 102.886 172.69 103.295 172.988C103.703 173.286 104.173 173.488 104.67 173.58C105.94 173.8 107.23 173.97 108.52 174.1C109.015 174.168 109.519 174.134 110 174C110.294 173.915 110.56 173.751 110.767 173.526C110.975 173.3 111.116 173.022 111.176 172.722C111.236 172.421 111.212 172.11 111.107 171.822C111.002 171.534 110.819 171.281 110.58 171.09C110.083 170.674 109.487 170.395 108.85 170.28C107.643 170.127 106.426 170.063 105.21 170.09C104.614 170.079 104.026 170.239 103.519 170.553C103.012 170.867 102.606 171.321 102.35 171.86H102.31ZM100.52 166.09C101.405 166.895 102.483 167.457 103.65 167.72C105.16 168.03 106.65 168.32 108.2 168.57C108.673 168.687 109.167 168.687 109.64 168.57C110.076 168.419 110.435 168.103 110.64 167.69C110.695 167.464 110.698 167.228 110.647 167.001C110.597 166.774 110.495 166.562 110.35 166.38C109.812 165.908 109.172 165.566 108.48 165.38C107.452 165.149 106.41 164.988 105.36 164.9C104.521 164.768 103.664 164.805 102.84 165.009C102.015 165.214 101.24 165.581 100.56 166.09H100.52Z" fill="#DAC0A3"/>
<path d="M214.68 1.53C216.62 1 221 0.750002 225.14 1C225.248 1.68744 225.439 2.35911 225.71 3C226.104 3.50229 226.573 3.94079 227.1 4.3C228.65 5.63 230.24 6.93 231.78 8.3C239.991 15.4837 246.656 24.2614 251.37 34.1C254.931 41.2895 257.617 48.8805 259.37 56.71C259.53 57.43 259.67 58.15 259.86 58.86C259.922 59.2352 260.071 59.5906 260.295 59.8979C260.519 60.2052 260.812 60.4559 261.15 60.63C261.549 60.431 261.87 60.1044 262.062 59.7023C262.254 59.3001 262.306 58.8452 262.21 58.41C262.087 56.3721 261.853 54.3425 261.51 52.33C261.066 50.0859 260.471 47.8742 259.73 45.71C257.22 38.1842 253.89 30.9574 249.8 24.16C244.506 15.4535 237.498 7.91412 229.2 2C228.874 1.76282 228.564 1.50565 228.27 1.23C228.27 1.23 228.27 1.08 228.27 0.830002C229.05 0.732854 229.834 0.676111 230.62 0.660002C233.62 0.730002 236.62 0.850002 239.69 0.940002C240.355 0.997185 241.025 0.997185 241.69 0.940002C244.198 0.66467 246.732 1.10499 249 2.21C253.275 4.07699 257.259 6.54895 260.83 9.55C266.646 14.3537 271.586 20.1292 275.43 26.62C279.431 33.1938 282.462 40.3105 284.43 47.75C286.421 55.4499 286.859 63.469 285.72 71.34C285.11 75.1365 283.852 78.7999 282 82.17C281.849 82.4602 281.661 82.7292 281.44 82.97C281.16 83.3314 280.753 83.5728 280.302 83.6452C279.851 83.7176 279.389 83.6157 279.01 83.36C278.262 82.8627 277.559 82.3005 276.91 81.68C270.777 76.0872 263.324 72.1439 255.25 70.22C248.538 68.6849 241.626 68.2258 234.77 68.86C229.57 69.32 224.37 70.02 219.2 70.79C204.174 73.2009 188.944 74.0887 173.74 73.44C168.44 73.16 163.13 72.73 157.85 72.16C149.73 71.28 141.63 70.16 133.51 69.24C121.979 67.8509 110.359 67.3394 98.75 67.71C91.97 67.98 85.2 68.49 78.47 69.43C72.57 70.26 66.66 71.08 60.77 72.05C57.64 72.57 54.56 73.42 51.45 74.11C50.7425 74.2995 50.0197 74.4266 49.29 74.49C48.6695 74.5513 48.0471 74.3926 47.5317 74.0416C47.0162 73.6907 46.6405 73.1698 46.47 72.57C46.1292 71.5649 45.9536 70.5113 45.95 69.45C46.03 67 46.24 64.56 46.47 62.12C46.8 58.62 47.27 55.12 47.55 51.63C48.0553 45.5046 47.4833 39.338 45.86 33.41C44.8519 29.6915 43.0848 26.222 40.67 23.22C37.8137 19.61 34.315 16.5588 30.35 14.22C28.7364 13.254 26.982 12.5454 25.15 12.12C19 10.82 13.9 12.94 9.28 16.77C8.78 17.18 8.35 17.7 7.83 18.08C7.63079 18.2552 7.38438 18.3679 7.12152 18.4039C6.85867 18.4399 6.59104 18.3976 6.35206 18.2824C6.11309 18.1672 5.91336 17.9841 5.77782 17.756C5.64229 17.5279 5.57696 17.265 5.59 17C5.53031 16.3279 5.59127 15.6506 5.77 15C6.44484 12.6533 7.25964 10.3492 8.21 8.1C9.00175 6.3417 10.1626 4.77436 11.6137 3.50441C13.0648 2.23447 14.7722 1.29166 16.62 0.740002C18.5518 0.102562 20.5945 -0.128942 22.62 0.0600021C28.56 0.550002 34.52 0.890002 40.44 1.72C43.02 2.08 45.64 2.21 48.21 2.45C48.99 3.9 48.99 3.9 50.21 4.45C50.43 4.55 50.65 4.66 50.88 4.74C55.7417 6.54152 59.9313 9.79543 62.88 14.06C68.2083 21.2408 71.9291 29.484 73.79 38.23C74.6862 42.8015 75.3338 47.4183 75.73 52.06C75.86 53.45 76.05 54.82 76.23 56.2C76.34 57.11 76.36 57.1 77.48 58.2C77.8777 57.9251 78.2004 57.5552 78.4187 57.1238C78.6371 56.6924 78.7441 56.2133 78.73 55.73C79.1346 52.0745 79.1346 48.3855 78.73 44.73C77.8736 36.7545 75.6831 28.9796 72.25 21.73C70.7181 18.4707 68.8443 15.3833 66.66 12.52C63.66 8.67 60.16 5.41 55.54 3.52C55.2645 3.37641 55.0061 3.20195 54.77 3C56.7736 2.9827 58.7767 3.07618 60.77 3.28L66.43 3.45C67.43 4.45 68.28 5.35 69.2 6.14C75.142 11.2288 79.6567 17.7769 82.3 25.14C85.5381 33.722 87.1654 42.8277 87.1 52C87.1 53 87.1 54 87.1 54.94C87.0772 55.3477 87.1211 55.7564 87.23 56.15C87.2921 56.4333 87.4378 56.6914 87.6481 56.8911C87.8585 57.0907 88.1239 57.2227 88.41 57.27C88.6978 57.3003 88.9878 57.2393 89.239 57.0957C89.4902 56.9522 89.69 56.7333 89.81 56.47C90.1224 55.8974 90.345 55.2802 90.47 54.64C90.7276 53.2581 90.9045 51.8624 91 50.46C91.3817 42.682 90.2891 34.902 87.78 27.53C86.5342 23.4617 84.8264 19.5495 82.69 15.87C80.1947 11.432 76.7863 7.57374 72.69 4.55C72.5263 4.40204 72.3818 4.23405 72.26 4.05C72.74 3.42 73.35 3.67 73.87 3.68C77.06 3.68 80.25 3.81 83.44 3.81C101.92 3.81 120.44 3.88 138.88 3.73C150.41 3.64 161.93 3.27 173.46 2.88C182.77 2.56 192.08 2.03 201.39 1.61C204.32 1.48 207.26 1.42 210.2 1.32C210.428 1.87285 210.709 2.40205 211.04 2.9C211.365 3.2687 211.763 3.56509 212.21 3.77C214.789 5.19301 217.197 6.90395 219.39 8.87C223.251 12.047 226.78 15.6087 229.92 19.5C231.92 21.92 233.76 24.39 235.63 26.87C240.659 33.6402 244.504 41.2142 247 49.27C247.74 51.5967 248.507 53.93 249.3 56.27C249.544 56.9603 249.845 57.6293 250.2 58.27C250.262 58.4018 250.353 58.5184 250.465 58.6116C250.577 58.7048 250.708 58.7724 250.849 58.8095C250.99 58.8467 251.138 58.8525 251.281 58.8267C251.425 58.8009 251.561 58.744 251.68 58.66C251.908 58.2604 252.054 57.8192 252.109 57.3623C252.164 56.9055 252.127 56.4423 252 56C251.65 54.07 251.29 52.14 250.77 50.25C249.016 44.0242 246.436 38.0612 243.1 32.52C237.921 23.6855 231.404 15.7074 223.78 8.87C221.29 6.64 218.52 4.72 215.89 2.66C215.45 2.32 214.85 2.16 214.68 1.53Z" fill="#DAC0A3"/>
<path d="M38.18 31.64C37.65 31.38 37.18 31.14 36.7 30.89C35.5458 30.2602 34.2494 29.9368 32.9346 29.9508C31.6198 29.9648 30.3305 30.3157 29.19 30.97C26.9852 32.0824 25.1586 33.822 23.94 35.97C21.4988 40.2391 19.9285 44.95 19.32 49.83C18.7204 55.6941 18.929 61.6127 19.94 67.42C20.903 73.9731 22.5797 80.4013 24.94 86.59C26.191 89.7886 27.7028 92.879 29.46 95.83C32.19 100.49 35.18 104.97 38.32 109.37C43.83 117.08 49.45 124.73 54.84 132.52C65.42 147.82 74.71 163.86 81.78 181.11C86.9662 193.568 90.8047 206.545 93.23 219.82C94.7145 227.781 95.3846 235.873 95.23 243.97C95.1525 249.778 94.5568 255.568 93.45 261.27C92.7977 264.39 91.8121 267.431 90.51 270.34C88.8079 274.229 86.8017 277.977 84.51 281.55C82.2828 284.985 79.5601 288.072 76.43 290.71L74.2 292.64C72.99 293.64 71.93 294.78 71.95 296.53C70.9684 296.784 69.941 296.804 68.95 296.59C62.2834 295.878 55.7224 294.391 49.4 292.16C41.7631 289.639 34.7366 285.552 28.77 280.16C21.64 273.57 16.59 265.69 14.66 256.03C14.1876 253.865 14.113 251.632 14.44 249.44C14.5846 248.56 14.854 247.704 15.24 246.9C15.3401 246.673 15.4981 246.477 15.6983 246.331C15.8984 246.185 16.1334 246.094 16.3798 246.068C16.6262 246.041 16.8752 246.08 17.1017 246.181C17.3282 246.281 17.5242 246.44 17.67 246.64C18.291 247.499 18.808 248.429 19.21 249.41C20.15 251.67 20.99 253.97 21.89 256.25C23.7581 261.234 26.3528 265.915 29.59 270.14C33.1746 274.742 37.8579 278.37 43.21 280.69C45.2411 281.566 47.4278 282.026 49.64 282.04C51.3686 282.08 53.0821 281.71 54.64 280.96C55.52 280.53 56.37 280.03 57.26 279.61C61.2287 277.597 64.4696 274.394 66.53 270.45C68.7796 266.357 70.2479 261.88 70.86 257.25C71.6131 251.572 71.6769 245.823 71.05 240.13C70.35 232.55 69.15 225.05 67.7 217.58C65.7356 208.156 62.9345 198.926 59.33 190C54.074 176.681 48.0197 163.69 41.2 151.1C34.53 138.64 27.7 126.26 20.87 113.88C15.68 104.5 10.7 95 6.87999 85C4.3571 78.5119 2.39003 71.8212 0.99999 65C0.295365 61.235 -0.0395609 57.4102 -9.62708e-06 53.58C0.0487147 49.2329 0.349218 44.8923 0.89999 40.58C1.40999 36.49 1.99999 32.36 2.38999 28.21C2.60518 25.7427 3.75318 23.4503 5.59999 21.8C7.3217 20.1518 9.36402 18.8754 11.6 18.05C12.6 17.7 13.6 17.31 14.6 16.99C16.7726 16.2309 19.0917 15.9857 21.375 16.2737C23.6584 16.5617 25.8439 17.3751 27.76 18.65C32.3506 21.6932 35.9844 25.9754 38.24 31C38.29 31.13 38.22 31.3 38.18 31.64Z" fill="#DAC0A3"/>
<path d="M29.45 243.71C35.8341 243.96 42.2121 243.08 48.29 241.11C51.5439 239.986 54.89 239.15 58.29 238.61C60.8718 238.155 63.5176 238.205 66.08 238.76C66.5542 238.878 67.0216 239.021 67.48 239.19C68.1103 239.385 68.6667 239.766 69.0756 240.284C69.4844 240.802 69.7266 241.432 69.77 242.09C69.86 242.98 69.98 243.88 70 244.78C70.276 251.49 69.2225 258.189 66.9 264.49C65.3463 268.451 62.959 272.032 59.9 274.99C56.19 278.66 51.81 279.69 46.84 278.83C41.8108 277.885 37.2557 275.249 33.93 271.36C31.0046 268.267 28.594 264.726 26.79 260.87C25.14 257.14 23.42 253.44 21.71 249.73C21.3 248.84 20.79 248 20.34 247.13C20.0136 246.567 19.7262 245.982 19.48 245.38C19.3994 245.21 19.3629 245.023 19.3738 244.835C19.3846 244.648 19.4425 244.466 19.5421 244.306C19.6418 244.147 19.7799 244.015 19.9438 243.923C20.1077 243.831 20.2921 243.782 20.48 243.78C22.26 243.63 24.06 243.52 25.85 243.5C27 243.48 28.23 243.63 29.45 243.71Z" fill="#DAC0A3"/>
</g>
<defs>
<clipPath id="clip0_140_1209">
<rect width="297.56" height="306.56" fill="white"/>
</clipPath>
</defs>
</svg>
