<svg width="272" height="311" viewBox="0 0 272 311" fill="none" xmlns="http://www.w3.org/2000/svg">
<g clip-path="url(#clip0_190_262)">
<path d="M7.64055 90.3416C-8.99072 54.9939 3.81535 22.6772 24.158 7.24272C28.1364 4.20305 33.0251 2.37925 37.4937 0C34.8677 3.25398 32.0491 6.36799 29.6682 9.79254C16.3938 28.8703 16.9497 54.8409 30.8324 69.6237C39.6995 80.877 51.639 88.3472 63.4297 95.9791C64.8521 96.8932 66.3883 97.6367 67.872 98.459C67.5875 96.8976 67.2374 95.3406 67.0229 93.7705C65.9769 86.0379 68.9618 80.1116 75.6887 76.4378C127.494 54.5 129.368 45 129.368 46.6867C135.436 57.2821 142.057 55.3464 147.494 46.6867C150.959 59.1808 163.494 63 181.691 69.8161C186.112 77.6887 181.017 85.0057 179.818 95.3843C182.216 85.6224 187.503 79.5649 185.866 71.6618C203.907 78.9308 207.277 83.6761 204.686 98.1572C204.612 98.2447 204.533 98.3234 204.467 98.4153C204.506 98.4635 204.55 98.5075 204.598 98.5465L204.778 98.2622C218.258 90.3897 231.344 82.0448 241.367 69.7593C257.464 52.9121 255.184 21.0896 236.552 2.40549C235.83 1.67947 235.239 0.830988 234.565 0.0437362C235.524 0.341143 236.513 0.559824 237.432 0.944703C267.263 13.4052 280.398 51.8799 266.371 85.6618C265.727 87.2057 265.097 88.7583 264.462 90.3022C256.06 106.011 249.318 121.706 241.087 127.167L230.075 118.013C229.694 117.699 229.3 117.388 228.915 117.078C229.047 117.529 229.219 117.968 229.427 118.39C232.453 123.437 235.489 128.474 238.535 133.5C234.675 137.457 230.816 141.414 226.959 145.37C220.703 141.831 214.449 138.297 208.196 134.769C207.762 134.562 207.312 134.386 206.852 134.244C207.118 134.641 207.411 135.019 207.728 135.377C214.323 141.99 220.621 148.813 223.637 157.949C221.886 165.109 220.459 172.382 216.674 178.89C216.551 179.1 216.634 179.428 216.626 179.699C216.881 179.698 217.135 179.656 217.378 179.577C223.742 176.13 230.106 172.691 236.469 169.259C247.608 163.661 252.225 153.864 254.037 142.195C254.138 141.557 254.961 141.032 255.451 140.446C255.739 141.012 255.989 141.596 256.199 142.195C258.431 149.875 258.501 157.599 257.447 165.529C255.81 177.88 244.444 186.461 244.146 198.891C243.783 214.198 237.94 225.049 223.366 230.682C221.348 231.461 218.923 231.64 218.052 234.312C215.917 240.873 222.429 244.91 222.595 250.993C222.875 261.543 223.296 272.945 211.802 277.108C201.172 280.966 197.447 271.891 195.123 263.266C195.046 263.107 194.947 262.96 194.83 262.828C194.706 262.998 194.603 263.181 194.523 263.375C191.46 274.056 180.873 277.445 174.106 284.539H174.128C177.338 274.763 180.54 264.995 183.735 255.236L183.814 255.118L183.766 255.267C181.236 254.672 176.365 256.504 176.684 255.901C181.866 246.056 187.324 236.263 195.267 228.268C198.095 225.421 203.833 223.357 204.156 220.479C206.104 203.115 206.866 185.621 207.623 174.162C208.31 181.93 201.495 193.218 194.147 203.667C186.602 214.399 175.249 220.286 161.694 219.14C155.217 218.594 150.477 219.866 146.765 225.211C141.983 232.105 143.1 229.721 143.264 223.628C143.325 221.778 142.682 219.862 142.122 218.043C141.023 214.5 134.406 207.813 145.895 211.788C146.533 212.011 147.785 210.953 148.542 210.258C162.985 197.023 176.991 183.198 194.839 174.359C195.128 174.173 195.376 173.931 195.568 173.646C195.76 173.36 195.892 173.039 195.955 172.701C197.128 165.367 198.222 158.023 199.316 150.68C199.33 150.274 199.3 149.868 199.224 149.469C199.018 149.626 198.703 149.735 198.62 149.945C192.151 165.848 175.669 169.596 163.646 178.75L163.672 178.781C164.762 177.762 165.83 176.721 166.942 175.719C174.382 169.102 182.632 164.199 186.772 153.479C191.237 141.924 185.556 144.159 179.113 144.588C178.491 144.581 177.871 144.527 177.258 144.426C177.435 144.142 177.647 143.88 177.888 143.647C188.169 136.16 191.727 125.899 190.331 113.587C190.265 113.023 190.217 112.459 190.16 111.895C189.582 112.112 189.025 112.383 188.497 112.704C171.638 125.078 154.794 137.47 137.964 149.88C136.594 150.894 135.719 150.82 134.38 149.827C117.597 137.345 100.784 124.902 83.9431 112.498C82.1924 111.208 81.8641 111.186 81.7941 112.315C81.1726 122.496 81.6803 132.363 89.8778 139.987C91.4884 141.482 93.0684 143.009 94.6615 144.518C92.2631 144.518 89.8471 144.71 87.4706 144.461C82.9583 143.988 82.4244 144.023 83.7549 149.547C87.0942 163.407 97.944 169.885 107.599 177.827L107.625 177.801C97.375 170.571 84.4639 167.072 77.0848 155.863C75.6624 153.711 74.1919 151.594 72.7432 149.464C72.9883 151.983 72.9358 154.577 73.5441 157.009C75.0234 162.922 72.4456 171.127 77.6451 174.503C88.2365 181.387 98.2766 188.879 108.43 196.332C115.897 201.808 119.613 214.351 132.589 210.612C132.589 211.303 132.861 212.156 132.554 212.663C129.421 217.872 127.114 223.16 130.292 229.213C130.463 229.684 130.571 230.175 130.616 230.674C130.204 230.346 129.67 230.101 129.403 229.685C124.151 221.463 117.442 216.564 107.017 219.302C105.319 219.74 103.248 219.105 101.423 218.668C81.3214 213.826 67.5175 195.488 64.9353 170.278C64.8225 169.623 64.6601 168.976 64.4495 168.345C64.3609 168.967 64.3156 169.594 64.3138 170.221C64.9178 180.11 65.443 190.008 66.2045 199.888C66.7603 207.1 64.8915 217.505 68.8743 220.881C80.4111 230.647 87.7901 242.863 95.5018 255.157C95.7664 255.653 95.9946 256.168 96.1845 256.697C95.6287 256.609 95.0729 256.548 94.5302 256.434C92.4162 255.997 90.3111 255.56 88.2015 255.122C88.7836 257.121 89.2957 259.15 89.9522 261.118C92.4688 268.492 95.0378 275.849 97.5807 283.214C97.6962 283.62 97.7897 284.031 97.8608 284.447C97.6813 284.447 97.4231 284.495 97.34 284.399C90.9413 276.802 79.899 273.487 76.936 263.292C74.8002 270.058 72.45 278.337 62.4537 277.791C54.3788 277.353 51.5777 270.434 50.0328 263.603C48.2558 255.756 49.0524 247.923 53.1314 240.934C56.3789 235.371 54.1818 232.869 49.1618 230.818C38.3165 226.383 29.4669 219.643 28.7097 207.034C28.2018 197.649 25.3293 188.544 20.3591 180.565C13.9998 170.151 12.4811 158.596 14.8139 146.621C15.2209 144.513 16.2407 142.523 17.0022 140.498C17.8775 142.615 19.4444 144.719 19.475 146.849C19.6413 158.045 27.2042 163.648 35.4323 168.874C41.9228 172.373 48.409 175.916 54.9171 179.371C54.9696 179.402 55.5605 178.794 55.4992 178.61C53.2058 171.669 50.8687 164.741 48.536 157.813C51.1007 149.066 56.8078 142.445 63.1934 136.282C63.6349 135.792 64.036 135.267 64.3926 134.712C63.7492 134.992 63.0796 135.211 62.4625 135.552C56.767 138.692 51.0773 141.845 45.3935 145.012L33.4584 133.877L41.9491 118.306L30.8412 126.962C19.0868 120.372 13.6487 101.566 7.64055 90.3416ZM200.165 250.932C200.721 255.743 202.239 260.379 208.139 260.349C214.039 260.318 216.144 255.874 216.074 250.635C216.008 245.636 213.759 241.45 208.253 241.45C202.633 241.463 200.62 245.658 200.165 250.932ZM71.9291 250.766C71.3996 246.06 69.9028 241.538 64.1387 241.433C58.6854 241.337 56.0988 245.247 56.0288 250.329C55.9588 255.411 57.7138 260.161 63.6792 260.344C69.5089 260.524 71.3339 256.084 71.916 250.766H71.9291ZM108.063 217.391C111.183 217.137 113.862 216.927 116.54 216.7C116.947 216.665 117.35 216.556 117.757 216.481C117.62 216.259 117.465 216.048 117.293 215.851C109.288 208.101 99.9441 203.33 88.6173 202.853C86.661 202.774 87.6763 203.789 87.9302 204.397C91.7072 213.564 99.165 216.932 108.05 217.391H108.063ZM162.465 217.391C172.627 217.159 180.067 213.595 184.125 204.541C184.304 204.143 185.718 202.661 183.612 202.932C175.336 204.003 167.143 205.298 160.709 211.421C158.784 213.249 156.6 214.806 154.538 216.486L162.465 217.391Z" fill="#DAC0A3"/>
<path d="M183.765 255.232L183.814 255.083L183.735 255.201L183.765 255.232Z" fill="#C93B33"/>
<path d="M204.769 98.2447L204.59 98.529C204.541 98.49 204.497 98.446 204.458 98.3978C204.524 98.3059 204.603 98.2272 204.677 98.1397L204.769 98.2447Z" fill="#F8EED2"/>
<path d="M136.466 277.166C134.009 275.512 129.401 272.789 127.389 273.013C126.047 273.162 124.555 273.908 122.764 274.803C120.974 275.698 118.885 276.743 116.349 277.489C112.291 278.682 109.088 279.776 107.994 280.174C112.47 281.567 122.317 284.829 125.898 286.739C129.242 288.522 134.062 288.883 136.466 288.842C138.87 288.883 143.69 288.522 147.034 286.739C150.615 284.829 160.462 281.567 164.938 280.174C163.844 279.776 160.641 278.682 156.583 277.489C154.047 276.743 151.958 275.698 150.167 274.803C148.377 273.908 146.885 273.162 145.542 273.013C143.531 272.789 138.923 275.512 136.466 277.166Z" fill="#DAC0A3"/>
<path d="M153.125 244.691C159.764 250.569 154.083 253.163 150.061 256.211C148.284 257.558 146.034 258.621 144.879 260.388C139.154 269.1 133.937 269.573 127.696 260.659C125.272 257.2 121.07 255 117.774 252.117C114.479 249.235 115.962 247.022 119.004 245.172L118.969 245.137C119.534 256.041 130.734 254.729 136.139 260.064C141.181 254.256 153.37 256.351 153.146 244.713L153.125 244.691Z" fill="#DAC0A3"/>
<path d="M163.655 178.715L162.342 179.59H162.368L163.681 178.715H163.655Z" fill="#DAC0A3"/>
<path d="M108.47 178.719C108.728 178.833 108.986 178.947 109.24 179.069C109.24 179.069 109.2 179.165 109.179 179.218C108.951 179.043 108.741 178.868 108.5 178.689L108.47 178.719Z" fill="#DAC0A3"/>
<path d="M107.607 177.818C107.896 178.116 108.185 178.418 108.483 178.719L108.513 178.689L107.638 177.792L107.607 177.818Z" fill="#DAC0A3"/>
<path d="M153.142 244.713L153.072 244.674L153.125 244.691L153.142 244.713Z" fill="#DAC0A3"/>
<path d="M119 245.172C119.009 245.117 119.029 245.064 119.057 245.015C119.057 244.993 119.135 245.015 119.175 245.015L118.965 245.15L119 245.172Z" fill="#DAC0A3"/>
<path d="M174.106 284.5V284.648L174.132 284.517L174.106 284.5Z" fill="#DAC0A3"/>
<path fill-rule="evenodd" clip-rule="evenodd" d="M135.723 306.222C145.392 303.451 152.101 300.523 167.668 290.966C183.236 281.409 159.721 298.007 159.721 298.007C143.61 307.898 148.994 304.5 136.358 310.832L135.763 311L135.165 310.842C123.494 306.222 124.802 307.094 112.221 298.929C112.221 298.929 91.6593 283.075 103.865 290.996C116.071 298.918 122.936 302.787 135.723 306.222Z" fill="#DAC0A3"/>
</g>
<defs>
<clipPath id="clip0_190_262">
<rect width="271.999" height="311" fill="white"/>
</clipPath>
</defs>
</svg>
