<svg width="359" height="378" viewBox="0 0 359 378" fill="none" xmlns="http://www.w3.org/2000/svg">
<g clip-path="url(#clip0_140_1269)">
<path d="M326.719 159.328C307.386 168.301 280.519 203.926 284.719 225.547C285.825 231.246 291.452 235.989 301.066 249.466C310.326 262.461 310.166 270.031 317.239 274.093C332.006 282.618 351.053 255.893 357.673 223.943C363.54 195.655 349.34 148.825 326.719 159.328Z" fill="#DAC0A3"/>
<path d="M323.479 154.685C326.026 153.482 330.439 152.133 333.866 152.527C336.991 152.882 339.961 154.08 342.46 155.994C343.526 156.79 345.793 156.121 345.366 154.778C343.814 150.262 342.604 145.634 341.746 140.935C340.22 131.2 334.253 124.633 331.079 121.74C330.339 121.071 328.959 121.379 328.886 122.234C328.352 128.507 327.309 134.725 325.766 140.828C324.639 145.057 322.433 149.634 320.433 153.208C319.626 154.578 321.826 155.467 323.479 154.685Z" fill="#DAC0A3"/>
<path d="M32.2806 159.328C51.6143 168.301 78.4815 203.926 74.2814 225.547C73.1747 231.246 67.5479 235.989 57.9344 249.466C48.6676 262.461 48.8609 270.031 41.7808 274.093C27.0138 282.618 7.94682 255.893 1.33337 223.943C-4.54008 195.655 9.63352 148.825 32.2806 159.328Z" fill="#DAC0A3"/>
<path d="M35.5273 154.685C32.9739 153.482 28.5605 152.133 25.1338 152.527C22.0092 152.883 19.0393 154.081 16.5403 155.994C15.4736 156.79 13.2069 156.121 13.6336 154.778C15.1894 150.263 16.3996 145.635 17.2536 140.935C18.7803 131.2 24.7538 124.633 27.9205 121.74C28.6605 121.071 30.0472 121.379 30.1205 122.234C30.6476 128.508 31.6912 134.727 33.2406 140.828C34.3606 145.057 36.574 149.634 38.574 153.208C39.3807 154.578 37.174 155.467 35.5273 154.685Z" fill="#DAC0A3"/>
<path d="M214.517 37.5488C202.077 43.8759 195.95 62.5835 194.824 72.8727C193.49 84.9591 195.49 88.3532 195.49 114.691C195.49 142.505 191.777 151.625 193.584 162.188C195.41 172.911 201.41 172.29 210.917 176.172C223.624 181.363 224.684 183.789 229.818 183.401C250.351 181.851 273.958 149.327 273.958 131.174C274.005 90.7919 234.431 27.4266 214.517 37.5488Z" fill="#DAC0A3"/>
<path d="M230.998 31.6826C228.994 27.3494 227.325 22.8687 226.004 18.28C223.491 8.75247 216.884 2.8195 213.417 0.267252C212.617 -0.3207 211.271 0.126945 211.284 0.982149C211.39 7.27872 210.982 13.5734 210.064 19.8033C209.397 24.1261 207.611 28.9032 205.991 32.6648C205.364 34.1012 207.551 35.2571 209.111 34.315C211.524 32.8585 213.777 30.3063 218.491 30.1459C223.664 29.9589 225.391 32.4977 228.204 33.5734C229.798 34.1814 231.571 32.9721 230.998 31.6826Z" fill="#DAC0A3"/>
<path d="M163.496 114.691C163.496 88.3532 165.496 84.9591 164.163 72.8727C163.03 62.5835 156.91 43.8759 144.469 37.5488C124.549 27.4266 85.0082 90.7919 85.0082 131.174C85.0082 149.333 108.615 181.851 129.149 183.401C134.282 183.789 135.349 181.363 148.049 176.172C157.563 172.29 163.556 172.911 165.383 162.188C167.21 151.625 163.49 142.505 163.496 114.691Z" fill="#DAC0A3"/>
<path d="M153.016 32.6648C151.389 28.9032 149.629 24.1261 148.943 19.8033C148.02 13.5739 147.609 7.27897 147.716 0.982149C147.716 0.126945 146.383 -0.3207 145.583 0.267252C142.116 2.8195 135.509 8.75247 133.009 18.3067C131.677 22.8848 130.003 27.356 128.002 31.6826C127.422 32.9721 129.196 34.1814 130.789 33.5734C133.602 32.4977 135.336 29.9589 140.503 30.1459C145.229 30.3196 147.476 32.8585 149.889 34.315C151.456 35.2571 153.636 34.0745 153.016 32.6648Z" fill="#DAC0A3"/>
<path d="M179.503 186.528C135.429 186.528 52.001 250.668 56.3677 313.566C58.7211 347.433 85.9149 375.134 119.702 377.779C136.635 379.164 153.479 374.218 166.99 363.896C170.562 361.155 174.932 359.662 179.431 359.645C183.93 359.628 188.311 361.088 191.904 363.802C202.132 371.63 214.34 376.436 227.149 377.677C239.959 378.918 252.86 376.545 264.395 370.826C275.93 365.107 285.639 356.27 292.427 345.312C299.214 334.354 302.809 321.713 302.806 308.815C302.799 254.623 220.537 186.528 179.503 186.528Z" fill="#DAC0A3"/>
</g>
<defs>
<clipPath id="clip0_140_1269">
<rect width="359" height="378" fill="white"/>
</clipPath>
</defs>
</svg>
