<svg width="86" height="104" viewBox="0 0 86 104" fill="none" xmlns="http://www.w3.org/2000/svg">
<path fill-rule="evenodd" clip-rule="evenodd" d="M43 98.0691C63.9868 98.0691 81 81.0559 81 60.0691C81 39.0823 63.9868 22.0691 43 22.0691C22.0132 22.0691 5 39.0823 5 60.0691C5 81.0559 22.0132 98.0691 43 98.0691ZM43 103.069C66.7482 103.069 86 83.8173 86 60.0691C86 36.3208 66.7482 17.0691 43 17.0691C19.2518 17.0691 0 36.3208 0 60.0691C0 83.8173 19.2518 103.069 43 103.069Z" fill="#D9D9D9"/>
<path d="M26 69.0691C26 79.0102 33.6111 87.0691 43 87.0691C52.3889 87.0691 60 79.0102 60 69.0691H26Z" fill="#D9D9D9"/>
<path d="M34 60C34 55.2427 30.1435 51.3862 25.3862 51.3862C20.6289 51.3862 16.7724 55.2427 16.7724 60H34Z" fill="#D9D9D9"/>
<path d="M70 60C70 55.2427 66.1435 51.3862 61.3862 51.3862C56.6289 51.3862 52.7724 55.2427 52.7724 60H70Z" fill="#D9D9D9"/>
<path fill-rule="evenodd" clip-rule="evenodd" d="M62.139 5.5C72.0961 3.65362 50.318 2 42.5961 2C34.8741 2 11.5961 4 23.0532 5.5C27.9755 6.41276 34.8741 7 42.5961 7C50.318 7 57.2167 6.41276 62.139 5.5ZM42.5961 11C58.6123 11 71.5961 8.53757 71.5961 5.5C71.5961 2.46243 58.6123 0 42.5961 0C26.5798 0 13.5961 2.46243 13.5961 5.5C13.5961 8.53757 26.5798 11 42.5961 11Z" fill="#D9D9D9"/>
</svg>
