<svg width="129" height="100" viewBox="0 0 129 100" fill="none" xmlns="http://www.w3.org/2000/svg">
<g clip-path="url(#clip0_184_977)">
<path fill-rule="evenodd" clip-rule="evenodd" d="M57.1629 47.3394L55.7504 56.2092C45.173 59.45 39.4501 69.4321 36.43 80.0836C34.9576 85.2766 34.2374 90.2786 33.8892 94.0032C33.857 94.3473 33.8281 94.6799 33.8021 95H94.7693C94.7433 94.6799 94.7144 94.3473 94.6822 94.0032C94.334 90.2786 93.6138 85.2766 92.1414 80.0836C89.1213 69.4321 83.3984 59.45 72.8209 56.2092L71.4084 47.3394C73.0114 46.2115 74.3094 44.7033 75.186 42.9502C76.0626 41.197 76.4903 39.2537 76.4308 37.2946L76.4285 37.1429C76.4285 33.9224 75.1492 30.8338 72.872 28.5566C70.5948 26.2793 67.5062 25 64.2857 25C61.0652 25 57.9766 26.2793 55.6994 28.5566C53.4222 30.8338 52.1428 33.9224 52.1428 37.1429L52.1405 37.2946C52.0811 39.2537 52.5088 41.197 53.3854 42.9502C54.2619 44.7033 55.5599 46.2115 57.1629 47.3394ZM99.7849 95C99.9676 97.3863 99.9963 99.0741 100 99.715C100.001 99.9021 100 100 100 100H28.5714C28.5714 100 28.5703 99.9021 28.5714 99.715C28.5751 99.0741 28.6038 97.3863 28.7865 95C29.5585 84.917 33.0795 62.363 49.0723 53.6205C50.6806 52.7412 52.4151 52.0017 54.2857 51.4286C52.7534 50.3504 51.4171 49.028 50.327 47.5197C49.7952 46.7838 49.322 46.0038 48.9132 45.1862C47.6666 42.6929 47.0583 39.9292 47.1428 37.1429C47.1428 32.5963 48.9489 28.2359 52.1639 25.021C55.3788 21.8061 59.7391 20 64.2857 20C68.8323 20 73.1926 21.8061 76.4075 25.021C79.6224 28.2359 81.4285 32.5963 81.4285 37.1429C81.5131 39.9292 80.9048 42.6929 79.6581 45.1862C79.2494 46.0038 78.7762 46.7838 78.2444 47.5197C77.1543 49.028 75.818 50.3504 74.2857 51.4286C76.1562 52.0017 77.8907 52.7412 79.4991 53.6205C95.4919 62.363 99.0128 84.917 99.7849 95Z" fill="black"/>
<path d="M102.857 31.4286C105.137 29.8244 106.983 27.6795 108.23 25.1862C109.476 22.6929 110.085 19.9292 110 17.1429C110 12.5963 108.194 8.23594 104.979 5.02103C101.764 1.80612 97.4037 0 92.8572 0C88.3106 0 83.9502 1.80612 80.7353 5.02103C77.5204 8.23594 75.7143 12.5963 75.7143 17.1429C75.7143 17.2286 75.7143 17.3 75.7143 17.3857C79.1835 19.3886 82.0654 22.2681 84.0712 25.7357C86.077 29.2032 87.1363 33.137 87.1429 37.1429C87.193 41.4925 86.0464 45.7722 83.8286 49.5143C95.0857 56.4571 100.557 69.0857 103.214 80H128.571C128.571 80 129.014 39.4429 102.857 31.4286Z" fill="black"/>
<path d="M44.743 49.5143C42.5251 45.7722 41.3786 41.4925 41.4287 37.1429C41.4353 33.137 42.4946 29.2032 44.5004 25.7357C46.5062 22.2681 49.3881 19.3886 52.8573 17.3857C52.8573 17.3 52.8573 17.2286 52.8573 17.1429C52.8573 12.5963 51.0511 8.23594 47.8362 5.02103C44.6213 1.80612 40.261 0 35.7144 0C31.1678 0 26.8075 1.80612 23.5926 5.02103C20.3777 8.23594 18.5715 12.5963 18.5715 17.1429C18.487 19.9292 19.0953 22.6929 20.3419 25.1862C21.5886 27.6795 23.4346 29.8244 25.7144 31.4286C-0.442748 39.4429 0.000108844 80 0.000108844 80H25.3573C28.0144 69.0857 33.4858 56.4571 44.743 49.5143Z" fill="black"/>
</g>
<defs>
<clipPath id="clip0_184_977">
<rect width="128.571" height="100" fill="white"/>
</clipPath>
</defs>
</svg>
