<svg width="278" height="351" viewBox="0 0 278 351" fill="none" xmlns="http://www.w3.org/2000/svg">
<g clip-path="url(#clip0_140_1232)">
<path d="M0 108.17C0.06 101.71 0 95.25 0.22 88.79C0.42 82.55 0.89 76.31 1.28 70.08C1.58 65.17 1.94 60.27 2.28 55.36C2.37 54.03 2.49 52.7 2.66 51.36C2.86 49.87 3.36 49.49 4.76 49.77C10.6438 50.8303 16.6384 51.1394 22.6 50.69C42.33 49.55 61.3 44.9 79.79 38.14C88.7749 34.8973 97.5086 30.9967 105.92 26.47C112.129 23.1827 118.009 19.3083 123.48 14.9C125.681 13.147 127.716 11.1954 129.56 9.07C130.77 7.62 131.81 6.07 132.92 4.49C133.57 3.58 134.14 2.6 134.85 1.74C135.391 1.11975 136.076 0.641242 136.845 0.346154C137.613 0.0510649 138.442 -0.0516564 139.26 0.0469357C140.077 0.145528 140.858 0.442443 141.534 0.911824C142.21 1.38121 142.762 2.00882 143.14 2.74C144.567 5.56766 146.426 8.15545 148.65 10.41C151.206 13.0227 153.976 15.4176 156.93 17.57C162.367 21.5613 168.131 25.0871 174.16 28.11C191.404 36.8361 209.721 43.2545 228.64 47.2C235.571 48.6828 242.583 49.7547 249.64 50.41C255.726 51.0333 261.859 51.0567 267.95 50.48C269.21 50.35 270.45 50.11 271.7 49.92C271.97 49.87 272.24 49.77 272.52 49.73C273.52 49.61 274.01 49.91 274.22 50.85C274.378 51.534 274.482 52.2295 274.53 52.93C274.84 56.93 275.14 60.93 275.4 64.93C275.76 70.46 276.09 76 276.4 81.54C276.947 90.38 277.107 99.2233 276.88 108.07C276.7 115.16 276.53 122.25 276.24 129.34C275.86 138.74 275.24 148.13 274.24 157.49C273.095 168.1 271.406 178.644 269.18 189.08C267.653 196.437 265.44 203.635 262.57 210.58C260.49 215.5 258.46 220.44 256.24 225.28C252.432 233.331 248.005 241.074 243 248.44C233.965 262.089 224.215 275.251 213.79 287.87C202.893 301.117 190.798 313.332 177.66 324.36C173.02 328.23 168.45 332.18 163.81 336.04C159.571 339.519 155.141 342.757 150.54 345.74C147.993 347.356 145.281 348.697 142.45 349.74C140.667 350.407 138.748 350.63 136.86 350.39C134.494 350.089 132.223 349.27 130.21 347.99C122.225 343.13 114.68 337.583 107.66 331.41C101.1 325.79 94.42 320.3 88.13 314.41C76.4929 303.399 65.7367 291.492 55.96 278.8C50.33 271.51 44.84 264.13 39.56 256.6C35.4 250.667 31.4633 244.6 27.75 238.4C23.5775 231.402 19.934 224.101 16.85 216.56C14.85 211.62 12.72 206.72 11.11 201.62C9.02489 194.77 7.35519 187.801 6.11 180.75C4.7 173.19 3.57 165.63 2.79 158C2.2 152.21 1.73 146.4 1.34 140.58C0.61 129.8 0.24 119 0 108.17ZM24.33 69.33C24.25 69.96 24.16 70.49 24.12 71.04C23.68 77.9 23.2433 84.7667 22.81 91.64C22.37 98.72 22.06 105.8 22.11 112.9C22.18 123.44 22.44 133.97 22.99 144.49C23.34 151.15 23.91 157.8 24.74 164.42C25.6733 171.813 26.9067 179.147 28.44 186.42C29.5316 192.075 31.0561 197.638 33 203.06C37.6376 215.802 43.6745 227.99 51 239.4C57.31 249.05 64.09 258.4 71.1 267.5C79.4225 278.382 88.6017 288.581 98.55 298C106.93 305.92 115.71 313.38 124.78 320.49C127.43 322.57 130.23 324.49 133.01 326.35C134.11 327.1 135.33 327.66 136.5 328.3C137.1 328.673 137.793 328.871 138.5 328.871C139.207 328.871 139.9 328.673 140.5 328.3C141.41 327.77 142.41 327.38 143.28 326.8C145.78 325.12 148.28 323.44 150.72 321.64C156.8 317.09 162.51 312.1 168.29 307.18C179.517 297.61 189.89 287.08 199.29 275.71C208.775 264.218 217.602 252.199 225.73 239.71C230.502 232.509 234.679 224.93 238.22 217.05C239.74 213.58 241.16 210.05 242.63 206.57C244.345 202.494 245.742 198.291 246.81 194C249.486 183.161 251.444 172.157 252.67 161.06C253.5 153.95 253.96 146.8 254.28 139.64C254.787 127.92 254.963 116.193 254.81 104.46C254.81 103.06 254.81 101.65 254.69 100.25C254.29 93.25 253.86 86.25 253.44 79.25C253.3 76.86 253.17 74.48 253.01 72.1C253.023 71.232 252.911 70.3666 252.68 69.53C252.5 69.41 252.44 69.34 252.38 69.35C251.68 69.35 250.98 69.44 250.29 69.54C245.881 70.0752 241.435 70.2291 237 70C230.402 69.7123 223.837 68.92 217.36 67.63C204.321 65.1262 191.554 61.3653 179.24 56.4C170.826 53.0839 162.735 48.9999 155.07 44.2C151.734 42.1075 148.576 39.7428 145.63 37.13C143.016 34.8805 140.795 32.2105 139.06 29.23C138.94 29.01 138.76 28.82 138.5 28.46C138.22 28.87 138.01 29.13 137.85 29.46C136.466 31.8272 134.752 33.9855 132.76 35.87C130.176 38.3531 127.382 40.6082 124.41 42.61C119.767 45.7686 114.894 48.5732 109.83 51C89.7421 60.8801 68.0837 67.178 45.83 69.61C39.4757 70.365 33.0543 70.365 26.7 69.61C26 69.45 25.21 69.41 24.33 69.33ZM182.22 311.33C182.17 310.82 182.15 310.4 182.07 309.98C181.878 308.972 181.381 308.048 180.646 307.332C179.91 306.617 178.973 306.145 177.96 305.98C176.98 305.824 175.975 305.983 175.091 306.434C174.207 306.885 173.489 307.605 173.04 308.49C172.566 309.316 172.295 310.242 172.25 311.194C172.204 312.145 172.386 313.093 172.78 313.96C173.042 314.578 173.43 315.134 173.919 315.594C174.408 316.054 174.987 316.407 175.62 316.63C176.173 316.863 176.773 316.964 177.372 316.924C177.971 316.884 178.553 316.705 179.07 316.4C179.974 315.877 180.734 315.138 181.284 314.25C181.833 313.362 182.155 312.352 182.22 311.31V311.33ZM56.31 258.12C56.31 255.46 55.54 253.64 53.8 252.33C53.124 251.751 52.2478 251.46 51.3596 251.52C50.4715 251.58 49.6423 251.985 49.05 252.65C48.2645 253.448 47.5917 254.35 47.05 255.33C46.7555 255.908 46.5789 256.538 46.5302 257.184C46.4816 257.831 46.562 258.48 46.7667 259.095C46.9714 259.71 47.2964 260.279 47.7227 260.767C48.149 261.255 48.6682 261.654 49.25 261.94C50.0161 262.275 50.8047 262.555 51.61 262.78C52.3554 263.051 53.1778 263.016 53.8974 262.683C54.617 262.349 55.1752 261.744 55.45 261C55.8009 260.06 56.0882 259.098 56.31 258.12ZM8.64 149.76C8.65213 151.115 9.02119 152.443 9.71 153.61C10.1559 154.41 10.8385 155.051 11.664 155.447C12.4896 155.843 13.4174 155.973 14.32 155.82C15.392 155.606 16.361 155.038 17.0718 154.208C17.7826 153.377 18.194 152.332 18.24 151.24C18.2801 150.046 18.0045 148.862 17.4409 147.809C16.8772 146.755 16.0456 145.869 15.03 145.24C14.5025 144.89 13.896 144.678 13.2656 144.622C12.6352 144.566 12.0008 144.668 11.42 144.92C9.57 145.68 8.64 147.14 8.64 149.76ZM270.64 123.85C270.64 120.97 269.55 119.1 267.64 118.26C266.933 117.941 266.137 117.881 265.39 118.09C264.248 118.442 263.238 119.127 262.488 120.057C261.738 120.987 261.282 122.12 261.18 123.31C261.197 124.472 261.571 125.601 262.25 126.543C262.93 127.486 263.883 128.197 264.98 128.58C265.895 128.962 266.925 128.967 267.843 128.592C268.761 128.217 269.494 127.494 269.88 126.58C270.21 125.692 270.471 124.779 270.66 123.85H270.64ZM218.09 273.43C217.9 272.38 217.74 271.2 217.48 270.04C217.354 269.566 217.144 269.119 216.86 268.72C216.53 268.135 216.063 267.638 215.5 267.272C214.937 266.907 214.293 266.682 213.625 266.618C212.956 266.554 212.282 266.653 211.659 266.906C211.037 267.159 210.485 267.558 210.05 268.07C209.243 268.913 208.728 269.992 208.58 271.15C208.433 272.307 208.66 273.482 209.23 274.5C209.542 275.213 210.047 275.824 210.689 276.264C211.33 276.705 212.083 276.956 212.86 276.99C213.196 276.985 213.532 277.019 213.86 277.09C214.329 277.247 214.832 277.273 215.315 277.166C215.798 277.058 216.242 276.821 216.6 276.48C217.06 276.115 217.433 275.651 217.69 275.124C217.948 274.596 218.085 274.017 218.09 273.43ZM240.09 226.95C240.097 228.146 240.363 229.326 240.87 230.41C241.221 231.265 241.887 231.952 242.73 232.33C243.661 232.759 244.712 232.849 245.702 232.584C246.692 232.319 247.558 231.716 248.15 230.88C248.32 230.66 248.46 230.41 248.64 230.2C249.129 229.635 249.437 228.937 249.524 228.195C249.611 227.454 249.474 226.703 249.13 226.04C248.575 224.912 247.887 223.854 247.08 222.89C246.75 222.468 246.307 222.15 245.801 221.973C245.296 221.796 244.751 221.767 244.23 221.89C243.009 222.038 241.892 222.653 241.113 223.605C240.334 224.557 239.953 225.774 240.05 227L240.09 226.95ZM257.26 172.57C257.266 173.768 257.65 174.933 258.357 175.899C259.065 176.865 260.06 177.583 261.2 177.95C262.036 178.242 262.953 178.197 263.756 177.823C264.559 177.45 265.185 176.778 265.5 175.95C265.74 175.37 265.92 174.76 266.11 174.17C266.485 173.14 266.518 172.017 266.205 170.967C265.891 169.917 265.248 168.996 264.37 168.34C263.893 167.924 263.314 167.641 262.692 167.522C262.07 167.402 261.427 167.45 260.83 167.66C259.784 167.988 258.87 168.641 258.221 169.524C257.572 170.407 257.221 171.474 257.22 172.57H257.26ZM96.26 304.87C96.2982 304.07 96.1172 303.274 95.7366 302.569C95.3559 301.865 94.7901 301.277 94.1 300.87C93.51 300.52 92.86 300.25 92.23 299.95C91.3701 299.633 90.424 299.641 89.5696 299.972C88.7151 300.304 88.0112 300.936 87.59 301.75C87.2163 302.5 86.96 303.302 86.83 304.13C86.7408 304.789 86.7879 305.459 86.9681 306.099C87.1484 306.739 87.458 307.335 87.878 307.851C88.2979 308.366 88.8192 308.79 89.4095 309.096C89.9998 309.402 90.6467 309.584 91.31 309.63C91.9578 309.692 92.6113 309.613 93.2255 309.398C93.8397 309.183 94.4 308.837 94.8677 308.385C95.3354 307.932 95.6994 307.384 95.9346 306.777C96.1698 306.17 96.2706 305.519 96.23 304.87H96.26ZM269.16 64.23C269.16 61.33 266.95 58.84 264.37 58.87C263.144 58.9933 262.003 59.5528 261.155 60.4467C260.307 61.3405 259.809 62.5093 259.75 63.74C259.722 65.0146 260.193 66.2497 261.061 67.1833C261.929 68.1168 263.127 68.6753 264.4 68.74C267.24 68.7 269.15 66.91 269.16 64.23ZM15.76 107.56C15.7304 106.618 15.4684 105.698 14.9974 104.881C14.5264 104.065 13.8608 103.377 13.06 102.88C12.6184 102.601 12.1249 102.415 11.6092 102.332C11.0936 102.25 10.5665 102.273 10.06 102.4C8.96661 102.694 8.01366 103.367 7.3722 104.3C6.73074 105.233 6.44278 106.364 6.56 107.49C6.659 108.297 6.93205 109.072 7.36025 109.763C7.78846 110.453 8.36159 111.043 9.04 111.49C9.67385 111.938 10.4216 112.197 11.1968 112.238C11.9719 112.279 12.7427 112.099 13.42 111.72C14.1917 111.353 14.8309 110.756 15.2498 110.011C15.6688 109.266 15.847 108.41 15.76 107.56ZM133.37 15.4C133.42 16.5961 133.843 17.7467 134.58 18.69C134.958 19.2475 135.505 19.6683 136.141 19.8899C136.777 20.1114 137.468 20.122 138.11 19.92C138.981 19.6624 139.819 19.3068 140.61 18.86C141.095 18.5708 141.51 18.1794 141.828 17.7131C142.146 17.2468 142.358 16.7168 142.45 16.16C142.633 15.1165 142.497 14.0421 142.06 13.077C141.623 12.112 140.905 11.301 140 10.75C139.587 10.4828 139.125 10.3001 138.641 10.2126C138.157 10.125 137.66 10.1343 137.18 10.24C136.068 10.5655 135.094 11.2463 134.406 12.1782C133.718 13.1101 133.354 14.2417 133.37 15.4ZM28 207.75C27.9339 206.544 27.6351 205.362 27.12 204.27C26.922 203.837 26.6388 203.449 26.2873 203.128C25.9358 202.807 25.5232 202.56 25.0742 202.403C24.6252 202.245 24.149 202.179 23.674 202.21C23.1991 202.24 22.7352 202.366 22.31 202.58C21.5981 202.896 20.9657 203.368 20.4589 203.959C19.952 204.551 19.5834 205.248 19.38 206C19.1068 206.728 19.0435 207.518 19.1973 208.28C19.3511 209.042 19.7159 209.745 20.25 210.31C20.7128 210.836 21.2482 211.294 21.84 211.67C22.2545 211.972 22.7285 212.182 23.2306 212.287C23.7326 212.391 24.2512 212.387 24.7517 212.276C25.2522 212.164 25.7232 211.947 26.1333 211.639C26.5434 211.331 26.8831 210.939 27.13 210.49C27.6925 209.687 27.9961 208.731 28 207.75ZM78.23 54.75C81.23 54.8 83.11 52.66 82.73 50.08C82.615 49.3895 82.41 48.7171 82.12 48.08C81.8394 47.431 81.3969 46.8649 80.8349 46.4359C80.2728 46.007 79.61 45.7295 78.91 45.63C77.8301 45.4396 76.7182 45.669 75.8018 46.2712C74.8854 46.8735 74.2337 47.8031 73.98 48.87C73.8494 49.7429 73.9373 50.6346 74.2357 51.4653C74.5341 52.296 75.0338 53.0397 75.69 53.63C76.375 54.2673 77.2569 54.6518 78.19 54.72L78.23 54.75ZM199.23 49.75C199.361 48.5357 199.087 47.312 198.45 46.27C198.105 45.6505 197.588 45.1437 196.962 44.8103C196.336 44.4769 195.627 44.3309 194.92 44.39C194.14 44.4034 193.381 44.6482 192.74 45.0932C192.099 45.5383 191.605 46.1637 191.32 46.89C191.046 47.6116 190.881 48.3699 190.83 49.14C190.768 50.2361 191.117 51.316 191.808 52.1685C192.5 53.0211 193.485 53.585 194.57 53.75C195.55 53.8531 196.535 53.6094 197.353 53.0613C198.172 52.5131 198.772 51.6952 199.05 50.75C199.13 50.4026 199.167 50.0465 199.16 49.69L199.23 49.75ZM18.3 62.32C18.2698 61.5495 18.0758 60.7942 17.7309 60.1045C17.3861 59.4148 16.8983 58.8065 16.3 58.32C15.8742 57.8989 15.3531 57.5868 14.7809 57.4102C14.2087 57.2337 13.6023 57.1979 13.0132 57.3058C12.4242 57.4138 11.87 57.6624 11.3976 58.0305C10.9252 58.3986 10.5487 58.8752 10.3 59.42C9.89965 60.0845 9.69311 60.8478 9.70371 61.6236C9.71431 62.3993 9.94163 63.1566 10.36 63.81C10.8411 64.5429 11.4811 65.1581 12.2324 65.6099C12.9837 66.0617 13.8271 66.3386 14.7 66.42C14.9105 66.4294 15.1209 66.3988 15.32 66.33C16.2104 66.1215 16.9983 65.6043 17.5438 64.8703C18.0893 64.1363 18.3572 63.2328 18.3 62.32Z" fill="#DAC0A3"/>
<path d="M33.0499 124.66C33.0499 120.58 32.9199 116.51 33.0499 112.44C33.2899 106.34 33.7299 100.24 34.0999 94.15C34.2866 91.13 34.4933 88.13 34.7199 85.15C34.7799 84.24 34.8699 83.33 35.0199 82.43C35.1699 81.53 35.5399 81.18 36.6399 81.31C38.0999 81.49 39.5599 81.71 41.0199 81.88C44.3758 82.2332 47.7577 82.2667 51.1199 81.98C72.6299 80.43 92.8799 74.35 112.18 64.91C117.379 62.3947 122.34 59.4125 127 56C129.155 54.4194 131.188 52.6778 133.08 50.79C134.683 49.2113 136.069 47.4255 137.2 45.48C137.488 44.9917 137.823 44.5328 138.2 44.11C138.296 44.005 138.417 43.9271 138.553 43.8841C138.688 43.841 138.833 43.8344 138.971 43.8648C139.11 43.8952 139.239 43.9616 139.344 44.0573C139.449 44.153 139.527 44.2746 139.57 44.41C140.29 46.78 141.91 48.54 143.57 50.28C144.656 51.4316 145.801 52.5263 147 53.56C149.519 55.6926 152.193 57.6347 155 59.37C161.321 63.3037 167.969 66.6862 174.87 69.48C186.012 74.1461 197.612 77.6318 209.48 79.88C216.787 81.3353 224.219 82.0754 231.67 82.09C234.352 82.081 237.028 81.8435 239.67 81.38C240.085 81.2988 240.507 81.252 240.93 81.24C241.141 81.2175 241.354 81.2732 241.527 81.3966C241.7 81.5201 241.822 81.7027 241.87 81.91C242.016 82.4502 242.113 83.0024 242.16 83.56C242.93 94.35 243.86 105.12 244.06 115.94C244.22 124.58 243.96 133.21 243.6 141.84C243.45 145.63 243.27 149.42 243.03 153.2C242.284 166.382 240.447 179.48 237.54 192.36C236.439 197.228 234.92 201.993 233 206.6C231.64 209.83 230.35 213.1 228.93 216.31C226.15 222.453 222.897 228.371 219.2 234.01C211.312 246.224 202.669 257.934 193.32 269.07C184.997 279.063 175.783 288.277 165.79 296.6C161.52 300.14 157.3 303.74 153 307.25C149.93 309.711 146.696 311.959 143.32 313.98C142.32 314.56 141.42 315.17 140.49 315.79C140.083 316.07 139.606 316.23 139.112 316.251C138.619 316.272 138.129 316.154 137.7 315.91C135.381 314.905 133.147 313.714 131.02 312.35C127.561 310.054 124.223 307.581 121.02 304.94C115.6 300.37 110.13 295.83 104.84 291.11C94.7531 282.041 85.5271 272.059 77.2799 261.29C72.5199 255.12 67.9099 248.83 63.3999 242.48C57.6015 234.532 52.5785 226.047 48.3999 217.14C44.9255 209.858 42.1141 202.277 39.9999 194.49C38.4864 188.427 37.2947 182.289 36.4299 176.1C35.6699 170.61 34.9999 165.1 34.4299 159.58C33.9899 155.04 33.7399 150.48 33.5399 145.92C33.2399 138.84 33.0599 131.75 32.8199 124.66H33.0499ZM168.76 185.79C168.757 185.453 168.797 185.117 168.88 184.79C169.18 184.01 169.53 183.24 169.88 182.47C170.949 180.103 171.751 177.625 172.27 175.08C172.82 172.036 173.018 168.939 172.86 165.85C172.8 164.09 172.7 162.34 172.7 160.58C172.7 157.13 173.38 153.88 175.7 151.16C175.884 150.95 176.029 150.71 176.13 150.45C176.175 150.358 176.194 150.255 176.185 150.153C176.176 150.051 176.139 149.953 176.078 149.871C176.017 149.788 175.935 149.724 175.84 149.685C175.745 149.646 175.641 149.634 175.54 149.65C175.12 149.71 174.73 149.9 174.32 149.97C173.556 150.139 172.758 150.031 172.067 149.664C171.376 149.298 170.838 148.697 170.55 147.97C170.311 147.386 170.166 146.769 170.12 146.14C170.089 145.438 170.122 144.735 170.22 144.04C170.38 142.65 170.61 141.26 170.75 139.86C171.66 131.2 169.3 123.6 163.27 117.24C162.16 116.172 160.988 115.17 159.76 114.24C159.479 114.035 159.159 113.889 158.82 113.81C158.721 113.797 158.62 113.806 158.525 113.838C158.429 113.869 158.342 113.921 158.27 113.99C158.207 114.065 158.162 114.154 158.14 114.25C158.117 114.345 158.117 114.445 158.14 114.54C158.436 115.095 158.771 115.63 159.14 116.14C161.204 119.002 162.511 122.338 162.94 125.84C163.448 129.818 163.292 133.853 162.48 137.78C161.32 143.86 158.38 148.78 153.07 152.15C152.594 152.457 152.137 152.79 151.7 153.15C151.604 153.228 151.531 153.332 151.489 153.448C151.448 153.565 151.439 153.691 151.463 153.813C151.488 153.934 151.545 154.046 151.63 154.138C151.714 154.229 151.821 154.295 151.94 154.33C153.84 155.02 155.74 155.33 157.65 154.33C158.01 154.14 158.4 154.02 158.83 153.84C158.937 154.056 159.018 154.285 159.07 154.52C159.334 157.674 159.146 160.85 158.51 163.95C156.73 172.341 152.213 179.903 145.67 185.45C143.889 187.159 141.731 188.427 139.37 189.15C139.19 189.2 139.04 189.38 138.77 189.57C138.77 190.22 138.77 190.91 138.77 191.57C138.9 195.22 139.17 198.87 139.14 202.52C139.03 214.67 138.95 226.82 139.24 238.97C139.24 240.3 139.3 241.64 139.37 242.97C139.335 243.286 139.369 243.606 139.469 243.908C139.569 244.21 139.733 244.487 139.95 244.72C140.73 244.34 140.63 243.52 140.82 242.9C142.471 237.014 144.877 231.367 147.98 226.1C149.59 223.49 151.34 221.1 154.11 219.6C154.55 219.36 155.01 219.06 154.92 218.48C154.83 217.9 154.24 217.83 153.8 217.64C153.6 217.56 153.4 217.51 153.2 217.45C150.913 216.609 148.438 216.418 146.05 216.9C146.045 216.442 146.072 215.984 146.13 215.53C146.37 214.36 146.63 213.19 146.92 212.04C148.046 207.596 150.155 203.462 153.09 199.94C154.631 198.11 156.462 196.546 158.51 195.31C158.929 195.049 159.375 194.834 159.84 194.67C160.095 194.544 160.373 194.473 160.658 194.463C160.942 194.453 161.225 194.503 161.488 194.611C161.751 194.719 161.988 194.882 162.183 195.088C162.378 195.295 162.527 195.541 162.62 195.81C162.98 196.567 163.197 197.384 163.26 198.22C163.318 199.201 163.251 200.186 163.06 201.15C162.382 204.169 161.224 207.059 159.63 209.71C159.32 210.26 158.99 210.8 158.69 211.36C158.51 211.68 158.43 212.08 158.8 212.28C158.97 212.37 159.32 212.28 159.55 212.14C159.733 212.029 159.898 211.891 160.04 211.73C168.918 203.801 176.195 194.246 181.48 183.58C183.632 179.234 185.263 174.649 186.34 169.92C186.57 168.893 186.721 167.85 186.79 166.8C186.79 166.47 186.53 166.11 186.35 165.67C185.44 166.29 185.35 167.18 185.03 167.93C182.252 174.744 177.493 180.569 171.37 184.65C170.615 185.253 169.715 185.646 168.76 185.79ZM85.8799 165.65C85.6899 165.97 85.4399 166.2 85.4399 166.43C85.4218 167.06 85.4687 167.69 85.5799 168.31C86.606 173.77 88.4111 179.054 90.9399 184C96.1752 194.456 103.345 203.825 112.07 211.61C112.382 211.882 112.716 212.126 113.07 212.34C113.15 212.34 113.35 212.34 113.45 212.25C113.55 212.16 113.65 212 113.62 211.9C113.504 211.504 113.354 211.119 113.17 210.75C112.49 209.44 111.75 208.17 111.11 206.84C110.185 205.023 109.512 203.089 109.11 201.09C108.79 199.715 108.79 198.285 109.11 196.91C109.7 194.79 110.9 193.7 113.36 195.11C115.265 196.175 116.979 197.55 118.43 199.18C120.599 201.582 122.362 204.321 123.65 207.29C124.783 210.09 125.615 213.003 126.13 215.98C126.162 216.272 126.162 216.568 126.13 216.86L125.23 216.73C122.704 216.437 120.145 216.838 117.83 217.89C117.692 217.929 117.568 218.007 117.474 218.115C117.38 218.223 117.319 218.356 117.299 218.498C117.279 218.64 117.3 218.785 117.361 218.915C117.421 219.045 117.518 219.154 117.64 219.23C117.955 219.491 118.29 219.728 118.64 219.94C120.41 220.974 121.901 222.427 122.98 224.17C125.341 227.664 127.29 231.419 128.79 235.36C129.79 238.14 130.67 240.94 131.6 243.74C131.73 244.12 131.72 244.6 132.36 244.66C132.707 244.075 132.874 243.4 132.84 242.72C132.91 241.52 132.94 240.33 132.96 239.14L133.17 225.44C133.17 223.76 133.22 222.07 133.17 220.39C133.05 210.56 132.7 200.73 133.42 190.9C133.418 190.35 133.368 189.801 133.27 189.26C130.583 188.503 128.133 187.075 126.15 185.11C124.734 183.84 123.398 182.484 122.15 181.05C115.799 173.925 112.518 164.581 113.02 155.05C113.02 154.66 113.12 154.28 113.2 153.72C113.75 153.94 114.14 154.07 114.5 154.26C116.42 155.26 118.32 154.9 120.21 154.26C120.329 154.225 120.436 154.157 120.519 154.064C120.602 153.971 120.658 153.857 120.68 153.735C120.701 153.612 120.689 153.486 120.643 153.371C120.597 153.255 120.52 153.154 120.42 153.08C119.75 152.57 119.04 152.08 118.34 151.63C114.453 149.028 111.618 145.129 110.34 140.63C109.154 136.559 108.701 132.31 109 128.08C109.14 123.552 110.692 119.181 113.44 115.58C113.673 115.319 113.857 115.018 113.98 114.69C114.018 114.565 114.029 114.434 114.012 114.304C113.994 114.175 113.949 114.051 113.88 113.94C113.775 113.859 113.65 113.807 113.519 113.788C113.388 113.769 113.254 113.783 113.13 113.83C112.391 114.233 111.691 114.705 111.04 115.24C108.08 117.685 105.677 120.734 103.992 124.183C102.307 127.633 101.379 131.403 101.27 135.24C101.245 138.049 101.455 140.856 101.9 143.63C102.026 144.46 102.083 145.3 102.07 146.14C101.95 148.89 99.6899 150.77 97.2199 149.74C96.836 149.675 96.4439 149.675 96.0599 149.74C95.8399 150.66 96.4899 151.1 96.8899 151.64C98.2518 153.364 99.0761 155.451 99.2599 157.64C99.3999 159.31 99.4499 161 99.4499 162.64C99.4499 164.28 99.3199 166.29 99.2999 168.11C99.2325 173.043 100.257 177.93 102.3 182.42C102.65 183.19 103.01 183.95 103.3 184.74C103.349 185.072 103.349 185.408 103.3 185.74C102.239 185.477 101.246 184.99 100.39 184.31C94.3898 180.18 89.7423 174.37 87.0299 167.61C86.8701 167.146 86.6831 166.692 86.4699 166.25C86.2981 166.027 86.1 165.826 85.8799 165.65ZM125.52 247.71C125.774 247.655 125.996 247.503 126.14 247.286C126.284 247.069 126.338 246.805 126.29 246.55C126.111 245.587 125.863 244.638 125.55 243.71C124.665 241.276 123.55 238.932 122.22 236.71C118.673 230.557 114.242 224.957 109.07 220.09C106.5 217.7 103.94 215.29 101.49 212.78C95.5572 206.772 90.73 199.764 87.2299 192.08C85.0015 187.228 83.3922 182.114 82.4399 176.86C82.1831 175.26 81.5222 173.753 80.5199 172.48C79.8599 171.66 79.2399 170.81 78.5999 169.98C75.3767 165.902 72.3724 161.656 69.5999 157.26C63.4499 147.26 58.7499 136.67 56.4699 125.09C55.9499 122.48 55.4699 119.84 55.0099 117.23C54.8973 116.685 54.7228 116.155 54.4899 115.65C54.4337 115.57 54.3589 115.504 54.2719 115.458C54.1848 115.413 54.0881 115.389 53.9899 115.389C53.8918 115.389 53.7951 115.413 53.708 115.458C53.621 115.504 53.5462 115.57 53.4899 115.65C53.2485 116.296 53.0775 116.967 52.9799 117.65C52.5006 121.631 52.3868 125.648 52.6399 129.65C52.9299 133.21 53.2499 136.78 53.7699 140.32C54.6968 147.077 56.4742 153.689 59.0599 160C60.953 164.381 63.1865 168.608 65.7399 172.64C66.7928 174.299 67.7348 176.026 68.5599 177.81C69.8611 180.62 70.2761 183.759 69.7499 186.81C69.3903 188.748 68.6822 190.605 67.66 192.29C67.16 193.14 66.6599 193.97 66.2099 194.85C66.1387 195.007 66.1018 195.178 66.1018 195.35C66.1018 195.522 66.1387 195.693 66.2099 195.85C66.3319 196.027 66.5162 196.151 66.7258 196.197C66.9354 196.243 67.1548 196.209 67.3399 196.1C67.9799 195.82 68.6199 195.54 69.2499 195.23C70.3899 194.68 71.4899 194.05 72.6399 193.54C75.5499 192.27 77.5399 192.83 79.3999 195.44C80.0518 196.355 80.6334 197.317 81.1399 198.32C82.3499 200.78 83.54 203.24 84.66 205.74C86.942 210.822 90.3883 215.296 94.7199 218.8C96.3499 220.13 98.0499 221.38 99.7999 222.55C102.42 224.32 105.09 226 107.8 227.69C110.593 229.453 113.185 231.515 115.53 233.84C119.002 237.326 121.94 241.306 124.25 245.65C124.529 246.416 124.961 247.117 125.52 247.71ZM146.46 247.71C147.3 247.33 147.46 246.6 147.78 246C151.851 238.077 158.054 231.448 165.69 226.86C168.4 225.23 171.03 223.47 173.64 221.69C180.178 217.461 185.279 211.349 188.27 204.16C189.19 201.89 190.37 199.72 191.5 197.54C191.987 196.607 192.563 195.723 193.22 194.9C193.823 193.972 194.746 193.298 195.813 193.005C196.88 192.712 198.018 192.82 199.01 193.31C200.01 193.7 201.01 194.24 202.06 194.73C202.75 195.07 203.42 195.46 204.12 195.79C204.505 195.955 204.908 196.076 205.32 196.15C205.442 196.163 205.565 196.146 205.68 196.102C205.794 196.057 205.896 195.986 205.977 195.894C206.058 195.802 206.116 195.692 206.146 195.573C206.176 195.454 206.178 195.329 206.15 195.21C205.93 194.695 205.68 194.195 205.4 193.71C204.92 192.85 204.4 192.03 203.93 191.15C202.442 188.332 201.915 185.105 202.43 181.96C202.782 179.809 203.503 177.736 204.56 175.83C205.42 174.3 206.33 172.83 207.26 171.31C211.249 165.009 214.282 158.151 216.26 150.96C217.614 145.871 218.577 140.686 219.14 135.45C219.826 129.657 219.893 123.807 219.34 118C219.275 117.441 219.175 116.886 219.04 116.34C218.87 115.58 218.58 115.26 218.19 115.34C217.6 115.45 217.46 115.94 217.35 116.42C217.24 116.9 217.09 117.66 216.98 118.28C216.8 119.28 216.64 120.36 216.46 121.4C215.009 130.066 212.339 138.482 208.53 146.4C205.052 153.624 200.854 160.479 196 166.86L191.53 172.72C190.678 173.844 190.103 175.153 189.85 176.54C189.43 178.67 188.97 180.8 188.37 182.89C185.094 194.141 179.054 204.392 170.8 212.71C168.25 215.33 165.57 217.82 162.91 220.31C157.701 225.249 153.258 230.939 149.73 237.19C148.334 239.55 147.207 242.059 146.37 244.67C146.148 245.333 146.013 246.022 145.97 246.72C145.93 247.05 146.27 247.4 146.46 247.75V247.71ZM47.7999 167.71C47.8071 171.373 48.2094 175.024 48.9999 178.6C49.6999 182.04 50.4999 185.45 51.2499 188.88C52.4799 194.58 54.1299 200.17 55.8399 205.73C56.203 207.016 56.654 208.276 57.1899 209.5C59.1899 213.76 61.1899 218.03 63.2599 222.23C64.5599 224.79 66.1899 227.23 67.4899 229.75C68.7899 232.27 70.2999 234.93 71.8399 237.45C75.9862 244.461 80.6315 251.165 85.7399 257.51C87.8999 260.1 90.16 262.6 92.41 265.11C92.8759 265.622 93.411 266.066 93.9999 266.43C94.3534 266.669 94.7811 266.774 95.2051 266.724C95.6292 266.675 96.0213 266.475 96.3099 266.16C96.5899 265.842 96.7573 265.44 96.7862 265.017C96.8151 264.594 96.704 264.173 96.4699 263.82C96.1271 263.377 95.7564 262.956 95.3599 262.56C94.3599 261.56 93.4199 260.56 92.5199 259.46C88.9489 255.209 85.6363 250.748 82.5999 246.1C78.5402 240.117 74.8145 233.914 71.4399 227.52C71.1299 226.89 70.7799 226.28 70.4399 225.68C66.8399 219.88 64.0599 213.68 61.1199 207.52C60.757 206.761 60.443 205.979 60.1799 205.18C58.9899 201.58 57.7399 198 56.6899 194.36C55.1699 189.1 53.7899 183.81 52.3899 178.52C51.2986 174.741 50.5917 170.861 50.2799 166.94C50.1999 165.54 50.0499 164.14 49.8999 162.74C49.8378 162.261 49.7204 161.792 49.5499 161.34C49.495 161.255 49.4195 161.184 49.3305 161.135C49.2414 161.086 49.1415 161.06 49.0399 161.06C48.7805 161.1 48.547 161.24 48.3899 161.45C48.2513 161.765 48.1798 162.106 48.1799 162.45C47.9999 164.22 47.9099 166 47.7999 167.72V167.71ZM234.51 145.3C234.27 138.75 234.3 133.14 233.81 127.53C233.23 120.75 232.89 113.94 232.39 107.15C232.18 104.42 231.88 101.7 231.55 98.98C231.394 97.942 231.153 96.9185 230.83 95.92C230.751 95.7747 230.639 95.6495 230.504 95.5542C230.369 95.4588 230.213 95.3958 230.05 95.37C229.65 95.37 229.48 95.71 229.44 96.08C229.425 96.3598 229.425 96.6402 229.44 96.92C229.44 101.62 229.44 106.33 229.53 111.03C229.57 114.117 229.657 117.203 229.79 120.29C229.98 124.78 230.35 129.29 230.43 133.76C230.53 139.93 230.43 146.12 230.43 152.29C230.439 156.507 230.131 160.719 229.51 164.89C228.88 169.19 228.34 173.51 227.51 177.78C226.29 184.19 224.6 190.5 222.93 196.78C222.177 199.775 221.259 202.726 220.18 205.62C219.945 206.262 219.81 206.937 219.78 207.62C219.808 207.784 219.877 207.939 219.98 208.07C220.083 208.201 220.217 208.304 220.37 208.37C220.534 208.394 220.701 208.384 220.861 208.341C221.021 208.298 221.17 208.223 221.3 208.12C221.543 207.864 221.724 207.557 221.83 207.22C222.7 205.16 223.68 203.12 224.39 201C225.85 196.61 227.21 192.18 228.52 187.74C229.37 184.84 230.21 181.94 230.81 178.98C231.75 174.31 232.54 169.6 233.29 164.89C233.708 162.327 233.992 159.743 234.14 157.15C234.37 152.94 234.41 148.66 234.51 145.31V145.3ZM175.88 166C176.249 165.907 176.605 165.77 176.94 165.59C177.99 164.89 179.02 164.16 180.02 163.38C185.918 158.875 191.586 154.076 197 149C200 146.14 202.71 143 205.57 140C205.847 139.732 206.063 139.408 206.203 139.049C206.343 138.69 206.403 138.305 206.38 137.92C206.38 137.36 206.38 136.8 206.28 136.24C206.15 135.24 205.54 134.96 204.64 135.47C204.092 135.773 203.561 136.107 203.05 136.47C199.05 139.36 195.1 142.23 191.16 145.17C187.45 147.93 183.69 150.64 179.73 153.04C179.146 153.358 178.638 153.799 178.241 154.333C177.844 154.866 177.567 155.479 177.43 156.13C176.82 158.87 176.17 161.59 175.56 164.33C175.442 164.609 175.41 164.916 175.467 165.214C175.524 165.511 175.667 165.784 175.88 166ZM96.6699 165.88C96.7206 165.388 96.7206 164.892 96.6699 164.4C96.0699 161.66 95.4099 158.94 94.8099 156.2C94.6818 155.547 94.4134 154.93 94.0231 154.391C93.6329 153.853 93.1302 153.405 92.5499 153.08C88.143 150.334 83.8775 147.367 79.7699 144.19C76.2399 141.54 72.6299 138.98 69.0499 136.39C68.543 136.021 68.0118 135.687 67.4599 135.39C66.6799 134.97 66.0799 135.28 65.9599 136.17C65.8899 136.72 65.8699 137.29 65.8399 137.85C65.8114 138.235 65.8654 138.621 65.9982 138.983C66.131 139.345 66.3395 139.675 66.6099 139.95C69.6099 143.09 72.5099 146.35 75.6099 149.36C80.3099 153.89 85.3699 158.02 90.4799 162.08C91.8599 163.17 93.2599 164.22 94.6799 165.25C94.9336 165.512 95.2475 165.708 95.5943 165.822C95.9412 165.935 96.3104 165.962 96.6699 165.9V165.88ZM132.09 181.82C132.09 181.61 132.09 181.39 132.09 181.19C132.209 180.459 132.097 179.71 131.771 179.045C131.445 178.38 130.921 177.833 130.27 177.48C128.426 176.171 126.979 174.379 126.09 172.3C125.84 171.8 125.62 171.3 125.32 170.81C125.24 170.67 124.91 170.52 124.79 170.58C124.67 170.64 124.28 170.96 124.29 171.15C124.29 172.05 124.44 172.96 124.56 173.86C124.831 176.374 125.482 178.832 126.49 181.15C127.021 182.461 127.929 183.586 129.1 184.38C129.635 184.698 130.225 184.912 130.84 185.01C130.997 185.04 131.16 185.035 131.315 184.993C131.47 184.952 131.613 184.876 131.735 184.771C131.856 184.666 131.952 184.535 132.015 184.387C132.078 184.24 132.107 184.08 132.1 183.92C132.12 183.24 132.09 182.54 132.09 181.84V181.82ZM140.15 181.82C140.15 182.52 140.15 183.22 140.15 183.92C140.146 184.08 140.179 184.238 140.246 184.384C140.312 184.529 140.41 184.658 140.534 184.76C140.657 184.861 140.801 184.934 140.957 184.972C141.112 185.011 141.274 185.013 141.43 184.98C141.911 184.91 142.377 184.761 142.81 184.54C143.748 184.043 144.522 183.286 145.04 182.36C145.587 181.399 146.055 180.396 146.44 179.36C147.198 177.095 147.665 174.743 147.83 172.36C147.83 171.77 148.34 170.92 147.58 170.67C146.58 170.35 146.58 171.41 146.32 171.98C145.377 174.104 143.932 175.967 142.11 177.41C140.11 178.89 140.11 178.84 140.11 181.41L140.15 181.82Z" fill="#DAC0A3"/>
</g>
<defs>
<clipPath id="clip0_140_1232">
<rect width="277.04" height="350.48" fill="white"/>
</clipPath>
</defs>
</svg>
