<svg width="233" height="374" viewBox="0 0 233 374" fill="none" xmlns="http://www.w3.org/2000/svg">
<g clip-path="url(#clip0_140_1300)">
<path fill-rule="evenodd" clip-rule="evenodd" d="M154.179 16.1138L167.528 44.6172L146.782 54.6004C139.557 57.5258 137.138 60.7061 132.316 63.7581C124.857 53.8921 117.887 39.8546 110.892 28.8019C99.2488 8.52587 136.458 -17.3555 154.179 16.1138ZM26.7499 99.84L71.4226 150.064C74.731 156.737 70.4867 165.182 61.6267 167.998C57.5461 169.294 52.5265 168.242 47.822 164.735L33.4479 154.017L20.746 141.307L7.56684 130.869C-7.13166 115.779 2.08396 101.446 14.0387 98.0498C19.7431 96.4284 23.2917 95.9468 26.7546 99.84H26.7499ZM24.4538 88.2088C21.1064 81.6419 24.1637 68.0391 28.7996 64.2319C55.8958 45.0706 69.1998 75.824 81.9719 93.4701C86.8714 100.24 94.889 108.002 100.303 114.977C103.021 118.886 105.07 125.185 105.02 130.218C104.952 137.135 101.81 142.57 99.1443 144.299C85.6843 155.122 75.5655 144.74 64.6045 132.468C60.7968 128.211 38.5284 104.288 28.8822 93.4483C26.3444 90.5979 24.68 88.6529 24.4538 88.2088ZM125.521 67.7842C113.592 71.826 106.647 75.53 102.715 78.1959C99.8181 80.1581 98.6685 80.8539 97.7716 84.2828C96.2991 89.8881 103.543 102.007 110.601 108.141C112.422 109.72 112.494 109.42 111.94 109.726C111.45 109.997 110.564 110.477 108.274 110.005C106.731 109.692 106.111 108.97 105.407 108.257C101.386 104.191 92.961 94.9665 87.4563 86.5999C80.0205 75.283 70.34 64.6868 62.6266 53.3293C55.9644 38.116 59.3774 29.2663 69.922 22.1381C80.3621 15.0818 96.1088 17.4647 102.888 28.8801C109.686 40.3299 119.797 56.1311 125.521 67.7842ZM127.141 243.555C105.477 252.267 100.862 250.678 76.347 247.431C77.8008 249.401 81.9999 252.037 84.6688 253.891C99.5514 256.671 99.3049 282.9 103.556 297.888L100.664 263.548C100.846 257.047 103.871 257.294 107.139 257.264C115.672 257.173 112.823 296.464 115.151 294.132C115.775 293.507 115.474 275.103 114.629 262.749C113.893 252.006 119.681 252.484 127.141 243.555ZM104.749 161.408C109.864 153.137 117.051 145.569 124.415 140.112C141.201 127.679 158.918 121.223 159.445 120.724C153.423 114.389 156.586 110.353 153.16 112.975C150.262 115.192 138.209 118.975 128.317 117.197C119.622 115.633 112.874 115.946 113.213 119.877C114.493 134.777 113.755 140.528 103.673 149.6C101.186 151.836 92.4822 155.666 84.0028 155.362C82.9561 155.324 80.7162 154.666 81.0734 155.518C86.5984 168.652 63.9337 176.843 62.4487 177.251C56.2951 178.732 50.1945 178.227 44.8458 172.776C33.7708 161.484 16.1148 147.658 5.0352 136.364C4.45338 140.305 9.5151 147.086 9.47298 154.261C9.45115 158.776 12.9125 161.877 14.9231 162.53C15.1633 162.609 18.5435 162.607 18.9319 162.402C18.985 162.374 17.5671 163.153 16.2802 163.312C14.5877 163.522 14.8857 164.233 15.2741 165.188C15.6459 166.171 15.9334 167.183 16.1336 168.214C22.0844 213.4 34.3386 214.279 39.2677 224.189C50.2148 246.197 50.5439 242.16 50.2819 268.087C50.1197 284.721 50.6656 351.798 50.6781 374L174.822 324.481L167.589 274.568C165.652 262.117 163.984 249.504 161.896 237.121C161.241 233.237 196.74 205.889 232.198 130.163C235.758 121.325 226.573 111.432 222.023 104.085C213.042 89.5801 199.697 72.0089 192.205 57.4539C181.378 43.199 186.902 39.2355 148.217 57.887C146.172 58.711 139.768 62.9795 135.426 67.2948C134.403 68.3111 133.477 69.6073 132.098 70.1593C120.004 75.0062 105.987 81.3949 105.064 83.1289C102.17 93.4686 115.323 105.255 124.04 107.928C132.193 110.43 157.807 106.917 161.1 101.773C158.423 106.557 166.929 120.691 170.899 123.318C102.964 145.693 105.125 169.546 97.2475 221.85C95.2057 205.265 94.9561 193.951 99.0944 176.218C99.1458 176 99.4968 171.214 98.3144 169.612C95.9138 166.375 92.0391 164.261 90.654 158.987C90.5744 158.687 91.0642 158.77 91.1329 159.389C91.2779 160.732 94.1356 164.349 97.2569 166.03C102.308 168.749 102.417 165.19 104.755 161.408H104.749Z" fill="#DAC0A3"/>
</g>
<defs>
<clipPath id="clip0_140_1300">
<rect width="233" height="374" fill="white"/>
</clipPath>
</defs>
</svg>
