<svg width="270" height="277" viewBox="0 0 270 277" fill="none" xmlns="http://www.w3.org/2000/svg">
<g clip-path="url(#clip0_195_680)">
<path d="M94.1113 139.458L107.641 144.862L107.654 144.889C107.665 144.912 107.676 144.936 107.687 144.96C105.074 145.174 101.642 145.784 100.017 147.191C97.3256 149.52 92.392 149.52 88.804 149.52C85.9336 149.52 78.6379 145.794 75.3488 143.931L84.7674 140.204L94.1113 139.458Z" fill="#DAC0A3"/>
<path d="M175.889 139.458L162.359 144.862L162.346 144.889L162.331 144.919L162.313 144.96C164.926 145.174 168.358 145.784 169.983 147.191C172.674 149.52 177.608 149.52 181.196 149.52C184.066 149.52 191.362 145.794 194.651 143.931L185.233 140.204L175.889 139.458Z" fill="#DAC0A3"/>
<path fill-rule="evenodd" clip-rule="evenodd" d="M78.4884 24.6871C86.7409 17.9797 120.498 5.43427 135.449 0C150.399 5.43427 183.259 17.9797 191.512 24.6871C198.987 34.9346 214.385 58.4106 216.179 70.335L218.87 111.791L232.326 102.009H270C263.123 108.22 247.664 124.367 240.847 139.273L236.362 135.08L229.635 141.602L227.841 148.123L230.98 160.233L229.635 175.139L221.561 184.455L213.937 173.741L215.282 161.165L216.179 164.891L223.804 168.618L220.216 156.507L225.15 150.452V135.08H233.671C240.399 127.472 254.661 111.418 257.89 108.064L220.216 126.696L212.143 117.38L220.216 137.875L206.312 173.741L197.791 176.536H206.312L212.143 184.455L210.797 232.432L189.718 248.269C188.073 244.076 184.784 235.04 184.784 232.432V252.461L154.734 276.216H115.266L85.2159 252.461V232.432C85.2159 235.04 81.9269 244.076 80.2824 248.269L59.2027 232.432L57.8571 184.455L63.6877 176.536H72.2093L63.6877 173.741L49.7841 137.875L57.8571 117.38L49.7841 126.696L12.1096 108.064C15.3389 111.418 29.6013 127.472 36.3289 135.08H44.8505V150.452L49.7841 156.507L46.196 168.618L53.8206 164.891L54.7176 161.165L56.0631 173.741L48.4385 184.455L40.3654 175.139L39.0199 160.233L42.1595 148.123L40.3654 141.602L33.6379 135.08L29.1528 139.273C22.3355 124.367 6.87708 108.22 0 102.009H37.6744L51.1296 111.791L53.8206 70.335C55.6146 58.4106 71.0133 34.9346 78.4884 24.6871ZM119.302 143.931C124.326 142.44 127.076 142.378 127.824 142.533C126.628 143.309 124.056 145.235 123.339 146.725C122.621 148.216 124.236 151.383 125.133 152.781H119.302C118.854 154.644 117.867 158.65 117.508 159.768C117.15 160.885 114.07 160.854 112.575 160.699C111.08 159.923 107.372 158.184 104.502 157.439C102.164 156.832 99.0722 158.243 97.117 159.459C100.809 156.933 106.798 152.725 108.09 151.383C108.5 150.957 108.7 150.368 108.759 149.709C106.276 149.874 102.025 150.862 98.2226 151.849C93.9006 152.971 92.76 152.591 87.8332 150.951L87.8322 150.951C86.624 150.548 85.1882 150.07 83.4219 149.52C76.2458 147.284 74.1528 144.552 74.0033 143.465C76.3954 142.067 81.6279 139.086 83.4219 138.341C84.5528 137.871 86.9311 137.624 89.0966 137.505C86.5719 136.543 83.5499 134.92 80.6921 133.385C76.9246 131.361 73.4421 129.491 71.7608 129.491C69.2492 129.491 66.5282 131.044 65.4817 131.82L69.0698 126.696L75.7973 119.709C79.9834 122.038 88.8937 127.069 91.0465 128.559C93.1993 130.05 98.5216 136.012 100.914 138.807C106.296 143.465 113.023 145.794 119.302 143.931ZM95.9801 160.233C96.3242 160 96.7064 159.74 97.117 159.459C96.6716 159.736 96.2852 160.003 95.9801 160.233ZM108.987 168.618C109.704 167.127 112.575 165.823 113.92 165.357C110.691 168.711 110.183 173.897 110.332 176.07L135 197.031L159.668 176.07C159.817 173.897 159.309 168.711 156.08 165.357C157.425 165.823 160.296 167.127 161.013 168.618C161.731 170.108 164.003 180.418 165.05 185.386L135.706 201.761L137.243 210.539C142.266 210.912 147.708 211.005 149.801 211.005C156.259 212.123 179.701 223.581 190.615 229.171C182.362 225.072 157.874 218.147 146.661 215.197H123.339C112.126 218.147 87.6379 225.072 79.3854 229.171C90.299 223.581 113.741 212.123 120.199 211.005C122.292 211.005 127.734 210.912 132.757 210.539L134.294 201.761L104.95 185.386C105.997 180.418 108.269 170.108 108.987 168.618ZM77.1429 215.197V224.513C77.7048 216.926 84.3536 204.084 89.7245 195.067L93.7375 188.647C92.6024 190.365 91.2125 192.569 89.7245 195.067L77.1429 215.197ZM161.013 247.337L146.213 237.555H123.787L108.987 247.337L123.339 241.282H146.661L161.013 247.337ZM126.478 134.615C127.196 135.733 127.973 138.807 128.272 140.204H130.066C129.468 138.807 128.272 135.639 128.272 134.149C128.272 132.658 128.87 130.733 129.169 129.957L126.478 134.615ZM150.698 143.931C145.674 142.44 142.924 142.378 142.176 142.533C143.372 143.309 145.944 145.235 146.661 146.725C147.379 148.216 145.764 151.383 144.867 152.781H150.698C151.146 154.644 152.133 158.65 152.492 159.768C152.85 160.885 155.93 160.854 157.425 160.699C158.92 159.923 162.628 158.184 165.498 157.439C167.836 156.832 170.928 158.243 172.883 159.459C173.294 159.74 173.676 160 174.02 160.233C173.715 160.003 173.328 159.736 172.883 159.459C169.191 156.933 163.202 152.725 161.91 151.383C161.5 150.957 161.3 150.368 161.241 149.709C163.724 149.874 167.975 150.862 171.777 151.849C176.099 152.971 177.24 152.591 182.167 150.951L182.168 150.951C183.376 150.548 184.812 150.07 186.578 149.52C193.754 147.284 195.847 144.552 195.997 143.465C193.605 142.067 188.372 139.086 186.578 138.341C185.447 137.871 183.069 137.624 180.903 137.505C183.428 136.543 186.45 134.92 189.308 133.385C193.075 131.361 196.558 129.491 198.239 129.491C200.751 129.491 203.472 131.044 204.518 131.82L200.93 126.696L194.203 119.709C190.017 122.038 181.106 127.069 178.953 128.559C176.801 130.05 171.478 136.012 169.086 138.807C163.704 143.465 156.977 145.794 150.698 143.931ZM192.857 224.513V215.197L180.276 195.067C178.788 192.569 177.398 190.365 176.262 188.647L180.276 195.067C185.646 204.084 192.295 216.926 192.857 224.513ZM141.728 140.204C142.027 138.807 142.804 135.733 143.522 134.615L140.831 129.957C141.13 130.733 141.728 132.658 141.728 134.149C141.728 135.639 140.532 138.807 139.934 140.204H141.728Z" fill="#DAC0A3"/>
</g>
<defs>
<clipPath id="clip0_195_680">
<rect width="270" height="276.216" fill="white"/>
</clipPath>
</defs>
</svg>
