<svg width="95" height="88" viewBox="0 0 95 88" fill="none" xmlns="http://www.w3.org/2000/svg">
<path fill-rule="evenodd" clip-rule="evenodd" d="M17.8352 13.402C12.8366 10.8763 3.4561 5.23131 0.513482 0C-0.694555 5.77174 -0.471931 18.2199 9.13664 24.6019C5.85991 30.6715 4 37.6185 4 45C4 68.7482 23.2518 88 47 88C70.7482 88 90 68.7482 90 45C90 37.6974 88.1796 30.8201 84.9679 24.7969C94.8712 18.4766 95.1109 5.83108 93.8905 0C90.8956 5.32421 81.2321 11.0769 76.3066 13.5336C68.627 6.37788 58.3247 2 47 2C35.7449 2 25.4997 6.32425 17.8352 13.402ZM47 83C67.9868 83 85 65.9868 85 45C85 24.0132 67.9868 7 47 7C26.0132 7 9 24.0132 9 45C9 65.9868 26.0132 83 47 83Z" fill="#D9D9D9"/>
<path fill-rule="evenodd" clip-rule="evenodd" d="M30 57.5H64V62.5H30V57.5Z" fill="#D9D9D9"/>
<path d="M38 40.5C38 43.5376 35.5376 46 32.5 46C29.4624 46 27 43.5376 27 40.5C27 37.4624 29.4624 35 32.5 35C35.5376 35 38 37.4624 38 40.5Z" fill="#D9D9D9"/>
<path d="M68 40.5C68 43.5376 65.5376 46 62.5 46C59.4624 46 57 43.5376 57 40.5C57 37.4624 59.4624 35 62.5 35C65.5376 35 68 37.4624 68 40.5Z" fill="#D9D9D9"/>
</svg>
